<svg width="40" height="40" viewBox="0 0 40 40" fill="none" xmlns="http://www.w3.org/2000/svg">
<rect width="40" height="40" rx="20" fill="#E4F0EB"/>
<path d="M26 21C25.06 21 24.19 21.33 23.5 21.88C22.58 22.61 22 23.74 22 25C22 25.75 22.21 26.46 22.58 27.06C23.27 28.22 24.54 29 26 29C27.01 29 27.93 28.63 28.63 28C28.94 27.74 29.21 27.42 29.42 27.06C29.79 26.46 30 25.75 30 25C30 22.79 28.21 21 26 21ZM28.07 24.57L25.94 26.54C25.8 26.67 25.61 26.74 25.43 26.74C25.24 26.74 25.05 26.67 24.9 26.52L23.91 25.53C23.62 25.24 23.62 24.76 23.91 24.47C24.2 24.18 24.68 24.18 24.97 24.47L25.45 24.95L27.05 23.47C27.35 23.19 27.83 23.21 28.11 23.51C28.39 23.81 28.37 24.28 28.07 24.57Z" fill="#38A273"/>
<path opacity="0.4" d="M29.0901 29.5C29.0901 29.78 28.8701 30 28.5901 30H11.4102C11.1302 30 10.9102 29.78 10.9102 29.5C10.9102 25.36 14.9902 22 20.0002 22C21.0302 22 22.0302 22.14 22.9502 22.41C22.3602 23.11 22.0002 24.02 22.0002 25C22.0002 25.75 22.2101 26.46 22.5801 27.06C22.7801 27.4 23.0401 27.71 23.3401 27.97C24.0401 28.61 24.9702 29 26.0002 29C27.1202 29 28.1302 28.54 28.8502 27.8C29.0102 28.34 29.0901 28.91 29.0901 29.5Z" fill="#38A273"/>
<path d="M20 20C22.7614 20 25 17.7614 25 15C25 12.2386 22.7614 10 20 10C17.2386 10 15 12.2386 15 15C15 17.7614 17.2386 20 20 20Z" fill="#38A273"/>
</svg>
