<svg width="44" height="40" viewBox="0 0 44 40" fill="none" xmlns="http://www.w3.org/2000/svg">
<rect width="44" height="40" rx="8" fill="#E8FEF5"/>
<path opacity="0.4" d="M18 30H26C28.76 30 31 27.76 31 25V15C31 12.24 28.76 10 26 10H18C15.24 10 13 12.24 13 15V25C13 27.76 15.24 30 18 30Z" fill="#189261"/>
<path d="M24.9991 13.7109H18.9991C17.9691 13.7109 17.1191 14.5509 17.1191 15.5909V16.5909C17.1191 17.6209 17.9591 18.4709 18.9991 18.4709H24.9991C26.0291 18.4709 26.8791 17.6309 26.8791 16.5909V15.5909C26.8791 14.5509 26.0391 13.7109 24.9991 13.7109Z" fill="#189261"/>
<path d="M18.1604 22.9208C18.0204 22.9208 17.8904 22.8908 17.7704 22.8408C17.6504 22.7908 17.5404 22.7208 17.4504 22.6308C17.2604 22.4408 17.1504 22.1908 17.1504 21.9208C17.1504 21.7908 17.1804 21.6608 17.2304 21.5408C17.2804 21.4108 17.3504 21.3108 17.4504 21.2108C17.6804 20.9808 18.0304 20.8708 18.3504 20.9408C18.4104 20.9508 18.4804 20.9708 18.5404 21.0008C18.6004 21.0208 18.6604 21.0508 18.7104 21.0908C18.7704 21.1208 18.8204 21.1708 18.8604 21.2108C18.9504 21.3108 19.0304 21.4108 19.0804 21.5408C19.1304 21.6608 19.1504 21.7908 19.1504 21.9208C19.1504 22.1908 19.0504 22.4408 18.8604 22.6308C18.6704 22.8208 18.4204 22.9208 18.1604 22.9208Z" fill="#189261"/>
<path d="M22.1504 22.9191C21.8904 22.9191 21.6404 22.8191 21.4504 22.6291C21.2604 22.4391 21.1504 22.1891 21.1504 21.9191C21.1504 21.6591 21.2604 21.3991 21.4504 21.2091C21.8204 20.8391 22.4904 20.8391 22.8604 21.2091C22.9504 21.3091 23.0304 21.4091 23.0804 21.5391C23.1304 21.6591 23.1504 21.7891 23.1504 21.9191C23.1504 22.1891 23.0504 22.4391 22.8604 22.6291C22.6704 22.8191 22.4204 22.9191 22.1504 22.9191Z" fill="#189261"/>
<path d="M26.1504 22.9191C25.8904 22.9191 25.6404 22.8191 25.4504 22.6291C25.2604 22.4391 25.1504 22.1891 25.1504 21.9191C25.1504 21.6591 25.2604 21.3991 25.4504 21.2091C25.8204 20.8391 26.4904 20.8391 26.8604 21.2091C27.0504 21.3991 27.1604 21.6591 27.1604 21.9191C27.1604 22.0491 27.1304 22.1791 27.0804 22.2991C27.0304 22.4191 26.9604 22.5291 26.8604 22.6291C26.6704 22.8191 26.4204 22.9191 26.1504 22.9191Z" fill="#189261"/>
<path d="M18.1604 26.9208C17.8904 26.9208 17.6404 26.8208 17.4504 26.6308C17.2604 26.4408 17.1504 26.1908 17.1504 25.9208C17.1504 25.6608 17.2604 25.4008 17.4504 25.2108C17.5404 25.1208 17.6504 25.0508 17.7704 25.0008C18.0204 24.9008 18.2904 24.9008 18.5404 25.0008C18.6004 25.0208 18.6604 25.0508 18.7104 25.0908C18.7704 25.1208 18.8204 25.1708 18.8604 25.2108C19.0504 25.4008 19.1604 25.6608 19.1604 25.9208C19.1604 26.1908 19.0504 26.4408 18.8604 26.6308C18.6704 26.8208 18.4204 26.9208 18.1604 26.9208Z" fill="#189261"/>
<path d="M22.1504 26.9202C21.8904 26.9202 21.6404 26.8202 21.4504 26.6302C21.2604 26.4402 21.1504 26.1902 21.1504 25.9202C21.1504 25.8502 21.1604 25.7902 21.1704 25.7202C21.1904 25.6602 21.2104 25.6002 21.2304 25.5402C21.2604 25.4802 21.2904 25.4202 21.3204 25.3602C21.3604 25.3102 21.4004 25.2602 21.4504 25.2102C21.5404 25.1202 21.6504 25.0502 21.7704 25.0002C22.1404 24.8502 22.5804 24.9302 22.8604 25.2102C23.0504 25.4002 23.1504 25.6602 23.1504 25.9202C23.1504 26.1902 23.0504 26.4402 22.8604 26.6302C22.7704 26.7202 22.6604 26.7902 22.5404 26.8402C22.4204 26.8902 22.2904 26.9202 22.1504 26.9202Z" fill="#189261"/>
<path d="M26.1502 26.9202C26.0202 26.9202 25.8902 26.8902 25.7702 26.8402C25.6502 26.7902 25.5402 26.7202 25.4502 26.6302C25.2602 26.4402 25.1602 26.1902 25.1602 25.9202C25.1602 25.6602 25.2602 25.4002 25.4502 25.2102C25.7202 24.9302 26.1702 24.8502 26.5402 25.0002C26.6602 25.0502 26.7702 25.1202 26.8602 25.2102C27.0502 25.4002 27.1502 25.6602 27.1502 25.9202C27.1502 26.1902 27.0502 26.4402 26.8602 26.6302C26.6702 26.8202 26.4202 26.9202 26.1502 26.9202Z" fill="#189261"/>
</svg>
