<svg width="40" height="40" viewBox="0 0 40 40" fill="none" xmlns="http://www.w3.org/2000/svg">
<path opacity="0.4" d="M26.6663 3.3335H9.99967C4.66634 3.3335 3.33301 4.66683 3.33301 10.0002V19.8335C3.38301 24.8835 4.78301 26.1668 9.99967 26.1668H13.7497V32.0835H8.24969C7.56636 32.0835 6.99969 32.6502 6.99969 33.3335C6.99969 34.0168 7.56636 34.5835 8.24969 34.5835H20.4163C20.1663 33.9335 20.0497 33.1168 20.033 32.0835H16.2497V26.1668H20.033V19.8335V17.6502C20.033 14.0835 21.2163 12.9001 24.783 12.9001H31.9163C32.433 12.9001 32.9163 12.9335 33.333 12.9835V10.0002C33.333 4.66683 31.9997 3.3335 26.6663 3.3335Z" fill="#E7EC7B"/>
<path d="M33.3322 12.9837C32.9156 12.9337 32.4322 12.9004 31.9156 12.9004H24.7822C21.2156 12.9004 20.0322 14.0838 20.0322 17.6505V32.0837C20.0489 33.1171 20.1656 33.9337 20.4156 34.5837C20.9989 36.1004 22.3156 36.6671 24.7822 36.6671H31.9156C35.4822 36.6671 36.6656 35.4838 36.6656 31.9171V17.6505C36.6656 14.6005 35.7989 13.3004 33.3322 12.9837ZM28.3489 16.8171C29.7989 16.8171 30.9656 17.9837 30.9656 19.4337C30.9656 20.8837 29.7989 22.0504 28.3489 22.0504C26.8989 22.0504 25.7322 20.8837 25.7322 19.4337C25.7322 17.9837 26.8989 16.8171 28.3489 16.8171ZM28.3489 31.9171C26.3823 31.9171 24.7822 30.3171 24.7822 28.3504C24.7822 27.5338 25.0656 26.7671 25.5323 26.1671C26.1823 25.3338 27.1989 24.7837 28.3489 24.7837C29.2489 24.7837 30.0656 25.1171 30.6822 25.6504C31.4322 26.3171 31.9156 27.2838 31.9156 28.3504C31.9156 30.3171 30.3156 31.9171 28.3489 31.9171Z" fill="#E7EC7B"/>
<path opacity="0.4" d="M31.9165 28.3504C31.9165 30.317 30.3166 31.9171 28.3499 31.9171C26.3832 31.9171 24.7832 30.317 24.7832 28.3504C24.7832 27.5337 25.0666 26.7671 25.5332 26.1671C26.1832 25.3337 27.1999 24.7837 28.3499 24.7837C29.2499 24.7837 30.0666 25.1171 30.6832 25.6504C31.4332 26.3171 31.9165 27.2837 31.9165 28.3504Z" fill="#E7EC7B"/>
<path opacity="0.4" d="M28.3511 22.0497C29.7962 22.0497 30.9677 20.8781 30.9677 19.433C30.9677 17.9878 29.7962 16.8164 28.3511 16.8164C26.9059 16.8164 25.7344 17.9878 25.7344 19.433C25.7344 20.8781 26.9059 22.0497 28.3511 22.0497Z" fill="#E7EC7B"/>
</svg>
