<svg width="83" height="67" viewBox="0 0 83 67" fill="none" xmlns="http://www.w3.org/2000/svg">
<mask id="path-1-inside-1_684_14692" fill="white">
<path d="M32.8262 0C38.8626 0 44.6405 6.69141 50.6769 6.69141H58.1055C64.7443 6.69141 68.0639 6.69139 70.5996 7.9834C72.8301 9.11988 74.6438 10.9336 75.7803 13.1641C77.0722 15.6997 77.0723 19.0195 77.0723 25.6582V45.0332C77.0723 51.6719 77.0722 54.9917 75.7803 57.5273C74.6438 59.7578 72.8301 61.5715 70.5996 62.708C68.0639 64 64.7443 64 58.1055 64H24.0391C17.4005 64 14.0806 63.9998 11.5449 62.708C9.31446 61.5715 7.50074 59.7578 6.36426 57.5273C5.07227 54.9916 5.07227 51.672 5.07227 45.0332V11.8535C5.07251 5.30711 10.3794 0.000242663 16.9258 0H32.8262Z"/>
</mask>
<path d="M32.8262 0C38.8626 0 44.6405 6.69141 50.6769 6.69141H58.1055C64.7443 6.69141 68.0639 6.69139 70.5996 7.9834C72.8301 9.11988 74.6438 10.9336 75.7803 13.1641C77.0722 15.6997 77.0723 19.0195 77.0723 25.6582V45.0332C77.0723 51.6719 77.0722 54.9917 75.7803 57.5273C74.6438 59.7578 72.8301 61.5715 70.5996 62.708C68.0639 64 64.7443 64 58.1055 64H24.0391C17.4005 64 14.0806 63.9998 11.5449 62.708C9.31446 61.5715 7.50074 59.7578 6.36426 57.5273C5.07227 54.9916 5.07227 51.672 5.07227 45.0332V11.8535C5.07251 5.30711 10.3794 0.000242663 16.9258 0H32.8262Z" fill="#EDF1EC"/>
<path d="M70.5996 7.9834L71.0536 7.09239L70.5996 7.9834ZM75.7803 13.1641L76.6713 12.7101L76.6713 12.7101L75.7803 13.1641ZM75.7803 57.5273L76.6713 57.9813L76.6713 57.9813L75.7803 57.5273ZM70.5996 62.708L71.0536 63.599L70.5996 62.708ZM11.5449 62.708L11.0909 63.599L11.091 63.599L11.5449 62.708ZM6.36426 57.5273L5.47325 57.9813L5.47325 57.9813L6.36426 57.5273ZM5.07227 11.8535L4.07227 11.8535V11.8535H5.07227ZM16.9258 0V-1H16.9257L16.9258 0ZM50.6769 6.69141V7.69141H58.1055V6.69141V5.69141H50.6769V6.69141ZM58.1055 6.69141V7.69141C61.4414 7.69141 63.8832 7.69218 65.8098 7.84958C67.7247 8.00603 69.0422 8.31221 70.1456 8.8744L70.5996 7.9834L71.0536 7.09239C69.6213 6.36259 68.0112 6.02277 65.9726 5.85622C63.9458 5.69063 61.4084 5.69141 58.1055 5.69141V6.69141ZM70.5996 7.9834L70.1456 8.8744C72.1879 9.91501 73.8487 11.5757 74.8893 13.6181L75.7803 13.1641L76.6713 12.7101C75.4389 10.2914 73.4722 8.32475 71.0536 7.09239L70.5996 7.9834ZM75.7803 13.1641L74.8893 13.618C75.4514 14.7214 75.7576 16.039 75.9141 17.9539C76.0715 19.8805 76.0723 22.3224 76.0723 25.6582H77.0723H78.0723C78.0723 22.3554 78.073 19.818 77.9074 17.7911C77.7409 15.7525 77.401 14.1424 76.6713 12.7101L75.7803 13.1641ZM77.0723 25.6582H76.0723V45.0332H77.0723H78.0723V25.6582H77.0723ZM77.0723 45.0332H76.0723C76.0723 48.369 76.0715 50.8109 75.9141 52.7375C75.7576 54.6524 75.4514 55.97 74.8893 57.0734L75.7803 57.5273L76.6713 57.9813C77.401 56.549 77.7409 54.9389 77.9074 52.9003C78.073 50.8734 78.0723 48.336 78.0723 45.0332H77.0723ZM75.7803 57.5273L74.8893 57.0734C73.8487 59.1157 72.1879 60.7764 70.1456 61.817L70.5996 62.708L71.0536 63.599C73.4722 62.3667 75.4389 60.4 76.6713 57.9813L75.7803 57.5273ZM70.5996 62.708L70.1456 61.817C69.0422 62.3792 67.7247 62.6854 65.8098 62.8418C63.8832 62.9992 61.4414 63 58.1055 63V64V65C61.4084 65 63.9458 65.0008 65.9726 64.8352C68.0112 64.6686 69.6213 64.3288 71.0536 63.599L70.5996 62.708ZM58.1055 64V63H24.0391V64V65H58.1055V64ZM24.0391 64V63C20.7033 63 18.2614 62.9992 16.3348 62.8418C14.4199 62.6853 13.1022 62.3791 11.9989 61.817L11.5449 62.708L11.091 63.599C12.5233 64.3287 14.1334 64.6685 16.172 64.8351C18.1989 65.0007 20.7363 65 24.0391 65V64ZM11.5449 62.708L11.9989 61.817C9.95661 60.7764 8.29587 59.1157 7.25526 57.0734L6.36426 57.5273L5.47325 57.9813C6.7056 60.4 8.6723 62.3667 11.0909 63.599L11.5449 62.708ZM6.36426 57.5273L7.25527 57.0734C6.69307 55.97 6.38689 54.6524 6.23044 52.7375C6.07304 50.811 6.07227 48.3691 6.07227 45.0332H5.07227H4.07227C4.07227 48.3361 4.07149 50.8735 4.23709 52.9004C4.40364 54.9389 4.74345 56.549 5.47325 57.9813L6.36426 57.5273ZM5.07227 45.0332H6.07227V11.8535H5.07227H4.07227V45.0332H5.07227ZM5.07227 11.8535L6.07227 11.8536C6.07249 5.8594 10.9317 1.00022 16.9258 1L16.9258 0L16.9257 -1C9.82708 -0.999737 4.07253 4.75482 4.07227 11.8535L5.07227 11.8535ZM16.9258 0V1H32.8262V0V-1H16.9258V0ZM32.8262 0V1C35.5291 1 38.2397 2.50592 41.2587 4.21583C44.1468 5.85162 47.3434 7.69141 50.6769 7.69141V6.69141V5.69141C47.9739 5.69141 45.2634 4.18549 42.2443 2.47557C39.3562 0.839785 36.1596 -1 32.8262 -1V0Z" fill="#F6FCF5" mask="url(#path-1-inside-1_684_14692)"/>
<g filter="url(#filter0_d_684_14692)">
<path d="M5.07247 34.3164C5.07247 27.9101 5.02708 24.581 6.2928 22.1342C7.40616 19.9818 9.16337 18.255 11.3485 17.1583C13.8326 15.9116 17.2223 15.9572 23.7261 15.9572H58.4184C64.9222 15.9572 68.3119 15.9116 70.7961 17.1583C72.9812 18.255 74.7384 19.9818 75.8517 22.1342C77.1175 24.581 77.0721 27.9101 77.0721 34.3164V45.6408C77.0721 52.0471 77.1175 55.3761 75.8517 57.823C74.7384 59.9754 72.9812 61.7022 70.7961 62.7989C68.3119 64.0456 64.9222 64 58.4184 64H23.7261C17.2223 64 13.8326 64.0456 11.3485 62.7989C9.16337 61.7022 7.40616 59.9754 6.2928 57.823C5.02708 55.3761 5.07247 52.0471 5.07247 45.6408V34.3164Z" fill="#EDF1EC"/>
<path d="M60.7168 16.2744C62.8745 16.278 64.6246 16.2987 66.0918 16.4062C68.0454 16.5494 69.4663 16.8452 70.6543 17.4414C72.7803 18.5085 74.4882 20.1883 75.5703 22.2803C76.1747 23.4488 76.4746 24.8439 76.6201 26.7646C76.7294 28.2074 76.7512 29.9285 76.7549 32.0527V47.9043C76.7512 50.0285 76.7294 51.7496 76.6201 53.1924C76.4746 55.1133 76.1748 56.5091 75.5703 57.6777C74.4882 59.7696 72.7802 61.4486 70.6543 62.5156C69.4663 63.1119 68.0454 63.4076 66.0918 63.5508C64.6246 63.6583 62.8745 63.679 60.7168 63.6826H21.4277C19.2701 63.679 17.52 63.6583 16.0527 63.5508C14.0991 63.4076 12.6782 63.1119 11.4902 62.5156C9.36436 61.4486 7.65637 59.7696 6.57422 57.6777C5.96972 56.5091 5.66992 55.1133 5.52441 53.1924C5.41514 51.7496 5.39335 50.0285 5.38965 47.9043V32.0527C5.39336 29.9285 5.41513 28.2074 5.52441 26.7646C5.6699 24.8439 5.96986 23.4488 6.57422 22.2803C7.65637 20.1883 9.36426 18.5085 11.4902 17.4414C12.6782 16.8452 14.0991 16.5494 16.0527 16.4062C17.52 16.2987 19.2701 16.278 21.4277 16.2744H60.7168Z" stroke="#F6FCF5" stroke-width="0.633929"/>
</g>
<defs>
<filter id="filter0_d_684_14692" x="0.000837326" y="8.34989" width="82.1429" height="58.1858" filterUnits="userSpaceOnUse" color-interpolation-filters="sRGB">
<feFlood flood-opacity="0" result="BackgroundImageFix"/>
<feColorMatrix in="SourceAlpha" type="matrix" values="0 0 0 0 0 0 0 0 0 0 0 0 0 0 0 0 0 0 127 0" result="hardAlpha"/>
<feOffset dy="-2.53571"/>
<feGaussianBlur stdDeviation="2.53571"/>
<feComposite in2="hardAlpha" operator="out"/>
<feColorMatrix type="matrix" values="0 0 0 0 0.47036 0 0 0 0 0.466923 0 0 0 0 0.63418 0 0 0 0.19 0"/>
<feBlend mode="normal" in2="BackgroundImageFix" result="effect1_dropShadow_684_14692"/>
<feBlend mode="normal" in="SourceGraphic" in2="effect1_dropShadow_684_14692" result="shape"/>
</filter>
</defs>
</svg>
