<svg width="115" height="108" viewBox="0 0 115 108" fill="none" xmlns="http://www.w3.org/2000/svg">
<path d="M17.3457 1.13062C28.4223 5.48566 40.4175 5.7562 53.2104 2.48795C69.9175 3.38587 86.3177 4.07021 97.6492 1.13062V66.5746C68.7226 100.24 42.0794 98.1635 17.346 66.2881V1.13062H17.3457Z" stroke="#252525" stroke-width="1.5407" stroke-miterlimit="2.61"/>
<path fill-rule="evenodd" clip-rule="evenodd" d="M17.3447 1.13086C28.4222 5.4859 40.4171 5.75615 53.21 2.48849C69.9171 3.38641 86.3173 4.07074 97.6479 1.13086V66.5745C68.721 100.24 42.0787 98.1635 17.3447 66.2886V1.13086Z" fill="#006437"/>
<path fill-rule="evenodd" clip-rule="evenodd" d="M20.4082 4.56079C30.6404 8.58311 41.7202 8.83302 53.537 5.81468C68.9693 6.64402 84.1179 7.27576 94.584 4.56079V65.0107C67.8645 96.1071 43.2554 94.1893 20.4085 64.7466V4.56079H20.4082Z" fill="#D7DF23"/>
<path fill-rule="evenodd" clip-rule="evenodd" d="M60.0863 55.2579L58.7287 57.4725L58.1516 59.5267L54.5137 60.6164L52.7571 59.2948L52.085 57.1866V55.2579L52.7277 53.9715L54.0136 53.3999L55.4427 53.0425L56.4423 51.6852L55.7995 50.0422L55.5851 48.4704L55.7278 46.0411L56.5141 44.1119L57.3713 42.6124L59.1573 40.8965L60.0145 40.0396L60.7291 40.4685L60.9435 41.7537L60.229 43.3973L59.4432 44.9694L58.8722 46.3267L59.0149 47.3981L60.229 47.6123L61.5863 47.3275L61.944 46.3985L62.0867 44.3984L62.8728 44.1119L64.5163 44.5408L64.7308 45.5413L65.4442 47.6843L65.3736 48.7557L64.8017 50.1134L64.2304 51.5425L64.0159 53.1858L64.659 53.7571L65.9449 53.472L67.3022 50.6853L69.0882 49.6139L69.0175 51.3283L69.9454 53.2567L70.4458 56.3293L70.1607 58.3298L68.5276 59.4645L66.8018 60.4726L65.5162 60.5443L61.7566 59.2646L60.7291 57.4725L60.8009 55.901L60.0863 55.2579Z" fill="url(#paint0_linear_327_28927)"/>
<path d="M65.6461 59.8177C64.9022 59.6553 64.2138 59.5341 63.5844 59.4545C62.9547 59.3752 62.3837 59.3333 61.8717 59.3333C60.6195 59.3333 59.6714 59.5893 59.028 60.1051C58.5125 60.5096 58.2565 61.2015 58.2565 62.1805V71.636C58.7238 71.1411 59.2218 70.802 59.7478 70.6154C60.2769 70.4283 61.0034 70.3353 61.9307 70.3353C62.5467 70.3353 63.1657 70.3699 63.7852 70.4425C64.4042 70.5117 65.0234 70.6221 65.6461 70.7712V59.8177ZM50.3894 70.7502C51.1746 70.6084 51.8702 70.5044 52.4755 70.4355C53.0808 70.3699 53.5963 70.3353 54.022 70.3353C55.7624 70.3353 57.0145 70.754 57.779 71.5944V62.1602C57.779 61.2155 57.485 60.5064 56.8968 60.0394C56.3087 59.5687 55.4195 59.3336 54.2365 59.3336C53.6274 59.3336 53.0047 59.3755 52.3648 59.4618C51.7246 59.5449 51.0676 59.6698 50.3894 59.8392V70.7505V70.7502ZM66.8399 73.217L65.8714 71.3314C65.0859 71.1623 64.3594 71.0376 63.6879 70.9545C63.0169 70.8752 62.4046 70.8334 61.8508 70.8334C59.4674 70.8334 58.2774 71.6293 58.2774 73.217C58.7717 73.1371 59.1527 72.9366 59.4119 72.6187L66.8399 73.217ZM49.2825 73.217L56.6859 72.6286C56.9003 72.9055 57.2638 73.1026 57.7686 73.217C57.6753 72.3659 57.3469 71.7536 56.7829 71.3869C56.2189 71.0167 55.3297 70.8336 54.1223 70.8336C53.5617 70.8336 52.9564 70.8717 52.3128 70.951C51.6659 71.0272 50.981 71.1449 50.2511 71.3003L49.2825 73.2173V73.217ZM66.1442 60.4059V70.8229L67.1406 72.7117V62.2915L66.1442 60.4059ZM48.8946 62.1805V72.7602L49.891 70.8229V60.3643L48.8946 62.1805ZM68.407 74.5558V61.33L67.1406 61.2573L67.6387 62.0805V73.7256L59.5226 73.217C59.1317 73.5527 58.6299 73.7186 58.0211 73.7186C57.4123 73.7186 56.9276 73.553 56.5438 73.217L48.3965 73.7256V62.0805L48.7667 61.3608L47.6491 61.4197V74.5558L56.2604 73.9188C56.5961 74.099 56.9212 74.2373 57.2325 74.3274C57.544 74.421 57.845 74.466 58.1356 74.466C58.4056 74.466 58.6822 74.421 58.9661 74.3274C59.2497 74.2373 59.5438 74.0993 59.8483 73.9188L68.4073 74.5558H68.407ZM68.9051 75.0887L60.0003 74.4244C59.6748 74.6005 59.3567 74.7357 59.0454 74.8257C58.7374 74.919 58.4367 74.9641 58.1458 74.9641C57.8549 74.9641 57.5265 74.919 57.1877 74.8257C56.8451 74.7357 56.4819 74.6005 56.098 74.4244L47.1514 75.0887V60.9943L49.037 60.8903L49.7701 59.465C50.5661 59.2537 51.3201 59.0979 52.0327 58.9907C52.7455 58.8867 53.413 58.835 54.0325 58.835C55.1117 58.835 55.9594 58.9736 56.5685 59.2537C57.1807 59.5338 57.6617 60.0046 58.0144 60.6689C58.3294 60.0182 58.8103 59.551 59.4537 59.2642C60.0939 58.9771 60.9761 58.835 62.0969 58.835C62.6749 58.835 63.3043 58.8867 63.9892 58.9907C64.6741 59.0979 65.4215 59.2537 66.2241 59.465L66.909 60.7793L68.9051 60.8903V75.0887Z" fill="#FEFEFE"/>
<path d="M65.6461 59.8177C64.9022 59.6553 64.2138 59.5341 63.5844 59.4545C62.9547 59.3752 62.3837 59.3333 61.8717 59.3333C60.6195 59.3333 59.6714 59.5893 59.028 60.1051C58.5125 60.5096 58.2565 61.2015 58.2565 62.1805V71.636C58.7238 71.1411 59.2218 70.802 59.7478 70.6154C60.2769 70.4283 61.0034 70.3353 61.9307 70.3353C62.5467 70.3353 63.1657 70.3699 63.7852 70.4425C64.4042 70.5117 65.0234 70.6221 65.6461 70.7712V59.8177ZM50.3894 70.7502C51.1746 70.6084 51.8702 70.5044 52.4755 70.4355C53.0808 70.3699 53.5963 70.3353 54.022 70.3353C55.7624 70.3353 57.0145 70.754 57.779 71.5944V62.1602C57.779 61.2155 57.485 60.5064 56.8968 60.0394C56.3087 59.5687 55.4195 59.3336 54.2365 59.3336C53.6274 59.3336 53.0047 59.3755 52.3648 59.4618C51.7246 59.5449 51.0676 59.6698 50.3894 59.8392V70.7505V70.7502ZM66.8399 73.217L65.8714 71.3314C65.0859 71.1623 64.3594 71.0376 63.6879 70.9545C63.0169 70.8752 62.4046 70.8334 61.8508 70.8334C59.4674 70.8334 58.2774 71.6293 58.2774 73.217C58.7717 73.1371 59.1527 72.9366 59.4119 72.6187L66.8399 73.217ZM49.2825 73.217L56.6859 72.6286C56.9003 72.9055 57.2638 73.1026 57.7686 73.217C57.6753 72.3659 57.3469 71.7536 56.7829 71.3869C56.2189 71.0167 55.3297 70.8336 54.1223 70.8336C53.5617 70.8336 52.9564 70.8717 52.3128 70.951C51.6659 71.0272 50.981 71.1449 50.2511 71.3003L49.2825 73.2173V73.217ZM66.1442 60.4059V70.8229L67.1406 72.7117V62.2915L66.1442 60.4059ZM48.8946 62.1805V72.7602L49.891 70.8229V60.3643L48.8946 62.1805ZM68.407 74.5558V61.33L67.1406 61.2573L67.6387 62.0805V73.7256L59.5226 73.217C59.1317 73.5527 58.6299 73.7186 58.0211 73.7186C57.4123 73.7186 56.9276 73.553 56.5438 73.217L48.3965 73.7256V62.0805L48.7667 61.3608L47.6491 61.4197V74.5558L56.2604 73.9188C56.5961 74.099 56.9212 74.2373 57.2325 74.3274C57.544 74.421 57.845 74.466 58.1356 74.466C58.4056 74.466 58.6822 74.421 58.9661 74.3274C59.2497 74.2373 59.5438 74.0993 59.8483 73.9188L68.4073 74.5558H68.407ZM68.9051 75.0887L60.0003 74.4244C59.6748 74.6005 59.3567 74.7357 59.0454 74.8257C58.7374 74.919 58.4367 74.9641 58.1458 74.9641C57.8549 74.9641 57.5265 74.919 57.1877 74.8257C56.8451 74.7357 56.4819 74.6005 56.098 74.4244L47.1514 75.0887V60.9943L49.037 60.8903L49.7701 59.465C50.5661 59.2537 51.3201 59.0979 52.0327 58.9907C52.7455 58.8867 53.413 58.835 54.0325 58.835C55.1117 58.835 55.9594 58.9736 56.5685 59.2537C57.1807 59.5338 57.6617 60.0046 58.0144 60.6689C58.3294 60.0182 58.8103 59.551 59.4537 59.2642C60.0939 58.9771 60.9761 58.835 62.0969 58.835C62.6749 58.835 63.3043 58.8867 63.9892 58.9907C64.6741 59.0979 65.4215 59.2537 66.2241 59.465L66.909 60.7793L68.9051 60.8903V75.0887Z" fill="#006437"/>
<path d="M1.55566 70.9038H26.1322V88.0523H1.55566L7.41421 78.5954L1.55566 70.9038Z" stroke="#252525" stroke-width="1.54099" stroke-miterlimit="2.61"/>
<path fill-rule="evenodd" clip-rule="evenodd" d="M1.55664 70.9031H26.1337V88.0516H1.55664L7.41519 78.5944L1.55664 70.9031Z" fill="#D7DF23"/>
<path d="M113.436 69.3315H88.8594V86.3365H113.436L107.577 76.9583L113.436 69.3315Z" stroke="#252525" stroke-width="1.54186" stroke-miterlimit="2.61"/>
<path fill-rule="evenodd" clip-rule="evenodd" d="M113.436 69.3311H88.8594V86.336H113.436L107.578 76.9578L113.436 69.3311Z" fill="#D7DF23"/>
<path d="M11.8437 79.0489C31.4203 94.3458 85.9475 99.5883 102.722 73.6199L102.18 91.1825C74.2417 114.629 29.8503 108.478 11.6807 89.3401L11.8437 79.0489Z" stroke="#252525" stroke-width="1.5407" stroke-miterlimit="2.61"/>
<path d="M94.5847 36.075C94.5847 36.075 74.4935 39.8744 64.2674 35.533C60.7361 34.0339 56.468 33.7488 53.1184 35.6188C45.3422 39.9602 20.2168 36.075 20.2168 36.075V13.1165C20.2168 13.1165 38.8467 15.9422 53.4758 13.1165C55.3797 12.1448 62.8682 11.8158 64.6602 12.9808C80.0236 16.4585 94.5847 13.1165 94.5847 13.1165V36.075Z" fill="#006437"/>
<path fill-rule="evenodd" clip-rule="evenodd" d="M11.842 79.0497C31.4187 94.3462 85.9455 99.5887 102.72 73.6206L102.178 91.1832C74.2406 114.629 29.8492 108.478 11.6787 89.3408L11.842 79.0497Z" fill="#006437"/>
<path d="M94.0225 89.9372L94.5984 89.311C94.7272 89.4145 94.8608 89.4653 94.9983 89.4615C95.136 89.4592 95.2816 89.3956 95.4345 89.273C95.6033 89.1373 95.7053 89.0047 95.741 88.8743C95.7631 88.7848 95.7445 88.7031 95.6861 88.6305C95.6469 88.5814 95.5978 88.5526 95.5405 88.5453C95.4833 88.5404 95.3871 88.5694 95.2534 88.6337C94.6333 88.9402 94.2143 89.1018 93.9963 89.1195C93.6933 89.1425 93.4466 89.0353 93.2565 88.7987C93.0842 88.5837 93.0246 88.3358 93.0761 88.0548C93.1278 87.7735 93.3309 87.4902 93.6851 87.2057C94.0228 86.9349 94.318 86.7884 94.5705 86.7669C94.8239 86.746 95.0683 86.8184 95.3037 86.9849L94.7821 87.5913C94.6781 87.5158 94.5676 87.4818 94.4529 87.4896C94.3378 87.4975 94.212 87.557 94.0748 87.6669C93.9022 87.8055 93.7976 87.9284 93.7613 88.0377C93.7386 88.1118 93.7496 88.1754 93.7929 88.2295C93.8304 88.2762 93.8836 88.2989 93.9533 88.2963C94.0475 88.2919 94.3006 88.1896 94.7126 87.9889C95.1247 87.7881 95.4458 87.689 95.6757 87.693C95.9058 87.6988 96.1043 87.8067 96.2711 88.0141C96.4524 88.2399 96.5146 88.5105 96.4556 88.8249C96.3975 89.1393 96.1833 89.4456 95.8122 89.7431C95.4766 90.0125 95.1555 90.1587 94.8504 90.1808C94.5459 90.2028 94.2701 90.1221 94.0225 89.9372ZM92.5277 88.1408L92.9005 88.6903L92.4263 89.0123L93.1458 90.0721C93.2923 90.2877 93.3812 90.41 93.4143 90.4391C93.4477 90.4682 93.4875 90.4838 93.5366 90.485C93.5837 90.4862 93.6308 90.4716 93.677 90.4403C93.7418 90.3961 93.8194 90.3118 93.9112 90.1842L94.3343 90.6832C94.2204 90.8613 94.0623 91.0185 93.8589 91.1568C93.7342 91.2414 93.6081 91.296 93.4794 91.3222C93.3509 91.3475 93.2408 91.3428 93.1493 91.3077C93.0566 91.2722 92.9636 91.2036 92.8677 91.1022C92.7985 91.0316 92.6803 90.8732 92.5132 90.6268L91.7356 89.481L91.4177 89.6966L91.0446 89.1468L91.3622 88.9309L91.0094 88.4114L91.4235 87.5335L92.0535 88.4619L92.5277 88.1405V88.1408ZM88.4871 89.2933L89.2938 90.6957C89.3681 90.2813 89.5698 89.9794 89.8964 89.7914C90.0647 89.6946 90.2338 89.6379 90.4041 89.6222C90.575 89.6074 90.7211 89.6272 90.8455 89.685C90.9696 89.7417 91.0777 89.8213 91.1698 89.9242C91.2628 90.0265 91.3793 90.2008 91.5208 90.4469L92.4449 92.0533L91.7208 92.4694L90.8888 91.0232C90.7237 90.7364 90.6046 90.562 90.5328 90.5001C90.4602 90.4391 90.3753 90.4054 90.2789 90.4013C90.1821 90.3958 90.081 90.4237 89.9743 90.4853C89.8526 90.555 89.761 90.6466 89.6991 90.7605C89.6364 90.8741 89.6175 91.0023 89.6413 91.1458C89.664 91.2885 89.7421 91.4756 89.8744 91.7052L90.6639 93.0776L89.9397 93.4943L87.7632 89.71L88.4874 89.2933H88.4871ZM86.4893 93.3874C86.6357 93.6887 86.8011 93.8802 86.9853 93.9639C87.1704 94.0467 87.3489 94.0467 87.52 93.9639C87.7028 93.8747 87.8231 93.7271 87.8792 93.5222C87.9364 93.3174 87.8963 93.0744 87.7592 92.7929C87.6162 92.4988 87.4497 92.3096 87.2588 92.2262C87.0687 92.1425 86.8807 92.1457 86.695 92.2358C86.5152 92.3236 86.4012 92.4657 86.3524 92.6624C86.3045 92.8588 86.3495 93.1003 86.489 93.3871L86.4893 93.3874ZM86.6227 95.3765L87.5342 95.0621C87.5982 95.1562 87.6647 95.21 87.7345 95.2233C87.833 95.2422 87.9585 95.2152 88.1122 95.1402C88.3084 95.0449 88.4412 94.9441 88.5112 94.8366C88.558 94.7654 88.5777 94.6779 88.5687 94.5739C88.5612 94.5006 88.517 94.3786 88.4357 94.2115L88.2369 93.7939C88.161 94.2141 87.9512 94.5067 87.6075 94.6741C87.2253 94.8601 86.8435 94.8459 86.4637 94.6317C86.1641 94.462 85.9218 94.1868 85.7375 93.8076C85.5054 93.3304 85.4438 92.9111 85.5507 92.5479C85.6576 92.1855 85.8825 91.9202 86.2243 91.754C86.5762 91.5826 86.942 91.5956 87.3204 91.7935L87.1245 91.3905L87.8263 91.0487L89.0674 93.6001C89.2304 93.9357 89.3251 94.2002 89.3501 94.3928C89.376 94.5858 89.3615 94.7535 89.3071 94.8973C89.2534 95.04 89.1566 95.1797 89.0148 95.3137C88.8739 95.4491 88.6757 95.5784 88.4208 95.7019C87.9385 95.9367 87.5563 96.0198 87.2739 95.9527C86.9911 95.8847 86.7889 95.7243 86.6648 95.4692C86.6529 95.4451 86.6386 95.4134 86.623 95.3768L86.6227 95.3765ZM85.0454 95.7351L83.8438 92.8077L84.6164 92.4906L85.818 95.4177L85.0454 95.7351ZM83.6819 92.4125L83.3878 91.6965L84.1605 91.3794L84.4546 92.0954L83.6822 92.4125H83.6819ZM83.0229 94.5605C82.9383 94.333 82.8197 94.1784 82.6663 94.0976C82.5129 94.0157 82.3557 94.0032 82.1941 94.0587C82.0221 94.1177 81.9018 94.2298 81.8323 94.3946C81.7632 94.559 81.7672 94.75 81.8434 94.9656L83.0229 94.5605ZM83.2521 95.3782L84.0876 95.2402C84.0861 95.5639 84.001 95.8391 83.8351 96.0658C83.6677 96.2915 83.4198 96.4618 83.0917 96.5743C82.5719 96.7527 82.1278 96.7143 81.7623 96.4595C81.4717 96.2543 81.2546 95.9443 81.1117 95.5282C80.9417 95.0321 80.9379 94.5983 81.1 94.2287C81.2622 93.8587 81.5414 93.6059 81.9375 93.4702C82.3815 93.3177 82.7828 93.3438 83.1414 93.5498C83.4988 93.7559 83.7766 94.1647 83.9737 94.7758L81.9953 95.4546C82.0816 95.6874 82.2078 95.8481 82.3748 95.937C82.5411 96.0262 82.7154 96.0393 82.8956 95.9774C83.02 95.935 83.1121 95.8655 83.1725 95.7699C83.2338 95.6735 83.26 95.543 83.2518 95.3779L83.2521 95.3782ZM77.5784 98.158L76.3858 93.9587L77.2364 93.7172L77.7063 95.371L79.3603 94.9008L78.8904 93.2473L79.741 93.0056L80.9338 97.2049L80.0833 97.4463L79.562 95.6107L77.9079 96.0806L78.4292 97.9165L77.5787 98.1583L77.5784 98.158ZM74.4235 98.8505L73.6014 98.9998L73.0353 95.8868L73.7973 95.7484L73.8778 96.1901C73.9705 95.9577 74.0637 95.799 74.157 95.715C74.25 95.6307 74.3633 95.5773 74.4964 95.5534C74.6844 95.5192 74.8748 95.5378 75.0671 95.6092L74.9428 96.3735C74.7873 96.309 74.6501 96.2872 74.531 96.309C74.4153 96.3299 74.3232 96.3799 74.2544 96.4572C74.1861 96.5359 74.1436 96.6612 74.128 96.8358C74.1123 97.0102 74.1524 97.3618 74.2486 97.8909L74.4232 98.8505H74.4235ZM71.8596 97.4155C71.8207 97.1755 71.7344 97.0009 71.5995 96.8919C71.4644 96.7823 71.313 96.7396 71.1436 96.7626C70.9634 96.7873 70.8237 96.8742 70.7237 97.0221C70.6238 97.17 70.5912 97.358 70.624 97.5844L71.8593 97.4152L71.8596 97.4155ZM71.9262 98.2614L72.7724 98.2873C72.7084 98.6043 72.5716 98.8583 72.3652 99.0484C72.1572 99.2381 71.8811 99.357 71.5377 99.4037C70.9931 99.4784 70.5651 99.3555 70.2556 99.0347C70.01 98.7772 69.8569 98.4306 69.7973 97.995C69.7264 97.4751 69.8063 97.0488 70.0371 96.7178C70.2675 96.3857 70.5906 96.1919 71.0056 96.1352C71.4708 96.0716 71.8593 96.175 72.1711 96.4461C72.4821 96.7175 72.6753 97.172 72.7506 97.8102L70.6787 98.0935C70.7182 98.3387 70.8109 98.5209 70.9576 98.6398C71.1032 98.7592 71.2718 98.8063 71.4609 98.7801C71.5911 98.7627 71.6949 98.7124 71.7727 98.6296C71.8515 98.5471 71.9023 98.4242 71.9265 98.2609L71.9262 98.2614ZM69.2827 96.474L69.3728 97.1322L68.805 97.2101L68.9787 98.48C69.0142 98.738 69.0398 98.8871 69.0566 98.9278C69.0738 98.9687 69.1025 99.0004 69.1458 99.0231C69.1877 99.0446 69.2359 99.0524 69.2911 99.0452C69.369 99.0344 69.4759 98.9931 69.6145 98.9199L69.772 99.5548C69.591 99.6635 69.3792 99.7347 69.1359 99.7678C68.9869 99.7879 68.8494 99.7812 68.7224 99.7475C68.596 99.7135 68.4995 99.6598 68.433 99.588C68.3659 99.5153 68.3127 99.4125 68.2717 99.2791C68.2412 99.1843 68.2055 98.9902 68.1651 98.6953L67.9771 97.3231L67.5967 97.3751L67.5066 96.717L67.887 96.6652L67.8018 96.0425L68.5626 95.4401L68.7149 96.5519L69.2827 96.474ZM66.4837 98.3963C66.3809 98.4422 66.2158 98.5006 65.9892 98.5721C65.7634 98.6438 65.6163 98.7063 65.5501 98.7598C65.4492 98.8481 65.4036 98.9507 65.415 99.0687C65.426 99.1861 65.4795 99.282 65.5745 99.3587C65.6698 99.4354 65.784 99.4674 65.9185 99.4549C66.0682 99.4404 66.2071 99.3773 66.3344 99.2663C66.4274 99.1806 66.4852 99.0832 66.5061 98.9711C66.5206 98.8984 66.5189 98.7618 66.5 98.5625L66.484 98.3966L66.4837 98.3963ZM65.3025 97.829L64.5374 97.7671C64.5932 97.4516 64.7178 97.2101 64.9114 97.0421C65.1046 96.875 65.4062 96.7719 65.8148 96.7327C66.1859 96.6972 66.4672 96.7143 66.6575 96.7852C66.847 96.8559 66.9859 96.955 67.0728 97.0834C67.1596 97.2124 67.2207 97.4565 67.2552 97.8186L67.3357 98.7909C67.3622 99.0669 67.3944 99.2701 67.4334 99.3991C67.4723 99.5281 67.5351 99.6638 67.6223 99.8068L66.797 99.8858C66.7705 99.8332 66.7354 99.7551 66.6938 99.6507C66.6761 99.6022 66.6627 99.5705 66.6552 99.556C66.527 99.7091 66.3852 99.828 66.2301 99.9134C66.0746 99.9983 65.9061 100.05 65.7233 100.067C65.4007 100.099 65.1372 100.035 64.9343 99.8765C64.7315 99.7193 64.6173 99.5054 64.5917 99.2361C64.5749 99.0591 64.6019 98.8964 64.674 98.7485C64.7454 98.6017 64.8538 98.4832 65.0006 98.3945C65.1462 98.3062 65.3603 98.2205 65.6434 98.1374C66.0249 98.0275 66.2885 97.9331 66.4323 97.8558L66.4245 97.7721C66.4088 97.6099 66.3585 97.4986 66.2731 97.4365C66.1865 97.3751 66.0336 97.3551 65.8139 97.376C65.6652 97.3903 65.5524 97.4304 65.4754 97.4978C65.3972 97.5646 65.3403 97.675 65.3028 97.8288L65.3025 97.829ZM63.2727 98.3167C63.253 98.0746 63.1806 97.8936 63.0551 97.7747C62.9293 97.6541 62.7816 97.5995 62.6114 97.6091C62.4297 97.6189 62.2833 97.6948 62.172 97.8343C62.0607 97.974 62.013 98.1586 62.0279 98.3867L63.2727 98.3169V98.3167ZM63.2719 99.1658L64.1137 99.2587C64.0245 99.5702 63.8679 99.812 63.6467 99.9852C63.4244 100.158 63.1396 100.254 62.7936 100.273C62.2446 100.304 61.8276 100.147 61.5446 99.8033C61.3206 99.5267 61.1956 99.1695 61.1706 98.7302C61.1413 98.2068 61.2552 97.7881 61.5115 97.4766C61.7675 97.1639 62.1052 96.9962 62.523 96.9733C62.992 96.9468 63.371 97.0808 63.6604 97.3763C63.9486 97.6713 64.1053 98.1397 64.1294 98.7816L62.0412 98.8993C62.0613 99.1463 62.1392 99.3354 62.2757 99.4659C62.4114 99.5967 62.5756 99.6574 62.766 99.6467C62.897 99.6388 63.0048 99.5973 63.0891 99.5214C63.1742 99.445 63.2347 99.327 63.2716 99.166L63.2719 99.1658ZM59.9281 100.267L59.0929 100.283L59.0319 97.1197L59.806 97.1052L59.8147 97.5541C59.9435 97.3391 60.0609 97.1976 60.1664 97.1296C60.2715 97.0616 60.3918 97.0267 60.527 97.0241C60.7182 97.0206 60.903 97.0697 61.0814 97.1711L60.8364 97.9052C60.6935 97.8168 60.5616 97.7735 60.4404 97.7756C60.3227 97.7779 60.2236 97.8122 60.1434 97.8782C60.0635 97.9447 60.0016 98.0618 59.9583 98.2312C59.9147 98.4009 59.8981 98.7549 59.9086 99.2922L59.9275 100.268L59.9281 100.267ZM56.4494 98.6674L56.4613 97.9296L58.3571 97.9601L58.329 99.7019C58.1421 99.8786 57.8722 100.032 57.5197 100.163C57.1678 100.294 56.8121 100.356 56.4523 100.35C55.9961 100.343 55.6003 100.241 55.2644 100.043C54.9291 99.8457 54.6786 99.5659 54.5135 99.2064C54.3488 98.8473 54.2697 98.4567 54.2767 98.0371C54.284 97.5818 54.3863 97.179 54.5818 96.8277C54.7786 96.4772 55.0616 96.2096 55.4315 96.0265C55.7142 95.8859 56.063 95.819 56.4791 95.8257C57.0207 95.8344 57.4424 95.9553 57.7437 96.1881C58.0439 96.4214 58.2348 96.7385 58.3159 97.1424L57.4354 97.2929C57.3776 97.0776 57.2648 96.9058 57.0972 96.7783C56.9304 96.6516 56.7203 96.5862 56.4663 96.5824C56.0824 96.576 55.7747 96.6928 55.544 96.9337C55.3135 97.1752 55.1935 97.5361 55.1857 98.0168C55.1772 98.5358 55.2859 98.9269 55.5114 99.1899C55.7381 99.4526 56.0365 99.5877 56.4093 99.5938C56.5933 99.5967 56.7784 99.5636 56.9647 99.4938C57.1518 99.4249 57.3116 99.3392 57.4464 99.2375L57.4555 98.684L56.4497 98.6677L56.4494 98.6674ZM49.7621 98.3867C49.7357 98.6996 49.7892 98.9458 49.9234 99.1242C50.0582 99.3041 50.2332 99.4023 50.4511 99.4209C50.6679 99.4392 50.8571 99.3715 51.0178 99.2166C51.1787 99.0629 51.2732 98.8272 51.2999 98.5105C51.3258 98.2016 51.272 97.9575 51.1392 97.7791C51.0064 97.5998 50.8312 97.501 50.6144 97.4829C50.3968 97.4646 50.2076 97.5323 50.0446 97.6869C49.8827 97.8404 49.7886 98.0743 49.7624 98.387L49.7621 98.3867ZM48.9093 98.2702C48.9328 97.9926 49.0229 97.7299 49.1815 97.4821C49.3402 97.2333 49.5503 97.0523 49.8118 96.9366C50.0736 96.8213 50.3575 96.7757 50.6664 96.8015C51.1433 96.8419 51.5202 97.0296 51.7989 97.365C52.0775 97.7012 52.1967 98.1051 52.1566 98.579C52.1165 99.0571 51.929 99.4401 51.5957 99.728C51.2616 100.016 50.8614 100.14 50.3947 100.101C50.1062 100.077 49.8365 99.9875 49.5852 99.835C49.335 99.6821 49.1516 99.4741 49.0362 99.2093C48.9206 98.9458 48.879 98.6322 48.9095 98.2699L48.9093 98.2702ZM48.741 96.6987L48.6631 97.3586L48.0939 97.2915L47.9439 98.5639C47.9137 98.8226 47.9009 98.9734 47.9067 99.017C47.9131 99.0611 47.9329 99.0989 47.9692 99.1317C48.0041 99.1634 48.0491 99.1832 48.1043 99.1896C48.1822 99.1989 48.2961 99.1855 48.449 99.1498L48.4426 99.8039C48.24 99.8635 48.0171 99.8791 47.7731 99.8507C47.6237 99.8329 47.4923 99.7923 47.3781 99.7275C47.2642 99.6627 47.184 99.5871 47.1378 99.5005C47.091 99.413 47.0652 99.3006 47.0594 99.1608C47.0536 99.062 47.0675 98.865 47.1024 98.5695L47.2642 97.1938L46.883 97.1488L46.9609 96.4888L47.3421 96.5339L47.4153 95.91L48.3028 95.5174L48.1717 96.6315L48.741 96.6987ZM46.1158 99.6287L45.29 99.504L45.5312 97.9095C45.5823 97.5719 45.5971 97.3513 45.5768 97.247C45.5556 97.1424 45.51 97.0575 45.4379 96.9898C45.3658 96.9224 45.2734 96.8811 45.161 96.8637C45.0162 96.8422 44.8808 96.8614 44.7544 96.9227C44.6269 96.9837 44.5327 97.0761 44.4711 97.1982C44.4083 97.3217 44.3511 97.5573 44.2982 97.9072L44.0843 99.3221L43.2585 99.1968L43.7316 96.0684L44.497 96.1837L44.4275 96.6429C44.755 96.3337 45.1261 96.211 45.5428 96.2741C45.7256 96.3017 45.8886 96.3601 46.0304 96.4485C46.1731 96.5377 46.2748 96.6388 46.337 96.7515C46.3997 96.866 46.4366 96.9895 46.4471 97.1238C46.4587 97.2583 46.4456 97.4455 46.4093 97.6864L46.1155 99.6284L46.1158 99.6287ZM39.7272 94.1287L40.5967 94.29L40.1657 96.6161C40.0972 96.9855 40.064 97.2264 40.0649 97.3391C40.0693 97.5216 40.13 97.6797 40.248 97.8116C40.3671 97.9438 40.5461 98.0319 40.7859 98.0763C41.0288 98.1214 41.2217 98.1054 41.3644 98.0275C41.5068 97.9496 41.6036 97.8407 41.6556 97.6983C41.7079 97.5559 41.7657 97.3156 41.8285 96.9759L42.2684 94.5997L43.1379 94.7607L42.7197 97.018C42.6244 97.5329 42.5337 97.8938 42.4474 98.0981C42.3611 98.3021 42.242 98.466 42.0886 98.5898C41.9366 98.7133 41.7471 98.7984 41.5213 98.8461C41.2944 98.8941 41.0128 98.8871 40.6737 98.8249C40.2651 98.7488 39.9641 98.6444 39.7708 98.5108C39.5779 98.3765 39.4338 98.2228 39.3387 98.0484C39.2443 97.8741 39.1934 97.7009 39.185 97.5265C39.1737 97.2702 39.2132 96.9018 39.3021 96.4211L39.7267 94.1287H39.7272ZM32.7142 93.7838L33.4581 93.9747L33.3512 94.3928C33.7004 94.1392 34.0596 94.0595 34.4289 94.1543C34.6248 94.2045 34.7843 94.2882 34.9075 94.4059C35.0316 94.5236 35.1182 94.6762 35.1682 94.8627C35.3449 94.7343 35.5221 94.6491 35.6979 94.6082C35.874 94.5675 36.051 94.5698 36.228 94.6154C36.4526 94.6727 36.6307 94.7665 36.7638 94.8982C36.896 95.0295 36.978 95.1931 37.0091 95.3901C37.0323 95.5348 37.0053 95.7531 36.9306 96.0454L36.4291 98.0025L35.6198 97.795L36.0679 96.0463C36.1457 95.7423 36.1684 95.5392 36.135 95.4375C36.0897 95.303 35.9885 95.2149 35.8331 95.1751C35.7197 95.146 35.6038 95.1533 35.4855 95.196C35.3681 95.2408 35.2693 95.323 35.1912 95.4451C35.1124 95.5674 35.0369 95.7725 34.9628 96.0608L34.5862 97.5306L33.7769 97.3234L34.2066 95.6461C34.2828 95.3489 34.3177 95.1521 34.311 95.0592C34.3046 94.9653 34.2767 94.8889 34.2267 94.8307C34.1776 94.7732 34.1 94.7314 33.9968 94.7049C33.8719 94.673 33.751 94.6773 33.6345 94.7192C33.5168 94.7613 33.4209 94.8395 33.3451 94.9554C33.2692 95.0711 33.1937 95.2765 33.1184 95.5697L32.7371 97.0569L31.9281 96.8498L32.7136 93.7843L32.7142 93.7838ZM29.525 94.4582C29.4364 94.7596 29.4393 95.0109 29.5346 95.2129C29.6305 95.416 29.7824 95.5476 29.9917 95.6089C30.2003 95.6708 30.3994 95.6429 30.588 95.5229C30.7765 95.405 30.9163 95.1928 31.0064 94.8877C31.0939 94.5904 31.0901 94.3402 30.9962 94.1389C30.9024 93.9366 30.7504 93.8047 30.5417 93.7434C30.3322 93.6815 30.1332 93.71 29.9426 93.8282C29.7531 93.9465 29.6139 94.1566 29.525 94.4576V94.4582ZM28.7134 94.172C28.7918 93.9049 28.9333 93.6661 29.1385 93.4551C29.3442 93.2436 29.5863 93.1084 29.8658 93.048C30.1454 92.9873 30.4328 93.0003 30.7303 93.0875C31.1895 93.2232 31.5207 93.4824 31.7259 93.8672C31.9313 94.2528 31.9665 94.6724 31.832 95.1283C31.6963 95.5886 31.4359 95.9257 31.0517 96.141C30.6661 96.3561 30.2494 96.397 29.8002 96.2645C29.5224 96.1826 29.2759 96.041 29.0606 95.8411C28.8459 95.6415 28.7084 95.4003 28.6486 95.1179C28.5884 94.8363 28.6108 94.521 28.7137 94.172H28.7134ZM26.0551 93.2343C25.9473 93.5551 25.9135 93.8021 25.9528 93.975C26.0112 94.226 26.1544 94.3899 26.3834 94.4669C26.5653 94.5282 26.7467 94.5024 26.9265 94.3891C27.1067 94.2763 27.2485 94.065 27.3525 93.755C27.4688 93.4095 27.4906 93.1404 27.4176 92.9463C27.3444 92.7522 27.2119 92.6232 27.0184 92.5581C26.8306 92.495 26.6482 92.5174 26.4706 92.6249C26.2939 92.7327 26.155 92.9358 26.0548 93.2346L26.0551 93.2343ZM27.6469 95.5029L26.9132 95.2562L27.0611 94.8159C26.8812 94.9461 26.6926 95.0254 26.4968 95.056C26.3012 95.0859 26.1184 95.0725 25.9487 95.0159C25.6029 94.8996 25.3539 94.6616 25.201 94.3001C25.0488 93.9395 25.0557 93.5103 25.2231 93.0125C25.3937 92.5037 25.6433 92.1568 25.9722 91.9728C26.3012 91.7883 26.6479 91.7581 27.014 91.881C27.3493 91.994 27.5934 92.2314 27.7443 92.5921L28.2458 91.0987L29.0377 91.3649L27.6469 95.5029ZM21.875 92.3349L22.6982 92.5505C22.6671 92.7132 22.6845 92.8548 22.7522 92.9745C22.8188 93.0951 22.9434 93.1942 23.1233 93.2715C23.3224 93.3572 23.4871 93.3854 23.6191 93.356C23.7083 93.3333 23.7719 93.279 23.8088 93.1933C23.8338 93.1352 23.8361 93.0785 23.8161 93.0247C23.7934 92.9719 23.7228 92.9004 23.6034 92.8126C23.0422 92.4075 22.7031 92.1132 22.5854 91.9292C22.423 91.6721 22.4024 91.4041 22.5227 91.1252C22.6316 90.8726 22.8231 90.7035 23.0954 90.6178C23.3683 90.5321 23.7132 90.5786 24.1302 90.7584C24.528 90.9299 24.7954 91.1226 24.9328 91.3356C25.0697 91.5494 25.1202 91.7993 25.0833 92.0856L24.3031 91.9086C24.3211 91.7819 24.2993 91.6683 24.2386 91.5704C24.1782 91.4718 24.0669 91.3884 23.9053 91.3193C23.7019 91.2312 23.5441 91.1967 23.4308 91.2153C23.3549 91.2301 23.3035 91.2699 23.2759 91.3335C23.2523 91.3884 23.2573 91.4463 23.2922 91.5064C23.3401 91.5881 23.549 91.7636 23.9192 92.0333C24.2897 92.3038 24.5272 92.5412 24.6309 92.7464C24.7335 92.9524 24.7314 93.1782 24.626 93.4226C24.5112 93.6887 24.3014 93.8704 23.996 93.9657C23.6914 94.0613 23.3206 94.0157 22.8836 93.8271C22.4881 93.6565 22.2091 93.4412 22.0467 93.182C21.8848 92.9227 21.8273 92.6412 21.8744 92.3361L21.875 92.3349ZM20.2163 92.5578L21.6024 89.7132L22.353 90.0791L20.9672 92.9236L20.2163 92.5578ZM21.7892 89.3296L22.1283 88.6334L22.8792 88.9992L22.5401 89.6952L21.7892 89.3293V89.3296ZM15.7061 90.188L16.9198 85.8713L17.7149 86.3104L16.8324 89.2491L18.9807 87.0102L19.9001 87.5187L19.0917 90.5562L21.1488 88.2091L21.9249 88.638L18.8924 91.9499L18.0662 91.4931L18.8924 88.2202L16.5549 90.657L15.7063 90.1877L15.7061 90.188Z" fill="#D7DF23"/>
<path d="M88.8594 73.5645H102.708" stroke="#252525" stroke-width="0.38532" stroke-miterlimit="2.61"/>
<path d="M100.752 69.1626L103.081 74.1131" stroke="#252525" stroke-width="0.38532" stroke-miterlimit="2.61"/>
<path d="M25.6237 75.7803H11.8486" stroke="#252525" stroke-width="0.77064" stroke-miterlimit="2.61"/>
<path d="M11.2773 70.9031L11.4572 81.2347" stroke="#252525" stroke-width="0.77064" stroke-miterlimit="2.61"/>
<path d="M77.0522 17.111V22.7333H78.3273C78.8038 22.7333 79.1476 22.7057 79.3592 22.6523C79.6378 22.5831 79.8674 22.4648 80.0493 22.2986C80.2332 22.1324 80.3814 21.8595 80.4959 21.4803C80.6128 21.1005 80.67 20.5804 80.67 19.9242C80.67 19.2681 80.6125 18.7657 80.4959 18.4137C80.3812 18.0618 80.219 17.789 80.0115 17.5914C79.804 17.3955 79.5411 17.2613 79.2208 17.1921C78.9837 17.1386 78.515 17.111 77.819 17.111H77.0522ZM75.3322 15.6755H78.4598C79.1656 15.6755 79.7032 15.729 80.0728 15.8377C80.5692 15.9839 80.9963 16.2448 81.3503 16.6205C81.7062 16.9939 81.975 17.4528 82.1607 17.9965C82.3444 18.5381 82.4374 19.2088 82.4374 20.0033C82.4374 20.7033 82.3502 21.3042 82.1764 21.8101C81.9649 22.4294 81.6624 22.9295 81.2689 23.3107C80.9722 23.6013 80.5709 23.8268 80.0667 23.989C79.689 24.1099 79.1848 24.1691 78.5522 24.1691H75.3316V15.6755H75.3322ZM71.2732 20.8004L70.0929 17.6565L68.9462 20.8004H71.2732ZM74.4165 24.1691H72.564L71.8306 22.2353H68.424L67.7182 24.1691H65.8994L69.1973 15.6755H71.014L74.4165 24.1691ZM56.8604 24.1691V15.6755H59.4364L60.9588 21.4684L62.4632 15.6755H65.0454V24.1691H63.4558L63.4497 17.4827L61.7751 24.1691H60.1222L58.4557 17.4827L58.4496 24.1691H56.8601H56.8604ZM48.9721 24.1691V15.6755H55.2589V17.111H50.692V18.997H54.9387V20.4325H50.692V22.7333H55.4249V24.1691H48.9718H48.9721ZM42.1255 19.2698H43.3945C44.2172 19.2698 44.7292 19.2344 44.9349 19.1652C45.1386 19.0961 45.3005 18.9755 45.4152 18.8055C45.5321 18.6352 45.589 18.4219 45.589 18.1667C45.589 17.8799 45.512 17.651 45.3597 17.4728C45.2078 17.2964 44.9922 17.186 44.7152 17.1404C44.5749 17.1209 44.1576 17.111 43.4637 17.111H42.1252V19.2698H42.1255ZM40.4055 24.1691V15.6755H44.0175C44.925 15.6755 45.5852 15.7528 45.9964 15.9048C46.4099 16.0571 46.7377 16.3282 46.985 16.7176C47.2323 17.1087 47.3567 17.5539 47.3567 18.056C47.3567 18.6942 47.171 19.2204 46.7973 19.6354C46.4236 20.0509 45.866 20.3116 45.1226 20.4203C45.4923 20.6359 45.7968 20.873 46.0359 21.1319C46.2771 21.3911 46.6014 21.852 47.0085 22.5119L48.0445 24.1688H45.9944L44.7646 22.3143C44.3238 21.6561 44.0213 21.2409 43.8571 21.0689C43.695 20.8986 43.5232 20.78 43.3413 20.7167C43.1574 20.6536 42.8688 20.6219 42.4733 20.6219H42.1255V24.1686H40.4055V24.1691ZM35.0694 24.1691V17.111H32.5547V15.6755H39.2926V17.111H36.7894V24.1691H35.0694Z" fill="#D7DF23"/>
<path d="M79.4157 30.3615L81.0884 30.1956C81.1892 30.7547 81.3909 31.1641 81.6974 31.4274C82.0037 31.6904 82.4169 31.8209 82.9371 31.8209C83.4869 31.8209 83.9018 31.704 84.1808 31.4707C84.4598 31.2376 84.5998 30.9645 84.5998 30.6524C84.5998 30.451 84.5406 30.2807 84.4237 30.1383C84.3072 29.9983 84.1015 29.8757 83.8089 29.7728C83.6092 29.7016 83.1545 29.579 82.4428 29.4011C81.5275 29.1719 80.885 28.8911 80.515 28.557C79.9952 28.0885 79.7363 27.5169 79.7363 26.8428C79.7363 26.4098 79.8586 26.0024 80.1018 25.6252C80.3471 25.2475 80.699 24.9606 81.1596 24.763C81.6201 24.5652 82.1737 24.4664 82.8261 24.4664C83.8879 24.4664 84.6885 24.7017 85.2243 25.1739C85.7622 25.6464 86.0429 26.2753 86.0705 27.0645L84.3505 27.1238C84.2773 26.6847 84.1212 26.3703 83.8821 26.1788C83.6429 25.9867 83.2829 25.8899 82.8046 25.8899C82.3263 25.8899 81.9227 25.9928 81.644 26.1983C81.4641 26.3311 81.3731 26.5069 81.3731 26.7286C81.3731 26.9303 81.4583 27.102 81.6283 27.2444C81.8439 27.428 82.3678 27.6184 83.2001 27.8157C84.0326 28.0115 84.6475 28.2173 85.0447 28.4265C85.444 28.6383 85.7564 28.9248 85.9819 29.2907C86.2074 29.6563 86.3198 30.107 86.3198 30.6428C86.3198 31.1293 86.1853 31.5858 85.9145 32.0109C85.6436 32.4363 85.2621 32.7525 84.7678 32.9582C84.2735 33.1654 83.6566 33.2683 82.9194 33.2683C81.8459 33.2683 81.0212 33.0213 80.4462 32.5252C79.8708 32.0312 79.5288 31.3091 79.416 30.3624M72.6683 33.1137V24.6913H74.3883V31.6782H78.6469V33.1137H72.6683ZM64.8055 28.8609C64.8055 29.8239 65.029 30.5536 65.4736 31.0514C65.9185 31.5474 66.484 31.7967 67.168 31.7967C67.8521 31.7967 68.4155 31.5497 68.8563 31.0572C69.2954 30.5632 69.5148 29.8236 69.5148 28.8374C69.5148 27.8511 69.3015 27.1348 68.8723 26.6562C68.4452 26.1759 67.8779 25.9367 67.168 25.9367C66.4581 25.9367 65.8889 26.1797 65.4562 26.6644C65.0232 27.1505 64.8055 27.8822 64.8055 28.8606V28.8609ZM63.0379 28.9185C63.0379 28.0522 63.1684 27.3246 63.4276 26.7356C63.6194 26.3029 63.8841 25.9132 64.2183 25.5694C64.5522 25.2254 64.9183 24.9702 65.3155 24.8023C65.8456 24.5788 66.4564 24.4661 67.1483 24.4661C68.4019 24.4661 69.4021 24.8555 70.1556 25.6325C70.907 26.4116 71.2825 27.4931 71.2825 28.8789C71.2825 30.2648 70.9088 31.3289 70.1634 32.1036C69.4181 32.8806 68.4196 33.268 67.1721 33.268C65.9246 33.268 64.9026 32.8827 64.1572 32.1094C63.4119 31.3385 63.0382 30.2746 63.0382 28.9187L63.0379 28.9185ZM55.5785 28.8609C55.5785 29.8239 55.802 30.5536 56.2466 31.0514C56.6915 31.5474 57.2569 31.7967 57.941 31.7967C58.625 31.7967 59.1885 31.5497 59.6293 31.0572C60.0684 30.5632 60.2875 29.8236 60.2875 28.8374C60.2875 27.8511 60.0742 27.1348 59.645 26.6562C59.2178 26.1759 58.6506 25.9367 57.9407 25.9367C57.2308 25.9367 56.6615 26.1797 56.2288 26.6644C55.7959 27.1505 55.5782 27.8822 55.5782 28.8606L55.5785 28.8609ZM53.8111 28.9185C53.8111 28.0522 53.9416 27.3246 54.2008 26.7356C54.3926 26.3029 54.6573 25.9132 54.9915 25.5694C55.3254 25.2254 55.6915 24.9702 56.0888 24.8023C56.6188 24.5788 57.2296 24.4661 57.9215 24.4661C59.1751 24.4661 60.1753 24.8555 60.9288 25.6325C61.6803 26.4116 62.0557 27.4931 62.0557 28.8789C62.0557 30.2648 61.682 31.3289 60.9367 32.1036C60.1913 32.8806 59.1928 33.268 57.9453 33.268C56.6978 33.268 55.6758 32.8827 54.9305 32.1094C54.1851 31.3385 53.8114 30.2746 53.8114 28.9187L53.8111 28.9185ZM45.6006 33.1137V24.6201H47.3206V27.965H50.6655V24.6201H52.3858V33.1137H50.6655V29.4005H47.3206V33.1137H45.6006ZM42.4669 29.982L44.1276 30.4923C43.8727 31.4274 43.4476 32.1213 42.8545 32.5758C42.2614 33.0288 41.51 33.2558 40.5987 33.2558C39.47 33.2558 38.5428 32.8705 37.8151 32.0995C37.0895 31.3283 36.7257 30.2743 36.7257 28.9359C36.7257 27.5228 37.0913 26.4232 37.8209 25.6406C38.5506 24.8578 39.5113 24.4661 40.7015 24.4661C41.7416 24.4661 42.5857 24.7744 43.2343 25.3893C43.6217 25.7534 43.9102 26.2753 44.104 26.957L42.4076 27.3606C42.3068 26.9215 42.0972 26.5737 41.7788 26.3186C41.4585 26.0631 41.0712 25.937 40.6164 25.937C39.9858 25.937 39.4735 26.1625 39.0821 26.6153C38.6889 27.066 38.4931 27.7977 38.4931 28.8098C38.4931 29.8812 38.6869 30.6463 39.0722 31.1014C39.4596 31.5579 39.962 31.7854 40.5807 31.7854C41.0375 31.7854 41.4309 31.6413 41.759 31.3507C42.0874 31.0601 42.3245 30.605 42.4669 29.9823V29.982ZM28.6709 30.3615L30.3435 30.1956C30.4444 30.7547 30.646 31.1641 30.9526 31.4274C31.2592 31.6904 31.6721 31.8209 32.192 31.8209C32.7417 31.8209 33.1567 31.704 33.4357 31.4707C33.7146 31.2376 33.8547 30.9645 33.8547 30.6524C33.8547 30.451 33.7954 30.2807 33.6789 30.1383C33.5624 29.9983 33.3566 29.8757 33.064 29.7728C32.8644 29.7016 32.4096 29.579 31.698 29.4011C30.7823 29.1719 30.1401 28.8911 29.7702 28.557C29.2503 28.0885 28.9911 27.5169 28.9911 26.8428C28.9911 26.4098 29.1138 26.0024 29.3567 25.6252C29.6019 25.2475 29.9538 24.9606 30.4144 24.763C30.875 24.5652 31.4286 24.4664 32.081 24.4664C33.1428 24.4664 33.9433 24.7017 34.4792 25.1739C35.0171 25.6464 35.2978 26.2753 35.3254 27.0645L33.6054 27.1238C33.5324 26.6847 33.3761 26.3703 33.1369 26.1788C32.8978 25.9867 32.538 25.8899 32.0594 25.8899C31.5808 25.8899 31.1775 25.9928 30.8988 26.1983C30.719 26.3311 30.628 26.5069 30.628 26.7286C30.628 26.9303 30.7132 27.102 30.8831 27.2444C31.0988 27.428 31.6227 27.6184 32.4549 27.8157C33.2875 28.0115 33.9024 28.2173 34.2996 28.4265C34.6989 28.6383 35.0112 28.9248 35.2367 29.2907C35.4622 29.6563 35.5747 30.107 35.5747 30.6428C35.5747 31.1293 35.4402 31.5858 35.1693 32.0109C34.8985 32.4363 34.517 32.7525 34.0227 32.9582C33.5284 33.1654 32.9115 33.2683 32.1742 33.2683C31.1008 33.2683 30.2761 33.0213 29.701 32.5252C29.1257 32.0312 28.7836 31.3091 28.6709 30.3624V30.3615Z" fill="#D7DF23"/>
<path d="M68.0152 52.1587C68.2119 52.1282 68.4333 52.1573 68.5958 52.2753C68.7678 52.3999 69.3499 52.9843 69.4806 53.1569C69.6503 53.3807 69.6576 53.7331 69.5155 53.9737C65.3116 58.2512 61.035 62.465 56.8028 66.7178C55.7878 67.235 54.7879 67.7851 53.7708 68.2983C53.6732 68.3477 53.4678 68.4706 53.3786 68.4947C53.3137 68.5125 53.2571 68.5168 53.2588 68.4355L55.0558 64.9507L67.6371 52.3694C67.7403 52.2808 67.8772 52.1802 68.0152 52.1587ZM68.0544 52.3156C67.896 52.3424 67.5049 52.7251 67.4015 52.8599C67.3901 52.8747 67.3695 52.8832 67.3742 52.907L68.8716 54.3902C69.1842 54.0685 69.7224 53.7288 69.326 53.2333C69.2142 53.0936 68.5414 52.4206 68.4139 52.3595C68.3023 52.3061 68.1776 52.295 68.0547 52.3159L68.0544 52.3156ZM67.2283 53.0386L66.745 53.5181L68.2462 55.0193L68.7257 54.5218L67.2283 53.0386ZM55.2822 64.9902C55.4432 64.9743 55.6324 65.0475 55.7858 65.0486C55.8082 65.0486 55.8259 65.0486 55.8424 65.0312L66.9121 53.9403L66.6073 53.655L55.2822 64.9902ZM55.9494 65.7559C56.095 65.7219 56.4771 65.8405 56.5884 65.7766L67.6668 54.6959L67.049 54.0781L55.9497 65.1771V65.7562L55.9494 65.7559ZM56.7741 66.4821L68.1093 55.157L67.8045 54.8324L56.7136 65.9021C56.6959 65.9187 56.6962 65.9364 56.6962 65.9588C56.6962 66.1102 56.7851 66.3203 56.7741 66.4821ZM55.773 65.2064L55.1276 65.1303L53.9371 67.4425C53.9955 67.6038 54.144 67.7084 54.2622 67.8275L56.6352 66.6376L56.5349 65.9756C56.5053 65.93 55.85 65.9434 55.8105 65.8806C55.7649 65.8082 55.7913 65.3259 55.773 65.2067V65.2064Z" fill="#006437"/>
<path d="M55.9495 65.756V65.1769L67.0488 54.0779L67.6666 54.6957L56.5882 65.7764C56.4769 65.8403 56.0948 65.7218 55.9492 65.7558L55.9495 65.756Z" fill="#D7DF23"/>
<path d="M56.7742 66.4822C56.7852 66.3203 56.6966 66.1105 56.6963 65.9589C56.6963 65.9365 56.696 65.9187 56.7137 65.9022L67.8046 54.8325L68.1094 55.1571L56.7742 66.4822Z" fill="#006437"/>
<path d="M55.2822 64.9903L66.6073 53.655L66.9121 53.9404L55.8425 65.0313C55.8256 65.049 55.8082 65.049 55.7858 65.0487C55.6327 65.0478 55.4435 64.9746 55.2822 64.9903Z" fill="#006437"/>
<path d="M55.7734 65.2065C55.7917 65.326 55.7653 65.8084 55.8109 65.8804C55.8504 65.9432 56.5057 65.9298 56.5354 65.9754L56.6356 66.6374L54.2627 67.8274C54.1444 67.7085 53.9959 67.6039 53.9375 67.4423L55.128 65.1301L55.7734 65.2063V65.2065Z" fill="#D7DF23"/>
<path d="M68.0543 52.3158C68.1772 52.2949 68.3019 52.3062 68.4134 52.3594C68.541 52.4204 69.2137 53.0934 69.3256 53.2332C69.722 53.7286 69.1838 54.0683 68.8711 54.39L67.3737 52.9068C67.3691 52.883 67.3897 52.8746 67.401 52.8598C67.5048 52.7249 67.8956 52.3422 68.054 52.3155L68.0543 52.3158Z" fill="#D7DF23"/>
<path d="M67.2284 53.0388L68.7258 54.522L68.2463 55.0195L66.7451 53.5183L67.2284 53.0388Z" fill="#D7DF23"/>
<defs>
<linearGradient id="paint0_linear_327_28927" x1="52.085" y1="50.3281" x2="70.4458" y2="50.3281" gradientUnits="userSpaceOnUse">
<stop stop-color="#F7941D"/>
<stop offset="1" stop-color="#ED1C24"/>
</linearGradient>
</defs>
</svg>
