<svg width="100" height="100" viewBox="0 0 100 100" fill="none" xmlns="http://www.w3.org/2000/svg">
<path d="M15.3066 6.63257V33.1632V40.7764L50.0005 60.7142L84.6944 40.7764V33.1632V6.63257H15.3066Z" fill="white"/>
<path d="M15.3063 33.1631V40.7763L2.04102 33.1631H15.3063Z" fill="#006437"/>
<path d="M97.9596 33.1631L84.6943 40.7763V33.1631H97.9596Z" fill="#006437"/>
<path d="M84.6941 40.7764L97.9594 33.1631V93.3672H2.04102V33.1631L15.3063 40.7764L50.0002 60.7141L84.6941 40.7764Z" fill="#006437"/>
<path d="M98.9818 31.3971C98.6657 31.2142 98.3127 31.1228 97.9592 31.1228V31.1224H86.7347V6.63261C86.7347 5.50567 85.8208 4.5918 84.6939 4.5918H15.3061C14.1792 4.5918 13.2653 5.50567 13.2653 6.63261V31.1224H2.04082V31.1228C1.68755 31.1228 1.33429 31.214 1.01816 31.3971C0.387959 31.762 0 32.4351 0 33.1632V93.3673C0 94.4942 0.913674 95.4081 2.04082 95.4081H97.9592C99.0861 95.4081 100 94.4942 100 93.3673V33.1632C100 32.4351 99.612 31.762 98.9818 31.3971ZM90.3033 35.204L86.7347 37.2522V35.204H90.3033ZM82.6531 8.67343V39.5957L50 58.3606L17.3469 39.5955V8.67343H82.6531ZM13.2653 37.2522L9.69674 35.204H13.2653V37.2522ZM95.9184 91.3265H4.08163V87.2449H90.8163V83.1632H4.08163V36.6875L14.2894 42.5459L48.9833 62.4836C49.6127 62.8455 50.3876 62.8455 51.0169 62.4836L85.7098 42.5465L95.9184 36.6875V91.3265Z" fill="#7FF0BD"/>
<path d="M31.6328 12.7551H21.4287V16.8368H31.6328V12.7551Z" fill="#7FF0BD"/>
<path d="M78.5716 22.9592H21.4287V27.0409H78.5716V22.9592Z" fill="#7FF0BD"/>
<path d="M72.4487 31.1223H27.5508V35.2039H72.4487V31.1223Z" fill="#7FF0BD"/>
<path d="M63.265 39.2856H36.7344V43.3673H63.265V39.2856Z" fill="#7FF0BD"/>
<path d="M40.8159 12.7551H35.7139V16.8368H40.8159V12.7551Z" fill="#7FF0BD"/>
</svg>
