<svg width="20" height="20" viewBox="0 0 20 20" fill="none" xmlns="http://www.w3.org/2000/svg">
<path d="M9.72369 15.792L10.1596 16.4023L9.72369 15.792ZM9.76789 15.7605L9.33587 15.1474L9.76789 15.7605ZM12.1413 14.9999L12.1461 15.7499L12.1413 14.9999ZM6.1626 16.2584L6.85896 16.5369L6.1626 16.2584ZM7.54808 17.346L7.11215 16.7357L7.54808 17.346ZM18.1643 12.0055L18.884 12.2166L18.1643 12.0055ZM15.3384 14.8315L15.5494 15.5512L15.3384 14.8315ZM3.94106 2.12064L4.28155 2.7889L3.94106 2.12064ZM2.12016 3.94154L2.78841 4.28204L2.12016 3.94154ZM16.0576 2.12064L15.7171 2.7889L16.0576 2.12064ZM17.8785 3.94154L17.2103 4.28204L17.8785 3.94154ZM6.66602 9.24984C6.2518 9.24984 5.91602 9.58562 5.91602 9.99984C5.91602 10.4141 6.2518 10.7498 6.66602 10.7498V9.99984V9.24984ZM13.3327 10.7498C13.7469 10.7498 14.0827 10.4141 14.0827 9.99984C14.0827 9.58562 13.7469 9.24984 13.3327 9.24984V9.99984V10.7498ZM9.99935 5.9165C9.58513 5.9165 9.24935 6.25229 9.24935 6.6665C9.24935 7.08072 9.58513 7.4165 9.99935 7.4165V6.6665V5.9165ZM13.3327 7.4165C13.7469 7.4165 14.0827 7.08072 14.0827 6.6665C14.0827 6.25229 13.7469 5.9165 13.3327 5.9165V6.6665V7.4165ZM11.666 1.6665V0.916504H8.33268V1.6665V2.4165H11.666V1.6665ZM1.66602 8.33317H0.916016V11.8568H1.66602H2.41602V8.33317H1.66602ZM18.3327 9.32002H19.0827V8.33317H18.3327H17.5827V9.32002H18.3327ZM4.80906 14.9998V15.7498H5.31053V14.9998V14.2498H4.80906V14.9998ZM7.54808 17.346L7.98401 17.9563L10.1596 16.4023L9.72369 15.792L9.28777 15.1817L7.11215 16.7357L7.54808 17.346ZM12.1955 14.9998V15.7498H12.6529V14.9998V14.2498H12.1955V14.9998ZM9.72369 15.792L10.1596 16.4023C10.1826 16.3859 10.1914 16.3796 10.1999 16.3736L9.76789 15.7605L9.33587 15.1474C9.32255 15.1568 9.30919 15.1664 9.28777 15.1817L9.72369 15.792ZM12.1955 14.9998V14.2498C12.1692 14.2498 12.1528 14.2498 12.1365 14.2499L12.1413 14.9999L12.1461 15.7499C12.1565 15.7498 12.1673 15.7498 12.1955 15.7498V14.9998ZM9.76789 15.7605L10.1999 16.3736C10.7698 15.972 11.4489 15.7544 12.1461 15.7499L12.1413 14.9999L12.1365 14.2499C11.1332 14.2564 10.156 14.5695 9.33587 15.1474L9.76789 15.7605ZM5.31053 14.9998V15.7498C5.42917 15.7498 5.51031 15.8697 5.46624 15.9798L6.1626 16.2584L6.85896 16.5369C7.29714 15.4415 6.49037 14.2498 5.31053 14.2498V14.9998ZM6.1626 16.2584L5.46624 15.9798C4.84766 17.5263 6.62867 18.9244 7.98401 17.9563L7.54808 17.346L7.11215 16.7357C7.06468 16.7696 7.03191 16.7728 7.01019 16.7716C6.98199 16.77 6.94572 16.7583 6.91112 16.7311C6.87651 16.704 6.85649 16.6715 6.84829 16.6445C6.84198 16.6237 6.83729 16.5911 6.85896 16.5369L6.1626 16.2584ZM18.3327 9.32002H17.5827C17.5827 10.7804 17.575 11.3498 17.4446 11.7945L18.1643 12.0055L18.884 12.2166C19.0903 11.5131 19.0827 10.6749 19.0827 9.32002H18.3327ZM12.6529 14.9998V15.7498C14.0077 15.7498 14.8459 15.7575 15.5494 15.5512L15.3384 14.8315L15.1274 14.1118C14.6826 14.2422 14.1133 14.2498 12.6529 14.2498V14.9998ZM18.1643 12.0055L17.4446 11.7945C17.1172 12.9112 16.244 13.7844 15.1274 14.1118L15.3384 14.8315L15.5494 15.5512C17.1563 15.08 18.4129 13.8234 18.884 12.2166L18.1643 12.0055ZM1.66602 11.8568H0.916016C0.916016 14.0069 2.65899 15.7498 4.80906 15.7498V14.9998V14.2498C3.48742 14.2498 2.41602 13.1784 2.41602 11.8568H1.66602ZM8.33268 1.6665V0.916504C7.17828 0.916504 6.26737 0.915921 5.53495 0.975762C4.79377 1.03632 4.16956 1.16247 3.60056 1.45239L3.94106 2.12064L4.28155 2.7889C4.60385 2.62468 5.00868 2.52376 5.6571 2.47078C6.31427 2.41709 7.15353 2.4165 8.33268 2.4165V1.6665ZM1.66602 8.33317H2.41602C2.41602 7.15402 2.4166 6.31476 2.47029 5.65759C2.52327 5.00917 2.62419 4.60434 2.78841 4.28204L2.12016 3.94154L1.4519 3.60105C1.16198 4.17005 1.03583 4.79426 0.975274 5.53544C0.915432 6.26786 0.916016 7.17877 0.916016 8.33317H1.66602ZM3.94106 2.12064L3.60056 1.45239C2.67543 1.92377 1.92328 2.67592 1.4519 3.60105L2.12016 3.94154L2.78841 4.28204C3.11598 3.63915 3.63866 3.11647 4.28155 2.7889L3.94106 2.12064ZM11.666 1.6665V2.4165C12.8452 2.4165 13.6844 2.41709 14.3416 2.47078C14.99 2.52376 15.3949 2.62468 15.7171 2.7889L16.0576 2.12064L16.3981 1.45239C15.8291 1.16247 15.2049 1.03632 14.4637 0.975762C13.7313 0.915921 12.8204 0.916504 11.666 0.916504V1.6665ZM18.3327 8.33317H19.0827C19.0827 7.17877 19.0833 6.26786 19.0234 5.53544C18.9629 4.79426 18.8367 4.17005 18.5468 3.60105L17.8785 3.94154L17.2103 4.28204C17.3745 4.60434 17.4754 5.00917 17.5284 5.65759C17.5821 6.31476 17.5827 7.15402 17.5827 8.33317H18.3327ZM16.0576 2.12064L15.7171 2.7889C16.36 3.11647 16.8827 3.63915 17.2103 4.28204L17.8785 3.94154L18.5468 3.60105C18.0754 2.67592 17.3233 1.92377 16.3981 1.45239L16.0576 2.12064ZM6.66602 9.99984V10.7498H13.3327V9.99984V9.24984H6.66602V9.99984ZM9.99935 6.6665V7.4165H13.3327V6.6665V5.9165H9.99935V6.6665Z" fill="#525252"/>
</svg>
