<svg width="40" height="40" viewBox="0 0 40 40" fill="none" xmlns="http://www.w3.org/2000/svg">
<rect width="40" height="40" rx="20" fill="#FEF6F6"/>
<path d="M24.7502 11.56V10C24.7502 9.59 24.4102 9.25 24.0002 9.25C23.5902 9.25 23.2502 9.59 23.2502 10V11.5H16.7502V10C16.7502 9.59 16.4102 9.25 16.0002 9.25C15.5902 9.25 15.2502 9.59 15.2502 10V11.56C12.5502 11.81 11.2402 13.42 11.0402 15.81C11.0202 16.1 11.2602 16.34 11.5402 16.34H28.4602C28.7502 16.34 28.9902 16.09 28.9602 15.81C28.7602 13.42 27.4502 11.81 24.7502 11.56Z" fill="#E7000D"/>
<path opacity="0.4" d="M28 17.8398C28.55 17.8398 29 18.2898 29 18.8398V24.9998C29 27.9998 27.5 29.9998 24 29.9998H16C12.5 29.9998 11 27.9998 11 24.9998V18.8398C11 18.2898 11.45 17.8398 12 17.8398H28Z" fill="#E7000D"/>
<path d="M16.5 22.9999C16.24 22.9999 15.98 22.8899 15.79 22.7099C15.61 22.5199 15.5 22.2599 15.5 21.9999C15.5 21.7399 15.61 21.4799 15.79 21.2899C16.07 21.0099 16.51 20.9199 16.88 21.0799C17.01 21.1299 17.12 21.1999 17.21 21.2899C17.39 21.4799 17.5 21.7399 17.5 21.9999C17.5 22.2599 17.39 22.5199 17.21 22.7099C17.02 22.8899 16.76 22.9999 16.5 22.9999Z" fill="#E7000D"/>
<path d="M20 22.9999C19.74 22.9999 19.48 22.8899 19.29 22.7099C19.11 22.5199 19 22.2599 19 21.9999C19 21.7399 19.11 21.4799 19.29 21.2899C19.38 21.1999 19.49 21.1299 19.62 21.0799C19.99 20.9199 20.43 21.0099 20.71 21.2899C20.89 21.4799 21 21.7399 21 21.9999C21 22.2599 20.89 22.5199 20.71 22.7099C20.66 22.7499 20.61 22.7899 20.56 22.8299C20.5 22.8699 20.44 22.8999 20.38 22.9199C20.32 22.9499 20.26 22.9699 20.2 22.9799C20.13 22.9899 20.07 22.9999 20 22.9999Z" fill="#E7000D"/>
<path d="M23.5 23C23.24 23 22.98 22.89 22.79 22.71C22.61 22.52 22.5 22.26 22.5 22C22.5 21.74 22.61 21.48 22.79 21.29C22.89 21.2 22.99 21.13 23.12 21.08C23.3 21 23.5 20.98 23.7 21.02C23.76 21.03 23.82 21.05 23.88 21.08C23.94 21.1 24 21.13 24.06 21.17C24.11 21.21 24.16 21.25 24.21 21.29C24.39 21.48 24.5 21.74 24.5 22C24.5 22.26 24.39 22.52 24.21 22.71C24.16 22.75 24.11 22.79 24.06 22.83C24 22.87 23.94 22.9 23.88 22.92C23.82 22.95 23.76 22.97 23.7 22.98C23.63 22.99 23.56 23 23.5 23Z" fill="#E7000D"/>
<path d="M16.5 26.5C16.37 26.5 16.24 26.47 16.12 26.42C15.99 26.37 15.89 26.3 15.79 26.21C15.61 26.02 15.5 25.76 15.5 25.5C15.5 25.24 15.61 24.98 15.79 24.79C15.89 24.7 15.99 24.63 16.12 24.58C16.3 24.5 16.5 24.48 16.7 24.52C16.76 24.53 16.82 24.55 16.88 24.58C16.94 24.6 17 24.63 17.06 24.67C17.11 24.71 17.16 24.75 17.21 24.79C17.39 24.98 17.5 25.24 17.5 25.5C17.5 25.76 17.39 26.02 17.21 26.21C17.16 26.25 17.11 26.3 17.06 26.33C17 26.37 16.94 26.4 16.88 26.42C16.82 26.45 16.76 26.47 16.7 26.48C16.63 26.49 16.57 26.5 16.5 26.5Z" fill="#E7000D"/>
<path d="M20 26.5002C19.74 26.5002 19.48 26.3902 19.29 26.2102C19.11 26.0202 19 25.7602 19 25.5002C19 25.2402 19.11 24.9802 19.29 24.7902C19.66 24.4202 20.34 24.4202 20.71 24.7902C20.89 24.9802 21 25.2402 21 25.5002C21 25.7602 20.89 26.0202 20.71 26.2102C20.52 26.3902 20.26 26.5002 20 26.5002Z" fill="#E7000D"/>
<path d="M23.5 26.5002C23.24 26.5002 22.98 26.3902 22.79 26.2102C22.61 26.0202 22.5 25.7602 22.5 25.5002C22.5 25.2402 22.61 24.9802 22.79 24.7902C23.16 24.4202 23.84 24.4202 24.21 24.7902C24.39 24.9802 24.5 25.2402 24.5 25.5002C24.5 25.7602 24.39 26.0202 24.21 26.2102C24.02 26.3902 23.76 26.5002 23.5 26.5002Z" fill="#E7000D"/>
</svg>
