<svg width="40" height="40" viewBox="0 0 40 40" fill="none" xmlns="http://www.w3.org/2000/svg">
<rect width="40" height="40" rx="20" fill="#FFF7E6"/>
<path d="M27.97 9.75H25.03C23.76 9.75 23 10.51 23 11.78V14.72C23 15.99 23.76 16.75 25.03 16.75H27.97C29.24 16.75 30 15.99 30 14.72V11.78C30 10.51 29.24 9.75 27.97 9.75ZM28.19 13.06C28.07 13.18 27.91 13.24 27.75 13.24C27.59 13.24 27.43 13.18 27.31 13.06L27.13 12.88V15.12C27.13 15.47 26.85 15.75 26.5 15.75C26.15 15.75 25.87 15.47 25.87 15.12V12.88L25.69 13.06C25.45 13.3 25.05 13.3 24.81 13.06C24.57 12.82 24.57 12.42 24.81 12.18L26.06 10.93C26.11 10.88 26.18 10.84 26.25 10.81C26.27 10.8 26.29 10.8 26.31 10.79C26.36 10.77 26.41 10.76 26.47 10.76C26.49 10.76 26.51 10.76 26.53 10.76C26.6 10.76 26.66 10.77 26.73 10.8C26.74 10.8 26.74 10.8 26.75 10.8C26.82 10.83 26.88 10.87 26.93 10.92C26.94 10.93 26.94 10.93 26.95 10.93L28.2 12.18C28.44 12.42 28.44 12.82 28.19 13.06Z" fill="#B57900"/>
<path d="M10 19.46V24.46C10 26.75 11.85 28.6 14.14 28.6H25.85C28.14 28.6 30 26.74 30 24.45V19.46C30 18.79 29.46 18.25 28.79 18.25H11.21C10.54 18.25 10 18.79 10 19.46ZM16 25.25H14C13.59 25.25 13.25 24.91 13.25 24.5C13.25 24.09 13.59 23.75 14 23.75H16C16.41 23.75 16.75 24.09 16.75 24.5C16.75 24.91 16.41 25.25 16 25.25ZM22.5 25.25H18.5C18.09 25.25 17.75 24.91 17.75 24.5C17.75 24.09 18.09 23.75 18.5 23.75H22.5C22.91 23.75 23.25 24.09 23.25 24.5C23.25 24.91 22.91 25.25 22.5 25.25Z" fill="#B57900"/>
<path d="M21.5 12.6104V15.5404C21.5 16.2104 20.96 16.7504 20.29 16.7504H11.21C10.53 16.7504 10 16.1904 10 15.5204C10.01 14.3904 10.46 13.3604 11.21 12.6104C11.96 11.8604 13 11.4004 14.14 11.4004H20.29C20.96 11.4004 21.5 11.9404 21.5 12.6104Z" fill="#B57900"/>
</svg>
