<svg width="44" height="40" viewBox="0 0 44 40" fill="none" xmlns="http://www.w3.org/2000/svg">
<rect width="44" height="40" rx="8" fill="#E8FEF5"/>
<path opacity="0.4" d="M18 30H26C28.76 30 31 27.76 31 25V15C31 12.24 28.76 10 26 10H18C15.24 10 13 12.24 13 15V25C13 27.76 15.24 30 18 30Z" fill="#189261"/>
<path d="M24.9991 13.71H18.9991C17.9691 13.71 17.1191 14.55 17.1191 15.59V16.59C17.1191 17.62 17.9591 18.47 18.9991 18.47H24.9991C26.0291 18.47 26.8791 17.63 26.8791 16.59V15.59C26.8791 14.55 26.0391 13.71 24.9991 13.71Z" fill="#189261"/>
<path d="M18.1604 22.9198C18.0204 22.9198 17.8904 22.8898 17.7704 22.8398C17.6504 22.7898 17.5404 22.7198 17.4504 22.6298C17.2604 22.4398 17.1504 22.1898 17.1504 21.9198C17.1504 21.7898 17.1804 21.6598 17.2304 21.5398C17.2804 21.4098 17.3504 21.3098 17.4504 21.2098C17.6804 20.9798 18.0304 20.8698 18.3504 20.9398C18.4104 20.9498 18.4804 20.9698 18.5404 20.9998C18.6004 21.0198 18.6604 21.0498 18.7104 21.0898C18.7704 21.1198 18.8204 21.1698 18.8604 21.2098C18.9504 21.3098 19.0304 21.4098 19.0804 21.5398C19.1304 21.6598 19.1504 21.7898 19.1504 21.9198C19.1504 22.1898 19.0504 22.4398 18.8604 22.6298C18.6704 22.8198 18.4204 22.9198 18.1604 22.9198Z" fill="#189261"/>
<path d="M22.1504 22.9201C21.8904 22.9201 21.6404 22.8201 21.4504 22.6301C21.2604 22.4401 21.1504 22.1901 21.1504 21.9201C21.1504 21.6601 21.2604 21.4001 21.4504 21.2101C21.8204 20.8401 22.4904 20.8401 22.8604 21.2101C22.9504 21.3101 23.0304 21.4101 23.0804 21.5401C23.1304 21.6601 23.1504 21.7901 23.1504 21.9201C23.1504 22.1901 23.0504 22.4401 22.8604 22.6301C22.6704 22.8201 22.4204 22.9201 22.1504 22.9201Z" fill="#189261"/>
<path d="M26.1504 22.9201C25.8904 22.9201 25.6404 22.8201 25.4504 22.6301C25.2604 22.4401 25.1504 22.1901 25.1504 21.9201C25.1504 21.6601 25.2604 21.4001 25.4504 21.2101C25.8204 20.8401 26.4904 20.8401 26.8604 21.2101C27.0504 21.4001 27.1604 21.6601 27.1604 21.9201C27.1604 22.0501 27.1304 22.1801 27.0804 22.3001C27.0304 22.4201 26.9604 22.5301 26.8604 22.6301C26.6704 22.8201 26.4204 22.9201 26.1504 22.9201Z" fill="#189261"/>
<path d="M18.1604 26.9198C17.8904 26.9198 17.6404 26.8198 17.4504 26.6298C17.2604 26.4398 17.1504 26.1898 17.1504 25.9198C17.1504 25.6598 17.2604 25.3998 17.4504 25.2098C17.5404 25.1198 17.6504 25.0498 17.7704 24.9998C18.0204 24.8998 18.2904 24.8998 18.5404 24.9998C18.6004 25.0198 18.6604 25.0498 18.7104 25.0898C18.7704 25.1198 18.8204 25.1698 18.8604 25.2098C19.0504 25.3998 19.1604 25.6598 19.1604 25.9198C19.1604 26.1898 19.0504 26.4398 18.8604 26.6298C18.6704 26.8198 18.4204 26.9198 18.1604 26.9198Z" fill="#189261"/>
<path d="M22.1504 26.9202C21.8904 26.9202 21.6404 26.8202 21.4504 26.6302C21.2604 26.4402 21.1504 26.1902 21.1504 25.9202C21.1504 25.8502 21.1604 25.7902 21.1704 25.7202C21.1904 25.6602 21.2104 25.6002 21.2304 25.5402C21.2604 25.4802 21.2904 25.4202 21.3204 25.3602C21.3604 25.3102 21.4004 25.2602 21.4504 25.2102C21.5404 25.1202 21.6504 25.0502 21.7704 25.0002C22.1404 24.8502 22.5804 24.9302 22.8604 25.2102C23.0504 25.4002 23.1504 25.6602 23.1504 25.9202C23.1504 26.1902 23.0504 26.4402 22.8604 26.6302C22.7704 26.7202 22.6604 26.7902 22.5404 26.8402C22.4204 26.8902 22.2904 26.9202 22.1504 26.9202Z" fill="#189261"/>
<path d="M26.1502 26.9202C26.0202 26.9202 25.8902 26.8902 25.7702 26.8402C25.6502 26.7902 25.5402 26.7202 25.4502 26.6302C25.2602 26.4402 25.1602 26.1902 25.1602 25.9202C25.1602 25.6602 25.2602 25.4002 25.4502 25.2102C25.7202 24.9302 26.1702 24.8502 26.5402 25.0002C26.6602 25.0502 26.7702 25.1202 26.8602 25.2102C27.0502 25.4002 27.1502 25.6602 27.1502 25.9202C27.1502 26.1902 27.0502 26.4402 26.8602 26.6302C26.6702 26.8202 26.4202 26.9202 26.1502 26.9202Z" fill="#189261"/>
</svg>
