<svg width="20" height="20" viewBox="0 0 20 20" fill="none" xmlns="http://www.w3.org/2000/svg">
<path d="M14.166 17.0832H5.83268C3.33268 17.0832 1.66602 15.8332 1.66602 12.9165V7.08317C1.66602 4.1665 3.33268 2.9165 5.83268 2.9165H14.166C16.666 2.9165 18.3327 4.1665 18.3327 7.08317V12.9165C18.3327 15.8332 16.666 17.0832 14.166 17.0832Z" stroke="#838F89" stroke-width="1.5" stroke-miterlimit="10" stroke-linecap="round" stroke-linejoin="round"/>
<path d="M10 12.5C11.3807 12.5 12.5 11.3807 12.5 10C12.5 8.61929 11.3807 7.5 10 7.5C8.61929 7.5 7.5 8.61929 7.5 10C7.5 11.3807 8.61929 12.5 10 12.5Z" stroke="#838F89" stroke-width="1.5" stroke-miterlimit="10" stroke-linecap="round" stroke-linejoin="round"/>
<path d="M4.58398 7.9165V12.0832" stroke="#838F89" stroke-width="1.5" stroke-miterlimit="10" stroke-linecap="round" stroke-linejoin="round"/>
<path d="M15.416 7.9165V12.0832" stroke="#838F89" stroke-width="1.5" stroke-miterlimit="10" stroke-linecap="round" stroke-linejoin="round"/>
</svg>
