<svg width="20" height="20" viewBox="0 0 20 20" fill="none" xmlns="http://www.w3.org/2000/svg">
<path d="M18.334 4.99984V7.0165C18.334 8.33317 17.5007 9.1665 16.184 9.1665H13.334V3.3415C13.334 2.4165 14.0923 1.6665 15.0173 1.6665C15.9257 1.67484 16.759 2.0415 17.359 2.6415C17.959 3.24984 18.334 4.08317 18.334 4.99984Z" stroke="#838F89" stroke-width="1.5" stroke-miterlimit="10" stroke-linecap="round" stroke-linejoin="round"/>
<path d="M1.66602 5.83317V17.4998C1.66602 18.1915 2.44935 18.5832 2.99935 18.1665L4.42435 17.0998C4.75768 16.8498 5.22435 16.8832 5.52435 17.1832L6.90768 18.5748C7.23268 18.8998 7.76602 18.8998 8.09102 18.5748L9.49102 17.1748C9.78268 16.8832 10.2493 16.8498 10.5743 17.0998L11.9993 18.1665C12.5493 18.5748 13.3327 18.1832 13.3327 17.4998V3.33317C13.3327 2.4165 14.0827 1.6665 14.9993 1.6665H5.83268H4.99935C2.49935 1.6665 1.66602 3.15817 1.66602 4.99984V5.83317Z" stroke="#838F89" stroke-width="1.5" stroke-miterlimit="10" stroke-linecap="round" stroke-linejoin="round"/>
<path d="M7.5 10.8418H10" stroke="#838F89" stroke-width="1.5" stroke-linecap="round" stroke-linejoin="round"/>
<path d="M7.5 7.5083H10" stroke="#838F89" stroke-width="1.5" stroke-linecap="round" stroke-linejoin="round"/>
<path d="M4.99609 10.8335H5.00358" stroke="#838F89" stroke-width="2" stroke-linecap="round" stroke-linejoin="round"/>
<path d="M4.99609 7.5H5.00358" stroke="#838F89" stroke-width="2" stroke-linecap="round" stroke-linejoin="round"/>
</svg>
