<svg width="103" height="138" viewBox="0 0 103 138" fill="none" xmlns="http://www.w3.org/2000/svg">
<rect width="103" height="138" fill="#D8EBE3"/>
<g clip-path="url(#clip0_1321_24746)">
<path d="M38.9316 36.3545C42.3991 37.7178 46.1541 37.8025 50.1588 36.7794C55.3889 37.0605 60.5229 37.2747 64.0701 36.3545V56.8413C55.0148 67.38 46.6744 66.73 38.9317 56.7516V36.3545H38.9316Z" stroke="#252525" stroke-width="0.482306" stroke-miterlimit="2.61"/>
<path fill-rule="evenodd" clip-rule="evenodd" d="M38.9316 36.3545C42.3994 37.7178 46.1543 37.8024 50.159 36.7795C55.3891 37.0606 60.5231 37.2748 64.07 36.3545V56.8412C55.0147 67.3799 46.6745 66.7299 38.9316 56.7517V36.3545Z" fill="#006437"/>
<path fill-rule="evenodd" clip-rule="evenodd" d="M39.8945 37.4277C43.0977 38.6869 46.5661 38.7651 50.2653 37.8203C55.0963 38.0799 59.8384 38.2776 63.1148 37.4277V56.3512C54.7504 66.0857 47.0467 65.4853 39.8946 56.2685V37.4277H39.8945Z" fill="#D7DF23"/>
<path fill-rule="evenodd" clip-rule="evenodd" d="M52.3134 53.2982L51.8884 53.9915L51.7077 54.6345L50.5689 54.9756L50.019 54.5619L49.8086 53.9019V53.2982L50.0098 52.8955L50.4123 52.7166L50.8597 52.6047L51.1726 52.1798L50.9714 51.6654L50.9043 51.1734L50.949 50.4129L51.1951 49.809L51.4635 49.3396L52.0225 48.8024L52.2909 48.5342L52.5146 48.6684L52.5817 49.0708L52.358 49.5853L52.1121 50.0774L51.9333 50.5023L51.978 50.8377L52.358 50.9048L52.7829 50.8156L52.8949 50.5248L52.9396 49.8987L53.1856 49.809L53.7002 49.9433L53.7673 50.2565L53.9906 50.9273L53.9685 51.2627L53.7895 51.6877L53.6106 52.1351L53.5435 52.6495L53.7448 52.8284L54.1473 52.7391L54.5723 51.8667L55.1313 51.5314L55.1092 52.0681L55.3997 52.6717L55.5563 53.6336L55.4671 54.2598L54.9559 54.615L54.4156 54.9306L54.0132 54.9531L52.8362 54.5524L52.5146 53.9915L52.5371 53.4995L52.3134 53.2982Z" fill="url(#paint0_linear_1321_24746)"/>
<path d="M54.0533 54.7256C53.8205 54.6748 53.605 54.6368 53.4079 54.6119C53.2108 54.5871 53.0321 54.574 52.8718 54.574C52.4798 54.574 52.183 54.6541 51.9816 54.8156C51.8202 54.9422 51.7401 55.1588 51.7401 55.4653V58.4252C51.8863 58.2703 52.0422 58.1642 52.2069 58.1058C52.3726 58.0472 52.6 58.0181 52.8902 58.0181C53.0831 58.0181 53.2769 58.0289 53.4708 58.0516C53.6646 58.0733 53.8584 58.1079 54.0533 58.1545V54.7256ZM49.2773 58.148C49.5231 58.1036 49.7409 58.071 49.9304 58.0495C50.1198 58.0289 50.2812 58.0181 50.4145 58.0181C50.9593 58.0181 51.3513 58.1492 51.5906 58.4122V55.4589C51.5906 55.1632 51.4985 54.9412 51.3144 54.795C51.1303 54.6477 50.8519 54.5741 50.4816 54.5741C50.291 54.5741 50.096 54.5872 49.8957 54.6142C49.6953 54.6402 49.4896 54.6793 49.2773 54.7323V58.1481V58.148ZM54.427 58.9202L54.1238 58.3299C53.878 58.277 53.6505 58.2379 53.4403 58.2119C53.2303 58.1871 53.0386 58.174 52.8652 58.174C52.1191 58.174 51.7466 58.4231 51.7466 58.9202C51.9013 58.8952 52.0206 58.8324 52.1017 58.7329L54.427 58.9202ZM48.9308 58.9202L51.2484 58.736C51.3155 58.8227 51.4293 58.8843 51.5873 58.9202C51.5581 58.6537 51.4553 58.4621 51.2788 58.3473C51.1022 58.2314 50.8238 58.1741 50.4459 58.1741C50.2704 58.1741 50.0809 58.186 49.8794 58.2108C49.6769 58.2347 49.4625 58.2715 49.234 58.3202L48.9308 58.9203V58.9202ZM54.2093 54.9097V58.1707L54.5212 58.762V55.5L54.2093 54.9097ZM48.8094 55.4653V58.7772L49.1213 58.1707V54.8967L48.8094 55.4653ZM54.9176 59.3393V55.199L54.5212 55.1763L54.6771 55.434V59.0794L52.1364 58.9202C52.0141 59.0253 51.857 59.0772 51.6664 59.0772C51.4758 59.0772 51.3241 59.0253 51.2039 58.9202L48.6535 59.0794V55.434L48.7694 55.2087L48.4195 55.2271V59.3393L51.1152 59.1399C51.2203 59.1963 51.3221 59.2396 51.4195 59.2678C51.517 59.2971 51.6112 59.3112 51.7022 59.3112C51.7867 59.3112 51.8733 59.2971 51.9622 59.2678C52.051 59.2396 52.143 59.1964 52.2384 59.1399L54.9177 59.3393H54.9176ZM55.0735 59.5061L52.2859 59.2982C52.1841 59.3533 52.0845 59.3956 51.987 59.4238C51.8906 59.453 51.7965 59.4671 51.7054 59.4671C51.6143 59.4671 51.5115 59.453 51.4055 59.4238C51.2982 59.3956 51.1845 59.3533 51.0644 59.2982L48.2637 59.5061V55.0939L48.854 55.0614L49.0835 54.6152C49.3326 54.5491 49.5687 54.5003 49.7917 54.4667C50.0149 54.4342 50.2238 54.418 50.4178 54.418C50.7556 54.418 51.021 54.4614 51.2116 54.5491C51.4033 54.6367 51.5538 54.7841 51.6643 54.9921C51.7629 54.7884 51.9134 54.6421 52.1148 54.5523C52.3152 54.4625 52.5914 54.418 52.9423 54.418C53.1232 54.418 53.3202 54.4342 53.5347 54.4667C53.7491 54.5003 53.983 54.5491 54.2343 54.6152L54.4487 55.0266L55.0735 55.0614V59.5061Z" fill="#FEFEFE"/>
<path d="M54.0533 54.7256C53.8205 54.6748 53.605 54.6368 53.4079 54.6119C53.2108 54.5871 53.0321 54.574 52.8718 54.574C52.4798 54.574 52.183 54.6541 51.9816 54.8156C51.8202 54.9422 51.7401 55.1588 51.7401 55.4653V58.4252C51.8863 58.2703 52.0422 58.1642 52.2069 58.1058C52.3726 58.0472 52.6 58.0181 52.8902 58.0181C53.0831 58.0181 53.2769 58.0289 53.4708 58.0516C53.6646 58.0733 53.8584 58.1079 54.0533 58.1545V54.7256ZM49.2773 58.148C49.5231 58.1036 49.7409 58.071 49.9304 58.0495C50.1198 58.0289 50.2812 58.0181 50.4145 58.0181C50.9593 58.0181 51.3513 58.1492 51.5906 58.4122V55.4589C51.5906 55.1632 51.4985 54.9412 51.3144 54.795C51.1303 54.6477 50.8519 54.5741 50.4816 54.5741C50.291 54.5741 50.096 54.5872 49.8957 54.6142C49.6953 54.6402 49.4896 54.6793 49.2773 54.7323V58.1481V58.148ZM54.427 58.9202L54.1238 58.3299C53.878 58.277 53.6505 58.2379 53.4403 58.2119C53.2303 58.1871 53.0386 58.174 52.8652 58.174C52.1191 58.174 51.7466 58.4231 51.7466 58.9202C51.9013 58.8952 52.0206 58.8324 52.1017 58.7329L54.427 58.9202ZM48.9308 58.9202L51.2484 58.736C51.3155 58.8227 51.4293 58.8843 51.5873 58.9202C51.5581 58.6537 51.4553 58.4621 51.2788 58.3473C51.1022 58.2314 50.8238 58.1741 50.4459 58.1741C50.2704 58.1741 50.0809 58.186 49.8794 58.2108C49.6769 58.2347 49.4625 58.2715 49.234 58.3202L48.9308 58.9203V58.9202ZM54.2093 54.9097V58.1707L54.5212 58.762V55.5L54.2093 54.9097ZM48.8094 55.4653V58.7772L49.1213 58.1707V54.8967L48.8094 55.4653ZM54.9176 59.3393V55.199L54.5212 55.1763L54.6771 55.434V59.0794L52.1364 58.9202C52.0141 59.0253 51.857 59.0772 51.6664 59.0772C51.4758 59.0772 51.3241 59.0253 51.2039 58.9202L48.6535 59.0794V55.434L48.7694 55.2087L48.4195 55.2271V59.3393L51.1152 59.1399C51.2203 59.1963 51.3221 59.2396 51.4195 59.2678C51.517 59.2971 51.6112 59.3112 51.7022 59.3112C51.7867 59.3112 51.8733 59.2971 51.9622 59.2678C52.051 59.2396 52.143 59.1964 52.2384 59.1399L54.9177 59.3393H54.9176ZM55.0735 59.5061L52.2859 59.2982C52.1841 59.3533 52.0845 59.3956 51.987 59.4238C51.8906 59.453 51.7965 59.4671 51.7054 59.4671C51.6143 59.4671 51.5115 59.453 51.4055 59.4238C51.2982 59.3956 51.1845 59.3533 51.0644 59.2982L48.2637 59.5061V55.0939L48.854 55.0614L49.0835 54.6152C49.3326 54.5491 49.5687 54.5003 49.7917 54.4667C50.0149 54.4342 50.2238 54.418 50.4178 54.418C50.7556 54.418 51.021 54.4614 51.2116 54.5491C51.4033 54.6367 51.5538 54.7841 51.6643 54.9921C51.7629 54.7884 51.9134 54.6421 52.1148 54.5523C52.3152 54.4625 52.5914 54.418 52.9423 54.418C53.1232 54.418 53.3202 54.4342 53.5347 54.4667C53.7491 54.5003 53.983 54.5491 54.2343 54.6152L54.4487 55.0266L55.0735 55.0614V59.5061Z" fill="#006437"/>
<path d="M33.9883 58.1963H41.6818V63.5645H33.9883L35.8223 60.6041L33.9883 58.1963Z" stroke="#252525" stroke-width="0.482397" stroke-miterlimit="2.61"/>
<path fill-rule="evenodd" clip-rule="evenodd" d="M33.9883 58.1963H41.682V63.5645H33.9883L35.8223 60.604L33.9883 58.1963Z" fill="#D7DF23"/>
<path d="M69.01 57.7041H61.3164V63.0274H69.01L67.1759 60.0916L69.01 57.7041Z" stroke="#252525" stroke-width="0.48267" stroke-miterlimit="2.61"/>
<path fill-rule="evenodd" clip-rule="evenodd" d="M69.0139 57.7041H61.3203V63.0274H69.0139L67.1799 60.0916L69.0139 57.7041Z" fill="#D7DF23"/>
<path d="M37.2092 60.7454C43.3376 65.534 60.4069 67.1751 65.6581 59.0459L65.4883 64.5437C56.7425 71.8835 42.8461 69.958 37.1582 63.967L37.2092 60.7454Z" stroke="#252525" stroke-width="0.482306" stroke-miterlimit="2.61"/>
<path d="M63.1124 47.294C63.1124 47.294 56.823 48.4834 53.6218 47.1244C52.5163 46.6551 51.1802 46.5658 50.1317 47.1512C47.6974 48.5103 39.832 47.294 39.832 47.294V40.107C39.832 40.107 45.664 40.9916 50.2435 40.107C50.8396 39.8028 53.1838 39.6999 53.7448 40.0645C58.5542 41.1532 63.1124 40.107 63.1124 40.107V47.294Z" fill="#006437"/>
<path fill-rule="evenodd" clip-rule="evenodd" d="M37.2093 60.7484C43.3377 65.5369 60.4069 67.178 65.6581 59.0488L65.4884 64.5467C56.7428 71.8863 42.8464 69.9608 37.1582 63.9699L37.2093 60.7484Z" fill="#006437"/>
<path d="M62.9383 64.1566L63.1186 63.9606C63.1589 63.9929 63.2008 64.0089 63.2438 64.0077C63.2869 64.007 63.3325 63.987 63.3803 63.9486C63.4332 63.9062 63.4651 63.8647 63.4763 63.8238C63.4832 63.7958 63.4774 63.7703 63.4591 63.7475C63.4468 63.7321 63.4315 63.7231 63.4135 63.7209C63.3956 63.7193 63.3655 63.7284 63.3237 63.7485C63.1295 63.8445 62.9984 63.8951 62.9301 63.9006C62.8353 63.9078 62.758 63.8742 62.6985 63.8002C62.6446 63.7329 62.6259 63.6553 62.642 63.5673C62.6582 63.4793 62.7218 63.3906 62.8327 63.3015C62.9384 63.2167 63.0308 63.1709 63.1099 63.1641C63.1892 63.1576 63.2657 63.1802 63.3394 63.2324L63.1761 63.4222C63.1435 63.3986 63.109 63.3879 63.073 63.3904C63.037 63.3928 62.9976 63.4115 62.9547 63.4459C62.9007 63.4893 62.8679 63.5277 62.8565 63.5619C62.8495 63.5851 62.8529 63.6051 62.8665 63.622C62.8782 63.6366 62.8948 63.6437 62.9167 63.6429C62.9461 63.6415 63.0254 63.6095 63.1544 63.5467C63.2834 63.4838 63.3839 63.4528 63.4558 63.4541C63.5279 63.4559 63.59 63.4896 63.6422 63.5546C63.699 63.6253 63.7185 63.7099 63.7 63.8084C63.6818 63.9068 63.6148 64.0027 63.4986 64.0958C63.3935 64.1802 63.293 64.2259 63.1975 64.2328C63.1022 64.2397 63.0158 64.2145 62.9383 64.1566ZM62.4704 63.5942L62.5871 63.7663L62.4386 63.867L62.6639 64.1988C62.7097 64.2663 62.7376 64.3046 62.7479 64.3137C62.7584 64.3228 62.7709 64.3277 62.7862 64.3281C62.801 64.3284 62.8157 64.3239 62.8302 64.3141C62.8505 64.3002 62.8747 64.2739 62.9035 64.2339L63.0359 64.3901C63.0003 64.4459 62.9508 64.4951 62.8871 64.5384C62.8481 64.5649 62.8086 64.582 62.7683 64.5901C62.7281 64.5981 62.6936 64.5966 62.665 64.5856C62.636 64.5745 62.6068 64.553 62.5768 64.5213C62.5552 64.4992 62.5181 64.4496 62.4658 64.3725L62.2224 64.0138L62.1229 64.0813L62.0061 63.9092L62.1055 63.8416L61.9951 63.6789L62.1247 63.4041L62.3219 63.6948L62.4704 63.5941V63.5942ZM61.2055 63.955L61.458 64.394C61.4813 64.2643 61.5444 64.1698 61.6467 64.1109C61.6994 64.0806 61.7523 64.0629 61.8056 64.058C61.8591 64.0533 61.9049 64.0595 61.9438 64.0776C61.9826 64.0954 62.0165 64.1203 62.0453 64.1525C62.0744 64.1845 62.1109 64.2391 62.1552 64.3162L62.4445 64.819L62.2178 64.9493L61.9573 64.4965C61.9057 64.4068 61.8684 64.3522 61.8459 64.3328C61.8232 64.3137 61.7966 64.3031 61.7664 64.3019C61.7361 64.3001 61.7045 64.3089 61.6711 64.3282C61.633 64.35 61.6043 64.3786 61.5849 64.4143C61.5653 64.4499 61.5594 64.49 61.5668 64.5349C61.5739 64.5796 61.5984 64.6382 61.6398 64.71L61.8869 65.1397L61.6602 65.2701L60.9789 64.0855L61.2056 63.955H61.2055ZM60.5801 65.2366C60.626 65.331 60.6777 65.3909 60.7354 65.4171C60.7933 65.443 60.8492 65.443 60.9028 65.4171C60.96 65.3892 60.9976 65.343 61.0152 65.2789C61.0331 65.2147 61.0206 65.1387 60.9776 65.0505C60.9329 64.9585 60.8807 64.8992 60.821 64.8731C60.7615 64.8469 60.7026 64.8479 60.6445 64.8761C60.5882 64.9036 60.5525 64.9481 60.5373 65.0097C60.5222 65.0712 60.5363 65.1468 60.58 65.2366L60.5801 65.2366ZM60.6219 65.8593L60.9072 65.7609C60.9272 65.7904 60.9481 65.8072 60.9699 65.8114C61.0007 65.8173 61.04 65.8088 61.0882 65.7854C61.1496 65.7555 61.1911 65.724 61.213 65.6903C61.2277 65.668 61.2339 65.6406 61.2311 65.6081C61.2287 65.5851 61.2149 65.5469 61.1894 65.4946L61.1272 65.3639C61.1034 65.4954 61.0378 65.587 60.9301 65.6394C60.8105 65.6977 60.691 65.6932 60.5721 65.6262C60.4783 65.573 60.4024 65.4869 60.3448 65.3682C60.2721 65.2188 60.2528 65.0875 60.2863 64.9738C60.3198 64.8604 60.3902 64.7774 60.4971 64.7253C60.6073 64.6716 60.7218 64.6757 60.8403 64.7377L60.779 64.6115L60.9986 64.5045L61.3872 65.3032C61.4382 65.4083 61.4678 65.4911 61.4757 65.5514C61.4838 65.6118 61.4792 65.6643 61.4622 65.7093C61.4454 65.754 61.4151 65.7977 61.3707 65.8397C61.3266 65.8821 61.2645 65.9225 61.1848 65.9612C61.0338 66.0347 60.9141 66.0607 60.8257 66.0397C60.7372 66.0184 60.6739 65.9682 60.635 65.8883C60.6313 65.8808 60.6269 65.8709 60.6219 65.8594L60.6219 65.8593ZM60.1281 65.9716L59.7519 65.0552L59.9938 64.9559L60.37 65.8722L60.1281 65.9716ZM59.7013 64.9314L59.6092 64.7073L59.8511 64.6081L59.9432 64.8322L59.7014 64.9314H59.7013ZM59.495 65.6039C59.4685 65.5327 59.4314 65.4843 59.3833 65.459C59.3353 65.4333 59.2861 65.4294 59.2355 65.4468C59.1817 65.4652 59.144 65.5004 59.1223 65.5519C59.1006 65.6034 59.1019 65.6632 59.1257 65.7307L59.495 65.6039ZM59.5667 65.8599L59.8283 65.8166C59.8278 65.918 59.8012 66.0041 59.7492 66.0751C59.6968 66.1458 59.6192 66.1991 59.5165 66.2343C59.3538 66.2901 59.2148 66.2781 59.1003 66.1983C59.0094 66.1341 58.9414 66.0371 58.8967 65.9068C58.8435 65.7515 58.8423 65.6157 58.893 65.5C58.9438 65.3842 59.0312 65.3051 59.1552 65.2626C59.2942 65.2148 59.4198 65.223 59.5321 65.2875C59.644 65.352 59.7309 65.48 59.7926 65.6713L59.1733 65.8838C59.2003 65.9566 59.2398 66.0069 59.2921 66.0348C59.3441 66.0627 59.3987 66.0668 59.4551 66.0474C59.4941 66.0342 59.5229 66.0124 59.5418 65.9825C59.561 65.9523 59.5692 65.9114 59.5666 65.8598L59.5667 65.8599ZM57.7906 66.73L57.4173 65.4155L57.6835 65.3399L57.8306 65.8576L58.3484 65.7104L58.2013 65.1928L58.4676 65.1171L58.841 66.4317L58.5747 66.5073L58.4115 65.9326L57.8938 66.0797L58.057 66.6545L57.7907 66.7301L57.7906 66.73ZM56.803 66.9468L56.5456 66.9936L56.3684 66.019L56.6069 65.9757L56.6321 66.114C56.6612 66.0412 56.6904 65.9916 56.7196 65.9653C56.7487 65.9389 56.7842 65.9222 56.8258 65.9147C56.8847 65.904 56.9443 65.9098 57.0045 65.9322L56.9655 66.1714C56.9169 66.1512 56.8739 66.1444 56.8366 66.1512C56.8004 66.1578 56.7716 66.1734 56.75 66.1976C56.7287 66.2223 56.7154 66.2615 56.7105 66.3161C56.7056 66.3707 56.7181 66.4808 56.7482 66.6464L56.8029 66.9468H56.803ZM56.0004 66.4976C55.9882 66.4225 55.9612 66.3678 55.919 66.3337C55.8767 66.2994 55.8293 66.286 55.7762 66.2932C55.7198 66.301 55.6761 66.3282 55.6448 66.3745C55.6135 66.4208 55.6033 66.4796 55.6136 66.5505L56.0003 66.4975L56.0004 66.4976ZM56.0212 66.7624L56.2861 66.7705C56.2661 66.8698 56.2233 66.9493 56.1587 67.0088C56.0935 67.0682 56.0071 67.1054 55.8996 67.12C55.7291 67.1434 55.5951 67.1049 55.4982 67.0045C55.4214 66.9239 55.3734 66.8154 55.3548 66.679C55.3326 66.5163 55.3576 66.3828 55.4298 66.2792C55.502 66.1752 55.6031 66.1146 55.733 66.0968C55.8787 66.0769 56.0003 66.1093 56.0979 66.1942C56.1952 66.2791 56.2557 66.4214 56.2793 66.6212L55.6307 66.7098C55.6431 66.7866 55.6721 66.8437 55.718 66.8809C55.7636 66.9183 55.8164 66.933 55.8756 66.9248C55.9163 66.9193 55.9488 66.9036 55.9732 66.8777C55.9978 66.8518 56.0138 66.8134 56.0213 66.7622L56.0212 66.7624ZM55.1937 66.2029L55.2219 66.4089L55.0441 66.4333L55.0985 66.8308C55.1096 66.9116 55.1176 66.9583 55.1229 66.971C55.1283 66.9838 55.1373 66.9938 55.1508 67.0009C55.1639 67.0076 55.179 67.01 55.1963 67.0078C55.2207 67.0044 55.2542 66.9915 55.2976 66.9686L55.3469 67.1673C55.2902 67.2013 55.2239 67.2236 55.1477 67.234C55.1011 67.2403 55.0581 67.2382 55.0183 67.2276C54.9787 67.217 54.9485 67.2002 54.9277 67.1777C54.9067 67.155 54.89 67.1227 54.8772 67.081C54.8677 67.0513 54.8565 66.9906 54.8438 66.8982L54.785 66.4687L54.6659 66.485L54.6377 66.2789L54.7568 66.2627L54.7301 66.0678L54.9683 65.8792L55.0159 66.2273L55.1937 66.2029ZM54.3175 66.8046C54.2853 66.819 54.2336 66.8373 54.1627 66.8597C54.092 66.8821 54.046 66.9017 54.0252 66.9184C53.9937 66.9461 53.9794 66.9782 53.9829 67.0151C53.9864 67.0519 54.0031 67.0819 54.0329 67.1059C54.0627 67.1299 54.0984 67.1399 54.1406 67.136C54.1874 67.1315 54.2309 67.1117 54.2707 67.077C54.2998 67.0502 54.318 67.0197 54.3245 66.9846C54.329 66.9618 54.3285 66.9191 54.3226 66.8567L54.3176 66.8047L54.3175 66.8046ZM53.9477 66.6271L53.7082 66.6077C53.7257 66.5089 53.7647 66.4333 53.8253 66.3807C53.8858 66.3284 53.9802 66.2961 54.1081 66.2839C54.2243 66.2728 54.3123 66.2781 54.3719 66.3003C54.4312 66.3224 54.4747 66.3534 54.5019 66.3936C54.5291 66.434 54.5482 66.5105 54.559 66.6238L54.5842 66.9282C54.5925 67.0146 54.6026 67.0782 54.6148 67.1186C54.627 67.159 54.6466 67.2014 54.6739 67.2462L54.4156 67.2709C54.4073 67.2545 54.3963 67.23 54.3833 67.1973C54.3777 67.1821 54.3735 67.1722 54.3712 67.1677C54.3311 67.2156 54.2867 67.2528 54.2381 67.2796C54.1894 67.3061 54.1367 67.3223 54.0794 67.3278C53.9785 67.3375 53.896 67.3175 53.8325 67.268C53.769 67.2188 53.7332 67.1519 53.7252 67.0675C53.7199 67.0121 53.7284 66.9612 53.751 66.9149C53.7733 66.869 53.8073 66.8318 53.8532 66.8041C53.8988 66.7764 53.9658 66.7496 54.0544 66.7236C54.1739 66.6892 54.2564 66.6596 54.3014 66.6354L54.2989 66.6092C54.294 66.5585 54.2783 66.5236 54.2515 66.5042C54.2244 66.485 54.1766 66.4787 54.1078 66.4853C54.0612 66.4897 54.0259 66.5023 54.0018 66.5234C53.9774 66.5443 53.9595 66.5789 53.9478 66.627L53.9477 66.6271ZM53.3123 66.7797C53.3061 66.7039 53.2835 66.6473 53.2442 66.6101C53.2048 66.5723 53.1586 66.5552 53.1053 66.5582C53.0484 66.5613 53.0026 66.585 52.9677 66.6287C52.9329 66.6725 52.918 66.7302 52.9226 66.8016L53.3123 66.7798V66.7797ZM53.312 67.0455L53.5756 67.0746C53.5476 67.1721 53.4986 67.2478 53.4294 67.302C53.3598 67.356 53.2707 67.3862 53.1623 67.3923C52.9905 67.4019 52.8599 67.3527 52.7713 67.2451C52.7012 67.1585 52.6621 67.0467 52.6543 66.9092C52.6451 66.7453 52.6807 66.6142 52.761 66.5167C52.8411 66.4188 52.9468 66.3664 53.0776 66.3592C53.2244 66.3509 53.3431 66.3928 53.4337 66.4853C53.5239 66.5777 53.5729 66.7243 53.5805 66.9253L52.9268 66.9621C52.9331 67.0394 52.9575 67.0986 53.0002 67.1395C53.0427 67.1804 53.0941 67.1994 53.1537 67.1961C53.1947 67.1936 53.2284 67.1806 53.2548 67.1569C53.2815 67.1329 53.3004 67.096 53.312 67.0456L53.312 67.0455ZM52.2653 67.3904L52.0038 67.3954L51.9847 66.405L52.2271 66.4005L52.2298 66.541C52.2701 66.4737 52.3069 66.4294 52.3399 66.4081C52.3728 66.3868 52.4105 66.3759 52.4528 66.3751C52.5126 66.374 52.5705 66.3894 52.6263 66.4211L52.5496 66.6509C52.5049 66.6232 52.4636 66.6097 52.4257 66.6103C52.3888 66.6111 52.3578 66.6218 52.3327 66.6424C52.3077 66.6633 52.2883 66.6999 52.2747 66.753C52.2611 66.8061 52.2559 66.9169 52.2592 67.0851L52.2651 67.3905L52.2653 67.3904ZM51.1763 66.8895L51.1801 66.6585L51.7735 66.6681L51.7647 67.2134C51.7062 67.2687 51.6217 67.3167 51.5114 67.3577C51.4012 67.3986 51.2899 67.4181 51.1772 67.4163C51.0344 67.4139 50.9105 67.382 50.8054 67.3201C50.7004 67.2584 50.622 67.1708 50.5703 67.0583C50.5187 66.9458 50.494 66.8236 50.4962 66.6922C50.4984 66.5497 50.5305 66.4236 50.5917 66.3136C50.6533 66.2039 50.7419 66.1201 50.8577 66.0628C50.9462 66.0188 51.0553 65.9979 51.1856 65.9999C51.3552 66.0027 51.4872 66.0405 51.5815 66.1134C51.6755 66.1864 51.7352 66.2857 51.7606 66.4121L51.485 66.4592C51.4669 66.3918 51.4316 66.3381 51.3791 66.2981C51.3269 66.2585 51.2611 66.238 51.1816 66.2368C51.0614 66.2348 50.9651 66.2714 50.8929 66.3468C50.8207 66.4224 50.7832 66.5354 50.7807 66.6858C50.7781 66.8483 50.8121 66.9707 50.8827 67.0531C50.9536 67.1353 51.0471 67.1776 51.1638 67.1795C51.2214 67.1804 51.2793 67.17 51.3376 67.1482C51.3962 67.1267 51.4462 67.0998 51.4884 67.068L51.4913 66.8947L51.1764 66.8896L51.1763 66.8895ZM49.0829 66.8016C49.0746 66.8996 49.0914 66.9767 49.1334 67.0325C49.1756 67.0888 49.2304 67.1196 49.2986 67.1254C49.3664 67.1311 49.4257 67.1099 49.476 67.0614C49.5264 67.0133 49.5559 66.9395 49.5643 66.8404C49.5724 66.7437 49.5556 66.6673 49.514 66.6114C49.4724 66.5553 49.4176 66.5244 49.3497 66.5187C49.2816 66.513 49.2224 66.5342 49.1713 66.5826C49.1207 66.6306 49.0912 66.7038 49.083 66.8017L49.0829 66.8016ZM48.8159 66.7652C48.8233 66.6783 48.8515 66.596 48.9012 66.5185C48.9508 66.4406 49.0166 66.3839 49.0985 66.3477C49.1804 66.3116 49.2693 66.2973 49.366 66.3054C49.5153 66.3181 49.6333 66.3768 49.7205 66.4818C49.8077 66.587 49.845 66.7135 49.8325 66.8619C49.8199 67.0115 49.7612 67.1314 49.6569 67.2215C49.5523 67.3117 49.427 67.3506 49.2809 67.3382C49.1906 67.3308 49.1062 67.3028 49.0275 67.255C48.9492 67.2072 48.8918 67.142 48.8557 67.0592C48.8195 66.9767 48.8065 66.8785 48.816 66.7651L48.8159 66.7652ZM48.7632 66.2732L48.7389 66.4798L48.5607 66.4588L48.5137 66.8571C48.5043 66.9381 48.5003 66.9853 48.5021 66.9989C48.5041 67.0128 48.5103 67.0246 48.5216 67.0349C48.5326 67.0448 48.5467 67.051 48.5639 67.053C48.5883 67.0559 48.624 67.0517 48.6718 67.0405L48.6698 67.2453C48.6064 67.2639 48.5367 67.2688 48.4602 67.2599C48.4135 67.2544 48.3724 67.2416 48.3366 67.2214C48.301 67.2011 48.2758 67.1774 48.2614 67.1503C48.2467 67.1229 48.2386 67.0877 48.2368 67.044C48.235 67.013 48.2394 66.9514 48.2503 66.8589L48.301 66.4282L48.1816 66.4141L48.206 66.2075L48.3253 66.2216L48.3483 66.0263L48.6261 65.9034L48.585 66.2522L48.7632 66.2732ZM47.9415 67.1904L47.6829 67.1514L47.7584 66.6523C47.7744 66.5466 47.7791 66.4775 47.7727 66.4449C47.7661 66.4121 47.7518 66.3856 47.7292 66.3644C47.7067 66.3433 47.6777 66.3303 47.6425 66.3249C47.5972 66.3181 47.5548 66.3242 47.5153 66.3433C47.4753 66.3624 47.4459 66.3914 47.4266 66.4296C47.4069 66.4682 47.389 66.542 47.3725 66.6515L47.3055 67.0945L47.047 67.0553L47.1951 66.0759L47.4347 66.112L47.4129 66.2557C47.5155 66.159 47.6316 66.1206 47.7621 66.1403C47.8193 66.1489 47.8703 66.1672 47.9147 66.1949C47.9594 66.2228 47.9912 66.2545 48.0107 66.2898C48.0303 66.3256 48.0419 66.3643 48.0452 66.4063C48.0488 66.4484 48.0447 66.507 48.0333 66.5824L47.9414 67.1903L47.9415 67.1904ZM45.9416 65.4687L46.2137 65.5192L46.0788 66.2474C46.0574 66.363 46.047 66.4384 46.0473 66.4737C46.0486 66.5308 46.0676 66.5803 46.1046 66.6216C46.1419 66.663 46.1979 66.6906 46.2729 66.7045C46.349 66.7186 46.4094 66.7136 46.4541 66.6892C46.4986 66.6648 46.5289 66.6307 46.5452 66.5861C46.5616 66.5416 46.5797 66.4663 46.5993 66.36L46.7371 65.6162L47.0092 65.6666L46.8783 66.3732C46.8485 66.5344 46.8201 66.6474 46.7931 66.7113C46.7661 66.7752 46.7288 66.8265 46.6807 66.8652C46.6332 66.9039 46.5739 66.9305 46.5032 66.9455C46.4321 66.9605 46.344 66.9583 46.2378 66.9388C46.1099 66.915 46.0157 66.8823 45.9552 66.8405C45.8948 66.7985 45.8497 66.7503 45.8199 66.6957C45.7904 66.6412 45.7744 66.587 45.7718 66.5324C45.7683 66.4521 45.7806 66.3368 45.8085 66.1863L45.9414 65.4687H45.9416ZM43.7462 65.3607L43.979 65.4205L43.9456 65.5514C44.0549 65.472 44.1673 65.447 44.283 65.4767C44.3443 65.4924 44.3942 65.5186 44.4328 65.5555C44.4716 65.5923 44.4987 65.6401 44.5144 65.6985C44.5697 65.6583 44.6252 65.6316 44.6802 65.6188C44.7353 65.6061 44.7907 65.6068 44.8461 65.6211C44.9164 65.639 44.9722 65.6684 45.0139 65.7096C45.0553 65.7507 45.0809 65.8019 45.0906 65.8636C45.0979 65.9089 45.0895 65.9772 45.0661 66.0687L44.9091 66.6814L44.6557 66.6164L44.796 66.069C44.8204 65.9738 44.8275 65.9103 44.817 65.8784C44.8028 65.8363 44.7712 65.8087 44.7225 65.7963C44.687 65.7872 44.6507 65.7894 44.6137 65.8028C44.577 65.8168 44.546 65.8426 44.5216 65.8808C44.4969 65.9191 44.4733 65.9833 44.4501 66.0735L44.3322 66.5336L44.0788 66.4688L44.2134 65.9437C44.2372 65.8507 44.2481 65.7891 44.246 65.76C44.244 65.7306 44.2353 65.7067 44.2196 65.6885C44.2043 65.6705 44.18 65.6574 44.1477 65.6491C44.1086 65.6391 44.0707 65.6404 44.0343 65.6535C43.9974 65.6667 43.9674 65.6912 43.9436 65.7275C43.9199 65.7637 43.8963 65.828 43.8727 65.9198L43.7533 66.3854L43.5001 66.3205L43.746 65.3609L43.7462 65.3607ZM42.7478 65.5719C42.7201 65.6662 42.721 65.7449 42.7508 65.8081C42.7808 65.8717 42.8284 65.9129 42.8939 65.9321C42.9592 65.9515 43.0215 65.9427 43.0806 65.9052C43.1396 65.8682 43.1833 65.8018 43.2115 65.7063C43.2389 65.6132 43.2377 65.5349 43.2084 65.4719C43.179 65.4086 43.1314 65.3673 43.0661 65.3481C43.0005 65.3287 42.9382 65.3376 42.8785 65.3746C42.8192 65.4117 42.7756 65.4774 42.7478 65.5717V65.5719ZM42.4937 65.4823C42.5183 65.3987 42.5626 65.3239 42.6268 65.2578C42.6912 65.1916 42.767 65.1493 42.8545 65.1304C42.942 65.1114 43.032 65.1155 43.1251 65.1428C43.2689 65.1852 43.3726 65.2664 43.4368 65.3868C43.5011 65.5075 43.5121 65.6389 43.47 65.7816C43.4275 65.9257 43.346 66.0312 43.2257 66.0986C43.105 66.166 42.9746 66.1788 42.8339 66.1373C42.747 66.1117 42.6698 66.0674 42.6024 66.0048C42.5352 65.9423 42.4922 65.8668 42.4734 65.7784C42.4546 65.6902 42.4616 65.5915 42.4938 65.4823H42.4937ZM41.6616 65.1887C41.6278 65.2891 41.6173 65.3665 41.6295 65.4206C41.6478 65.4992 41.6927 65.5505 41.7644 65.5746C41.8213 65.5938 41.8781 65.5857 41.9344 65.5502C41.9908 65.5149 42.0352 65.4488 42.0677 65.3517C42.1041 65.2436 42.1109 65.1593 42.0881 65.0986C42.0652 65.0378 42.0237 64.9974 41.9631 64.977C41.9044 64.9573 41.8472 64.9643 41.7916 64.9979C41.7363 65.0317 41.6929 65.0953 41.6615 65.1888L41.6616 65.1887ZM42.1599 65.8989L41.9302 65.8217L41.9765 65.6838C41.9202 65.7246 41.8611 65.7494 41.7998 65.759C41.7386 65.7683 41.6814 65.7642 41.6283 65.7464C41.52 65.71 41.4421 65.6355 41.3942 65.5224C41.3465 65.4095 41.3487 65.2751 41.4011 65.1193C41.4545 64.96 41.5327 64.8514 41.6356 64.7938C41.7386 64.7361 41.8471 64.7266 41.9618 64.7651C42.0667 64.8005 42.1431 64.8748 42.1904 64.9877L42.3474 64.5202L42.5952 64.6035L42.1599 65.8989ZM40.353 64.9072L40.6107 64.9747C40.601 65.0256 40.6064 65.0699 40.6276 65.1074C40.6485 65.1451 40.6875 65.1762 40.7438 65.2003C40.8061 65.2272 40.8577 65.236 40.899 65.2268C40.9269 65.2197 40.9468 65.2027 40.9584 65.1759C40.9662 65.1577 40.9669 65.1399 40.9607 65.1231C40.9536 65.1066 40.9315 65.0842 40.8941 65.0567C40.7184 64.9299 40.6123 64.8378 40.5754 64.7802C40.5246 64.6997 40.5181 64.6158 40.5558 64.5285C40.5899 64.4494 40.6498 64.3965 40.7351 64.3696C40.8205 64.3428 40.9285 64.3574 41.059 64.4137C41.1835 64.4673 41.2672 64.5276 41.3103 64.5943C41.3531 64.6613 41.3689 64.7395 41.3574 64.8291L41.1131 64.7737C41.1188 64.7341 41.1119 64.6985 41.0929 64.6678C41.074 64.637 41.0392 64.6109 40.9886 64.5892C40.9249 64.5617 40.8755 64.5508 40.84 64.5567C40.8163 64.5613 40.8002 64.5738 40.7916 64.5937C40.7842 64.6109 40.7857 64.629 40.7967 64.6478C40.8117 64.6734 40.8771 64.7283 40.993 64.8127C41.1089 64.8974 41.1833 64.9717 41.2157 65.036C41.2478 65.1005 41.2472 65.1711 41.2142 65.2476C41.1783 65.331 41.1126 65.3878 41.017 65.4177C40.9216 65.4476 40.8056 65.4333 40.6688 65.3743C40.5449 65.3209 40.4576 65.2535 40.4068 65.1723C40.3561 65.0912 40.3381 65.003 40.3528 64.9075L40.353 64.9072ZM39.8338 64.9769L40.2677 64.0865L40.5026 64.201L40.0688 65.0915L39.8338 64.9769ZM40.3262 63.9664L40.4323 63.7484L40.6674 63.863L40.5612 64.0808L40.3262 63.9663V63.9664ZM38.4219 64.2351L38.8018 62.8838L39.0507 63.0212L38.7745 63.9412L39.447 63.2403L39.7348 63.3995L39.4817 64.3504L40.1257 63.6156L40.3687 63.7499L39.4193 64.7866L39.1607 64.6436L39.4193 63.6191L38.6876 64.3819L38.422 64.235L38.4219 64.2351Z" fill="#D7DF23"/>
<path d="M61.3203 59.0322H65.6554" stroke="#252525" stroke-width="0.120622" stroke-miterlimit="2.61"/>
<path d="M65.041 57.6533L65.77 59.203" stroke="#252525" stroke-width="0.120622" stroke-miterlimit="2.61"/>
<path d="M41.5231 59.7227H37.2109" stroke="#252525" stroke-width="0.241244" stroke-miterlimit="2.61"/>
<path d="M37.0332 58.1963L37.0895 61.4305" stroke="#252525" stroke-width="0.241244" stroke-miterlimit="2.61"/>
<path d="M57.6211 41.3586V43.1186H58.0202C58.1694 43.1186 58.277 43.1099 58.3432 43.0932C58.4305 43.0716 58.5023 43.0345 58.5593 42.9825C58.6169 42.9305 58.6633 42.845 58.6991 42.7263C58.7357 42.6074 58.7536 42.4446 58.7536 42.2392C58.7536 42.0338 58.7356 41.8765 58.6991 41.7664C58.6632 41.6562 58.6124 41.5708 58.5475 41.5089C58.4825 41.4476 58.4002 41.4056 58.2999 41.3839C58.2257 41.3672 58.079 41.3586 57.8611 41.3586H57.6211ZM57.0826 40.9092H58.0617C58.2827 40.9092 58.4509 40.9259 58.5667 40.9599C58.722 41.0057 58.8557 41.0874 58.9665 41.205C59.078 41.3219 59.1621 41.4655 59.2202 41.6357C59.2777 41.8053 59.3068 42.0152 59.3068 42.2639C59.3068 42.4831 59.2796 42.6712 59.2252 42.8296C59.1589 43.0234 59.0642 43.18 58.9411 43.2993C58.8482 43.3903 58.7226 43.4609 58.5647 43.5116C58.4465 43.5495 58.2887 43.568 58.0906 43.568H57.0824V40.9092H57.0826ZM55.812 42.5135L55.4425 41.5293L55.0835 42.5135H55.812ZM56.796 43.568H56.2161L55.9865 42.9627H54.9201L54.6991 43.568H54.1298L55.1621 40.9092H55.7309L56.796 43.568ZM51.3001 43.568V40.9092H52.1066L52.5831 42.7226L53.0541 40.9092H53.8624V43.568H53.3648L53.3629 41.4749L52.8387 43.568H52.3212L51.7995 41.4749L51.7976 43.568H51.3H51.3001ZM48.8308 43.568V40.9092H50.7988V41.3586H49.3692V41.9489H50.6986V42.3983H49.3692V43.1186H50.8508V43.568H48.8307H48.8308ZM46.6875 42.0343H47.0847C47.3423 42.0343 47.5025 42.0232 47.567 42.0016C47.6307 41.9799 47.6814 41.9422 47.7173 41.889C47.7539 41.8357 47.7717 41.7689 47.7717 41.689C47.7717 41.5993 47.7476 41.5276 47.6999 41.4718C47.6524 41.4166 47.5849 41.382 47.4982 41.3677C47.4542 41.3616 47.3236 41.3586 47.1064 41.3586H46.6874V42.0343H46.6875ZM46.1491 43.568V40.9092H47.2798C47.5639 40.9092 47.7705 40.9334 47.8993 40.981C48.0287 41.0286 48.1313 41.1135 48.2087 41.2354C48.2861 41.3578 48.3251 41.4972 48.3251 41.6544C48.3251 41.8541 48.2669 42.0189 48.15 42.1488C48.033 42.2789 47.8584 42.3605 47.6257 42.3945C47.7414 42.462 47.8368 42.5362 47.9116 42.6173C47.9871 42.6984 48.0886 42.8427 48.2161 43.0493L48.5404 43.568H47.8986L47.5136 42.9874C47.3757 42.7814 47.281 42.6514 47.2296 42.5975C47.1788 42.5442 47.125 42.5071 47.0681 42.4873C47.0105 42.4675 46.9202 42.4576 46.7964 42.4576H46.6875V43.5679H46.1491V43.568ZM44.4786 43.568V41.3586H43.6914V40.9092H45.8007V41.3586H45.0171V43.568H44.4786Z" fill="#D7DF23"/>
<path d="M58.3658 45.5057L58.8894 45.4537C58.921 45.6288 58.9841 45.7569 59.0801 45.8394C59.176 45.9217 59.3053 45.9625 59.4681 45.9625C59.6403 45.9625 59.7702 45.926 59.8575 45.8529C59.9448 45.78 59.9887 45.6944 59.9887 45.5967C59.9887 45.5337 59.9701 45.4804 59.9335 45.4358C59.8971 45.392 59.8327 45.3536 59.741 45.3214C59.6786 45.2991 59.5362 45.2607 59.3134 45.205C59.0269 45.1333 58.8257 45.0454 58.7099 44.9408C58.5472 44.7941 58.4661 44.6152 58.4661 44.4042C58.4661 44.2686 58.5044 44.1411 58.5806 44.023C58.6574 43.9048 58.7675 43.815 58.9117 43.7531C59.0559 43.6912 59.2292 43.6602 59.4334 43.6602C59.7658 43.6602 60.0164 43.7339 60.1841 43.8818C60.3525 44.0297 60.4404 44.2265 60.449 44.4736L59.9106 44.4921C59.8877 44.3547 59.8388 44.2563 59.764 44.1963C59.6891 44.1362 59.5764 44.1059 59.4267 44.1059C59.2769 44.1059 59.1506 44.1381 59.0633 44.2024C59.007 44.244 58.9786 44.299 58.9786 44.3684C58.9786 44.4316 59.0052 44.4853 59.0584 44.5299C59.1259 44.5874 59.2899 44.647 59.5505 44.7087C59.8111 44.77 60.0036 44.8344 60.1279 44.8999C60.2529 44.9663 60.3507 45.0559 60.4213 45.1705C60.4919 45.2849 60.5271 45.426 60.5271 45.5937C60.5271 45.746 60.485 45.8889 60.4002 46.022C60.3154 46.1552 60.196 46.2542 60.0412 46.3186C59.8865 46.3834 59.6934 46.4156 59.4626 46.4156C59.1266 46.4156 58.8684 46.3383 58.6884 46.183C58.5083 46.0284 58.4012 45.8023 58.3659 45.506M56.2536 46.3672V43.7307H56.792V45.9179H58.1251V46.3672H56.2536ZM53.7922 45.0359C53.7922 45.3374 53.8621 45.5658 54.0013 45.7216C54.1406 45.8769 54.3176 45.955 54.5317 45.955C54.7459 45.955 54.9223 45.8777 55.0603 45.7235C55.1977 45.5688 55.2664 45.3373 55.2664 45.0286C55.2664 44.7198 55.1996 44.4956 55.0653 44.3458C54.9315 44.1954 54.754 44.1205 54.5317 44.1205C54.3095 44.1205 54.1313 44.1966 53.9959 44.3483C53.8603 44.5005 53.7922 44.7296 53.7922 45.0358V45.0359ZM53.2388 45.0539C53.2388 44.7828 53.2797 44.555 53.3608 44.3706C53.4209 44.2352 53.5037 44.1132 53.6083 44.0056C53.7129 43.8979 53.8275 43.818 53.9518 43.7654C54.1178 43.6955 54.309 43.6602 54.5256 43.6602C54.918 43.6602 55.2311 43.7821 55.467 44.0253C55.7022 44.2692 55.8197 44.6078 55.8197 45.0416C55.8197 45.4754 55.7028 45.8085 55.4694 46.051C55.2361 46.2943 54.9235 46.4155 54.533 46.4155C54.1425 46.4155 53.8226 46.2949 53.5892 46.0529C53.3559 45.8115 53.2389 45.4785 53.2389 45.054L53.2388 45.0539ZM50.9037 45.0359C50.9037 45.3374 50.9737 45.5658 51.1128 45.7216C51.2521 45.8769 51.4291 45.955 51.6433 45.955C51.8574 45.955 52.0338 45.8777 52.1718 45.7235C52.3092 45.5688 52.3778 45.3373 52.3778 45.0286C52.3778 44.7198 52.3111 44.4956 52.1767 44.3458C52.043 44.1954 51.8654 44.1205 51.6432 44.1205C51.421 44.1205 51.2428 44.1966 51.1073 44.3483C50.9718 44.5005 50.9036 44.7296 50.9036 45.0358L50.9037 45.0359ZM50.3505 45.0539C50.3505 44.7828 50.3913 44.555 50.4724 44.3706C50.5325 44.2352 50.6154 44.1132 50.72 44.0056C50.8245 43.8979 50.9391 43.818 51.0635 43.7654C51.2294 43.6955 51.4206 43.6602 51.6372 43.6602C52.0296 43.6602 52.3427 43.7821 52.5786 44.0253C52.8138 44.2692 52.9314 44.6078 52.9314 45.0416C52.9314 45.4754 52.8144 45.8085 52.5811 46.051C52.3477 46.2943 52.0352 46.4155 51.6446 46.4155C51.2541 46.4155 50.9342 46.2949 50.7009 46.0529C50.4675 45.8115 50.3505 45.4785 50.3505 45.054L50.3505 45.0539ZM47.7802 46.3672V43.7084H48.3186V44.7555H49.3657V43.7084H49.9043V46.3672H49.3657V45.2049H48.3186V46.3672H47.7802ZM46.7992 45.3869L47.3191 45.5466C47.2393 45.8394 47.1062 46.0566 46.9206 46.1989C46.7349 46.3407 46.4997 46.4117 46.2144 46.4117C45.8611 46.4117 45.5708 46.2911 45.343 46.0498C45.1159 45.8083 45.002 45.4784 45.002 45.0594C45.002 44.617 45.1164 44.2728 45.3448 44.0278C45.5732 43.7828 45.874 43.6602 46.2466 43.6602C46.5722 43.6602 46.8364 43.7567 47.0394 43.9492C47.1607 44.0631 47.251 44.2265 47.3117 44.4399L46.7806 44.5663C46.7491 44.4288 46.6835 44.3199 46.5838 44.2401C46.4836 44.1601 46.3623 44.1206 46.2199 44.1206C46.0225 44.1206 45.8622 44.1912 45.7396 44.3329C45.6165 44.474 45.5552 44.7031 45.5552 45.0199C45.5552 45.3553 45.6159 45.5948 45.7365 45.7373C45.8578 45.8802 46.0151 45.9514 46.2087 45.9514C46.3517 45.9514 46.4749 45.9063 46.5776 45.8153C46.6804 45.7244 46.7546 45.5819 46.7992 45.387V45.3869ZM42.4805 45.5057L43.0041 45.4537C43.0356 45.6288 43.0988 45.7569 43.1947 45.8394C43.2907 45.9217 43.42 45.9625 43.5827 45.9625C43.7548 45.9625 43.8847 45.926 43.9721 45.8529C44.0594 45.78 44.1032 45.6944 44.1032 45.5967C44.1032 45.5337 44.0847 45.4804 44.0482 45.4358C44.0117 45.392 43.9473 45.3536 43.8557 45.3214C43.7932 45.2991 43.6508 45.2607 43.4281 45.205C43.1414 45.1333 42.9404 45.0454 42.8246 44.9408C42.6619 44.7941 42.5807 44.6152 42.5807 44.4042C42.5807 44.2686 42.6191 44.1411 42.6952 44.023C42.7719 43.9048 42.8821 43.815 43.0263 43.7531C43.1705 43.6912 43.3437 43.6602 43.548 43.6602C43.8804 43.6602 44.131 43.7339 44.2987 43.8818C44.4671 44.0297 44.555 44.2265 44.5636 44.4736L44.0252 44.4921C44.0023 44.3547 43.9534 44.2563 43.8785 44.1963C43.8037 44.1362 43.6911 44.1059 43.5412 44.1059C43.3914 44.1059 43.2651 44.1381 43.1779 44.2024C43.1216 44.244 43.0931 44.299 43.0931 44.3684C43.0931 44.4316 43.1198 44.4853 43.173 44.5299C43.2405 44.5874 43.4045 44.647 43.665 44.7087C43.9257 44.77 44.1181 44.8344 44.2425 44.8999C44.3675 44.9663 44.4653 45.0559 44.5359 45.1705C44.6065 45.2849 44.6417 45.426 44.6417 45.5937C44.6417 45.746 44.5995 45.8889 44.5148 46.022C44.43 46.1552 44.3105 46.2542 44.1558 46.3186C44.0011 46.3834 43.8079 46.4156 43.5772 46.4156C43.2411 46.4156 42.983 46.3383 42.8029 46.183C42.6228 46.0284 42.5158 45.8023 42.4805 45.506V45.5057Z" fill="#D7DF23"/>
<path d="M54.7952 52.3277C54.8568 52.3182 54.9261 52.3273 54.9769 52.3642C55.0308 52.4032 55.213 52.5862 55.2539 52.6402C55.307 52.7103 55.3093 52.8206 55.2648 52.8959C53.9488 54.235 52.6101 55.5541 51.2852 56.8854C50.9675 57.0473 50.6545 57.2195 50.3361 57.3801C50.3055 57.3956 50.2412 57.4341 50.2133 57.4416C50.193 57.4472 50.1752 57.4485 50.1758 57.4231L50.7383 56.3322L54.6768 52.3937C54.7091 52.366 54.752 52.3345 54.7952 52.3277ZM54.8075 52.3769C54.7579 52.3852 54.6354 52.505 54.6031 52.5472C54.5995 52.5519 54.593 52.5545 54.5945 52.562L55.0633 53.0263C55.1611 52.9256 55.3296 52.8192 55.2055 52.6641C55.1705 52.6204 54.9599 52.4097 54.92 52.3906C54.8851 52.3739 54.846 52.3704 54.8075 52.377L54.8075 52.3769ZM54.5488 52.6032L54.3976 52.7533L54.8675 53.2232L55.0176 53.0675L54.5488 52.6032ZM50.8092 56.3446C50.8596 56.3396 50.9188 56.3625 50.9668 56.3629C50.9738 56.3629 50.9794 56.3629 50.9846 56.3574L54.4499 52.8855L54.3544 52.7961L50.8092 56.3446ZM51.0181 56.5843C51.0636 56.5736 51.1833 56.6107 51.2181 56.5907L54.6861 53.122L54.4927 52.9286L51.0181 56.4031V56.5844L51.0181 56.5843ZM51.2762 56.8116L54.8247 53.2663L54.7292 53.1647L51.2573 56.63C51.2517 56.6352 51.2518 56.6408 51.2518 56.6478C51.2518 56.6952 51.2797 56.7609 51.2762 56.8116ZM50.9628 56.4122L50.7608 56.3884L50.3881 57.1122C50.4064 57.1627 50.4529 57.1955 50.4899 57.2328L51.2327 56.8603L51.2014 56.653C51.1921 56.6388 50.9869 56.6429 50.9746 56.6233C50.9603 56.6006 50.9686 56.4496 50.9628 56.4123V56.4122Z" fill="#006437"/>
<path d="M51.0138 56.5855V56.4042L54.4883 52.9297L54.6817 53.1231L51.2137 56.5918C51.1789 56.6118 51.0592 56.5747 51.0137 56.5854L51.0138 56.5855Z" fill="#D7DF23"/>
<path d="M51.2744 56.8119C51.2778 56.7612 51.2501 56.6956 51.25 56.6481C51.25 56.6411 51.2499 56.6355 51.2555 56.6303L54.7274 53.165L54.8228 53.2666L51.2744 56.8119Z" fill="#006437"/>
<path d="M50.8066 56.3453L54.3519 52.7969L54.4473 52.8862L50.982 56.3581C50.9767 56.3637 50.9713 56.3637 50.9643 56.3636C50.9163 56.3633 50.8571 56.3404 50.8066 56.3453Z" fill="#006437"/>
<path d="M50.9614 56.4126C50.9672 56.45 50.9589 56.601 50.9732 56.6235C50.9856 56.6432 51.1907 56.639 51.2 56.6533L51.2313 56.8605L50.4885 57.233C50.4515 57.1958 50.405 57.1631 50.3867 57.1125L50.7594 56.3887L50.9614 56.4125V56.4126Z" fill="#D7DF23"/>
<path d="M54.807 52.3771C54.8455 52.3706 54.8845 52.3741 54.9194 52.3908C54.9594 52.4099 55.17 52.6205 55.205 52.6643C55.3291 52.8194 55.1606 52.9257 55.0627 53.0264L54.594 52.5621C54.5925 52.5547 54.599 52.552 54.6025 52.5474C54.635 52.5052 54.7573 52.3854 54.8069 52.377L54.807 52.3771Z" fill="#D7DF23"/>
<path d="M54.5478 52.6025L55.0165 53.0668L54.8664 53.2226L54.3965 52.7526L54.5478 52.6025Z" fill="#D7DF23"/>
</g>
<path d="M33.7661 86.5391V80.4391H31.5761V79.5391H36.9461V80.4391H34.7561V86.5391H33.7661ZM37.9515 86.5391V79.5391H40.3115C40.7782 79.5391 41.1882 79.6324 41.5415 79.8191C41.9015 79.9991 42.1815 80.2524 42.3815 80.5791C42.5882 80.8991 42.6915 81.2724 42.6915 81.6991C42.6915 82.1191 42.5815 82.4924 42.3615 82.8191C42.1482 83.1457 41.8549 83.4024 41.4815 83.5891C41.1082 83.7691 40.6882 83.8591 40.2215 83.8591H38.9315V86.5391H37.9515ZM41.8615 86.5391L40.2015 83.6791L40.9815 83.1591L42.9715 86.5391H41.8615ZM38.9315 82.9591H40.4015C40.6415 82.9591 40.8549 82.9057 41.0415 82.7991C41.2349 82.6857 41.3882 82.5357 41.5015 82.3491C41.6215 82.1557 41.6815 81.9391 41.6815 81.6991C41.6815 81.3257 41.5515 81.0224 41.2915 80.7891C41.0315 80.5557 40.6949 80.4391 40.2815 80.4391H38.9315V82.9591ZM44.2601 86.5391V79.5391H48.4701V80.4391H45.2401V82.5191H48.1501V83.3991H45.2401V85.6391H48.4901V86.5391H44.2601ZM50.1683 86.5391V79.5391H51.2083L53.5283 82.9691L55.8383 79.5391H56.8783V86.5391H55.8983V81.1191L53.5183 84.6291L51.1483 81.1291V86.5391H50.1683ZM63.4946 86.5391L60.7246 79.5391H61.7246L64.5446 86.5391H63.4946ZM57.8546 86.5391L60.6746 79.5391H61.6746L58.9046 86.5391H57.8546ZM59.1846 84.6691V83.7891H63.2146V84.6691H59.1846ZM65.5199 86.5391V79.5391H67.6799C68.3465 79.5391 68.9365 79.6891 69.4499 79.9891C69.9699 80.2824 70.3765 80.6924 70.6699 81.2191C70.9632 81.7457 71.1099 82.3524 71.1099 83.0391C71.1099 83.7191 70.9632 84.3224 70.6699 84.8491C70.3765 85.3757 69.9699 85.7891 69.4499 86.0891C68.9365 86.3891 68.3465 86.5391 67.6799 86.5391H65.5199ZM66.4999 85.6191H67.6799C68.0199 85.6191 68.3365 85.5557 68.6299 85.4291C68.9232 85.2957 69.1799 85.1124 69.3999 84.8791C69.6265 84.6391 69.7999 84.3624 69.9199 84.0491C70.0465 83.7357 70.1099 83.3991 70.1099 83.0391C70.1099 82.6791 70.0465 82.3424 69.9199 82.0291C69.7999 81.7157 69.6265 81.4424 69.3999 81.2091C69.1799 80.9691 68.9232 80.7857 68.6299 80.6591C68.3365 80.5257 68.0199 80.4591 67.6799 80.4591H66.4999V85.6191ZM30.7486 98.6591C30.3753 98.6591 30.0353 98.6157 29.7286 98.5291C29.4286 98.4424 29.1653 98.3257 28.9386 98.1791C28.7186 98.0257 28.5353 97.8557 28.3886 97.6691C28.242 97.4824 28.1386 97.2857 28.0786 97.0791L29.0286 96.7691C29.1286 97.0424 29.3186 97.2791 29.5986 97.4791C29.8786 97.6791 30.222 97.7824 30.6286 97.7891C31.122 97.7891 31.5086 97.6924 31.7886 97.4991C32.0753 97.2991 32.2186 97.0357 32.2186 96.7091C32.2186 96.4091 32.0953 96.1657 31.8486 95.9791C31.602 95.7857 31.2753 95.6391 30.8686 95.5391L30.0586 95.3291C29.7386 95.2424 29.4453 95.1191 29.1786 94.9591C28.9186 94.7991 28.712 94.5957 28.5586 94.3491C28.4053 94.1024 28.3286 93.8057 28.3286 93.4591C28.3286 92.8191 28.5353 92.3191 28.9486 91.9591C29.3686 91.5991 29.972 91.4191 30.7586 91.4191C31.212 91.4191 31.6053 91.4924 31.9386 91.6391C32.272 91.7791 32.5453 91.9657 32.7586 92.1991C32.9786 92.4324 33.1353 92.6891 33.2286 92.9691L32.2786 93.2891C32.1653 92.9891 31.972 92.7491 31.6986 92.5691C31.4253 92.3824 31.0886 92.2891 30.6886 92.2891C30.2686 92.2891 29.9353 92.3891 29.6886 92.5891C29.4486 92.7891 29.3286 93.0624 29.3286 93.4091C29.3286 93.7024 29.422 93.9291 29.6086 94.0891C29.802 94.2424 30.0586 94.3591 30.3786 94.4391L31.1886 94.6391C31.842 94.7991 32.3453 95.0657 32.6986 95.4391C33.0586 95.8057 33.2386 96.2091 33.2386 96.6491C33.2386 97.0291 33.142 97.3724 32.9486 97.6791C32.762 97.9791 32.482 98.2191 32.1086 98.3991C31.742 98.5724 31.2886 98.6591 30.7486 98.6591ZM37.5917 98.6591C36.925 98.6591 36.3317 98.5057 35.8117 98.1991C35.2917 97.8857 34.885 97.4591 34.5917 96.9191C34.2983 96.3724 34.1517 95.7457 34.1517 95.0391C34.1517 94.3324 34.2983 93.7091 34.5917 93.1691C34.885 92.6224 35.2883 92.1957 35.8017 91.8891C36.315 91.5757 36.905 91.4191 37.5717 91.4191C38.005 91.4191 38.4183 91.4991 38.8117 91.6591C39.205 91.8124 39.555 92.0291 39.8617 92.3091C40.175 92.5824 40.415 92.9024 40.5817 93.2691L39.7017 93.6691C39.575 93.3957 39.4017 93.1591 39.1817 92.9591C38.9617 92.7591 38.7117 92.6024 38.4317 92.4891C38.1583 92.3757 37.8717 92.3191 37.5717 92.3191C37.105 92.3191 36.6883 92.4357 36.3217 92.6691C35.955 92.9024 35.6683 93.2224 35.4617 93.6291C35.255 94.0357 35.1517 94.5057 35.1517 95.0391C35.1517 95.5724 35.255 96.0457 35.4617 96.4591C35.675 96.8724 35.965 97.1957 36.3317 97.4291C36.705 97.6557 37.1283 97.7691 37.6017 97.7691C37.9083 97.7691 38.1983 97.7091 38.4717 97.5891C38.745 97.4624 38.9883 97.2924 39.2017 97.0791C39.4217 96.8591 39.5983 96.6091 39.7317 96.3291L40.6117 96.7191C40.445 97.0991 40.2083 97.4357 39.9017 97.7291C39.595 98.0224 39.2417 98.2524 38.8417 98.4191C38.4483 98.5791 38.0317 98.6591 37.5917 98.6591ZM46.5785 98.5391V91.5391H47.5585V98.5391H46.5785ZM41.8285 98.5391V91.5391H42.8085V98.5391H41.8285ZM42.6485 95.3891V94.4891H46.8885V95.3891H42.6485ZM52.3682 98.6591C51.6882 98.6591 51.0849 98.5057 50.5582 98.1991C50.0316 97.8924 49.6182 97.4657 49.3182 96.9191C49.0249 96.3724 48.8782 95.7457 48.8782 95.0391C48.8782 94.3324 49.0249 93.7091 49.3182 93.1691C49.6182 92.6224 50.0282 92.1957 50.5482 91.8891C51.0682 91.5757 51.6682 91.4191 52.3482 91.4191C53.0282 91.4191 53.6282 91.5757 54.1482 91.8891C54.6682 92.1957 55.0749 92.6224 55.3682 93.1691C55.6616 93.7091 55.8082 94.3324 55.8082 95.0391C55.8082 95.7457 55.6616 96.3724 55.3682 96.9191C55.0749 97.4657 54.6682 97.8924 54.1482 98.1991C53.6349 98.5057 53.0416 98.6591 52.3682 98.6591ZM52.3682 97.7591C52.8482 97.7591 53.2716 97.6424 53.6382 97.4091C54.0049 97.1757 54.2916 96.8557 54.4982 96.4491C54.7049 96.0424 54.8082 95.5724 54.8082 95.0391C54.8082 94.5124 54.7016 94.0457 54.4882 93.6391C54.2816 93.2257 53.9916 92.9024 53.6182 92.6691C53.2516 92.4357 52.8282 92.3191 52.3482 92.3191C51.8682 92.3191 51.4416 92.4357 51.0682 92.6691C50.6949 92.9024 50.4016 93.2257 50.1882 93.6391C49.9816 94.0457 49.8782 94.5124 49.8782 95.0391C49.8782 95.5724 49.9849 96.0424 50.1982 96.4491C50.4116 96.8557 50.7049 97.1757 51.0782 97.4091C51.4582 97.6424 51.8882 97.7591 52.3682 97.7591ZM60.1612 98.6591C59.4812 98.6591 58.8779 98.5057 58.3512 98.1991C57.8245 97.8924 57.4112 97.4657 57.1112 96.9191C56.8179 96.3724 56.6712 95.7457 56.6712 95.0391C56.6712 94.3324 56.8179 93.7091 57.1112 93.1691C57.4112 92.6224 57.8212 92.1957 58.3412 91.8891C58.8612 91.5757 59.4612 91.4191 60.1412 91.4191C60.8212 91.4191 61.4212 91.5757 61.9412 91.8891C62.4612 92.1957 62.8679 92.6224 63.1612 93.1691C63.4545 93.7091 63.6012 94.3324 63.6012 95.0391C63.6012 95.7457 63.4545 96.3724 63.1612 96.9191C62.8679 97.4657 62.4612 97.8924 61.9412 98.1991C61.4279 98.5057 60.8345 98.6591 60.1612 98.6591ZM60.1612 97.7591C60.6412 97.7591 61.0645 97.6424 61.4312 97.4091C61.7979 97.1757 62.0845 96.8557 62.2912 96.4491C62.4979 96.0424 62.6012 95.5724 62.6012 95.0391C62.6012 94.5124 62.4945 94.0457 62.2812 93.6391C62.0745 93.2257 61.7845 92.9024 61.4112 92.6691C61.0445 92.4357 60.6212 92.3191 60.1412 92.3191C59.6612 92.3191 59.2345 92.4357 58.8612 92.6691C58.4879 92.9024 58.1945 93.2257 57.9812 93.6391C57.7745 94.0457 57.6712 94.5124 57.6712 95.0391C57.6712 95.5724 57.7779 96.0424 57.9912 96.4491C58.2045 96.8557 58.4979 97.1757 58.8712 97.4091C59.2512 97.6424 59.6812 97.7591 60.1612 97.7591ZM64.9242 98.5391V91.5391H65.9042V97.6391H69.1542V98.5391H64.9242ZM72.4283 98.6591C72.055 98.6591 71.715 98.6157 71.4083 98.5291C71.1083 98.4424 70.845 98.3257 70.6183 98.1791C70.3983 98.0257 70.215 97.8557 70.0683 97.6691C69.9217 97.4824 69.8183 97.2857 69.7583 97.0791L70.7083 96.7691C70.8083 97.0424 70.9983 97.2791 71.2783 97.4791C71.5583 97.6791 71.9017 97.7824 72.3083 97.7891C72.8017 97.7891 73.1883 97.6924 73.4683 97.4991C73.755 97.2991 73.8983 97.0357 73.8983 96.7091C73.8983 96.4091 73.775 96.1657 73.5283 95.9791C73.2817 95.7857 72.955 95.6391 72.5483 95.5391L71.7383 95.3291C71.4183 95.2424 71.125 95.1191 70.8583 94.9591C70.5983 94.7991 70.3917 94.5957 70.2383 94.3491C70.085 94.1024 70.0083 93.8057 70.0083 93.4591C70.0083 92.8191 70.215 92.3191 70.6283 91.9591C71.0483 91.5991 71.6517 91.4191 72.4383 91.4191C72.8917 91.4191 73.285 91.4924 73.6183 91.6391C73.9517 91.7791 74.225 91.9657 74.4383 92.1991C74.6583 92.4324 74.815 92.6891 74.9083 92.9691L73.9583 93.2891C73.845 92.9891 73.6517 92.7491 73.3783 92.5691C73.105 92.3824 72.7683 92.2891 72.3683 92.2891C71.9483 92.2891 71.615 92.3891 71.3683 92.5891C71.1283 92.7891 71.0083 93.0624 71.0083 93.4091C71.0083 93.7024 71.1017 93.9291 71.2883 94.0891C71.4817 94.2424 71.7383 94.3591 72.0583 94.4391L72.8683 94.6391C73.5217 94.7991 74.025 95.0657 74.3783 95.4391C74.7383 95.8057 74.9183 96.2091 74.9183 96.6491C74.9183 97.0291 74.8217 97.3724 74.6283 97.6791C74.4417 97.9791 74.1617 98.2191 73.7883 98.3991C73.4217 98.5724 72.9683 98.6591 72.4283 98.6591Z" fill="#262626"/>
<defs>
<linearGradient id="paint0_linear_1321_24746" x1="49.8086" y1="51.7549" x2="55.5563" y2="51.7549" gradientUnits="userSpaceOnUse">
<stop stop-color="#F7941D"/>
<stop offset="1" stop-color="#ED1C24"/>
</linearGradient>
<clipPath id="clip0_1321_24746">
<rect width="36" height="33.5394" fill="white" transform="translate(33.5 36)"/>
</clipPath>
</defs>
</svg>
