<svg width="44" height="40" viewBox="0 0 44 40" fill="none" xmlns="http://www.w3.org/2000/svg">
<rect width="44" height="40" rx="8" fill="#FAF3FF"/>
<path opacity="0.4" d="M30.5 18.19H27.61C25.24 18.19 23.31 16.26 23.31 13.89V11C23.31 10.45 22.86 10 22.31 10H18.07C14.99 10 12.5 12 12.5 15.57V24.43C12.5 28 14.99 30 18.07 30H25.93C29.01 30 31.5 28 31.5 24.43V19.19C31.5 18.64 31.05 18.19 30.5 18.19Z" fill="#9254DE"/>
<path d="M25.7997 10.2105C25.3897 9.80048 24.6797 10.0805 24.6797 10.6505V14.1405C24.6797 15.6005 25.9197 16.8105 27.4297 16.8105C28.3797 16.8205 29.6997 16.8205 30.8297 16.8205C31.3997 16.8205 31.6997 16.1505 31.2997 15.7505C29.8597 14.3005 27.2797 11.6905 25.7997 10.2105Z" fill="#9254DE"/>
<path d="M21 25.7495C20.81 25.7495 20.62 25.6795 20.47 25.5295C20.18 25.2395 20.18 24.7595 20.47 24.4695L21.19 23.7495H17C16.59 23.7495 16.25 23.4095 16.25 22.9995C16.25 22.5895 16.59 22.2495 17 22.2495H21.19L20.47 21.5295C20.32 21.3795 20.25 21.1895 20.25 20.9995C20.25 20.8095 20.32 20.6195 20.47 20.4695C20.76 20.1795 21.24 20.1795 21.53 20.4695L23.53 22.4695C23.66 22.5995 23.73 22.7695 23.74 22.9295C23.74 22.9795 23.74 23.0395 23.74 23.0895C23.72 23.2295 23.66 23.3595 23.56 23.4795C23.55 23.4895 23.53 23.5095 23.52 23.5195L21.52 25.5195C21.38 25.6795 21.19 25.7495 21 25.7495Z" fill="#9254DE"/>
</svg>
