<svg width="80" height="80" viewBox="0 0 80 80" fill="none" xmlns="http://www.w3.org/2000/svg">
<path d="M74.1406 20.2881V59.7109L40 79.4229L5.85938 59.7109V20.2881L40 0.576172L74.1406 20.2881Z" fill="#F4F8E7" stroke="#79D9AE"/>
<path opacity="0.4" d="M46.9125 35.2125C46.825 35.2 46.7375 35.2 46.65 35.2125C44.7125 35.15 43.175 33.5625 43.175 31.6125C43.175 29.625 44.7875 28 46.7875 28C48.775 28 50.4 29.6125 50.4 31.6125C50.3875 33.5625 48.85 35.15 46.9125 35.2125Z" fill="#1C8355"/>
<path opacity="0.4" d="M50.9875 43.875C49.5875 44.8125 47.625 45.1625 45.8125 44.925C46.2875 43.9 46.5375 42.7625 46.55 41.5625C46.55 40.3125 46.275 39.125 45.75 38.0875C47.6 37.8375 49.5625 38.1875 50.975 39.125C52.95 40.425 52.95 42.5625 50.9875 43.875Z" fill="#1C8355"/>
<path opacity="0.4" d="M33.05 35.2125C33.1375 35.2 33.225 35.2 33.3125 35.2125C35.25 35.15 36.7875 33.5625 36.7875 31.6125C36.7875 29.625 35.175 28 33.175 28C31.1875 28 29.5625 29.6125 29.5625 31.6125C29.575 33.5625 31.1125 35.15 33.05 35.2125Z" fill="#1C8355"/>
<path opacity="0.4" d="M33.1875 41.5625C33.1875 42.775 33.45 43.925 33.925 44.9625C32.1625 45.15 30.325 44.775 28.975 43.8875C27 42.575 27 40.4375 28.975 39.125C30.3125 38.225 32.2 37.8625 33.975 38.0625C33.4625 39.1125 33.1875 40.3 33.1875 41.5625Z" fill="#1C8355"/>
<path d="M40.15 45.3375C40.05 45.325 39.9375 45.325 39.825 45.3375C37.525 45.2625 35.6875 43.375 35.6875 41.05C35.6875 38.675 37.6 36.75 39.9875 36.75C42.3625 36.75 44.2875 38.675 44.2875 41.05C44.2875 43.375 42.4625 45.2625 40.15 45.3375Z" fill="#1C8355"/>
<path d="M36.0875 47.925C34.2 49.1875 34.2 51.2625 36.0875 52.5125C38.2375 53.95 41.7625 53.95 43.9125 52.5125C45.8 51.25 45.8 49.175 43.9125 47.925C41.775 46.4875 38.25 46.4875 36.0875 47.925Z" fill="#1C8355"/>
</svg>
