<svg width="80" height="80" viewBox="0 0 80 80" fill="none" xmlns="http://www.w3.org/2000/svg">
<path d="M74.1406 20.2881V59.7109L40 79.4229L5.85938 59.7109V20.2881L40 0.576172L74.1406 20.2881Z" fill="#F4F8E7" stroke="#79D9AE"/>
<path opacity="0.4" d="M46.9833 23.8333H33.0166C26.9499 23.8333 23.3333 27.4499 23.3333 33.5166V47.4666C23.3333 53.5499 26.9499 57.1666 33.0166 57.1666H46.9666C53.0333 57.1666 56.6499 53.5499 56.6499 47.4833V33.5166C56.6666 27.4499 53.0499 23.8333 46.9833 23.8333Z" fill="#1C8355"/>
<path d="M31.4666 51.9998C30.7832 51.9998 30.2166 51.4331 30.2166 50.7498V47.2998C30.2166 46.6165 30.7832 46.0498 31.4666 46.0498C32.1499 46.0498 32.7166 46.6165 32.7166 47.2998V50.7498C32.7166 51.4498 32.1499 51.9998 31.4666 51.9998Z" fill="#1C8355"/>
<path d="M40 51.9999C39.3167 51.9999 38.75 51.4333 38.75 50.7499V43.8333C38.75 43.1499 39.3167 42.5833 40 42.5833C40.6833 42.5833 41.25 43.1499 41.25 43.8333V50.7499C41.25 51.4499 40.6833 51.9999 40 51.9999Z" fill="#1C8355"/>
<path d="M48.5332 52C47.8499 52 47.2832 51.4333 47.2832 50.75V40.3833C47.2832 39.7 47.8499 39.1333 48.5332 39.1333C49.2165 39.1333 49.7832 39.7 49.7832 40.3833V50.75C49.7832 51.45 49.2332 52 48.5332 52Z" fill="#1C8355"/>
<path d="M49.7832 30.2C49.7832 30.1167 49.7499 30.0167 49.7332 29.9333C49.7166 29.8667 49.6999 29.7833 49.6832 29.7167C49.6499 29.65 49.5999 29.6 49.5666 29.5333C49.5166 29.4667 49.4666 29.3833 49.3999 29.3333C49.3832 29.3167 49.3832 29.3 49.3666 29.3C49.3166 29.2667 49.2666 29.25 49.2166 29.2167C49.1499 29.1667 49.0666 29.1167 48.9832 29.0833C48.8999 29.05 48.8166 29.05 48.7332 29.0333C48.6666 29.0167 48.6166 29 48.5499 29H43.6666C42.9832 29 42.4166 29.5667 42.4166 30.25C42.4166 30.9333 42.9832 31.5 43.6666 31.5H45.7499C41.7832 35.6667 36.7832 38.6 31.1666 40.0167C30.4999 40.1833 30.0832 40.8667 30.2499 41.5333C30.3832 42.1 30.8999 42.4833 31.4666 42.4833C31.5666 42.4833 31.6666 42.4667 31.7666 42.45C37.7166 40.9667 43.0332 37.8833 47.2832 33.5167V35.1333C47.2832 35.8167 47.8499 36.3833 48.5332 36.3833C49.2166 36.3833 49.7832 35.8167 49.7832 35.1333V30.25C49.7832 30.2333 49.7832 30.2167 49.7832 30.2Z" fill="#1C8355"/>
</svg>
