<svg width="80" height="80" viewBox="0 0 80 80" fill="none" xmlns="http://www.w3.org/2000/svg">
<path d="M74.1406 20.2881V59.7109L40 79.4229L5.85938 59.7109V20.2881L40 0.576172L74.1406 20.2881Z" fill="#F4F8E7" stroke="#79D9AE"/>
<path opacity="0.4" d="M50.6334 41.3999V49.6166C50.6334 51.7332 48.9834 53.9999 47 54.6666L41.6834 56.4332C40.75 56.7499 39.2334 56.7499 38.3167 56.4332L33 54.6666C31 53.9999 29.3667 51.7332 29.3667 49.6166L29.3834 41.3999L36.75 46.1999C38.55 47.3832 41.5167 47.3832 43.3167 46.1999L50.6334 41.3999Z" fill="#1C8355"/>
<path d="M53.3 30.7666L43.3167 24.2166C41.5167 23.0333 38.55 23.0333 36.75 24.2166L26.7167 30.7666C23.5 32.8499 23.5 37.5666 26.7167 39.6666L29.3834 41.3999L36.75 46.1999C38.55 47.3833 41.5167 47.3833 43.3167 46.1999L50.6334 41.3999L52.9167 39.8999V44.9999C52.9167 45.6833 53.4834 46.2499 54.1667 46.2499C54.85 46.2499 55.4167 45.6833 55.4167 44.9999V36.7999C56.0834 34.6499 55.4 32.1499 53.3 30.7666Z" fill="#1C8355"/>
</svg>
