<svg width="21" height="22" viewBox="0 0 21 22" fill="none" xmlns="http://www.w3.org/2000/svg">
<path d="M20.0338 6.34179V5.50477C19.0044 5.50633 17.9953 5.21819 17.1218 4.6733C17.895 5.51927 18.913 6.10265 20.0338 6.34196M14.6094 0.957517C14.5832 0.807857 14.5631 0.657195 14.5491 0.505903V0H10.5905V15.7113C10.5842 17.5428 9.09699 19.0258 7.2629 19.0258C6.74295 19.0266 6.2301 18.905 5.76579 18.671C6.37382 19.4686 7.33399 19.9833 8.41465 19.9833C10.2486 19.9833 11.7359 18.5004 11.7424 16.6688V0.9576L14.6094 0.957517ZM8.27305 9.39972V8.5085C7.94226 8.46328 7.60877 8.44066 7.2749 8.4408C3.25697 8.4408 0 11.696 0 15.7113C0 18.2287 1.28003 20.4473 3.22519 21.7524C1.94226 20.4416 1.15183 18.6476 1.15183 16.6687C1.15183 12.7046 4.32596 9.48124 8.27305 9.39972Z" fill="#00F2EA"/>
</svg>
