<svg width="40" height="40" viewBox="0 0 40 40" fill="none" xmlns="http://www.w3.org/2000/svg">
<rect width="40" height="40" rx="20" fill="#F3FAFF"/>
<path opacity="0.4" d="M28.5 18.19H25.61C23.24 18.19 21.31 16.26 21.31 13.89V11C21.31 10.45 20.86 10 20.31 10H16.07C12.99 10 10.5 12 10.5 15.57V24.43C10.5 28 12.99 30 16.07 30H23.93C27.01 30 29.5 28 29.5 24.43V19.19C29.5 18.64 29.05 18.19 28.5 18.19Z" fill="#4096FF"/>
<path d="M23.7997 10.2105C23.3897 9.80048 22.6797 10.0805 22.6797 10.6505V14.1405C22.6797 15.6005 23.9197 16.8105 25.4297 16.8105C26.3797 16.8205 27.6997 16.8205 28.8297 16.8205C29.3997 16.8205 29.6997 16.1505 29.2997 15.7505C27.8597 14.3005 25.2797 11.6905 23.7997 10.2105Z" fill="#4096FF"/>
<path d="M19 25.7504C18.81 25.7504 18.62 25.6804 18.47 25.5304C18.18 25.2404 18.18 24.7604 18.47 24.4704L19.19 23.7504H15C14.59 23.7504 14.25 23.4104 14.25 23.0004C14.25 22.5904 14.59 22.2504 15 22.2504H19.19L18.47 21.5304C18.32 21.3804 18.25 21.1904 18.25 21.0004C18.25 20.8104 18.32 20.6204 18.47 20.4704C18.76 20.1804 19.24 20.1804 19.53 20.4704L21.53 22.4704C21.66 22.6004 21.73 22.7704 21.74 22.9304C21.74 22.9804 21.74 23.0404 21.74 23.0904C21.72 23.2304 21.66 23.3604 21.56 23.4804C21.55 23.4904 21.53 23.5104 21.52 23.5204L19.52 25.5204C19.38 25.6804 19.19 25.7504 19 25.7504Z" fill="#4096FF"/>
</svg>
