<svg width="40" height="40" viewBox="0 0 40 40" fill="none" xmlns="http://www.w3.org/2000/svg">
<rect width="40" height="40" rx="20" fill="#FBFCE9"/>
<path opacity="0.4" d="M25.5291 15.77C25.4591 15.76 25.3891 15.76 25.3191 15.77C23.7691 15.72 22.5391 14.45 22.5391 12.89C22.5391 11.3 23.8291 10 25.4291 10C27.0191 10 28.3191 11.29 28.3191 12.89C28.3091 14.45 27.0791 15.72 25.5291 15.77Z" fill="#818615"/>
<path opacity="0.4" d="M28.7896 22.6999C27.6696 23.4499 26.0996 23.7299 24.6496 23.5399C25.0296 22.7199 25.2296 21.8099 25.2396 20.8499C25.2396 19.8499 25.0196 18.8999 24.5996 18.0699C26.0796 17.8699 27.6496 18.1499 28.7796 18.8999C30.3596 19.9399 30.3596 21.6499 28.7896 22.6999Z" fill="#818615"/>
<path opacity="0.4" d="M14.4404 15.77C14.5104 15.76 14.5804 15.76 14.6504 15.77C16.2004 15.72 17.4304 14.45 17.4304 12.89C17.4304 11.3 16.1404 10 14.5404 10C12.9504 10 11.6504 11.29 11.6504 12.89C11.6604 14.45 12.8904 15.72 14.4404 15.77Z" fill="#818615"/>
<path opacity="0.4" d="M14.5491 20.8501C14.5491 21.8201 14.7591 22.7401 15.1391 23.5701C13.7291 23.7201 12.2591 23.4201 11.1791 22.7101C9.59914 21.6601 9.59914 19.9501 11.1791 18.9001C12.2491 18.1801 13.7591 17.8901 15.1791 18.0501C14.7691 18.8901 14.5491 19.8401 14.5491 20.8501Z" fill="#818615"/>
<path d="M20.1208 23.87C20.0408 23.86 19.9508 23.86 19.8608 23.87C18.0208 23.81 16.5508 22.3 16.5508 20.44C16.5508 18.54 18.0808 17 19.9908 17C21.8908 17 23.4308 18.54 23.4308 20.44C23.4308 22.3 21.9708 23.81 20.1208 23.87Z" fill="#818615"/>
<path d="M16.8708 25.9399C15.3608 26.9499 15.3608 28.6099 16.8708 29.6099C18.5908 30.7599 21.4108 30.7599 23.1308 29.6099C24.6408 28.5999 24.6408 26.9399 23.1308 25.9399C21.4208 24.7899 18.6008 24.7899 16.8708 25.9399Z" fill="#818615"/>
</svg>
