<svg width="1422" height="103" viewBox="0 0 1422 103" fill="none" xmlns="http://www.w3.org/2000/svg">
<path d="M41.015 139.061V26.7574H-3.77269e-05V2.34368H108.592V26.7574H67.7725V139.061H41.015ZM133.181 87.6941C133.181 77.1473 135.2 68.4235 139.236 61.5226C143.403 54.6216 148.676 49.4784 155.056 46.0931C161.566 42.7077 168.337 41.015 175.368 41.015V66.0147C169.379 66.0147 163.715 66.7308 158.376 68.1631C153.168 69.5954 148.936 71.9391 145.681 75.1942C142.426 78.4494 140.798 82.616 140.798 87.6941H133.181ZM115.018 139.061V41.4056H140.798V139.061H115.018ZM233.162 141.404C223.526 141.404 214.998 139.256 207.576 134.959C200.154 130.532 194.295 124.477 189.998 116.795C185.832 109.113 183.748 100.259 183.748 90.2331C183.748 80.2072 185.897 71.3531 190.194 63.671C194.621 55.9888 200.61 49.9993 208.162 45.7025C215.844 41.2754 224.633 39.0619 234.529 39.0619C243.123 39.0619 251 41.3405 258.161 45.8978C265.453 50.3248 271.247 56.9002 275.544 65.6241C279.971 74.2177 282.184 84.6993 282.184 97.0689H208.162L210.506 94.7252C210.506 99.5429 211.678 103.775 214.021 107.42C216.495 110.936 219.62 113.67 223.396 115.623C227.302 117.446 231.469 118.358 235.896 118.358C241.235 118.358 245.596 117.251 248.982 115.037C252.367 112.694 254.971 109.699 256.794 106.053L279.841 115.037C277.106 120.506 273.526 125.259 269.099 129.295C264.802 133.201 259.659 136.196 253.669 138.279C247.68 140.363 240.844 141.404 233.162 141.404ZM211.873 80.2723L209.529 77.9286H256.599L254.45 80.2723C254.45 75.5849 253.344 71.874 251.13 69.1396C248.917 66.2751 246.182 64.1918 242.927 62.8897C239.802 61.5877 236.742 60.9366 233.748 60.9366C230.753 60.9366 227.563 61.5877 224.177 62.8897C220.792 64.1918 217.862 66.2751 215.389 69.1396C213.045 71.874 211.873 75.5849 211.873 80.2723ZM297.167 139.061V41.4056H321.385L322.557 54.1008C325.552 49.1529 329.393 45.442 334.08 42.9681C338.768 40.364 343.976 39.0619 349.705 39.0619C357.648 39.0619 364.288 40.7546 369.627 44.14C375.095 47.5254 379.067 52.7336 381.541 59.7648C384.405 53.1242 388.442 48.0462 393.65 44.5306C398.858 40.8848 404.913 39.0619 411.814 39.0619C423.272 39.0619 431.996 42.7077 437.985 49.9993C443.975 57.1606 446.969 68.2282 446.969 83.2019V139.061H421.189V89.0612C421.189 82.4207 420.472 77.2775 419.04 73.6318C417.608 69.986 415.655 67.3818 413.181 65.8194C410.707 64.1267 407.777 63.2803 404.392 63.2803C398.142 63.1501 393.324 65.1683 389.939 69.3349C386.554 73.5016 384.861 79.6864 384.861 87.8894V139.061H359.08V89.0612C359.08 82.4207 358.364 77.2775 356.932 73.6318C355.63 69.986 353.677 67.3818 351.072 65.8194C348.598 64.1267 345.669 63.2803 342.283 63.2803C336.034 63.1501 331.216 65.1683 327.831 69.3349C324.575 73.5016 322.948 79.6864 322.948 87.8894V139.061H297.167ZM526.474 139.061L525.693 119.334V89.6472C525.693 83.7879 525.042 78.7749 523.74 74.6083C522.568 70.4417 520.615 67.2516 517.881 65.0381C515.277 62.6944 511.696 61.5226 507.139 61.5226C502.972 61.5226 499.196 62.434 495.811 64.2569C492.425 66.0798 489.561 68.8792 487.217 72.6552L464.561 64.8428C466.384 60.6762 469.053 56.6398 472.569 52.7336C476.084 48.6972 480.642 45.442 486.24 42.9681C491.97 40.364 498.936 39.0619 507.139 39.0619C517.034 39.0619 525.237 40.9499 531.748 44.7259C538.388 48.5019 543.271 53.8404 546.396 60.7413C549.651 67.5121 551.214 75.5849 551.083 84.9597L550.497 139.061H526.474ZM499.131 141.404C487.412 141.404 478.298 138.8 471.788 133.592C465.407 128.384 462.217 121.027 462.217 111.522C462.217 101.105 465.668 93.2929 472.569 88.0847C479.6 82.7462 489.431 80.077 502.061 80.077H526.865V99.2173H511.045C502.581 99.2173 496.722 100.259 493.467 102.342C490.212 104.295 488.584 107.095 488.584 110.741C488.584 113.605 489.886 115.884 492.49 117.576C495.095 119.139 498.74 119.92 503.428 119.92C507.725 119.92 511.501 118.944 514.756 116.991C518.141 114.907 520.81 112.303 522.763 109.178C524.717 105.923 525.693 102.603 525.693 99.2173H531.943C531.943 112.498 529.404 122.85 524.326 130.272C519.378 137.693 510.98 141.404 499.131 141.404ZM641.161 139.061L639.794 120.897V2.34368H665.575V139.061H641.161ZM610.497 141.404C601.513 141.404 593.701 139.321 587.06 135.154C580.55 130.988 575.472 125.063 571.826 117.381C568.18 109.699 566.357 100.65 566.357 90.2331C566.357 79.6864 568.18 70.637 571.826 63.085C575.472 55.4028 580.55 49.4784 587.06 45.3118C593.701 41.1452 601.513 39.0619 610.497 39.0619C618.7 39.0619 625.601 41.1452 631.2 45.3118C636.929 49.4784 641.291 55.4028 644.286 63.085C647.281 70.637 648.778 79.6864 648.778 90.2331C648.778 100.65 647.281 109.699 644.286 117.381C641.291 125.063 636.929 130.988 631.2 135.154C625.601 139.321 618.7 141.404 610.497 141.404ZM617.138 117.772C621.565 117.772 625.471 116.6 628.856 114.256C632.372 111.912 635.106 108.657 637.059 104.491C639.012 100.324 639.989 95.5716 639.989 90.2331C639.989 84.8946 639.012 80.1421 637.059 75.9755C635.106 71.8089 632.372 68.6188 628.856 66.4053C625.471 64.0616 621.5 62.8897 616.942 62.8897C612.255 62.8897 608.154 64.0616 604.638 66.4053C601.122 68.6188 598.323 71.8089 596.24 75.9755C594.156 80.1421 593.115 84.8946 593.115 90.2331C593.115 95.5716 594.156 100.324 596.24 104.491C598.323 108.657 601.122 111.912 604.638 114.256C608.284 116.6 612.45 117.772 617.138 117.772ZM783.934 141.404C777.033 141.404 770.588 140.558 764.598 138.865C758.609 137.173 753.27 134.829 748.583 131.834C743.895 128.709 739.989 125.259 736.864 121.483C733.869 117.707 731.916 113.735 731.005 109.569L757.176 101.756C758.869 106.183 761.864 110.024 766.161 113.28C770.457 116.405 775.861 118.032 782.371 118.162C789.272 118.293 794.871 116.795 799.168 113.67C803.595 110.545 805.809 106.509 805.809 101.561C805.809 97.2642 804.051 93.6836 800.535 90.819C797.15 87.8243 792.462 85.5457 786.473 83.9832L768.7 79.2957C762.059 77.6031 756.2 75.064 751.122 71.6787C746.044 68.1631 742.072 63.8663 739.208 58.7882C736.343 53.7102 734.911 47.7858 734.911 41.015C734.911 28.1246 739.143 18.0987 747.606 10.9373C756.2 3.64575 768.309 -3.25728e-05 783.934 -3.25728e-05C792.658 -3.25728e-05 800.275 1.30203 806.785 3.90616C813.426 6.38008 818.959 9.96076 823.386 14.6482C827.813 19.3356 831.199 24.8694 833.543 31.2495L807.566 39.2572C806.004 34.8302 803.139 31.0542 798.973 27.9293C794.806 24.8043 789.533 23.2418 783.153 23.2418C776.642 23.2418 771.499 24.7392 767.723 27.734C764.077 30.7287 762.254 34.9604 762.254 40.4291C762.254 44.7259 763.687 48.1113 766.551 50.5852C769.546 53.0591 773.582 54.9471 778.66 56.2492L796.629 60.7413C808.348 63.6059 817.462 68.749 823.972 76.1708C830.483 83.5926 833.738 91.8607 833.738 100.975C833.738 109.048 831.785 116.144 827.879 122.264C823.972 128.253 818.308 132.941 810.887 136.326C803.465 139.712 794.481 141.404 783.934 141.404ZM900.03 141.404C889.874 141.404 880.825 139.256 872.882 134.959C864.94 130.532 858.755 124.477 854.328 116.795C849.901 108.983 847.687 100.129 847.687 90.2331C847.687 80.2072 849.901 71.3531 854.328 63.671C858.755 55.9888 864.874 49.9993 872.687 45.7025C880.499 41.2754 889.484 39.0619 899.64 39.0619C909.405 39.0619 918.324 41.4707 926.397 46.2884C934.47 51.106 940.329 58.0721 943.975 67.1865L919.757 75.7802C917.934 72.0042 915.069 69.0094 911.163 66.7959C907.387 64.4522 903.155 63.2803 898.468 63.2803C893.65 63.2803 889.418 64.4522 885.773 66.7959C882.127 69.0094 879.262 72.1344 877.179 76.1708C875.096 80.2072 874.054 84.8946 874.054 90.2331C874.054 95.5716 875.096 100.259 877.179 104.295C879.262 108.202 882.192 111.327 885.968 113.67C889.744 116.014 894.041 117.186 898.858 117.186C903.546 117.186 907.778 115.949 911.554 113.475C915.46 111.001 918.324 107.746 920.147 103.709L944.561 112.303C940.785 121.548 934.861 128.709 926.788 133.787C918.845 138.865 909.926 141.404 900.03 141.404ZM959.775 139.061V2.34368H985.556V139.061H959.775ZM1024.62 139.061V89.0612H1050.4V139.061H1024.62ZM1024.62 89.0612C1024.62 82.4207 1023.84 77.2775 1022.27 73.6318C1020.71 69.986 1018.56 67.3818 1015.83 65.8194C1013.09 64.1267 1009.9 63.2803 1006.26 63.2803C999.618 63.1501 994.475 65.1683 990.829 69.3349C987.314 73.5016 985.556 79.6864 985.556 87.8894H976.962C976.962 77.4729 978.46 68.6839 981.455 61.5226C984.58 54.231 988.876 48.6972 994.345 44.9212C999.944 41.015 1006.45 39.0619 1013.88 39.0619C1021.69 39.0619 1028.26 40.6244 1033.6 43.7494C1039.07 46.8743 1043.24 51.7571 1046.1 58.3976C1048.97 64.9079 1050.4 73.3713 1050.4 83.7879V89.0612H1024.62ZM1116.87 141.404C1106.97 141.404 1098.12 139.256 1090.3 134.959C1082.62 130.532 1076.57 124.477 1072.14 116.795C1067.84 109.113 1065.69 100.259 1065.69 90.2331C1065.69 80.2072 1067.84 71.3531 1072.14 63.671C1076.44 55.9888 1082.43 49.9993 1090.11 45.7025C1097.79 41.2754 1106.58 39.0619 1116.47 39.0619C1126.5 39.0619 1135.35 41.2754 1143.04 45.7025C1150.72 49.9993 1156.71 55.9888 1161.01 63.671C1165.3 71.3531 1167.45 80.2072 1167.45 90.2331C1167.45 100.259 1165.3 109.113 1161.01 116.795C1156.71 124.477 1150.72 130.532 1143.04 134.959C1135.48 139.256 1126.76 141.404 1116.87 141.404ZM1116.87 117.576C1121.68 117.576 1125.91 116.405 1129.56 114.061C1133.21 111.717 1136.01 108.527 1137.96 104.491C1140.04 100.324 1141.08 95.5716 1141.08 90.2331C1141.08 84.8946 1140.04 80.2072 1137.96 76.1708C1135.88 72.0042 1132.95 68.749 1129.17 66.4053C1125.52 64.0616 1121.29 62.8897 1116.47 62.8897C1111.79 62.8897 1107.56 64.0616 1103.78 66.4053C1100.13 68.749 1097.27 72.0042 1095.19 76.1708C1093.1 80.2072 1092.06 84.8946 1092.06 90.2331C1092.06 95.5716 1093.1 100.324 1095.19 104.491C1097.27 108.527 1100.2 111.717 1103.97 114.061C1107.75 116.405 1112.05 117.576 1116.87 117.576ZM1230.35 141.404C1220.46 141.404 1211.6 139.256 1203.79 134.959C1196.11 130.532 1190.05 124.477 1185.63 116.795C1181.33 109.113 1179.18 100.259 1179.18 90.2331C1179.18 80.2072 1181.33 71.3531 1185.63 63.671C1189.92 55.9888 1195.91 49.9993 1203.59 45.7025C1211.28 41.2754 1220.06 39.0619 1229.96 39.0619C1239.99 39.0619 1248.84 41.2754 1256.52 45.7025C1264.2 49.9993 1270.19 55.9888 1274.49 63.671C1278.79 71.3531 1280.94 80.2072 1280.94 90.2331C1280.94 100.259 1278.79 109.113 1274.49 116.795C1270.19 124.477 1264.2 130.532 1256.52 134.959C1248.97 139.256 1240.25 141.404 1230.35 141.404ZM1230.35 117.576C1235.17 117.576 1239.4 116.405 1243.05 114.061C1246.69 111.717 1249.49 108.527 1251.44 104.491C1253.53 100.324 1254.57 95.5716 1254.57 90.2331C1254.57 84.8946 1253.53 80.2072 1251.44 76.1708C1249.36 72.0042 1246.43 68.749 1242.66 66.4053C1239.01 64.0616 1234.78 62.8897 1229.96 62.8897C1225.27 62.8897 1221.04 64.0616 1217.27 66.4053C1213.62 68.749 1210.75 72.0042 1208.67 76.1708C1206.59 80.2072 1205.55 84.8946 1205.55 90.2331C1205.55 95.5716 1206.59 100.324 1208.67 104.491C1210.75 108.527 1213.68 111.717 1217.46 114.061C1221.24 116.405 1225.53 117.576 1230.35 117.576ZM1297.94 139.061V2.34368H1323.72V139.061H1297.94ZM1382.53 141.404C1376.28 141.404 1370.42 140.493 1364.95 138.67C1359.48 136.717 1354.66 133.982 1350.5 130.467C1346.33 126.821 1343.07 122.394 1340.73 117.186L1362.8 107.03C1364.75 110.155 1367.42 112.889 1370.81 115.233C1374.19 117.446 1378.1 118.553 1382.53 118.553C1386.82 118.553 1390.14 117.967 1392.49 116.795C1394.83 115.493 1396 113.67 1396 111.327C1396 108.983 1395.03 107.29 1393.07 106.248C1391.25 105.077 1388.71 104.1 1385.46 103.319L1376.47 100.975C1367.1 98.5012 1359.68 94.595 1354.21 89.2565C1348.87 83.7879 1346.2 77.538 1346.2 70.5068C1346.2 60.4809 1349.39 52.7336 1355.77 47.2649C1362.28 41.7963 1371.46 39.0619 1383.31 39.0619C1389.43 39.0619 1395.09 39.9734 1400.3 41.7963C1405.64 43.6192 1410.2 46.1582 1413.97 49.4133C1417.75 52.6685 1420.35 56.4445 1421.78 60.7413L1400.49 70.5068C1399.58 67.9027 1397.37 65.8194 1393.85 64.2569C1390.34 62.5642 1386.82 61.7179 1383.31 61.7179C1379.79 61.7179 1377.06 62.4991 1375.1 64.0616C1373.28 65.4939 1372.37 67.5121 1372.37 70.1162C1372.37 71.8089 1373.28 73.2411 1375.1 74.413C1376.93 75.4547 1379.53 76.3661 1382.92 77.1473L1395.61 80.2723C1401.99 81.8348 1407.07 84.3738 1410.85 87.8894C1414.75 91.2747 1417.55 95.1158 1419.24 99.4127C1421.07 103.579 1421.98 107.681 1421.98 111.717C1421.98 117.576 1420.22 122.785 1416.71 127.342C1413.32 131.769 1408.63 135.219 1402.64 137.693C1396.78 140.167 1390.08 141.404 1382.53 141.404Z" fill="#24352D"/>
</svg>
