<svg width="47" height="46" viewBox="0 0 47 46" fill="none" xmlns="http://www.w3.org/2000/svg">
<path d="M3.80485 36.4357C3.78541 36.4355 3.76636 36.4302 3.74963 36.4203L1.2437 34.9735C1.22701 34.9638 1.21313 34.95 1.20344 34.9333C1.19375 34.9167 1.18859 34.8978 1.18848 34.8785V31.9849C1.1884 31.9655 1.19347 31.9463 1.20316 31.9294C1.21286 31.9126 1.22684 31.8986 1.2437 31.8888L3.74963 30.442C3.76642 30.4323 3.78547 30.4272 3.80485 30.4272C3.82424 30.4272 3.84329 30.4323 3.86007 30.442L6.36601 31.8888C6.38286 31.8986 6.39685 31.9126 6.40654 31.9294C6.41624 31.9463 6.42131 31.9655 6.42123 31.9849V34.8785C6.42111 34.8978 6.41595 34.9167 6.40627 34.9333C6.39658 34.95 6.3827 34.9638 6.36601 34.9735L3.86007 36.4203C3.84335 36.4302 3.8243 36.4355 3.80485 36.4357ZM1.40494 34.8144L3.80044 36.1972L6.19593 34.8144V32.0479L3.80485 30.6651L1.40494 32.0479V34.8144Z" fill="#EBEBEB"/>
<path d="M8.81768 36.4357C8.79823 36.4355 8.77918 36.4302 8.76246 36.4203L6.25542 34.9735C6.23873 34.9638 6.22485 34.95 6.21516 34.9333C6.20547 34.9167 6.20031 34.8978 6.2002 34.8785V31.9849C6.20012 31.9655 6.20519 31.9463 6.21488 31.9294C6.22458 31.9126 6.23856 31.8986 6.25542 31.8888L8.76246 30.442C8.77925 30.4323 8.79829 30.4272 8.81768 30.4272C8.83706 30.4272 8.85611 30.4323 8.8729 30.442L11.3788 31.8888C11.3957 31.8986 11.4097 31.9126 11.4194 31.9294C11.4291 31.9463 11.4341 31.9655 11.4341 31.9849V34.8785C11.4339 34.8978 11.4288 34.9167 11.4191 34.9333C11.4094 34.95 11.3955 34.9638 11.3788 34.9735L8.8729 36.4203C8.85617 36.4302 8.83712 36.4355 8.81768 36.4357ZM6.42108 34.8144L8.81768 36.1972L11.2132 34.8144V32.0479L8.81768 30.6651L6.42108 32.0479V34.8144Z" fill="#EBEBEB"/>
<path d="M8.81747 30.6475C8.78818 30.6475 8.76009 30.6358 8.73938 30.6151C8.71867 30.5944 8.70703 30.5663 8.70703 30.537V28.8263C8.70703 28.797 8.71867 28.7689 8.73938 28.7482C8.76009 28.7275 8.78818 28.7158 8.81747 28.7158C8.84676 28.7158 8.87486 28.7275 8.89557 28.7482C8.91628 28.7689 8.92792 28.797 8.92792 28.8263V30.5425C8.9265 30.5709 8.91424 30.5976 8.89368 30.6171C8.87312 30.6366 8.84583 30.6475 8.81747 30.6475Z" fill="#EBEBEB"/>
<path d="M11.3239 32.0957C11.2993 32.0958 11.2753 32.0877 11.2558 32.0727C11.2363 32.0576 11.2224 32.0364 11.2163 32.0126C11.2102 31.9887 11.2123 31.9635 11.2222 31.9409C11.2321 31.9184 11.2492 31.8998 11.2709 31.8881L12.7287 31.0896C12.7542 31.0757 12.7842 31.0724 12.8121 31.0805C12.84 31.0886 12.8636 31.1073 12.8778 31.1326C12.8849 31.1453 12.8893 31.1593 12.891 31.1737C12.8926 31.1881 12.8914 31.2027 12.8874 31.2167C12.8834 31.2306 12.8767 31.2436 12.8677 31.255C12.8586 31.2664 12.8474 31.2758 12.8347 31.2828L11.3769 32.0813C11.3607 32.0905 11.3425 32.0955 11.3239 32.0957Z" fill="#EBEBEB"/>
<path d="M1.75497 34.6646C1.72568 34.6646 1.69759 34.653 1.67688 34.6322C1.65617 34.6115 1.64453 34.5834 1.64453 34.5541V32.3453C1.64453 32.316 1.65617 32.2879 1.67688 32.2672C1.69759 32.2465 1.72568 32.2349 1.75497 32.2349C1.78426 32.2349 1.81236 32.2465 1.83307 32.2672C1.85378 32.2879 1.86542 32.316 1.86542 32.3453V34.5541C1.86542 34.5834 1.85378 34.6115 1.83307 34.6322C1.81236 34.653 1.78426 34.6646 1.75497 34.6646Z" fill="#EBEBEB"/>
<path d="M6.92685 34.6646C6.89756 34.6646 6.86947 34.653 6.84875 34.6322C6.82804 34.6115 6.81641 34.5834 6.81641 34.5541V32.3453C6.81641 32.316 6.82804 32.2879 6.84875 32.2672C6.86947 32.2465 6.89756 32.2349 6.92685 32.2349C6.95614 32.2349 6.98423 32.2465 7.00494 32.2672C7.02565 32.2879 7.03729 32.316 7.03729 32.3453V34.5541C7.03729 34.5834 7.02565 34.6115 7.00494 34.6322C6.98423 34.653 6.95614 34.6646 6.92685 34.6646Z" fill="#EBEBEB"/>
<path d="M5.80027 32.3364C5.78092 32.3365 5.76188 32.3316 5.74505 32.322L3.8344 31.211C3.81036 31.1957 3.79315 31.1717 3.78637 31.144C3.7796 31.1164 3.78377 31.0872 3.79803 31.0625C3.81228 31.0378 3.83552 31.0196 3.86287 31.0117C3.89023 31.0038 3.9196 31.0067 3.94484 31.0199L5.85438 32.131C5.86695 32.1383 5.87794 32.148 5.88675 32.1595C5.89555 32.1711 5.90198 32.1843 5.90567 32.1984C5.90937 32.2124 5.91025 32.2271 5.90827 32.2415C5.90629 32.2559 5.90149 32.2697 5.89414 32.2823C5.88446 32.2986 5.87074 32.3121 5.8543 32.3216C5.83786 32.3311 5.81925 32.3362 5.80027 32.3364Z" fill="#EBEBEB"/>
<path d="M10.7796 32.3364C10.7603 32.3365 10.7412 32.3316 10.7244 32.322L8.81486 31.211C8.79083 31.1957 8.77362 31.1717 8.76684 31.144C8.76007 31.1164 8.76424 31.0872 8.7785 31.0625C8.79275 31.0378 8.81599 31.0196 8.84334 31.0117C8.8707 31.0038 8.90007 31.0067 8.92531 31.0199L10.8349 32.131C10.8474 32.1383 10.8584 32.148 10.8672 32.1595C10.876 32.1711 10.8824 32.1843 10.8861 32.1984C10.8898 32.2124 10.8907 32.2271 10.8887 32.2415C10.8868 32.2559 10.882 32.2697 10.8746 32.2823C10.8648 32.2987 10.8509 32.3124 10.8343 32.3219C10.8176 32.3314 10.7988 32.3364 10.7796 32.3364Z" fill="#EBEBEB"/>
<path d="M39.0451 23.2336C39.0256 23.2334 39.0066 23.2281 38.9899 23.2181L36.4839 21.7713C36.4672 21.7617 36.4534 21.7479 36.4437 21.7312C36.434 21.7145 36.4288 21.6956 36.4287 21.6764V18.7828C36.4286 18.7633 36.4337 18.7442 36.4434 18.7273C36.4531 18.7104 36.4671 18.6964 36.4839 18.6867L38.9899 17.2399C39.0067 17.2302 39.0257 17.2251 39.0451 17.2251C39.0645 17.2251 39.0835 17.2302 39.1003 17.2399L41.6062 18.6867C41.6231 18.6964 41.6371 18.7104 41.6468 18.7273C41.6565 18.7442 41.6615 18.7633 41.6615 18.7828V21.6764C41.6613 21.6956 41.6562 21.7145 41.6465 21.7312C41.6368 21.7479 41.6229 21.7617 41.6062 21.7713L39.1003 23.2181C39.0836 23.2281 39.0645 23.2334 39.0451 23.2336ZM36.6496 21.6123L39.0451 22.995L41.4406 21.6123V18.8457L39.0451 17.463L36.6496 18.8457V21.6123Z" fill="#EBEBEB"/>
<path d="M39.045 17.451C39.0157 17.451 38.9876 17.4393 38.9669 17.4186C38.9462 17.3979 38.9346 17.3698 38.9346 17.3405V15.6187C38.9346 15.5895 38.9462 15.5614 38.9669 15.5406C38.9876 15.5199 39.0157 15.5083 39.045 15.5083C39.0743 15.5083 39.1024 15.5199 39.1231 15.5406C39.1438 15.5614 39.1555 15.5895 39.1555 15.6187V17.3405C39.1555 17.3698 39.1438 17.3979 39.1231 17.4186C39.1024 17.4393 39.0743 17.451 39.045 17.451Z" fill="#EBEBEB"/>
<path d="M43.8058 17.0598C43.7765 17.0598 43.7484 17.0482 43.7277 17.0275C43.7069 17.0068 43.6953 16.9787 43.6953 16.9494V15.232C43.6953 15.2027 43.7069 15.1746 43.7277 15.1539C43.7484 15.1332 43.7765 15.1216 43.8058 15.1216C43.835 15.1216 43.8631 15.1332 43.8838 15.1539C43.9046 15.1746 43.9162 15.2027 43.9162 15.232V16.9494C43.9162 16.9787 43.9046 17.0068 43.8838 17.0275C43.8631 17.0482 43.835 17.0598 43.8058 17.0598Z" fill="#EBEBEB"/>
<path d="M41.5503 18.8934C41.5304 18.8934 41.5109 18.8881 41.4938 18.878C41.4767 18.8679 41.4626 18.8534 41.4531 18.8359C41.4461 18.8232 41.4417 18.8092 41.4401 18.7947C41.4385 18.7802 41.4398 18.7656 41.4439 18.7516C41.448 18.7377 41.4549 18.7247 41.464 18.7134C41.4732 18.7021 41.4845 18.6927 41.4972 18.6857L42.9551 17.8872C42.9678 17.88 42.9818 17.8753 42.9963 17.8734C43.0108 17.8716 43.0255 17.8726 43.0396 17.8765C43.0537 17.8803 43.0669 17.8869 43.0785 17.8959C43.09 17.9048 43.0997 17.9159 43.1069 17.9286C43.1142 17.9413 43.1189 17.9553 43.1207 17.9698C43.1226 17.9843 43.1215 17.999 43.1177 18.0131C43.1138 18.0272 43.1072 18.0405 43.0983 18.052C43.0893 18.0636 43.0782 18.0732 43.0655 18.0805L41.6055 18.879C41.5888 18.8888 41.5696 18.8938 41.5503 18.8934Z" fill="#EBEBEB"/>
<path d="M46.0288 18.8934C46.0102 18.8934 45.9919 18.8885 45.9758 18.879L44.518 18.0805C44.5053 18.0732 44.4942 18.0636 44.4852 18.052C44.4763 18.0405 44.4697 18.0272 44.4658 18.0131C44.462 17.999 44.461 17.9843 44.4628 17.9698C44.4646 17.9553 44.4693 17.9413 44.4766 17.9286C44.4838 17.9159 44.4935 17.9048 44.5051 17.8959C44.5166 17.8869 44.5298 17.8803 44.5439 17.8765C44.558 17.8726 44.5728 17.8716 44.5873 17.8734C44.6018 17.8753 44.6157 17.88 44.6284 17.8872L46.0863 18.6857C46.0991 18.6927 46.1104 18.7021 46.1195 18.7134C46.1286 18.7247 46.1355 18.7377 46.1396 18.7516C46.1437 18.7656 46.145 18.7802 46.1434 18.7947C46.1419 18.8092 46.1374 18.8232 46.1305 18.8359C46.1206 18.854 46.1058 18.869 46.0879 18.8792C46.0699 18.8893 46.0495 18.8942 46.0288 18.8934Z" fill="#EBEBEB"/>
<path d="M41.0724 21.462C41.0431 21.462 41.015 21.4503 40.9943 21.4296C40.9735 21.4089 40.9619 21.3808 40.9619 21.3515V19.1427C40.9619 19.1134 40.9735 19.0853 40.9943 19.0646C41.015 19.0439 41.0431 19.0322 41.0724 19.0322C41.1016 19.0322 41.1297 19.0439 41.1504 19.0646C41.1712 19.0853 41.1828 19.1134 41.1828 19.1427V21.3515C41.1828 21.3808 41.1712 21.4089 41.1504 21.4296C41.1297 21.4503 41.1016 21.462 41.0724 21.462Z" fill="#EBEBEB"/>
<path d="M37.0965 19.134C37.0773 19.134 37.0585 19.129 37.0418 19.1195C37.0252 19.11 37.0113 19.0964 37.0015 19.0799C36.9941 19.0673 36.9893 19.0535 36.9874 19.0391C36.9854 19.0247 36.9863 19.01 36.99 18.996C36.9936 18.9819 37.0001 18.9687 37.0089 18.9572C37.0177 18.9456 37.0287 18.9359 37.0412 18.9286L38.9552 17.8175C38.9678 17.8095 38.9818 17.8042 38.9965 17.8018C39.0112 17.7993 39.0263 17.7999 39.0407 17.8035C39.0552 17.807 39.0688 17.8134 39.0807 17.8224C39.0926 17.8313 39.1026 17.8426 39.1101 17.8555C39.1175 17.8684 39.1223 17.8826 39.1241 17.8974C39.1259 17.9122 39.1247 17.9272 39.1205 17.9415C39.1164 17.9558 39.1094 17.9691 39.0999 17.9807C39.0905 17.9922 39.0788 18.0017 39.0656 18.0086L37.1561 19.1196C37.138 19.13 37.1173 19.1349 37.0965 19.134Z" fill="#EBEBEB"/>
<path d="M25.673 11.0452C25.6536 11.045 25.6345 11.0397 25.6178 11.0298L23.1119 9.58299C23.0952 9.57335 23.0813 9.55952 23.0716 9.54285C23.0619 9.52619 23.0568 9.50728 23.0566 9.48801V6.59332C23.0566 6.57386 23.0616 6.55472 23.0713 6.53785C23.081 6.52097 23.095 6.50696 23.1119 6.49723L25.6178 5.05044C25.6346 5.04075 25.6536 5.03564 25.673 5.03564C25.6924 5.03564 25.7114 5.04075 25.7282 5.05044L28.2342 6.49723C28.251 6.50696 28.265 6.52097 28.2747 6.53785C28.2844 6.55472 28.2895 6.57386 28.2894 6.59332V9.4869C28.2893 9.50618 28.2841 9.52509 28.2744 9.54175C28.2647 9.55841 28.2509 9.57225 28.2342 9.58188L25.7282 11.0287C25.7116 11.039 25.6926 11.0447 25.673 11.0452ZM23.2775 9.42395L25.673 10.8067L28.0685 9.42395V6.6629L25.673 5.27353L23.2775 6.65627V9.42395Z" fill="#EBEBEB"/>
<path d="M28.1794 6.7039C28.1547 6.70402 28.1308 6.69591 28.1113 6.68085C28.0918 6.66579 28.0779 6.64465 28.0718 6.62078C28.0657 6.59691 28.0678 6.5717 28.0776 6.54914C28.0875 6.52658 28.1047 6.50797 28.1263 6.49627L29.5842 5.69777C29.6098 5.68313 29.6402 5.67926 29.6687 5.68703C29.6972 5.69479 29.7214 5.71356 29.736 5.73919C29.7507 5.76482 29.7546 5.79521 29.7468 5.82369C29.739 5.85217 29.7203 5.8764 29.6946 5.89104L28.2368 6.68954C28.2194 6.6998 28.1995 6.70479 28.1794 6.7039Z" fill="#EBEBEB"/>
<path d="M23.7257 9.27836C23.6964 9.27836 23.6683 9.26673 23.6476 9.24601C23.6269 9.2253 23.6152 9.19721 23.6152 9.16792V6.95908C23.6152 6.92978 23.6269 6.90169 23.6476 6.88098C23.6683 6.86027 23.6964 6.84863 23.7257 6.84863C23.755 6.84863 23.7831 6.86027 23.8038 6.88098C23.8245 6.90169 23.8361 6.92978 23.8361 6.95908V9.16792C23.8361 9.19721 23.8245 9.2253 23.8038 9.24601C23.7831 9.26673 23.755 9.27836 23.7257 9.27836Z" fill="#EBEBEB"/>
<path d="M27.6899 6.94455C27.6702 6.94488 27.6507 6.93992 27.6336 6.93019L25.7262 5.81914C25.713 5.81224 25.7014 5.80274 25.6919 5.79121C25.6825 5.77968 25.6755 5.76636 25.6714 5.75205C25.6672 5.73775 25.666 5.72275 25.6678 5.70796C25.6696 5.69318 25.6744 5.67891 25.6818 5.66601C25.6893 5.65312 25.6993 5.64186 25.7112 5.63292C25.7231 5.62399 25.7367 5.61755 25.7512 5.61401C25.7656 5.61047 25.7807 5.60989 25.7954 5.6123C25.8101 5.61472 25.8241 5.62009 25.8367 5.62808L27.7462 6.73802C27.7588 6.74533 27.7698 6.75504 27.7786 6.76661C27.7874 6.77818 27.7938 6.79137 27.7975 6.80542C27.8012 6.81948 27.8021 6.83413 27.8001 6.84852C27.7981 6.86292 27.7933 6.87679 27.786 6.88933C27.7763 6.90618 27.7622 6.92017 27.7454 6.92986C27.7285 6.93956 27.7094 6.94463 27.6899 6.94455Z" fill="#EBEBEB"/>
<path d="M25.7821 10.4931C25.7577 10.4933 25.7338 10.4853 25.7144 10.4705C25.6949 10.4557 25.681 10.4348 25.6746 10.4112C25.6683 10.3876 25.67 10.3625 25.6795 10.34C25.6889 10.3174 25.7056 10.2986 25.7269 10.2866L27.6353 9.17552C27.6479 9.16822 27.6619 9.16348 27.6763 9.16159C27.6908 9.15969 27.7054 9.16067 27.7195 9.16446C27.7336 9.16826 27.7467 9.17481 27.7583 9.18372C27.7698 9.19263 27.7794 9.20373 27.7866 9.21639C27.8011 9.24161 27.8051 9.27154 27.7976 9.29966C27.7902 9.32778 27.772 9.35183 27.7469 9.36659L25.8373 10.4821C25.8202 10.4904 25.8012 10.4943 25.7821 10.4931Z" fill="#EBEBEB"/>
<path d="M34.4268 33.0485C34.3728 32.6818 34.299 32.3183 34.2059 31.9595C34.4868 31.895 34.7626 31.8098 35.0309 31.7044C35.0895 31.6795 35.1357 31.6323 35.1596 31.5733C35.1834 31.5143 35.1828 31.4482 35.1579 31.3896C35.133 31.331 35.0858 31.2847 35.0268 31.2609C34.9678 31.2371 34.9017 31.2377 34.8431 31.2626C34.5962 31.3595 34.3422 31.4371 34.0833 31.4945C33.9894 31.1632 33.8745 30.8076 33.731 30.4332C33.023 28.5877 31.9827 27.2977 30.7203 26.7036C29.5717 26.1624 28.2563 26.3016 26.9564 26.5158C26.8979 26.0486 26.8581 25.5793 26.8173 25.1242C26.7157 23.948 26.6229 22.8878 26.2816 22.1423C26.162 21.8615 25.9768 21.6134 25.7416 21.4189C25.523 21.245 25.2795 21.105 25.0193 21.0036C25.0042 20.9968 24.9887 20.9909 24.9729 20.986H24.963C24.0949 20.6624 23.091 20.7331 22.0981 20.8369C22.1058 20.8148 22.1147 20.7938 22.1224 20.7717C22.9087 18.7329 23.7205 16.6235 22.0064 14.9437C21.2609 14.2125 20.2957 13.8393 19.0554 13.8006C18.2548 13.7932 17.4554 13.8646 16.6688 14.0138C17.221 11.901 17.7467 9.72307 15.8062 7.75058C14.5019 6.42527 12.0335 6.28611 8.46952 7.33973C8.23759 7.4082 8.00677 7.47999 7.78147 7.55399C7.79251 7.38059 7.80466 7.2083 7.81681 7.03712C7.97916 4.72556 8.12052 2.72987 6.93327 1.9623C6.90708 1.94278 6.87716 1.92886 6.84536 1.92138C6.81357 1.9139 6.78058 1.91303 6.74843 1.91882C6.71629 1.92461 6.68567 1.93695 6.65849 1.95505C6.63131 1.97316 6.60813 1.99666 6.5904 2.02409C6.57267 2.05152 6.56076 2.0823 6.55541 2.11452C6.55006 2.14674 6.55138 2.17972 6.5593 2.21141C6.56721 2.2431 6.58155 2.27283 6.60143 2.29875C6.6213 2.32467 6.64629 2.34623 6.67484 2.3621C7.62022 2.97616 7.48217 4.93209 7.33749 7.00067C7.32092 7.23591 7.30436 7.47557 7.2889 7.71523C6.01743 8.1585 4.77476 8.68043 3.5681 9.27799C3.54025 9.29249 3.51553 9.31234 3.49536 9.3364C3.47518 9.36045 3.45994 9.38825 3.4505 9.41819C3.44107 9.44814 3.43762 9.47965 3.44037 9.51093C3.44311 9.54221 3.45199 9.57264 3.46649 9.60048C3.48099 9.62833 3.50084 9.65305 3.5249 9.67322C3.54895 9.6934 3.57675 9.70864 3.60669 9.71808C3.63664 9.72751 3.66815 9.73096 3.69943 9.72821C3.7307 9.72547 3.76113 9.71659 3.78898 9.70209C4.9153 9.14536 6.07366 8.65598 7.25797 8.23652C7.12434 10.7137 7.24141 13.2296 9.2139 14.3749H9.22274C11.1698 15.4948 13.467 15.0718 15.6891 14.6632L16.0116 14.6035C15.5467 16.4424 15.2385 18.3155 16.7085 20.0284C18.0338 21.5746 19.7667 21.5404 21.3703 21.3836C20.7551 23.0645 20.3398 24.7532 21.5216 26.1878C21.8022 26.5362 22.1578 26.8167 22.5619 27.0084C23.7128 27.5507 25.1275 27.3066 26.508 27.0691L26.5445 27.0625C26.783 28.6407 27.269 30.1427 28.5855 31.0119C29.6182 31.6955 30.8163 32.0877 32.0533 32.1473H32.06H32.1064C32.399 32.1607 32.6922 32.1567 32.9844 32.1351C33.2539 32.1152 33.5046 32.0832 33.7288 32.0445C33.8182 32.3919 33.8897 32.7435 33.943 33.0982C33.9482 33.1378 33.9632 33.1754 33.9868 33.2077C34.0103 33.2399 34.0416 33.2657 34.0778 33.2826C34.1189 33.3024 34.165 33.3097 34.2103 33.3036C34.2413 33.3011 34.2714 33.2925 34.2991 33.2783C34.3267 33.2641 34.3513 33.2446 34.3714 33.2209C34.3915 33.1972 34.4068 33.1698 34.4163 33.1402C34.4258 33.1106 34.4293 33.0794 34.4268 33.0485ZM7.74834 8.06975C9.50768 7.47999 11.5498 6.99294 13.2009 7.14756L8.04874 12.1495C7.65336 10.981 7.6644 9.51434 7.74834 8.06975ZM9.32103 13.879C8.85174 13.5678 8.47816 13.1323 8.24201 12.6211L13.7939 7.23591C14.4566 7.37397 15.032 7.64345 15.466 8.08522C15.5433 8.16363 15.6162 8.24315 15.6869 8.32156L9.32103 13.879ZM11.648 14.6013C10.9956 14.562 10.3564 14.4001 9.76391 14.1242L15.9829 8.69706C16.2829 9.11949 16.4948 9.59802 16.6058 10.1041C16.5601 10.1114 16.5176 10.1317 16.4832 10.1626L11.7132 14.5107C11.6845 14.5352 11.6621 14.5663 11.648 14.6013ZM15.6129 14.2026C14.503 14.4069 13.3743 14.6146 12.2941 14.6223L16.682 10.6243C16.7803 11.7132 16.4821 12.8475 16.1751 14.0193L16.153 14.1043L15.6129 14.2026ZM16.1541 17.7047C16.0138 16.6865 16.2513 15.6207 16.5362 14.5196C17.9179 14.281 19.2255 14.1319 20.3288 14.482L16.1541 17.7047ZM16.9139 19.5204C16.6149 19.1343 16.3932 18.694 16.2612 18.2238C16.2707 18.219 16.2796 18.213 16.2877 18.2061L20.8159 14.7106L20.8424 14.6897C21.1502 14.8436 21.4319 15.0448 21.6773 15.286C21.784 15.3893 21.8833 15.5001 21.9744 15.6174L16.9139 19.5204ZM18.3055 20.4039C18.2737 20.4264 18.2479 20.4565 18.2306 20.4913C18.2132 20.5262 18.2048 20.5649 18.2061 20.6038C17.8369 20.4255 17.5034 20.1811 17.2221 19.8827L22.2284 16.0172C22.4474 16.4416 22.5549 16.9148 22.541 17.3922L18.3055 20.4039ZM18.6136 20.7684L22.4857 18.0162C22.3576 18.8379 22.0219 19.7082 21.6795 20.6005C21.6409 20.6977 21.6044 20.796 21.5691 20.8932C20.5574 20.9992 19.5369 21.0776 18.6136 20.7695V20.7684ZM21.272 24.4086C21.1704 23.4599 21.5017 22.4206 21.907 21.3405C22.8204 21.2433 23.6973 21.1527 24.456 21.3328L21.272 24.4086ZM21.8982 25.8962C21.6671 25.6196 21.4926 25.3003 21.3846 24.9564C21.3961 24.9485 21.4068 24.9396 21.4167 24.9299L24.9641 21.5062C25.1371 21.5848 25.2999 21.6842 25.4489 21.8021C25.5858 21.9163 25.6985 22.0568 25.7802 22.2152L22.203 26.2088C22.0932 26.1117 21.9913 26.0061 21.8982 25.8929V25.8962ZM26.1745 23.7327L24.2528 26.8703C23.6454 26.8703 23.0832 26.7742 22.5962 26.4915L25.9868 22.7022C26.0829 23.0309 26.1534 23.3666 26.1977 23.7062C26.1889 23.7128 26.1811 23.7206 26.1745 23.7294V23.7327ZM26.4363 26.6108C25.884 26.7058 25.344 26.7996 24.8271 26.8438L26.2827 24.4671C26.3059 24.6979 26.3269 24.9343 26.3468 25.1717C26.3888 25.64 26.4296 26.1215 26.4893 26.6009L26.4363 26.6108ZM27.0238 26.994C27.6004 26.8888 28.1841 26.8275 28.7699 26.8107L28.2641 30.1184C27.5307 29.3177 27.2049 28.1824 27.0271 26.9907L27.0238 26.994ZM28.8583 30.6254C28.7953 30.5845 28.7346 30.5403 28.676 30.495C28.6879 30.4719 28.6957 30.4468 28.6992 30.421L29.2514 26.8251C29.525 26.8449 29.7958 26.8923 30.0599 26.9664L29.8313 31.1566C29.4922 31.0067 29.1666 30.8278 28.8583 30.6221V30.6254ZM30.2763 31.3344C30.2911 31.3048 30.2997 31.2725 30.3017 31.2394L30.5226 27.1431C30.8381 27.2931 31.1322 27.4844 31.3973 27.7119C31.3946 27.7309 31.3946 27.7503 31.3973 27.7693L31.8336 31.669C31.3024 31.622 30.7792 31.5084 30.2763 31.3311V31.3344ZM32.9424 31.6768C32.7315 31.6911 32.5227 31.6967 32.3173 31.6933L31.9308 28.2398C32.8021 29.2437 33.3212 30.5779 33.615 31.5962C33.4096 31.6271 33.1832 31.6558 32.9424 31.6735V31.6768Z" fill="#EBEBEB"/>
<path d="M27.7685 27.1391C27.7353 27.1391 27.7022 27.1391 27.668 27.1391C27.7013 27.1346 27.7351 27.1346 27.7685 27.1391Z" fill="#EBEBEB"/>
<path d="M11.3457 7.83874C12.1168 5.26683 10.657 2.55677 8.08508 1.78565C5.51316 1.01453 2.8031 2.47436 2.03198 5.04627C1.26086 7.61818 2.72069 10.3282 5.2926 11.0994C7.86451 11.8705 10.5746 10.4107 11.3457 7.83874Z" fill="#EBEBEB"/>
<path d="M8.66729 10.8422C11.0384 9.87216 12.1741 7.16368 11.2041 4.79262C10.2341 2.42155 7.52558 1.28579 5.15452 2.25582C2.78345 3.22584 1.64769 5.93433 2.61772 8.30539C3.58774 10.6765 6.29623 11.8122 8.66729 10.8422Z" fill="#DBDBDB"/>
<path d="M7.60028 10.8404C9.97011 10.4599 11.5828 8.23039 11.2024 5.86055C10.822 3.49072 8.59244 1.87799 6.2226 2.25843C3.85277 2.63886 2.24004 4.8684 2.62048 7.23823C3.00091 9.60806 5.23044 11.2208 7.60028 10.8404Z" fill="white"/>
<path opacity="0.5" d="M11.1577 5.63365C9.17966 6.82753 5.93266 8.7945 4.10926 9.87242C3.59512 9.439 3.18837 8.89239 2.9209 8.27542L8.93337 2.70361C9.49574 2.99975 9.98635 3.41558 10.3707 3.92181C10.755 4.42804 11.0236 5.01237 11.1577 5.63365Z" fill="#EBEBEB"/>
<path opacity="0.5" d="M11.2537 6.70264C11.2378 7.18589 11.1407 7.66303 10.9666 8.11409L5.54607 10.6775C5.30967 10.5993 5.08056 10.5006 4.86133 10.3826C6.49919 9.43719 9.49106 7.71539 11.2537 6.70264Z" fill="#EBEBEB"/>
<path d="M6.95308 2.52002H6.86914V3.17825H6.95308V2.52002Z" fill="#C7C7C7"/>
<path d="M4.93207 3.0386L4.85938 3.08057L5.18849 3.65062L5.26118 3.60865L4.93207 3.0386Z" fill="#C7C7C7"/>
<path d="M3.44138 4.49713L3.39941 4.56982L3.96946 4.89894L4.01143 4.82625L3.44138 4.49713Z" fill="#C7C7C7"/>
<path d="M3.53909 6.5083H2.88086V6.59224H3.53909V6.5083Z" fill="#C7C7C7"/>
<path d="M3.96946 8.20116L3.39941 8.53027L3.44138 8.60296L4.01143 8.27385L3.96946 8.20116Z" fill="#C7C7C7"/>
<path d="M5.18809 9.44876L4.85938 10.019L4.93209 10.061L5.26081 9.49068L5.18809 9.44876Z" fill="#C7C7C7"/>
<path d="M6.95308 9.92188H6.86914V10.5801H6.95308V9.92188Z" fill="#C7C7C7"/>
<path d="M8.63324 9.44973L8.56055 9.4917L8.88966 10.0617L8.96236 10.0198L8.63324 9.44973Z" fill="#C7C7C7"/>
<path d="M9.85154 8.19831L9.80957 8.271L10.3796 8.60011L10.4216 8.52742L9.85154 8.19831Z" fill="#C7C7C7"/>
<path d="M10.9414 6.5083H10.2832V6.59224H10.9414V6.5083Z" fill="#C7C7C7"/>
<path d="M10.3806 4.4995L9.81055 4.82861L9.85252 4.9013L10.4226 4.57219L10.3806 4.4995Z" fill="#C7C7C7"/>
<path d="M8.88937 3.03818L8.56055 3.6084L8.63326 3.65033L8.96208 3.08011L8.88937 3.03818Z" fill="#C7C7C7"/>
<path d="M6.97456 2.81849L7.11703 6.84411L6.70508 6.83858L6.86301 2.81738L6.97456 2.81849Z" fill="#C7C7C7"/>
<path d="M9.48178 5.14663L6.77374 6.87505L6.57715 6.5128L9.42877 5.04834L9.48178 5.14663Z" fill="#A6A6A6"/>
<path d="M7.05225 6.55032C7.05181 6.57823 7.04312 6.60538 7.02728 6.62836C7.01143 6.65134 6.98914 6.66911 6.96321 6.67944C6.93728 6.68976 6.90887 6.69219 6.88156 6.68639C6.85426 6.6806 6.82928 6.66686 6.80978 6.64689C6.79027 6.62693 6.77711 6.60163 6.77196 6.5742C6.76681 6.54677 6.76989 6.51843 6.78082 6.49274C6.79175 6.46706 6.81004 6.44519 6.83338 6.42988C6.85672 6.41458 6.88407 6.40653 6.91198 6.40674C6.93069 6.40674 6.9492 6.41047 6.96644 6.41773C6.98367 6.42498 6.99929 6.43561 7.01235 6.44899C7.02542 6.46237 7.03569 6.47822 7.04254 6.49562C7.04939 6.51302 7.05269 6.53162 7.05225 6.55032Z" fill="#C7C7C7"/>
<path d="M0.782227 40.9488L6.46006 40.9212L12.1379 40.9123L23.4936 40.8936L34.8492 40.9123L40.5271 40.9212L46.2049 40.9488L40.5271 40.9753L34.8492 40.9852L23.4936 41.004L12.1379 40.9852L6.46006 40.9753L0.782227 40.9488Z" fill="#263238"/>
<path d="M23.4935 45.6105C33.8792 45.6105 42.2985 44.8228 42.2985 43.8511C42.2985 42.8795 33.8792 42.0918 23.4935 42.0918C13.1078 42.0918 4.68848 42.8795 4.68848 43.8511C4.68848 44.8228 13.1078 45.6105 23.4935 45.6105Z" fill="#EBEBEB"/>
<path opacity="0.5" d="M34.0484 12.5802C34.0484 12.5802 35.4841 11.2748 34.9938 10.3173C34.3035 8.982 31.4221 10.0124 30.8157 7.7075C30.3585 5.96472 31.8163 4.55658 30.7141 3.20367C29.9742 2.29031 26.7051 2.54101 26.7051 2.54101C28.8112 0.896529 31.8716 0.221727 33.7027 1.74583C35.3483 3.1109 34.605 5.19052 35.3174 6.22647C36.3279 7.69535 38.6461 7.74395 38.6052 9.67889C38.5577 11.9209 35.641 12.4631 35.44 12.747L34.0484 12.5802Z" fill="#25CA80"/>
<path d="M38.791 10.1772L38.3746 10.2545L38.2808 10.694L38.188 10.2545L37.7705 10.1772L38.1858 10.0755L38.2808 9.65918L38.3757 10.0755L38.791 10.1772Z" fill="white"/>
<path d="M33.7314 7.34841L33.314 7.42572L33.2212 7.86528L33.1284 7.42572L32.7109 7.34841L33.1262 7.24681L33.2212 6.83154L33.3162 7.24681L33.7314 7.34841Z" fill="white"/>
<path d="M34.6911 6.02227L34.4581 6.06534L34.4051 6.31163L34.3531 6.06534L34.1201 6.02227L34.352 5.96484L34.4051 5.73291L34.4592 5.96484L34.6911 6.02227Z" fill="white"/>
<path d="M31.3923 4.9002L31.1592 4.94327L31.1073 5.18845L31.0543 4.94327L30.8213 4.9002L31.0532 4.84277L31.1073 4.61084L31.1603 4.84277L31.3923 4.9002Z" fill="white"/>
<path d="M36.2595 11.7264L36.0264 11.7694L35.9734 12.0157L35.9215 11.7694L35.6885 11.7264L35.9204 11.67L35.9734 11.437L36.0275 11.67L36.2595 11.7264Z" fill="white"/>
<path d="M33.1501 1.20671L32.9171 1.24978L32.864 1.49607L32.8121 1.24978L32.5791 1.20671L32.811 1.15039L32.864 0.918457L32.9171 1.15039L33.1501 1.20671Z" fill="white"/>
<path d="M37.3381 9.18311C37.3216 9.18522 37.3064 9.19328 37.2954 9.20578C37.2844 9.21828 37.2783 9.23437 37.2783 9.25103C37.2783 9.26768 37.2844 9.28377 37.2954 9.29627C37.3064 9.30878 37.3216 9.31684 37.3381 9.31895C37.3546 9.31684 37.3698 9.30878 37.3808 9.29627C37.3918 9.28377 37.3979 9.26768 37.3979 9.25103C37.3979 9.23437 37.3918 9.21828 37.3808 9.20578C37.3698 9.19328 37.3546 9.18522 37.3381 9.18311Z" fill="white"/>
<path d="M29.4846 1.13965C29.4681 1.14176 29.4529 1.14982 29.4419 1.16232C29.4309 1.17483 29.4248 1.19091 29.4248 1.20757C29.4248 1.22423 29.4309 1.24031 29.4419 1.25282C29.4529 1.26532 29.4681 1.27338 29.4846 1.27549C29.5011 1.27338 29.5163 1.26532 29.5273 1.25282C29.5383 1.24031 29.5444 1.22423 29.5444 1.20757C29.5444 1.19091 29.5383 1.17483 29.5273 1.16232C29.5163 1.14982 29.5011 1.14176 29.4846 1.13965Z" fill="white"/>
<path d="M31.581 3.229C31.5632 3.229 31.546 3.2361 31.5334 3.24874C31.5208 3.26137 31.5137 3.27851 31.5137 3.29637C31.5137 3.31424 31.5208 3.33138 31.5334 3.34401C31.546 3.35664 31.5632 3.36374 31.581 3.36374C31.5989 3.36374 31.616 3.35664 31.6287 3.34401C31.6413 3.33138 31.6484 3.31424 31.6484 3.29637C31.6484 3.27851 31.6413 3.26137 31.6287 3.24874C31.616 3.2361 31.5989 3.229 31.581 3.229Z" fill="white"/>
<path d="M28.2145 1.98877C28.2019 1.98877 28.1898 1.99377 28.1809 2.00268C28.172 2.01159 28.167 2.02366 28.167 2.03626C28.167 2.04885 28.172 2.06093 28.1809 2.06984C28.1898 2.07875 28.2019 2.08375 28.2145 2.08375C28.2271 2.08375 28.2392 2.07875 28.2481 2.06984C28.257 2.06093 28.262 2.04885 28.262 2.03626C28.262 2.02366 28.257 2.01159 28.2481 2.00268C28.2392 1.99377 28.2271 1.98877 28.2145 1.98877Z" fill="white"/>
<path d="M34.7034 8.80078C34.6919 8.80253 34.6814 8.80834 34.6739 8.81715C34.6663 8.82596 34.6621 8.8372 34.6621 8.84882C34.6621 8.86045 34.6663 8.87168 34.6739 8.8805C34.6814 8.88931 34.6919 8.89512 34.7034 8.89687C34.7149 8.89512 34.7254 8.88931 34.7329 8.8805C34.7405 8.87168 34.7447 8.86045 34.7447 8.84882C34.7447 8.8372 34.7405 8.82596 34.7329 8.81715C34.7254 8.80834 34.7149 8.80253 34.7034 8.80078Z" fill="white"/>
<path d="M31.0172 7.30127C31.0046 7.30127 30.9925 7.30627 30.9836 7.31518C30.9747 7.32409 30.9697 7.33616 30.9697 7.34876C30.9697 7.36135 30.9747 7.37343 30.9836 7.38234C30.9925 7.39125 31.0046 7.39625 31.0172 7.39625C31.0298 7.39625 31.0419 7.39125 31.0508 7.38234C31.0597 7.37343 31.0647 7.36135 31.0647 7.34876C31.0647 7.33616 31.0597 7.32409 31.0508 7.31518C31.0419 7.30627 31.0298 7.30127 31.0172 7.30127Z" fill="white"/>
<path d="M37.591 8.15918C37.5586 8.16217 37.5286 8.17713 37.5067 8.20114C37.4848 8.22514 37.4727 8.25646 37.4727 8.28895C37.4727 8.32144 37.4848 8.35275 37.5067 8.37676C37.5286 8.40077 37.5586 8.41573 37.591 8.41872C37.6233 8.41573 37.6534 8.40077 37.6753 8.37676C37.6972 8.35275 37.7093 8.32144 37.7093 8.28895C37.7093 8.25646 37.6972 8.22514 37.6753 8.20114C37.6534 8.17713 37.6233 8.16217 37.591 8.15918Z" fill="white"/>
<path d="M32.2756 8.02979C32.2432 8.03277 32.2131 8.04774 32.1913 8.07174C32.1694 8.09575 32.1572 8.12707 32.1572 8.15956C32.1572 8.19204 32.1694 8.22336 32.1913 8.24737C32.2131 8.27137 32.2432 8.28634 32.2756 8.28933C32.3079 8.28634 32.338 8.27137 32.3599 8.24737C32.3818 8.22336 32.3939 8.19204 32.3939 8.15956C32.3939 8.12707 32.3818 8.09575 32.3599 8.07174C32.338 8.04774 32.3079 8.03277 32.2756 8.02979Z" fill="white"/>
<path d="M17.0154 26.1975C17.5764 26.5512 18.174 26.843 18.798 27.0678C17.7929 25.7049 17.804 22.512 17.9376 22.9604C18.5815 25.1052 20.2271 27.408 20.8201 27.4952C20.8201 27.4952 20.8268 27.4952 20.8301 27.4952C22.4171 27.5979 23.8341 27.1495 25.0081 26.5012C25.009 26.4991 25.009 26.4967 25.0081 26.4946C23.7148 24.9606 23.6309 21.7169 23.7215 21.9101C24.7055 23.9787 26.6073 25.1207 26.9243 25.1019C28.0685 24.0395 28.6549 23.0035 28.4815 22.9141C27.2192 22.2359 26.0916 20.3827 25.0578 18.4146C24.0395 16.4753 23.3603 13.5419 21.9654 11.8345C20.6942 10.2717 18.2778 10.0851 16.9525 10.9819C13.4868 13.3343 16.2313 25.7094 17.0154 26.1975Z" fill="#263238"/>
<path d="M17.1984 10.8354C16.9036 10.9855 16.6427 11.1945 16.4319 11.4495C16.2237 11.6926 16.0389 11.9548 15.8797 12.2325C15.5838 12.7817 15.3522 13.3632 15.1895 13.9654C14.8548 15.1537 14.8902 17.4509 14.9134 18.6658C14.9587 19.882 15.121 21.0911 15.3982 22.2762C15.4623 22.5732 15.5473 22.8659 15.6191 23.1597L15.8731 24.0377L16.1636 24.9047L16.4839 25.7628L16.2232 24.8892L15.9836 24.0057L15.7627 23.1221C15.6997 22.8262 15.6257 22.5335 15.5716 22.2386C15.3233 21.0582 15.1788 19.8582 15.1398 18.6525C15.0956 17.4509 15.0669 15.1736 15.3607 13.993C15.5034 13.3976 15.7123 12.8201 15.9836 12.2712C16.1249 11.992 16.2924 11.7268 16.4839 11.4793C16.5836 11.3543 16.6921 11.2366 16.8086 11.127C16.9244 11.0122 17.0556 10.9141 17.1984 10.8354Z" fill="#263238"/>
<path d="M28.6167 22.5772C28.2273 22.1922 27.8586 21.7866 27.5123 21.3624C27.1622 20.946 26.8309 20.5186 26.5238 20.0768C26.2168 19.635 25.9241 19.1867 25.6646 18.7228C25.4051 18.2589 25.1632 17.7818 24.9114 17.3113C24.3956 16.3737 23.754 14.367 23.1763 13.4558C22.8848 13.0019 22.5833 12.5524 22.2486 12.1217C22.0784 11.9055 21.8963 11.699 21.703 11.5032C21.5116 11.2943 21.2793 11.127 21.0205 11.0117C21.2643 11.145 21.4802 11.3239 21.6567 11.5385C21.8351 11.7417 22.0014 11.9553 22.1547 12.178C22.4673 12.6198 22.75 13.0715 23.0206 13.532C23.564 14.4542 24.2057 16.4565 24.7038 17.3975C24.9633 17.8658 25.2096 18.3373 25.4769 18.8045C25.7474 19.2744 26.0469 19.727 26.3736 20.1596C27.0315 21.0445 27.7836 21.8551 28.6167 22.5772Z" fill="#263238"/>
<path d="M19.5626 22.3565C21.7085 24.4019 25.691 27.4634 27.3433 27.9394C29.1799 28.4684 32.8333 24.0198 35.2344 21.2996C35.7115 20.7584 31.7433 16.7902 31.2584 17.3932C30.0093 18.9704 27.4935 22.531 27.0407 22.5498C26.6696 22.5686 23.1233 21.2907 21.1298 20.5464C17.9568 19.3624 18.0529 20.9163 19.5626 22.3565Z" fill="#D3766A"/>
<path d="M30.3013 18.3838L34.2606 23.1052C34.2606 23.1052 29.7513 28.1502 27.9334 28.1712C26.1155 28.1922 21.1567 24.1566 19.5685 22.4757C17.9804 20.7947 18.178 19.5578 20.5868 20.3254C22.9955 21.0929 26.7263 22.352 27.0609 22.2736C27.3956 22.1951 30.3013 18.3838 30.3013 18.3838Z" fill="#EBEBEB"/>
<path d="M32.881 24.1677C31.5436 22.0549 29.8174 20.0382 29.5413 19.6649C29.528 19.6473 29.5015 19.6649 29.5159 19.687C29.8052 20.0393 31.5281 22.5585 32.8523 24.1931C32.8722 24.2118 32.8987 24.1875 32.881 24.1677Z" fill="#263238"/>
<path d="M29.5198 27.5065C28.9223 27.9041 28.3657 28.1691 27.9328 28.1691C26.1149 28.1912 21.1549 24.1546 19.5679 22.4747C18.8886 21.7547 18.5363 21.1174 18.5441 20.6812C21.1737 22.3267 27.3021 26.1326 29.5198 27.5065Z" fill="#C7C7C7"/>
<path d="M33.9004 22.8217L30.3662 18.5586C30.417 18.436 30.6975 18.1455 30.9449 17.7457C30.9449 17.7457 31.4916 16.3221 31.4971 14.9339C31.4971 13.7687 31.3734 12.037 31.9996 12.016C32.9141 11.9829 33.3382 14.152 33.5061 15.4121C34.0583 14.9968 34.573 14.6909 34.9418 14.6224C36.1567 14.3949 37.8564 19.6774 37.0402 20.6283C36.2439 21.545 34.5818 22.7399 33.9004 22.8217Z" fill="#D3766A"/>
<g opacity="0.7">
<path d="M37.4921 23.3231C37.4068 24.0523 37.1192 24.743 36.662 25.3173C36.2047 25.8916 35.596 26.3265 34.9045 26.5731C34.2131 26.8196 33.4665 26.8679 32.749 26.7124C32.0316 26.5569 31.3719 26.2039 30.8446 25.6933C30.3172 25.1826 29.9431 24.5347 29.7646 23.8226C29.5861 23.1106 29.6103 22.3628 29.8344 21.6637C30.0586 20.9647 30.4737 20.3423 31.033 19.8668C31.5922 19.3912 32.2733 19.0816 32.9993 18.9728L33.6741 13.1713L33.3583 13.1348L33.43 12.5142L36.1094 12.8267L36.0376 13.4474L35.7206 13.411L35.0447 19.218C35.8466 19.5388 36.5207 20.1146 36.963 20.8565C37.4053 21.5983 37.5912 22.4651 37.4921 23.3231Z" fill="white"/>
<path d="M37.4924 23.3231C37.407 24.0522 37.1206 24.7431 36.6652 25.3188L36.5812 25.4292C36.5514 25.4646 36.5194 25.4966 36.4874 25.5298C36.4244 25.596 36.3637 25.6645 36.2985 25.7274C36.1651 25.8524 36.0239 25.9686 35.8755 26.0753C35.727 26.1819 35.5721 26.2793 35.4116 26.3669C35.3299 26.4078 35.246 26.4442 35.1631 26.4829C35.1212 26.5016 35.0803 26.5226 35.0383 26.5392L34.908 26.5845C34.5636 26.7087 34.2033 26.783 33.8378 26.8054L33.5639 26.8153C33.4723 26.8153 33.3817 26.8065 33.2901 26.802C33.1072 26.7894 32.9253 26.765 32.7456 26.7292C32.0248 26.5728 31.3618 26.2191 30.8305 25.7076L30.73 25.6126L30.6394 25.5099C30.5798 25.4403 30.5157 25.374 30.4594 25.3011C30.3476 25.1578 30.2454 25.0073 30.1535 24.8505C30.0609 24.6922 29.9786 24.528 29.9072 24.3591C29.8741 24.2729 29.8454 24.1857 29.8144 24.0995C29.8001 24.0565 29.7835 24.0134 29.7703 23.9692L29.7382 23.8356C29.5552 23.1171 29.5768 22.3618 29.8004 21.6549C30.0241 20.9481 30.4409 20.3178 31.0039 19.8354C31.5701 19.3545 32.258 19.0392 32.9919 18.9242L32.9499 18.9673C33.0603 17.9998 33.1708 17.0323 33.2812 16.066L33.628 13.1669L33.6667 13.2154L33.3508 13.1779H33.3077V13.1348L33.3817 12.513V12.4722H33.4237L36.1019 12.7925H36.135V12.8256L36.061 13.4474V13.4794H36.029L35.712 13.4419L35.7463 13.4153L35.0593 19.218L35.0505 19.2025C35.8535 19.527 36.5275 20.1064 36.9687 20.8516C37.41 21.5968 37.594 22.4664 37.4924 23.3264V23.3231ZM37.4924 23.3231C37.59 22.4657 37.4027 21.6 36.9594 20.8597C36.5161 20.1194 35.8414 19.5455 35.0395 19.2268H35.0284V19.2158L35.6911 13.412V13.3811H35.722L36.0401 13.4164L36.0036 13.4452L36.0743 12.8234L36.1041 12.8609L33.4237 12.5561L33.4701 12.5197L33.3994 13.1414L33.3618 13.0929L33.6777 13.1282L33.7219 13.1337L33.7164 13.1779L33.385 16.0792C33.2746 17.0467 33.1586 18.0131 33.0438 18.9805V19.017L33.0062 19.0236C32.2893 19.1335 31.6166 19.4393 31.0624 19.9071C30.5074 20.3766 30.0949 20.9919 29.8714 21.6837C29.6479 22.3754 29.6224 23.1158 29.7979 23.8212L29.8288 23.9526C29.8409 23.9968 29.8575 24.0388 29.8719 24.0819C29.9017 24.1669 29.9293 24.253 29.9613 24.3381C30.0306 24.5053 30.1111 24.6676 30.2021 24.824C30.2914 24.9816 30.3914 25.1329 30.5014 25.2768C30.5566 25.3486 30.6185 25.4149 30.677 25.4834L30.7664 25.5861L30.8647 25.68C31.3872 26.1889 32.0412 26.5423 32.7533 26.7004C32.9312 26.737 33.1112 26.7621 33.2923 26.7755C33.3828 26.7755 33.4734 26.791 33.5639 26.791L33.8367 26.7822C34.2 26.7598 34.5582 26.6854 34.9003 26.5613L35.0295 26.5171C35.0715 26.5005 35.1123 26.4796 35.1532 26.4619C35.236 26.4232 35.32 26.3879 35.4017 26.3514C35.5618 26.2655 35.7163 26.1696 35.8645 26.0643C36.0127 25.9591 36.154 25.8443 36.2875 25.7208C36.3537 25.6579 36.4145 25.5905 36.4774 25.5253C36.5083 25.4922 36.5415 25.4602 36.5713 25.4259L36.6552 25.3155C37.114 24.7421 37.4039 24.0521 37.4924 23.3231Z" fill="#263238"/>
</g>
<path d="M36.7893 23.2414C36.7335 23.7188 36.5718 24.1777 36.3161 24.5846C36.0604 24.9915 35.717 25.3363 35.3111 25.5936C34.9052 25.851 34.447 26.0145 33.9698 26.0723C33.4927 26.13 33.0086 26.0805 32.5531 25.9274C32.0975 25.7743 31.6818 25.5214 31.3364 25.1872C30.991 24.853 30.7245 24.4459 30.5564 23.9956C30.3884 23.5453 30.3229 23.0632 30.3649 22.5844C30.4068 22.1056 30.5551 21.6422 30.799 21.228C31.4102 21.5729 32.0689 21.8259 32.7538 21.979C34.1233 22.2883 35.2211 21.6378 36.447 21.3738C36.7461 21.9478 36.8654 22.5986 36.7893 23.2414Z" fill="#25CA80"/>
<path d="M30.374 22.4934C30.374 22.4934 30.5419 20.2646 32.8899 19.7798L30.374 22.4934Z" fill="white"/>
<path d="M33.1399 15.3457C33.0295 15.9774 33.839 15.7411 33.839 15.7411C33.839 15.7411 32.7611 16.3607 32.9036 17.0553C33.0417 17.7235 34.008 17.4032 34.0743 17.3867C34.018 17.4209 33.0416 18.0162 33.257 18.6987C33.4779 19.4078 34.3924 18.9196 34.4509 18.8887C34.4078 18.9373 33.8401 19.5845 34.1196 20.066C34.6022 20.8932 36.0987 19.2774 36.874 19.2808C36.874 19.2808 37.0198 20.5961 37.0319 20.6337C37.0319 20.6337 38.4865 19.125 38.4312 18.078C38.4265 17.925 38.3689 17.7783 38.2682 17.663C38.1675 17.5476 38.03 17.4707 37.879 17.4452C37.879 17.4452 38.4014 17.0101 38.249 16.4678C38.1706 16.1895 37.6548 16.0669 37.6548 16.0669C37.6548 16.0669 38.059 15.7024 37.8934 15.2275C37.7631 14.8487 37.2661 14.7858 37.2661 14.7858C37.2661 14.7858 37.487 14.2545 37.2318 13.9111C36.7172 13.2109 33.3686 13.9928 33.1399 15.3457Z" fill="#D3766A"/>
<path d="M37.1945 14.7583C37.2055 14.7583 37.2055 14.7395 37.1945 14.7395C36.0304 14.7285 34.7482 15.0708 33.7929 15.749C33.762 15.7722 33.7841 15.8318 33.8238 15.8141C34.9415 15.305 35.973 14.9416 37.1945 14.7583Z" fill="#263238"/>
<path d="M37.6761 16.0512C37.6893 16.0512 37.686 16.0269 37.6761 16.0269C36.4767 16.0214 35.0431 16.4488 34.0315 17.3588C33.9961 17.3898 33.9961 17.4527 34.0392 17.4196C34.7582 16.8652 36.5761 16.2102 37.6761 16.0512Z" fill="#263238"/>
<path d="M34.4015 18.9715C35.4032 18.1355 36.5717 17.7058 37.8351 17.4352C37.8517 17.4352 37.8439 17.4098 37.8296 17.4087C37.1758 17.3723 36.3883 17.6296 35.793 17.8792C35.2351 18.1009 34.7453 18.4654 34.3727 18.9362C34.3584 18.9549 34.3805 18.9892 34.4015 18.9715Z" fill="#263238"/>
<path d="M33.8181 15.7344C33.7805 15.7609 33.8611 15.7863 33.8247 15.8139C33.6701 15.931 32.8009 16.7173 32.9765 17.0961C33.1179 17.3998 33.6237 17.4197 33.8214 17.3512L34.3184 17.1801L33.9119 17.5114C33.73 17.6583 33.5733 17.834 33.4481 18.0316C33.3851 18.1197 33.3413 18.2202 33.3196 18.3263C33.2979 18.4325 33.2988 18.542 33.3222 18.6478C33.3459 18.7463 33.4028 18.8335 33.4832 18.8951C33.5636 18.9566 33.6627 18.9886 33.7639 18.9858C33.9893 18.9767 34.2087 18.9101 34.4012 18.7925L34.9435 18.4866L34.5326 18.9516C34.4179 19.0804 34.3207 19.2237 34.2433 19.3779C34.1631 19.5207 34.127 19.684 34.1394 19.8472C34.1484 19.9203 34.1775 19.9893 34.2236 20.0467C34.2696 20.104 34.3307 20.1474 34.4001 20.1719C34.5637 20.2044 34.7331 20.189 34.8882 20.1278C35.2256 20.0009 35.5524 19.8476 35.8657 19.6694C36.0269 19.5855 36.1893 19.5005 36.356 19.4231C36.5183 19.3365 36.6971 19.2853 36.8806 19.2729C36.7022 19.3055 36.5316 19.3718 36.3781 19.4684C36.2202 19.5568 36.0656 19.654 35.9109 19.7501C35.6031 19.9533 35.277 20.1274 34.9368 20.2702C34.754 20.3504 34.5517 20.3754 34.3548 20.342C34.2494 20.3121 34.155 20.252 34.0832 20.1693C34.0114 20.0865 33.9653 19.9845 33.9506 19.876C33.9286 19.6742 33.967 19.4705 34.061 19.2906C34.145 19.1178 34.2512 18.9566 34.3769 18.8113L34.5083 18.9692C34.2829 19.1122 34.024 19.1937 33.7573 19.2056C33.6095 19.2075 33.4655 19.1584 33.3498 19.0664C33.2393 18.9721 33.16 18.8466 33.1223 18.7064C33.0919 18.5726 33.0903 18.434 33.1175 18.2995C33.1447 18.1651 33.2002 18.038 33.2802 17.9267C33.4213 17.7115 33.5967 17.5209 33.7993 17.3623L33.8898 17.5246C33.6358 17.6031 33.0682 17.6428 32.7854 17.1988C32.5093 16.5671 33.6082 15.8514 33.8181 15.7344Z" fill="#263238"/>
<path d="M33.8382 15.7411C33.7066 15.7531 33.574 15.7449 33.445 15.7168C33.393 15.7067 33.3447 15.6829 33.3049 15.648C33.2652 15.6131 33.2354 15.5682 33.2186 15.518C33.1975 15.4026 33.211 15.2835 33.2572 15.1757C33.3003 15.0542 33.3533 14.9283 33.4119 14.8013C33.2966 14.8856 33.2002 14.9932 33.1291 15.1171C33.0431 15.2509 33.0134 15.4132 33.0463 15.5688C33.0737 15.6513 33.1252 15.7237 33.1943 15.7765C33.262 15.8227 33.341 15.8498 33.4229 15.8549C33.5699 15.862 33.7153 15.8221 33.8382 15.7411Z" fill="#263238"/>
<path d="M14.2041 32.1825C14.2041 32.1825 14.3609 33.9562 14.594 36.5229C14.6006 36.5969 14.6072 36.672 14.6149 36.7438C14.7254 38.0039 14.859 39.4397 14.996 40.9406H23.0583C22.4806 36.4224 21.9814 32.5304 21.9384 32.1991V32.1748L14.2041 32.1825Z" fill="#37474F"/>
<path d="M15.3341 33.1989C15.3834 33.8196 15.4353 34.4403 15.4898 35.061C15.5053 35.241 15.523 35.4199 15.5384 35.5988V35.6043C15.6941 37.3858 15.8587 39.1683 16.042 40.9475H16.158C15.9614 39.1164 15.7781 37.2842 15.5925 35.4497C15.5727 35.2509 15.5528 35.0532 15.5318 34.8533C15.4766 34.3011 15.4214 33.7555 15.3639 33.2055C15.3606 33.1801 15.3319 33.1801 15.3341 33.1989Z" fill="#263238"/>
<path d="M12.3223 32.1826C12.3223 32.1826 12.69 34.2633 13.2058 37.1779C13.2157 37.2243 13.2235 37.2707 13.2323 37.3204C13.43 38.4347 13.6476 39.6662 13.8751 40.9462H19.4911L19.6192 40.1013L19.6435 39.9357L19.6501 39.8926L19.7429 39.2719L19.7793 39.04L20.8208 32.1826H12.3223Z" fill="#263238"/>
<path d="M10.1621 40.9482H17.7904C17.7904 40.9151 17.7904 40.8897 17.7904 40.8687C17.7904 40.8477 17.7904 40.8168 17.7904 40.8168C17.8334 40.7936 17.8754 40.7693 17.9185 40.7472C18.3669 40.5031 18.7611 40.3132 19.0847 40.1685L19.2449 40.0967C19.3918 40.0326 19.5232 39.9796 19.6325 39.9366C19.9131 39.8261 20.0743 39.7764 20.0743 39.7764C20.0831 39.7521 20.092 39.73 20.0997 39.7068C21.2041 36.8928 21.8668 32.6054 21.933 32.2067V32.1758H11.0468C11.0468 32.1758 10.6315 36.2091 10.1621 40.9482Z" fill="#37474F"/>
<path d="M11.2344 40.9484H11.336C11.5359 38.4226 11.7214 35.8957 11.9147 33.3699C11.9147 33.3279 11.854 33.3279 11.8517 33.3699C11.6471 35.8953 11.4413 38.4215 11.2344 40.9484Z" fill="#263238"/>
<path d="M20.4688 39.5746C19.545 39.9107 18.6522 40.3264 17.8005 40.8171C17.7673 40.8358 17.7894 40.8877 17.8248 40.8723C18.7238 40.4868 19.6404 40.1169 20.5174 39.6817C20.5316 39.6753 20.5426 39.6634 20.5481 39.6488C20.5536 39.6342 20.5531 39.6181 20.5466 39.6039C20.5402 39.5896 20.5284 39.5786 20.5138 39.5731C20.4992 39.5676 20.483 39.5681 20.4688 39.5746Z" fill="#263238"/>
<path d="M20.7546 33.4061C20.7546 33.3752 20.6972 33.3686 20.6972 33.4061C20.6974 34.4093 20.6472 35.4119 20.547 36.4101C20.505 36.8729 20.1328 39.4318 19.3321 39.2452C19.1974 39.2143 19.1289 39.0817 19.1112 38.8785C19.0858 38.6355 19.1775 38.3363 19.2217 38.0944C19.3111 37.5587 19.3829 37.0209 19.4282 36.4797C19.5219 35.4722 19.5112 34.4578 19.3962 33.4525C19.3949 33.4465 19.3917 33.4412 19.3869 33.4373C19.3822 33.4335 19.3763 33.4314 19.3702 33.4314C19.3641 33.4314 19.3582 33.4335 19.3535 33.4373C19.3487 33.4412 19.3455 33.4465 19.3442 33.4525C19.3442 34.8507 19.3089 36.2467 19.1002 37.6316C18.9997 38.2943 18.6639 39.2993 19.3597 39.3987C20.0555 39.4981 20.5282 37.8249 20.6143 37.3655C20.8429 36.0854 20.8551 34.7027 20.7546 33.4061Z" fill="#263238"/>
<path d="M19.351 39.3092C19.2796 39.4819 19.2195 39.6589 19.171 39.8393C19.1189 39.9788 19.0934 40.1267 19.0959 40.2756C19.0959 40.3043 19.1356 40.3065 19.1511 40.2877C19.2341 40.1565 19.2971 40.0135 19.3377 39.8636C19.3985 39.6991 19.4636 39.5323 19.52 39.3711C19.5252 39.3494 19.5222 39.3267 19.5118 39.3071C19.5013 39.2875 19.4839 39.2724 19.463 39.2648C19.4422 39.2572 19.4192 39.2575 19.3986 39.2656C19.3779 39.2738 19.361 39.2893 19.351 39.3092Z" fill="#263238"/>
<path d="M15.7188 34.2432C15.7202 34.1318 15.7087 34.0207 15.6846 33.9119C15.6833 33.9085 15.681 33.9056 15.6781 33.9036C15.6751 33.9015 15.6716 33.9004 15.668 33.9004C15.6644 33.9004 15.6609 33.9015 15.6579 33.9036C15.6549 33.9056 15.6527 33.9085 15.6514 33.9119C15.629 34.0061 15.6164 34.1023 15.6139 34.1991C15.6028 34.3095 15.5885 34.4199 15.5763 34.5304C15.5528 34.7556 15.5137 34.9788 15.4593 35.1986C15.358 35.6151 15.1462 35.9967 14.8463 36.303C14.5484 36.596 14.1961 36.8278 13.8092 36.9855C13.3774 37.1677 12.9257 37.2362 12.4784 37.3676C12.4596 37.3676 12.4652 37.3997 12.4839 37.3997C12.9763 37.3989 13.4638 37.3029 13.9197 37.1169C14.3246 36.9648 14.6933 36.7297 15.002 36.4267C15.3118 36.1137 15.5299 35.7218 15.6326 35.2935C15.6828 35.0734 15.7116 34.8489 15.7188 34.6232C15.7261 34.4966 15.7261 34.3698 15.7188 34.2432Z" fill="#263238"/>
<path d="M22.9465 34.2579L22.0254 29.1323C22.0254 29.1323 22.9962 27.6469 22.8549 25.8919C22.7521 24.6152 19.9834 20.149 19.7525 19.9281C18.8094 19.0445 17.219 19.3991 16.5663 19.8927C12.9493 22.6273 11.5754 28.4951 10.3506 34.2579H22.9465Z" fill="#25CA80"/>
<path d="M18.5941 28.6563C19.1149 28.6257 19.6373 28.6339 20.1569 28.6806C20.4142 28.7071 20.6693 28.7458 20.93 28.791C21.057 28.8131 21.184 28.8308 21.3121 28.8474C21.4457 28.869 21.5814 28.8742 21.7163 28.8628C21.7183 28.8635 21.72 28.8648 21.7211 28.8664C21.7223 28.8681 21.723 28.8701 21.723 28.8722C21.723 28.8743 21.7223 28.8763 21.7211 28.878C21.72 28.8796 21.7183 28.8809 21.7163 28.8816C21.5913 28.9064 21.4647 28.923 21.3375 28.9313C21.2136 28.9343 21.0897 28.9295 20.9664 28.9169C20.7036 28.8915 20.4429 28.8551 20.1823 28.8275C19.6544 28.7734 19.1264 28.717 18.5952 28.7016C18.5687 28.6994 18.5687 28.6574 18.5941 28.6563Z" fill="#263238"/>
<path d="M17.3911 29.3013C17.8077 29.1922 18.2303 29.1074 18.6568 29.0472C18.8699 29.0174 19.0831 29.0009 19.2984 28.9898C19.4011 28.9843 19.5038 28.981 19.6066 28.9788C19.7093 28.9766 19.833 28.9898 19.9467 28.9854C19.9578 28.9854 19.9611 29.0031 19.9467 29.0042C19.8363 29.0108 19.7347 29.0362 19.6286 29.0494L19.3095 29.0881C19.0963 29.1146 18.8832 29.1433 18.67 29.1676C18.2426 29.2162 17.8185 29.2692 17.3933 29.3333C17.3723 29.3399 17.369 29.3068 17.3911 29.3013Z" fill="#263238"/>
<path d="M19.9404 20.1211L21.1895 25.9237L22.3171 40.9439H24.8938C24.8938 40.9439 22.2266 28.8604 22.2365 28.7632C22.2465 28.666 23.4116 27.386 23.0858 25.6322C22.76 23.8783 20.1657 20.2812 19.9404 20.1211Z" fill="#EBEBEB"/>
<path d="M20.2119 20.5884C20.3323 20.8866 20.456 21.1837 20.5808 21.4796C20.7056 21.7756 20.8282 22.0738 20.9552 22.3687C21.2077 22.9577 21.4654 23.5468 21.7283 24.1358L21.7537 24.0253C21.4743 24.2529 20.9088 24.7752 20.9088 24.7752L21.9116 26.1425C21.9116 26.1425 21.8222 30.2951 21.7901 30.6706C21.8641 30.2996 22.0806 26.0983 22.0806 26.0983L21.0866 24.7432L21.0612 24.8746C21.3351 24.6416 21.6068 24.4075 21.8774 24.1689L21.9315 24.1203L21.9017 24.0563C21.6293 23.4746 21.3528 22.8944 21.0723 22.3157C20.9331 22.0252 20.7895 21.7381 20.6471 21.4498C20.5046 21.1616 20.3599 20.8744 20.2119 20.5884Z" fill="#DBDBDB"/>
<path d="M17.5373 20.0139C17.6025 20.2437 18.6418 21.5833 19.6976 21.4828C20.0411 21.4497 20.0808 19.6738 20.0808 19.6738L20.1051 19.5335L20.4464 17.561L18.0818 16.2037L17.7505 16.0259C17.7505 16.0259 17.692 16.5715 17.6268 17.2507C17.6268 17.2816 17.6202 17.3136 17.6169 17.3479C17.6135 17.3821 17.608 17.4219 17.6047 17.4583C17.5937 17.5588 17.5826 17.6626 17.5749 17.7664C17.5672 17.8449 17.5605 17.9211 17.5561 18.0039C17.5517 18.0867 17.5451 18.1685 17.5384 18.2513C17.4887 19.0708 17.5108 19.9168 17.5373 20.0139Z" fill="#D3766A"/>
<path d="M17.6221 17.2507C17.8454 17.7886 18.1831 18.2715 18.6119 18.6657C19.0406 19.0599 19.5501 19.3561 20.1048 19.5335L20.4461 17.561L18.0815 16.2037L17.7502 16.0259C17.7502 16.0259 17.6872 16.567 17.6221 17.2507Z" fill="#263238"/>
<path d="M23.0267 14.0856C23.7667 17.5159 21.7953 18.3464 21.0553 18.5032C20.3838 18.6479 18.0734 19.0555 16.9877 15.7168C15.9021 12.3781 17.2583 10.9523 18.7769 10.5415C20.2955 10.1306 22.2867 10.6541 23.0267 14.0856Z" fill="#D3766A"/>
<path d="M22.2782 13.5852C22.1974 13.5841 22.1166 13.5785 22.0364 13.5686C21.9507 13.5751 21.8652 13.5529 21.7934 13.5057C21.7733 13.4866 21.7602 13.4613 21.7562 13.4338C21.7522 13.4064 21.7575 13.3784 21.7713 13.3544C21.8059 13.3119 21.851 13.2793 21.9022 13.2599C21.9534 13.2405 22.0089 13.235 22.0629 13.2439C22.1762 13.2442 22.2852 13.2867 22.3688 13.3632C22.3854 13.3819 22.3964 13.4048 22.4006 13.4294C22.4048 13.454 22.402 13.4793 22.3926 13.5024C22.3832 13.5255 22.3674 13.5455 22.3472 13.5601C22.327 13.5747 22.3031 13.5834 22.2782 13.5852Z" fill="#263238"/>
<path d="M19.9762 14.4686C20.0557 14.4476 20.1264 14.4145 20.2037 14.3858C20.2877 14.3673 20.3633 14.322 20.4191 14.2566C20.4327 14.2325 20.438 14.2047 20.4342 14.1774C20.4304 14.15 20.4177 14.1247 20.3981 14.1053C20.3532 14.0733 20.3005 14.0539 20.2456 14.0491C20.1907 14.0442 20.1354 14.0541 20.0856 14.0777C19.9772 14.1091 19.8846 14.18 19.826 14.2765C19.814 14.2992 19.8088 14.325 19.8111 14.3507C19.8134 14.3764 19.823 14.4009 19.8389 14.4212C19.8548 14.4415 19.8762 14.4568 19.9006 14.4652C19.9249 14.4736 19.9512 14.4748 19.9762 14.4686Z" fill="#263238"/>
<path d="M20.5647 14.8986C20.5647 14.8909 20.5481 14.9129 20.5492 14.9229C20.5967 15.157 20.611 15.4331 20.4111 15.548C20.4045 15.548 20.4111 15.5623 20.4111 15.5601C20.6685 15.4806 20.6464 15.1139 20.5647 14.8986Z" fill="#263238"/>
<path d="M20.313 14.6899C19.9287 14.7252 20.0258 15.4906 20.3826 15.463C20.7393 15.4353 20.6344 14.6589 20.313 14.6899Z" fill="#263238"/>
<path d="M20.1667 14.7473C20.106 14.7992 20.0496 14.8843 19.9701 14.903C19.8906 14.9218 19.7978 14.8522 19.7271 14.7838C19.7194 14.776 19.7139 14.7838 19.715 14.7937C19.7316 14.9406 19.8067 15.0842 19.9668 15.0853C20.1269 15.0864 20.1998 14.9439 20.2175 14.7926C20.2208 14.7639 20.1921 14.7263 20.1667 14.7473Z" fill="#263238"/>
<path d="M21.8847 14.5926C21.8847 14.5838 21.9045 14.6026 21.9045 14.6125C21.9134 14.8522 21.9642 15.1239 22.1851 15.1879C22.1928 15.1879 22.1928 15.2023 22.1851 15.2012C21.9189 15.1824 21.8548 14.8212 21.8847 14.5926Z" fill="#263238"/>
<path d="M22.0812 14.3296C22.4622 14.2733 22.545 15.0409 22.1916 15.0917C21.8382 15.1425 21.7609 14.376 22.0812 14.3296Z" fill="#263238"/>
<path d="M22.2356 14.3583C22.3074 14.3936 22.3814 14.4632 22.4631 14.4621C22.5448 14.461 22.6188 14.3738 22.6718 14.2898C22.6774 14.281 22.6851 14.2898 22.6862 14.2976C22.7039 14.4444 22.6641 14.6013 22.5084 14.6399C22.3527 14.6786 22.2499 14.5571 22.1969 14.4124C22.187 14.3815 22.2069 14.3384 22.2356 14.3583Z" fill="#263238"/>
<path d="M20.8245 16.7328C20.8864 16.7836 20.9493 16.8554 21.0366 16.8565C21.1254 16.8475 21.2112 16.8196 21.2884 16.7748C21.2901 16.7741 21.2919 16.774 21.2936 16.7744C21.2953 16.7749 21.2969 16.7758 21.298 16.7771C21.2992 16.7784 21.3 16.78 21.3003 16.7818C21.3005 16.7835 21.3002 16.7853 21.2994 16.7869C21.2691 16.8363 21.2261 16.8767 21.1747 16.9037C21.1234 16.9307 21.0658 16.9434 21.0079 16.9404C20.9581 16.9318 20.9121 16.9086 20.8755 16.8738C20.8389 16.839 20.8135 16.7942 20.8025 16.7449C20.798 16.7317 20.8157 16.7251 20.8245 16.7328Z" fill="#263238"/>
<path d="M21.6945 15.7388C21.6945 15.7388 21.7928 16.0856 21.816 16.2524C21.816 16.2679 21.7796 16.2811 21.7232 16.2922C21.7232 16.2922 21.7232 16.2922 21.7166 16.2922C21.577 16.3382 21.4274 16.345 21.2842 16.3117C21.1411 16.2784 21.0098 16.2063 20.9049 16.1033C20.8916 16.0889 20.9104 16.0691 20.927 16.0768C21.1595 16.1942 21.4238 16.2329 21.6802 16.1872C21.6802 16.1386 21.4913 15.5986 21.5178 15.5931C21.649 15.5863 21.7806 15.5974 21.9088 15.6262C21.7255 14.8984 21.4262 14.2048 21.2539 13.477C21.2483 13.4516 21.2859 13.4383 21.2958 13.4604C21.6614 14.165 21.89 14.9978 22.0999 15.7444C22.1264 15.8349 21.7652 15.7576 21.6945 15.7388Z" fill="#263238"/>
<path d="M16.7909 15.6317C17.3872 15.6781 17.5242 14.4267 17.5242 14.4267C17.5242 14.4267 18.7391 14.4267 19.1355 12.6884C19.1006 13.2089 18.9145 13.7079 18.5999 14.1241C18.5999 14.1241 20.737 13.9033 21.636 12.1097C21.636 12.1097 21.277 13.0208 20.9413 13.3444C20.9413 13.3444 21.837 13.0948 22.2743 12.367C22.2743 12.367 22.6487 13.3985 22.937 13.6835C22.937 13.6835 22.8497 9.945 19.3851 10.3426C19.3851 10.3426 17.2161 10.4862 16.4374 12.2035C15.6588 13.9209 16.7909 15.6317 16.7909 15.6317Z" fill="#263238"/>
<path d="M18.8188 14.3647C18.8188 14.3647 16.737 14.7623 16.3438 15.1003C16.1826 15.2394 16.3637 15.9949 16.4951 16.0876C16.5779 16.1462 17.71 15.637 18.9248 15.4714C18.9259 15.4714 18.7017 14.8408 18.8188 14.3647Z" fill="#455A64"/>
<path opacity="0.2" d="M23.0963 15.221C23.0703 15.2618 23.0411 15.3006 23.0091 15.3369C22.881 15.4794 22.712 15.5457 22.4259 15.4728C22.2393 15.4253 22.0946 15.243 21.7898 15.2773C21.6003 15.2914 21.4184 15.3575 21.2641 15.4683C21.163 15.5397 21.0664 15.6172 20.9747 15.7003C20.9515 15.719 20.9283 15.74 20.9051 15.761C20.8842 15.7808 20.8617 15.7989 20.8378 15.8151C20.8028 15.8414 20.7658 15.865 20.7273 15.8858C20.2756 16.1277 19.5268 16.1376 19.2397 15.9245C18.9768 15.7301 18.7769 15.1613 18.8078 14.6124C18.8131 14.4945 18.8309 14.3775 18.8609 14.2634C18.8901 14.1512 18.9335 14.0432 18.9901 13.942C19.0011 13.9233 19.0111 13.9056 19.0221 13.889C19.0542 13.8411 19.0912 13.7967 19.1325 13.7565C19.4053 13.4749 19.931 13.2485 20.502 13.1115L20.6776 13.074C20.8046 13.0475 20.9328 13.0265 21.0598 13.0099C21.2067 12.9911 21.3535 12.9779 21.4949 12.9735C21.9963 12.9536 22.437 13.0243 22.6689 13.2098C22.8325 13.3515 22.955 13.5346 23.0234 13.7399C23.0606 13.8378 23.0908 13.9382 23.114 14.0403C23.1875 14.3664 23.2032 14.7028 23.1604 15.0343C23.1502 15.0998 23.1286 15.163 23.0963 15.221Z" fill="white"/>
<g opacity="0.2">
<path d="M23.0967 15.2209C23.0706 15.2617 23.0415 15.3005 23.0094 15.3368L21.8376 14.7471C21.8002 14.7286 21.7711 14.6969 21.7558 14.6581C21.7405 14.6193 21.7402 14.5762 21.755 14.5372C21.7697 14.4982 21.7985 14.4661 21.8356 14.4471C21.8727 14.4281 21.9155 14.4236 21.9558 14.4345C21.9671 14.4372 21.9782 14.4409 21.9889 14.4456L23.1596 15.0331C23.15 15.0989 23.1286 15.1625 23.0967 15.2209Z" fill="white"/>
<path d="M21.2641 15.4681C21.163 15.5395 21.0664 15.6169 20.9747 15.7L18.8057 14.6122C18.8109 14.4943 18.8287 14.3773 18.8587 14.2632L21.2641 15.4681Z" fill="white"/>
<path d="M20.5853 14.6145C20.5742 14.6381 20.5552 14.657 20.5316 14.6679C20.5079 14.6788 20.4812 14.681 20.4561 14.6741C20.448 14.6722 20.4402 14.6692 20.4329 14.6653L18.9883 13.9419C18.9993 13.9231 19.0093 13.9054 19.0203 13.8889C19.0524 13.841 19.0894 13.7966 19.1308 13.7563L20.5378 14.4621C20.5511 14.4687 20.563 14.478 20.5727 14.4893C20.5824 14.5007 20.5897 14.5139 20.5941 14.5281C20.5985 14.5424 20.6 14.5574 20.5985 14.5722C20.597 14.5871 20.5925 14.6014 20.5853 14.6145Z" fill="white"/>
<path d="M23.1089 14.04L21.0547 13.0096C21.2016 12.9908 21.3485 12.9776 21.4898 12.9731L23.0183 13.7396C23.0555 13.8375 23.0858 13.9379 23.1089 14.04Z" fill="white"/>
<path d="M22.706 14.1571C22.7 14.1683 22.6905 14.1772 22.6789 14.1824C22.6673 14.1876 22.6543 14.1888 22.642 14.1859H22.6298L20.4961 13.1157L20.6717 13.0781L22.6806 14.0854C22.6933 14.0918 22.703 14.1028 22.7077 14.1162C22.7124 14.1295 22.7118 14.1442 22.706 14.1571Z" fill="white"/>
<path d="M20.8432 15.8147C20.8082 15.841 20.7713 15.8646 20.7328 15.8854L19.6283 15.3332C19.6217 15.3298 19.6158 15.3251 19.611 15.3194C19.6062 15.3138 19.6026 15.3072 19.6003 15.3001C19.5981 15.293 19.5972 15.2856 19.5979 15.2782C19.5985 15.2708 19.6006 15.2636 19.604 15.257C19.6096 15.2453 19.619 15.2361 19.6308 15.2308C19.6425 15.2255 19.6558 15.2246 19.6681 15.2282H19.6802L20.8432 15.8147Z" fill="white"/>
</g>
<path d="M19.5393 16.1342C19.4149 16.1049 19.2989 16.0475 19.2002 15.9663C18.7982 15.6207 18.5199 14.5593 18.9716 13.858C19.2753 13.3875 20.1865 13.0849 20.8767 12.9745C21.5151 12.8718 22.329 12.864 22.6979 13.1633C23.3064 13.6526 23.3098 14.8608 23.1485 15.2396C23.0381 15.4981 22.7487 15.6107 22.4108 15.5246C22.3401 15.5041 22.272 15.476 22.2075 15.4406C22.0815 15.3665 21.9375 15.3283 21.7912 15.3302C21.5084 15.3446 21.3494 15.4572 20.9408 15.8018C20.7459 15.9566 20.5193 16.0667 20.2771 16.1241C20.0348 16.1816 19.783 16.185 19.5393 16.1342ZM19.0666 13.9165C18.659 14.5494 18.8998 15.5555 19.2742 15.878C19.6155 16.1729 20.4206 16.0911 20.869 15.7145C21.2655 15.3832 21.4543 15.233 21.7857 15.2164C21.9513 15.2131 22.1146 15.2559 22.2572 15.3401C22.3148 15.3714 22.3755 15.3966 22.4384 15.4152C22.6593 15.4716 22.9387 15.444 23.0447 15.1944C23.1916 14.8487 23.1861 13.699 22.6272 13.2495C22.3434 13.0209 21.6796 12.9579 20.8944 13.0849C20.0175 13.2274 19.2996 13.5532 19.0666 13.9154V13.9165Z" fill="#455A64"/>
<path d="M17.5892 15.865C17.5892 15.865 16.6913 14.871 16.2329 15.2079C15.7746 15.5447 16.5444 17.0445 17.1507 17.187C17.2273 17.2106 17.3078 17.2185 17.3875 17.2102C17.4672 17.202 17.5444 17.1776 17.6144 17.1387C17.6845 17.0998 17.746 17.0472 17.7951 16.9839C17.8443 16.9207 17.8802 16.8481 17.9006 16.7706L17.5892 15.865Z" fill="#D3766A"/>
<path d="M16.4647 15.6327C16.4631 15.6333 16.4616 15.6344 16.4606 15.6359C16.4595 15.6374 16.459 15.6391 16.459 15.6409C16.459 15.6428 16.4595 15.6445 16.4606 15.646C16.4616 15.6475 16.4631 15.6486 16.4647 15.6492C16.8911 15.7597 17.1528 16.1109 17.3483 16.4831C17.2091 16.3483 17.0335 16.2865 16.8513 16.4555C16.8414 16.4643 16.8513 16.4798 16.8645 16.4753C16.933 16.4436 17.0096 16.4339 17.0837 16.4476C17.1579 16.4612 17.226 16.4975 17.2787 16.5515C17.3666 16.6422 17.4444 16.7422 17.5106 16.8497C17.5349 16.884 17.5979 16.8564 17.578 16.8166C17.5784 16.8133 17.5784 16.81 17.578 16.8067C17.5206 16.2887 17.0269 15.615 16.4647 15.6327Z" fill="#263238"/>
<path d="M17.2383 17.2097C17.2383 17.2478 17.2496 17.2849 17.2707 17.3165C17.2918 17.3481 17.3218 17.3727 17.3569 17.3873C17.392 17.4018 17.4307 17.4056 17.4679 17.3982C17.5052 17.3908 17.5395 17.3725 17.5663 17.3456C17.5932 17.3188 17.6115 17.2845 17.6189 17.2472C17.6263 17.21 17.6225 17.1713 17.608 17.1362C17.5934 17.1011 17.5688 17.0711 17.5372 17.05C17.5056 17.0288 17.4685 17.0176 17.4305 17.0176C17.4052 17.0176 17.3802 17.0225 17.3569 17.0322C17.3336 17.0419 17.3124 17.056 17.2946 17.0739C17.2767 17.0917 17.2626 17.1129 17.2529 17.1362C17.2433 17.1595 17.2383 17.1845 17.2383 17.2097Z" fill="white"/>
<path d="M20.0699 19.8618L19.976 20.8403C19.9307 21.9116 19.7904 22.3402 19.5596 22.3567C18.8009 22.4086 17.6158 20.4295 17.5341 20.0142C17.4524 19.599 20.0699 19.8618 20.0699 19.8618Z" fill="#D3766A"/>
<path d="M8.97461 40.9485H19.2203L17.493 19.484C17.493 19.484 17.1252 19.4586 16.2119 20.0915C15.2367 20.7663 14.246 22.1479 12.9064 25.0448C9.81397 31.7332 8.97461 40.9485 8.97461 40.9485Z" fill="#EBEBEB"/>
<path d="M17.1352 21.8563C16.7917 22.9608 13.8318 30.2157 12.755 31.5145C11.9366 32.5019 9.36334 33.772 8.67639 31.1644C8.21916 29.4272 13.4884 22.4152 15.864 20.3621C16.9551 19.42 17.8608 19.5326 17.1352 21.8563Z" fill="#EBEBEB"/>
<path d="M10.373 32.7184C10.8122 32.696 11.2411 32.5769 11.6288 32.3694C12.0153 32.1685 12.3601 31.8961 12.6448 31.5664C12.787 31.4029 12.9173 31.2295 13.0347 31.0474C13.1518 30.864 13.2556 30.6719 13.366 30.4797C13.5726 30.0931 13.7658 29.6978 13.9525 29.2991C14.3368 28.5072 14.6924 27.7021 15.0569 26.8981L16.1304 24.4805C15.9835 24.8968 15.8234 25.3077 15.6676 25.7207C15.5119 26.1338 15.3363 26.5391 15.174 26.9477C14.8375 27.7635 14.4815 28.5712 14.106 29.3708C13.9138 29.7684 13.715 30.1627 13.5019 30.5515C13.3914 30.7448 13.281 30.938 13.1617 31.1247C13.0396 31.3129 12.9006 31.4896 12.7465 31.6526C12.4419 31.9816 12.0771 32.2493 11.6718 32.4411C11.4694 32.5343 11.2576 32.6058 11.0401 32.6543C10.8218 32.7066 10.5973 32.7281 10.373 32.7184Z" fill="#263238"/>
<path d="M15.7256 25.4521C15.8036 25.3243 15.8899 25.2018 15.984 25.0854C16.0757 24.9695 16.1685 24.8568 16.2656 24.7397C16.2189 24.8852 16.1439 25.02 16.0448 25.1362C15.9535 25.2558 15.8461 25.3621 15.7256 25.4521Z" fill="#263238"/>
<path d="M17.4927 19.4839C17.337 19.8395 16.2602 23.018 15.9708 23.7337L15.9443 23.7989L16.0007 23.8441C16.3872 24.149 16.7756 24.4519 17.1658 24.7531L17.1459 24.604L16.0636 26.0397L16.0283 26.0872L16.0493 26.1413C16.3629 26.9343 18.3487 30.5855 18.5243 30.9743C18.3884 30.5701 16.5551 26.8581 16.2458 26.0651L16.2315 26.1667L17.316 24.7387L17.3801 24.6537L17.2961 24.5896C16.9044 24.2907 16.5116 23.9936 16.1177 23.6984L16.1476 23.8088C16.4248 23.0832 17.3646 19.8506 17.4927 19.4839Z" fill="#DBDBDB"/>
<path d="M11.6435 35.6073C11.6026 36.8995 11.6622 38.3607 11.9372 38.629C12.4519 39.1327 13.8236 39.0907 14.2565 39.0863C14.6895 39.0819 16.2235 39.0863 16.5835 38.29C16.7426 37.941 16.7846 36.1375 16.7801 35.4991C16.7801 35.2407 16.7205 33.9651 16.7006 33.8226C16.7006 33.7884 16.6056 33.7928 16.6023 33.8149C16.5802 33.9607 16.5946 34.4897 16.5869 34.588C14.1152 34.906 12.5844 34.6399 11.7915 34.4875C11.7915 34.2489 11.7915 34.0634 11.7915 33.8248C12.564 33.9665 13.3474 34.0404 14.1328 34.0457C14.9913 34.028 15.8483 33.9672 16.7006 33.8635C16.7205 33.8635 16.7061 33.7652 16.6763 33.7663C16.3538 33.7663 15.2406 33.8767 14.113 33.8767C13.3085 33.8616 12.5057 33.7989 11.7086 33.689C11.6633 33.7077 11.6622 34.9878 11.6435 35.6073ZM12.0852 38.4788C11.8124 38.1652 11.7782 37.264 11.7793 36.7239C11.7793 35.9806 11.7793 35.3876 11.7793 34.6443C13.6822 35.0861 15.7773 34.8652 16.5714 34.7083C16.5714 34.7404 16.5858 36.3076 16.5714 36.8067C16.5526 37.4451 16.5327 38.0216 16.2876 38.3529C16.0777 38.6379 15.4846 38.9228 14.1229 38.9217C13.1455 38.9228 12.315 38.7439 12.0874 38.4822L12.0852 38.4788Z" fill="#DBDBDB"/>
<path d="M9.95996 18.914C10.3266 17.4551 10.9727 15.434 11.5503 15.0585C12.1556 14.6653 14.3412 13.3676 14.9464 13.2295C15.5516 13.0915 17.8179 13.414 18.2597 13.7431C18.6175 14.006 18.1813 14.8188 16.9278 14.8917C15.756 14.9602 15.4721 14.9193 15.1474 15.0187C14.8227 15.1181 13.9403 16.0635 14.0982 16.5406C14.191 16.8222 14.9354 17.222 15.4445 17.0564C15.9537 16.8907 16.1944 16.3341 16.7974 15.942C17.4005 15.5499 18.3712 15.7134 18.3988 15.9829C18.4265 16.2523 18.0896 16.3407 17.4921 17.1812C17.1078 17.7223 16.9178 18.713 16.0796 19.6241C15.6599 20.0825 14.8757 21.3382 14.8757 21.3382L9.95996 18.914Z" fill="#D3766A"/>
<path d="M11.5498 15.0585C12.102 14.3704 13.4527 13.1688 14.6963 12.8419C15.5368 12.621 18.1664 14.2777 18.0272 14.7979C17.8881 15.318 17.4143 15.2694 16.7207 15.1093C16.4689 15.0508 15.1679 14.4168 14.9061 14.6764C14.5306 15.0475 13.9563 16.396 13.9563 16.396L11.5498 15.0585Z" fill="#D3766A"/>
<path d="M17.9826 14.5792C17.7009 13.974 16.9797 13.5852 16.2563 13.2672C16.2442 13.2616 16.2365 13.2793 16.2475 13.2837C16.4319 13.3666 17.5927 14.0568 17.9726 14.5881C17.977 14.5969 17.9848 14.5892 17.9826 14.5792Z" fill="#263238"/>
<path d="M11.5498 15.0585C12.102 14.3704 13.4527 13.1688 14.6963 12.8419C15.5368 12.621 17.5457 14.5902 17.4066 15.1126C17.2674 15.635 16.5816 15.6019 15.8604 15.2584C15.6262 15.1479 14.8664 14.4853 14.6102 14.7415C14.2347 15.1137 13.3158 16.0381 13.3158 16.0381L11.5498 15.0585Z" fill="#D3766A"/>
<path d="M13.8479 15.4629C13.9363 15.3525 13.9661 15.316 14.0567 15.21C14.1472 15.104 14.2389 14.998 14.3361 14.8986C14.4143 14.8048 14.5081 14.7253 14.6133 14.6633C14.7208 14.6166 14.8406 14.6062 14.9546 14.6335C15.213 14.6865 15.4306 14.8787 15.6382 15.03C15.8701 15.199 16.3583 15.485 16.7559 15.4861C16.8647 15.4921 16.9735 15.4747 17.0751 15.4353C17.1519 15.4103 17.2213 15.3666 17.2772 15.3083C17.4793 15.0377 17.3015 14.6843 17.1093 14.4248C16.7515 13.9444 16.2401 13.5688 15.7398 13.2519C15.6161 13.1735 15.4913 13.0995 15.3665 13.0244C15.2278 12.9294 15.0704 12.865 14.9049 12.8355C14.6321 12.8046 14.1539 13.0332 14.0059 13.1017C13.9948 13.1072 13.9893 13.0884 14.0003 13.0829C14.1793 12.9968 14.6321 12.7019 15.0705 12.7726C15.2287 12.8141 15.3783 12.8832 15.5123 12.9769C15.6581 13.0597 15.8017 13.1481 15.943 13.2386C16.2201 13.414 16.483 13.6108 16.7294 13.8273C16.9773 14.0292 17.1861 14.2747 17.3456 14.5518C17.4111 14.6748 17.442 14.8133 17.4352 14.9525C17.4284 15.0917 17.3841 15.2265 17.307 15.3425C17.1645 15.5292 16.9028 15.5502 16.7835 15.5524C16.6661 15.5544 16.5491 15.5403 16.4356 15.5104C16.1851 15.4269 15.9408 15.3257 15.7045 15.2078C15.4759 15.0863 15.2793 14.9019 15.0418 14.8003C14.986 14.7741 14.9255 14.7592 14.8639 14.7566C14.8023 14.7539 14.7408 14.7635 14.6829 14.7848C14.5753 14.8414 14.4767 14.9136 14.3902 14.9991C14.208 15.1427 14.0397 15.3031 13.8877 15.4784C13.8457 15.5281 13.8104 15.5071 13.8479 15.4629Z" fill="#263238"/>
<path d="M11.1299 15.6659C11.3419 15.3346 11.7925 13.9143 12.1239 13.5002C12.4552 13.086 13.8987 11.6878 14.4873 11.8192C15.2284 11.9849 14.2996 13.255 13.8457 13.7652C13.3917 14.2755 13.3553 15.2319 13.3553 15.2319L11.1299 15.6659Z" fill="#D3766A"/>
<path d="M14.4902 12.9016C14.3311 13.0629 14.1865 13.2451 14.0484 13.4207C13.9039 13.5828 13.7714 13.7551 13.6519 13.9365C13.5484 14.1241 13.4764 14.3274 13.4388 14.5384C13.4178 14.6411 13.4023 14.7449 13.3902 14.8498C13.378 14.9547 13.3747 15.0806 13.3604 15.1944C13.361 15.1963 13.3623 15.198 13.364 15.1992C13.3657 15.2004 13.3677 15.2011 13.3697 15.2011C13.3718 15.2011 13.3738 15.2004 13.3755 15.1992C13.3772 15.198 13.3784 15.1963 13.3791 15.1944C13.4151 14.987 13.4649 14.7822 13.5282 14.5814C13.5886 14.3723 13.6743 14.1713 13.7833 13.9828C14.0042 13.6096 14.2969 13.2871 14.5178 12.9149C14.5233 12.9038 14.5012 12.8906 14.4902 12.9016Z" fill="#263238"/>
<path d="M13.344 15.3921C13.3365 15.569 13.3547 15.7461 13.3981 15.9178C13.4365 16.09 13.4867 16.2594 13.5483 16.4247C13.6074 16.5903 13.6756 16.7525 13.7526 16.9107C13.8255 17.0697 13.9205 17.2166 14.011 17.3712C14.2053 17.6755 14.35 18.0088 14.4395 18.3586C14.5223 18.7086 14.5421 19.0706 14.4981 19.4276C14.5016 19.0736 14.4555 18.7208 14.3611 18.3796C14.2571 18.0439 14.1085 17.7237 13.9194 17.4275C13.8232 17.276 13.7361 17.1189 13.6587 16.9571C13.583 16.7934 13.5184 16.6247 13.4654 16.4523C13.3649 16.1111 13.2788 15.7477 13.344 15.3921Z" fill="#263238"/>
<path d="M15.1847 17.0884C15.4262 17.0673 15.6501 16.9537 15.8098 16.7714C15.9622 16.619 16.1047 16.4555 16.2593 16.3042C16.4047 16.1475 16.5721 16.0128 16.7563 15.9044C16.9736 15.7985 17.2049 15.7241 17.4433 15.6836C17.6704 15.625 17.9086 15.625 18.1357 15.6836C18.3202 15.7399 18.5278 15.8934 18.4671 16.1176C18.4321 16.2187 18.3785 16.3123 18.3091 16.3937C18.2433 16.475 18.1721 16.5517 18.096 16.6234C17.9436 16.7703 17.7779 16.9061 17.6399 17.0652C17.4543 17.2861 17.3472 17.5544 17.2246 17.8096C17.1793 17.9045 16.8933 18.544 16.7828 18.7627C16.6887 18.9498 16.5778 19.1279 16.4515 19.295C16.3265 19.4485 16.1923 19.5942 16.0495 19.7313C15.8941 19.8805 15.7553 20.046 15.6353 20.2249C15.6353 20.2338 15.6188 20.2249 15.6221 20.2161C15.7557 19.8616 16.0473 19.5943 16.3101 19.3326C16.6503 18.9957 17.2853 17.4186 17.4146 17.1999C17.6222 16.8333 17.9866 16.6201 18.2362 16.2921C18.2937 16.217 18.382 16.1077 18.3655 16.0049C18.3506 15.9573 18.3238 15.9143 18.2876 15.8799C18.2515 15.8455 18.2072 15.8209 18.1589 15.8084C17.937 15.749 17.7026 15.7552 17.4841 15.826C17.256 15.8705 17.0337 15.9409 16.8215 16.0359C16.639 16.1318 16.4709 16.253 16.3223 16.3959C16.15 16.5549 15.991 16.7184 15.8043 16.8653C15.632 17.0183 15.4096 17.1028 15.1792 17.1027C15.1704 17.1061 15.1726 17.0895 15.1847 17.0884Z" fill="#263238"/>
<path d="M17.8744 13.6151C17.7098 13.5621 17.5431 13.5047 17.3818 13.4539V13.4473C17.5751 13.4937 17.7739 13.5268 17.9683 13.5721C18.0479 13.5826 18.1245 13.6093 18.1935 13.6505C18.2624 13.6917 18.3222 13.7466 18.3692 13.8117C18.4025 13.88 18.4177 13.9557 18.4133 14.0315C18.4088 14.1074 18.3849 14.1808 18.3438 14.2447C18.2475 14.3796 18.1236 14.4925 17.9804 14.576C17.9797 14.5765 17.9789 14.5769 17.978 14.577C17.9772 14.5772 17.9763 14.5773 17.9754 14.5771C17.9745 14.5769 17.9737 14.5766 17.9729 14.5761C17.9722 14.5757 17.9716 14.5751 17.971 14.5743C17.9705 14.5736 17.9702 14.5728 17.97 14.5719C17.9698 14.5711 17.9698 14.5702 17.9699 14.5693C17.9701 14.5684 17.9704 14.5676 17.9709 14.5668C17.9714 14.5661 17.972 14.5654 17.9727 14.5649C18.1748 14.4037 18.4829 14.0956 18.2599 13.8272C18.1538 13.7218 18.0202 13.6483 17.8744 13.6151Z" fill="#263238"/>
<path d="M17.3437 15.2008C17.5253 15.1947 17.7015 15.1373 17.8518 15.0352C17.9127 14.9875 17.9584 14.923 17.9832 14.8496C17.9957 14.8096 18.0017 14.7678 18.0009 14.7259C18.004 14.6818 17.9915 14.638 17.9655 14.6022C17.9567 14.5945 17.9732 14.5846 17.9766 14.5945C17.9799 14.6044 18.0042 14.6365 18.0152 14.6586C18.0247 14.6772 18.0321 14.6968 18.0373 14.7171C18.0473 14.7575 18.0495 14.7995 18.0439 14.8408C18.0313 14.9312 17.9875 15.0144 17.9202 15.076C17.8416 15.1424 17.7485 15.1896 17.6484 15.2137C17.5483 15.2379 17.444 15.2384 17.3437 15.2152C17.3423 15.2146 17.3411 15.2136 17.3402 15.2123C17.3393 15.2111 17.3389 15.2096 17.3389 15.208C17.3389 15.2065 17.3393 15.205 17.3402 15.2037C17.3411 15.2024 17.3423 15.2014 17.3437 15.2008Z" fill="#263238"/>
<path d="M14.8795 21.3382C14.6983 22.7629 12.6551 30.2564 11.998 31.4039C11.3409 32.5514 9.63897 33.2814 8.82612 31.4989C8.01326 29.7163 9.56277 20.395 9.96146 18.914C10.1823 18.0901 14.9446 20.8224 14.8795 21.3382Z" fill="#D3766A"/>
<path d="M15.6421 22.1699L9.50376 19.7026C9.50376 19.7026 8.28116 28.3624 8.60697 30.9324C8.8411 32.7768 11.0831 33.7597 12.4724 31.0219C13.8618 28.284 15.6421 22.1699 15.6421 22.1699Z" fill="#EBEBEB"/>
<path d="M15.0139 23.2909C14.0895 22.9596 10.3566 21.4388 9.57243 21.0567C9.51831 21.0302 9.52162 20.9893 9.58237 21.0092C12.3766 21.9513 14.1359 22.8768 15.0261 23.2534C15.0482 23.2633 15.0371 23.3042 15.0139 23.2909Z" fill="#263238"/>
<path d="M13.8341 27.9604C14.2759 26.7455 14.6812 25.5307 15.0302 24.2948C15.1274 23.948 15.2224 23.6012 15.3129 23.2533C15.4035 22.9055 15.4896 22.583 15.5625 22.2439C15.4311 22.1787 14.8623 21.9126 14.7983 21.8684C14.7942 21.8652 14.7914 21.8607 14.7902 21.8556C14.7891 21.8506 14.7896 21.8453 14.7917 21.8407C14.7939 21.836 14.7976 21.8321 14.8021 21.8298C14.8067 21.8274 14.812 21.8266 14.817 21.8275C14.8888 21.8441 15.5438 22.107 15.6862 22.1843C15.7061 22.1942 15.5382 22.858 15.4653 23.1782C15.3924 23.4985 15.314 23.81 15.2323 24.1236C15.0703 24.7451 14.8925 25.3628 14.6989 25.9769C14.4912 26.6395 14.267 27.2937 14.0263 27.9394C13.8175 28.4949 13.2731 29.5176 13.8341 27.9604Z" fill="#263238"/>
<path d="M25.3629 36.4692H24.9277V44.9578H25.3629V36.4692Z" fill="#263238"/>
<path d="M34.6371 44.3623H25.3633V44.9565H34.6371V44.3623Z" fill="#263238"/>
<path d="M28.5328 35.9057L28.5007 43.0115C28.4997 43.2339 28.4104 43.4467 28.2525 43.6031C28.0946 43.7596 27.8809 43.8469 27.6586 43.8459C27.4363 43.8449 27.2235 43.7556 27.067 43.5977C26.9105 43.4397 26.8232 43.2261 26.8242 43.0038L26.8563 35.8979L28.5328 35.9057Z" fill="#EBEBEB"/>
<path d="M28.4261 37.9612L28.404 43.0062C28.4036 43.1035 28.384 43.1998 28.3463 43.2896C28.3087 43.3793 28.2537 43.4608 28.1846 43.5293C28.1155 43.5978 28.0336 43.652 27.9435 43.6888C27.8534 43.7257 27.757 43.7444 27.6596 43.744C27.5623 43.7435 27.466 43.7239 27.3763 43.6863C27.2865 43.6486 27.2051 43.5937 27.1366 43.5246C27.0681 43.4555 27.0139 43.3735 26.977 43.2834C26.9402 43.1934 26.9214 43.0969 26.9219 42.9996L26.944 37.9546L28.4261 37.9612Z" fill="#C7C7C7"/>
<path d="M28.7979 35.2805L26.5957 35.2705L26.5907 36.3749L28.7929 36.3849L28.7979 35.2805Z" fill="#25CA80"/>
<path d="M31.1138 35.9057L31.0818 43.0115C31.0808 43.2339 30.9915 43.4467 30.8335 43.6031C30.6756 43.7596 30.462 43.8469 30.2397 43.8459C30.0174 43.8449 29.8045 43.7556 29.6481 43.5977C29.4916 43.4397 29.4043 43.2261 29.4053 43.0038L29.4373 35.8979L31.1138 35.9057Z" fill="#EBEBEB"/>
<path d="M31.0091 37.9612L30.987 43.0062C30.9861 43.2028 30.9072 43.3909 30.7676 43.5293C30.628 43.6676 30.4392 43.7449 30.2426 43.744C30.0461 43.7431 29.858 43.6642 29.7196 43.5246C29.5812 43.385 29.504 43.1961 29.5049 42.9996L29.5281 37.9546L31.0091 37.9612Z" fill="#37474F"/>
<path d="M31.3809 35.2815L29.1787 35.2715L29.1737 36.3759L31.3759 36.3859L31.3809 35.2815Z" fill="#455A64"/>
<path d="M34.636 39.6387V40.4328H25.3633V39.6387H26.8686V39.9048C26.8686 40.0363 27.2397 40.1412 27.6947 40.1412C28.1497 40.1412 28.5208 40.0363 28.5208 39.9048V39.6387H29.4574V39.9048C29.4574 40.0363 29.8263 40.1412 30.2824 40.1412C30.7385 40.1412 31.1074 40.0363 31.1074 39.9048V39.6387H32.0406V39.9048C32.0406 40.0363 32.4095 40.1412 32.8656 40.1412C33.3217 40.1412 33.6917 40.0363 33.6917 39.9048V39.6387H34.636Z" fill="#455A64"/>
<path d="M34.6371 40.4326H25.3633V40.7529H34.6371V40.4326Z" fill="#263238"/>
<path d="M35.0709 36.4692H34.6357V44.9578H35.0709V36.4692Z" fill="#263238"/>
<path d="M17.4482 43.9216H9.33398C9.33398 43.9216 10.4152 40.3345 10.9475 39.0798C11.0315 39.1511 11.1229 39.2129 11.2203 39.2643C11.2978 39.3055 11.3792 39.3388 11.4633 39.3637C11.5154 39.3805 11.5685 39.3938 11.6223 39.4034H11.64L11.693 39.4101C12.1503 39.4476 12.814 39.1008 13.4601 38.8645C13.7359 38.7519 14.027 38.6815 14.3238 38.6557C14.8914 38.6314 15.4978 38.9197 15.849 39.1218C16.3725 40.3676 17.4482 43.9216 17.4482 43.9216Z" fill="#25CA80"/>
<path d="M13.4551 38.867C12.7792 39.1155 12.079 39.4877 11.6218 39.4038C11.3722 39.3574 11.1393 39.2458 10.947 39.0802C10.9072 38.8593 11.5908 38.581 12.4479 38.6561C12.7887 38.6993 13.1256 38.7698 13.4551 38.867Z" fill="#25CA80"/>
<g opacity="0.2">
<path d="M13.4551 38.867C12.7792 39.1155 12.079 39.4877 11.6218 39.4038C11.3722 39.3574 11.1393 39.2458 10.947 39.0802C10.9072 38.8593 11.5908 38.581 12.4479 38.6561C12.7887 38.6993 13.1256 38.7698 13.4551 38.867Z" fill="black"/>
</g>
<path opacity="0.3" d="M10.4611 41.4796C10.4433 41.4797 10.4257 41.4763 10.4092 41.4697C10.3775 41.4557 10.3527 41.4297 10.3401 41.3974C10.3275 41.3652 10.3281 41.3292 10.3418 41.2974C11.0155 39.759 12.0912 37.2298 12.1089 36.9902V34.2092C12.1119 34.1766 12.127 34.1463 12.1512 34.1242C12.1754 34.1021 12.207 34.0898 12.2398 34.0898C12.2726 34.0898 12.3042 34.1021 12.3284 34.1242C12.3526 34.1463 12.3677 34.1766 12.3707 34.2092V36.999C12.3707 37.2906 10.999 40.4459 10.5782 41.4068C10.5675 41.4287 10.5509 41.4472 10.5302 41.4601C10.5095 41.473 10.4855 41.4798 10.4611 41.4796Z" fill="white"/>
<path opacity="0.3" d="M11.052 40.8547C11.0487 40.8557 11.0453 40.8557 11.042 40.8547C11.0389 40.8534 11.036 40.8515 11.0336 40.849C11.0312 40.8466 11.0293 40.8436 11.0281 40.8404C11.0268 40.8372 11.0263 40.8338 11.0264 40.8304C11.0265 40.827 11.0273 40.8236 11.0288 40.8205C11.5655 39.5824 12.5926 37.1936 12.5926 36.9992V34.5485C12.5926 34.5414 12.5954 34.5347 12.6004 34.5297C12.6054 34.5248 12.6121 34.522 12.6191 34.522C12.6226 34.522 12.626 34.5227 12.6291 34.524C12.6323 34.5254 12.6351 34.5273 12.6375 34.5298C12.6399 34.5323 12.6417 34.5352 12.6429 34.5384C12.6441 34.5416 12.6447 34.5451 12.6445 34.5485V36.9992C12.6445 37.2543 11.1403 40.6935 11.0763 40.8404C11.0741 40.8449 11.0706 40.8487 11.0663 40.8512C11.062 40.8538 11.057 40.855 11.052 40.8547Z" fill="white"/>
<g opacity="0.2">
<path d="M17.4482 43.9218H9.33398C9.33398 43.9218 10.4152 40.3347 10.9475 39.08L11.0039 38.9475C11.4368 37.9248 11.8079 37.0247 11.8079 36.9143V33.5215H14.9654V36.9143C14.9654 37.0247 15.3785 38.0297 15.849 39.1231C16.3725 40.3678 17.4482 43.9218 17.4482 43.9218Z" fill="white"/>
<path d="M17.4479 43.9217L13.4024 43.9449L9.33375 43.9582H9.28516L9.29841 43.9118C9.55905 43.0474 9.8278 42.1852 10.1046 41.3252C10.2449 40.8967 10.3863 40.4671 10.5354 40.0408C10.6845 39.6145 10.8435 39.1893 11.0235 38.7762C11.2035 38.3632 11.3714 37.9435 11.5382 37.5249L11.6597 37.2101L11.716 37.0522C11.7338 37.0047 11.7468 36.9555 11.7546 36.9053V36.2283L11.7602 33.5214V33.4717H11.8099L14.9674 33.4783H15.0105V33.5214V36.2294V36.9064C15.0175 36.9587 15.0309 37.0098 15.0502 37.0588L15.0999 37.2201L15.2214 37.536C15.3871 37.9545 15.5616 38.3709 15.7361 38.7873C16.0842 39.621 16.3901 40.4718 16.6528 41.3363C16.9255 42.19 17.1895 43.057 17.4479 43.9217ZM17.4479 43.9217C17.1785 43.0603 16.9012 42.2014 16.6163 41.3451C16.4716 40.9166 16.3258 40.4903 16.1745 40.0662C16.0232 39.6421 15.862 39.2213 15.6787 38.8082C15.4953 38.3952 15.3263 37.9766 15.1585 37.5569L15.0348 37.2411L14.9762 37.0809C14.954 37.0249 14.9392 36.9663 14.9321 36.9064V36.2261L14.9254 33.5181L14.9685 33.5611L11.811 33.5678L11.8607 33.5181V36.225V36.902C11.8532 36.964 11.838 37.0249 11.8154 37.0831L11.7569 37.2433L11.6332 37.5591C11.4653 37.9788 11.2886 38.3941 11.113 38.8105C10.9374 39.2268 10.7717 39.6421 10.6215 40.0684C10.4713 40.4947 10.3266 40.921 10.1853 41.3484C9.904 42.2055 9.63158 43.0654 9.36799 43.9283L9.33375 43.882L13.3792 43.8952L17.4479 43.9217Z" fill="#263238"/>
<path d="M11.8359 34.2746C11.9597 34.2453 12.0865 34.2313 12.2136 34.2326C12.3412 34.2306 12.4685 34.2447 12.5925 34.2746C12.3432 34.3292 12.0852 34.3292 11.8359 34.2746Z" fill="#263238"/>
<path d="M11.8359 34.6664C11.895 34.6385 11.9595 34.624 12.0248 34.624C12.0901 34.624 12.1546 34.6385 12.2136 34.6664C12.1543 34.6933 12.0899 34.7073 12.0248 34.7073C11.9597 34.7073 11.8953 34.6933 11.8359 34.6664Z" fill="#263238"/>
<path d="M11.8359 34.9658C11.8948 34.9376 11.9595 34.9236 12.0248 34.925C12.0901 34.9231 12.1549 34.9371 12.2136 34.9658C12.155 34.9949 12.0902 35.0093 12.0248 35.0078C11.9594 35.0088 11.8947 34.9944 11.8359 34.9658Z" fill="#263238"/>
<path d="M11.8359 35.2665C11.895 35.2386 11.9595 35.2241 12.0248 35.2241C12.0901 35.2241 12.1546 35.2386 12.2136 35.2665C12.1543 35.2934 12.0899 35.3074 12.0248 35.3074C11.9597 35.3074 11.8953 35.2934 11.8359 35.2665Z" fill="#263238"/>
<path d="M11.8359 35.5416C11.9597 35.5127 12.0866 35.499 12.2136 35.5007C12.3411 35.4984 12.4684 35.5121 12.5925 35.5416C12.3434 35.5975 12.085 35.5975 11.8359 35.5416Z" fill="#263238"/>
<path d="M11.8359 35.9337C11.8947 35.9051 11.9594 35.8908 12.0248 35.8917C12.0902 35.8902 12.155 35.9046 12.2136 35.9337C12.1543 35.9606 12.0899 35.9745 12.0248 35.9745C11.9597 35.9745 11.8953 35.9606 11.8359 35.9337Z" fill="#263238"/>
<path d="M11.8359 36.2327C11.8953 36.2058 11.9597 36.1919 12.0248 36.1919C12.0899 36.1919 12.1543 36.2058 12.2136 36.2327C12.1546 36.2606 12.0901 36.2751 12.0248 36.2751C11.9595 36.2751 11.895 36.2606 11.8359 36.2327Z" fill="#263238"/>
<path d="M11.8359 36.5333C11.8947 36.5047 11.9594 36.4904 12.0248 36.4913C12.0902 36.4898 12.155 36.5042 12.2136 36.5333C12.1549 36.562 12.0901 36.576 12.0248 36.5741C11.9595 36.5755 11.8948 36.5615 11.8359 36.5333Z" fill="#263238"/>
</g>
<path d="M2.51943 39.5723H3.24835C3.37134 39.5723 3.49312 39.5965 3.60675 39.6436C3.72038 39.6906 3.82362 39.7596 3.91059 39.8466C3.99756 39.9335 4.06654 40.0368 4.11361 40.1504C4.16067 40.264 4.1849 40.3858 4.1849 40.5088V44.0043H1.58398V40.5088C1.58398 40.2606 1.6825 40.0226 1.8579 39.847C2.0333 39.6714 2.27123 39.5726 2.51943 39.5723Z" fill="#DBDBDB"/>
<path d="M3.55561 38.9219H2.21484V39.7005H3.55561V38.9219Z" fill="#DBDBDB"/>
<path d="M3.79198 38.5586H1.97852V39.2522H3.79198V38.5586Z" fill="#25CA80"/>
<path d="M3.72124 41.2168H1.80176V42.9706H3.72124V41.2168Z" fill="white"/>
<path d="M5.6542 39.5723H6.38311C6.6315 39.5723 6.86972 39.6709 7.04536 39.8466C7.22099 40.0222 7.31966 40.2604 7.31966 40.5088V44.0043H4.71875V40.5088C4.71875 40.2606 4.81727 40.0226 4.99267 39.847C5.16807 39.6714 5.406 39.5726 5.6542 39.5723Z" fill="#DBDBDB"/>
<path d="M6.68842 38.9219H5.34766V39.7005H6.68842V38.9219Z" fill="#DBDBDB"/>
<path d="M6.92479 38.5586H5.11133V39.2522H6.92479V38.5586Z" fill="#455A64"/>
<path d="M6.85406 41.2168H4.93457V42.9706H6.85406V41.2168Z" fill="white"/>
<path d="M45.1817 40.9289H44.2021C44.2021 40.9289 43.968 37.3229 41.7856 37.1418C40.6304 37.0468 39.5657 37.8685 38.7363 38.7929C39.5569 37.8619 41.0125 36.6592 42.3997 36.6592C44.4904 36.6592 45.1817 40.9289 45.1817 40.9289Z" fill="#263238"/>
<path d="M38.7139 29.7585L40.217 26.6948L40.725 27.3829L39.4362 29.7585H38.7139Z" fill="#263238"/>
<path d="M40.8295 26.894L39.1152 30.144L39.8948 30.5552L41.609 27.3052L40.8295 26.894Z" fill="#455A64"/>
<path d="M39.8955 30.5594L40.3627 30.4324L41.7741 27.8182L41.6107 27.3091L39.8955 30.5594Z" fill="#37474F"/>
<path d="M36.1372 30.0988L36.0918 30.0786C35.944 30.0131 35.7711 30.0797 35.7056 30.2275L34.9994 31.8196C34.9338 31.9673 35.0005 32.1402 35.1482 32.2058L35.1937 32.2259C35.3414 32.2915 35.5143 32.2248 35.5799 32.0771L36.2861 30.485C36.3516 30.3372 36.2849 30.1643 36.1372 30.0988Z" fill="#37474F"/>
<path d="M37.9253 31.1706L37.8798 31.1504C37.7321 31.0849 37.5592 31.1515 37.4936 31.2993L36.7875 32.8914C36.7219 33.0391 36.7886 33.212 36.9363 33.2776L36.9818 33.2977C37.1295 33.3633 37.3024 33.2966 37.368 33.1488L38.0741 31.5568C38.1397 31.409 38.073 31.2361 37.9253 31.1706Z" fill="#37474F"/>
<path d="M36.9588 30.7977L36.8781 30.7618C36.6779 30.673 36.4437 30.7633 36.3549 30.9635L35.4615 32.9776C35.3727 33.1778 35.463 33.412 35.6632 33.5008L35.7439 33.5366C35.9441 33.6254 36.1784 33.5351 36.2671 33.3349L37.1605 31.3209C37.2493 31.1207 37.159 30.8864 36.9588 30.7977Z" fill="#37474F"/>
<path d="M40.369 21.8816L40.2882 21.8458C40.088 21.757 39.8538 21.8473 39.765 22.0475L38.8717 24.0616C38.7829 24.2617 38.8732 24.496 39.0733 24.5848L39.1541 24.6206C39.3543 24.7094 39.5885 24.6191 39.6773 24.4189L40.5707 22.4048C40.6594 22.2047 40.5691 21.9704 40.369 21.8816Z" fill="#37474F"/>
<path d="M41.6883 22.4647L41.6076 22.4288C41.4074 22.34 41.1731 22.4303 41.0844 22.6305L40.191 24.6446C40.1022 24.8448 40.1925 25.079 40.3927 25.1678L40.4734 25.2036C40.6736 25.2924 40.9078 25.2021 40.9966 25.0019L41.89 22.9878C41.9788 22.7877 41.8885 22.5534 41.6883 22.4647Z" fill="#37474F"/>
<path d="M35.7158 30.1428L38.8712 23.5737C38.8712 23.5737 39.7724 23.6036 41.3318 24.6859L37.9799 31.2395C37.1588 31.0307 36.3886 30.6577 35.7158 30.1428Z" fill="#37474F"/>
<path d="M38.6068 31.7895C38.6068 31.7895 35.6337 30.9115 34.8164 30.1074L35.0771 29.521C36.4662 29.7394 37.7735 30.3195 38.8674 31.203L38.6068 31.7895Z" fill="#455A64"/>
<path d="M41.4452 24.8725C41.4452 24.8725 40.2679 23.8697 38.6709 23.5682L38.9437 22.9873C40.6312 22.9586 41.7169 24.2982 41.7169 24.2982L41.4452 24.8725Z" fill="#455A64"/>
<path d="M39.2536 28.8264C39.2536 28.8264 37.9526 27.9661 36.8316 27.6878C36.8156 27.6816 36.8012 27.672 36.7892 27.6598C36.7772 27.6475 36.768 27.6328 36.7621 27.6167C36.7563 27.6006 36.7539 27.5835 36.7552 27.5664C36.7565 27.5493 36.7615 27.5327 36.7697 27.5177L37.0757 26.8672C37.0922 26.8382 37.1185 26.8161 37.1498 26.8047C37.1812 26.7934 37.2156 26.7936 37.2468 26.8053C38.1223 27.0173 38.9458 27.4043 39.6677 27.9429C39.6985 27.9575 39.7223 27.9837 39.7339 28.0158C39.7455 28.0478 39.7439 28.0832 39.7296 28.1141L39.4237 28.7635C39.4167 28.7789 39.4068 28.7928 39.3945 28.8043C39.3822 28.8159 39.3677 28.8248 39.3518 28.8307C39.336 28.8365 39.3191 28.8392 39.3023 28.8385C39.2854 28.8377 39.2688 28.8336 39.2536 28.8264Z" fill="#455A64"/>
<path d="M41.3506 28.0235L41.5858 27.9131C41.5858 27.9131 44.8671 29.3787 44.6992 33.2872C44.5888 35.8782 42.6958 37.6707 42.6958 37.6707C42.6958 37.6707 44.9952 34.7031 44.1315 31.9564C43.2679 29.2097 41.3506 28.0235 41.3506 28.0235Z" fill="#455A64"/>
<path d="M44.4311 33.5566C44.2423 35.9466 42.6928 37.6706 42.6928 37.6706H40.3392C39.2602 36.2514 37.5439 35.422 37.5439 35.422L39.4215 35.7533L39.5882 35.6671L39.9196 35.4982C39.9196 35.4982 40.3956 36.2271 41.1123 36.2105C41.259 36.2076 41.4036 36.1753 41.5375 36.1155C42.3747 35.7533 42.7977 33.5301 42.4067 32.2026C42.0157 30.8751 40.3028 30.0523 40.3028 30.0523L41.3498 28.0234C43.2218 28.8639 44.6189 31.1666 44.4311 33.5566Z" fill="#37474F"/>
<path d="M41.117 36.2095C41.117 36.2095 40.5007 36.4183 39.5918 35.6651L39.9231 35.4961C39.9231 35.4961 40.3991 36.225 41.1159 36.2084L41.117 36.2095Z" fill="#455A64"/>
<path d="M44.2016 40.9287H37.1885C37.3641 40.6548 37.6667 40.1622 38.072 39.62L38.0974 39.5846C38.1085 39.5703 38.1195 39.557 38.1294 39.5427C38.1356 39.5331 38.1422 39.5239 38.1493 39.5151L38.2101 39.4366L38.2277 39.4134L38.2929 39.3295C38.3282 39.2842 38.3669 39.2356 38.41 39.1837C38.453 39.1318 38.4707 39.1097 38.5016 39.0733C38.5502 39.0159 38.601 38.9551 38.6563 38.8922L38.7424 38.7939C39.5718 37.8695 40.6365 37.0478 41.7917 37.1428C43.9674 37.3228 44.2016 40.9287 44.2016 40.9287Z" fill="#455A64"/>
<path d="M39.2003 34.9096L32.3018 34.334L32.2288 35.2079L39.1274 35.7835L39.2003 34.9096Z" fill="#263238"/>
<path d="M40.7222 35.0454L39.1924 34.9175L39.1193 35.7913L40.6491 35.9193L40.7222 35.0454Z" fill="#37474F"/>
<path d="M38.5696 40.3512C38.5696 40.3982 38.5557 40.4441 38.5296 40.4831C38.5035 40.5222 38.4664 40.5526 38.423 40.5706C38.3797 40.5886 38.3319 40.5933 38.2859 40.5841C38.2398 40.5749 38.1975 40.5523 38.1643 40.5191C38.1311 40.4859 38.1085 40.4436 38.0993 40.3975C38.0901 40.3515 38.0948 40.3037 38.1128 40.2603C38.1308 40.217 38.1612 40.1799 38.2003 40.1538C38.2393 40.1277 38.2852 40.1138 38.3322 40.1138C38.3952 40.1138 38.4555 40.1388 38.5001 40.1833C38.5446 40.2278 38.5696 40.2882 38.5696 40.3512Z" fill="#263238"/>
<path d="M43.5013 40.3512C43.5013 40.3981 43.4874 40.444 43.4613 40.483C43.4353 40.5221 43.3983 40.5525 43.3549 40.5705C43.3116 40.5885 43.2639 40.5933 43.2179 40.5842C43.1719 40.5751 43.1296 40.5526 43.0963 40.5195C43.0631 40.4864 43.0404 40.4442 43.0311 40.3982C43.0218 40.3522 43.0263 40.3045 43.0441 40.2611C43.0619 40.2177 43.0922 40.1805 43.1311 40.1543C43.17 40.1281 43.2158 40.114 43.2627 40.1138C43.294 40.1136 43.325 40.1197 43.3539 40.1315C43.3829 40.1434 43.4092 40.1609 43.4313 40.1829C43.4535 40.205 43.4711 40.2312 43.4831 40.2601C43.4951 40.289 43.5013 40.3199 43.5013 40.3512Z" fill="#263238"/>
<path d="M41.5442 37.9084C41.5442 37.9553 41.5303 38.0012 41.5042 38.0403C41.4781 38.0793 41.441 38.1098 41.3977 38.1277C41.3543 38.1457 41.3065 38.1504 41.2605 38.1412C41.2144 38.1321 41.1721 38.1095 41.1389 38.0763C41.1057 38.043 41.0831 38.0007 41.0739 37.9547C41.0647 37.9086 41.0694 37.8609 41.0874 37.8175C41.1054 37.7741 41.1358 37.737 41.1749 37.7109C41.2139 37.6848 41.2598 37.6709 41.3068 37.6709C41.3698 37.6709 41.4302 37.6959 41.4747 37.7404C41.5192 37.785 41.5442 37.8454 41.5442 37.9084Z" fill="#263238"/>
<path d="M39.72 25.1632C39.72 25.2102 39.7061 25.2561 39.68 25.2952C39.6539 25.3342 39.6168 25.3646 39.5734 25.3826C39.53 25.4006 39.4823 25.4053 39.4362 25.3961C39.3902 25.387 39.3479 25.3643 39.3147 25.3311C39.2815 25.2979 39.2588 25.2556 39.2497 25.2096C39.2405 25.1635 39.2452 25.1158 39.2632 25.0724C39.2812 25.029 39.3116 24.9919 39.3506 24.9658C39.3897 24.9397 39.4356 24.9258 39.4826 24.9258C39.5455 24.9258 39.6059 24.9508 39.6505 24.9953C39.695 25.0399 39.72 25.1003 39.72 25.1632Z" fill="#263238"/>
<path d="M37.6634 29.5211C37.6634 29.5681 37.6495 29.614 37.6234 29.6531C37.5973 29.6921 37.5602 29.7225 37.5168 29.7405C37.4734 29.7585 37.4257 29.7632 37.3796 29.754C37.3335 29.7449 37.2912 29.7223 37.258 29.689C37.2248 29.6558 37.2022 29.6135 37.193 29.5675C37.1839 29.5214 37.1886 29.4737 37.2066 29.4303C37.2245 29.3869 37.255 29.3498 37.294 29.3237C37.3331 29.2976 37.379 29.2837 37.4259 29.2837C37.4889 29.2837 37.5493 29.3087 37.5938 29.3532C37.6384 29.3978 37.6634 29.4582 37.6634 29.5211Z" fill="#263238"/>
<path d="M42.012 29.6051C42.012 29.6521 41.9981 29.698 41.972 29.737C41.9459 29.7761 41.9088 29.8065 41.8654 29.8245C41.822 29.8425 41.7743 29.8472 41.7282 29.838C41.6822 29.8289 41.6399 29.8062 41.6067 29.773C41.5734 29.7398 41.5508 29.6975 41.5417 29.6515C41.5325 29.6054 41.5372 29.5576 41.5552 29.5143C41.5732 29.4709 41.6036 29.4338 41.6426 29.4077C41.6817 29.3816 41.7276 29.3677 41.7746 29.3677C41.8375 29.3677 41.8979 29.3927 41.9425 29.4372C41.987 29.4818 42.012 29.5422 42.012 29.6051Z" fill="#263238"/>
<path d="M39.9982 36.7054C40.1293 36.7054 40.2356 36.5991 40.2356 36.4679C40.2356 36.3368 40.1293 36.2305 39.9982 36.2305C39.8671 36.2305 39.7607 36.3368 39.7607 36.4679C39.7607 36.5991 39.8671 36.7054 39.9982 36.7054Z" fill="#263238"/>
</svg>
