<svg width="47" height="48" viewBox="0 0 47 48" fill="none" xmlns="http://www.w3.org/2000/svg">
<path d="M35.2197 23.6798C35.1372 23.7414 35.045 23.789 34.9469 23.8204C34.6771 23.9136 34.3832 23.9099 34.1158 23.8098C33.9305 23.7422 33.7639 23.6317 33.6294 23.4873C33.4748 23.3206 33.3678 23.1154 33.3196 22.8931C33.2925 22.7735 33.284 22.6505 33.2943 22.5283C33.3031 22.4005 33.332 22.2749 33.3799 22.1561C33.4797 21.9039 33.6576 21.6903 33.8877 21.5466C34.1178 21.4029 34.3878 21.3368 34.6582 21.3578C34.9096 21.3776 35.1495 21.4714 35.3476 21.6275C35.5261 21.7683 35.6634 21.9546 35.7452 22.1667C35.8161 22.3507 35.8426 22.5489 35.8224 22.7451C35.7941 23.0293 35.6682 23.295 35.4661 23.4968C35.3946 23.571 35.3114 23.6328 35.2197 23.6798C35.2992 23.6176 35.3751 23.5508 35.447 23.4799C35.6357 23.2768 35.7504 23.0161 35.7727 22.7398C35.7893 22.552 35.7614 22.3629 35.6913 22.1878C35.6111 21.987 35.479 21.8111 35.3085 21.6782C35.2171 21.6065 35.1155 21.5488 35.0072 21.5069C34.8945 21.4616 34.7752 21.4348 34.654 21.4276C34.3986 21.4082 34.1436 21.4709 33.9262 21.6065C33.7088 21.7421 33.5404 21.9436 33.4455 22.1815C33.3996 22.2938 33.3718 22.4126 33.363 22.5336C33.3524 22.6493 33.3595 22.7659 33.3841 22.8794C33.4257 23.0774 33.516 23.262 33.6469 23.4164C33.7778 23.5707 33.9451 23.69 34.1338 23.7633C34.3913 23.8635 34.6751 23.8743 34.9395 23.794C35.1298 23.7358 35.2155 23.6724 35.2197 23.6798Z" fill="#E0E0E0"/>
<path d="M35.4471 25.3239L35.4788 25.3524L35.574 25.4444L35.9461 25.8113H35.9324L36.9094 25.1927L36.902 25.2139C36.8311 25.0151 36.7529 24.791 36.6694 24.5552V24.5435L36.6778 24.534C36.849 24.3512 36.9945 24.146 37.1103 23.9239L37.1166 23.9112H37.8303L37.805 23.9303C37.8864 23.5761 37.9731 23.1986 38.0629 22.8031L38.0778 22.8349L37.4486 22.5325L37.4328 22.5251V22.5071C37.4247 22.256 37.3831 22.0071 37.3091 21.7669L37.3038 21.749L37.3165 21.7363C37.4708 21.584 37.64 21.4191 37.8124 21.2436V21.2837L37.1864 20.3078L37.2255 20.3216L36.5668 20.5521L36.5467 20.5584L36.5319 20.5447C36.3499 20.3744 36.1462 20.229 35.9261 20.1122L35.907 20.1027V20.0815C35.907 19.8627 35.907 19.6248 35.907 19.3826L35.9345 19.4175L34.8127 19.1585L34.8529 19.1394L34.5483 19.7739L34.5399 19.7929H34.5177C34.2691 19.8009 34.0227 19.8418 33.7849 19.9145L33.749 19.905L33.7416 19.8976L33.7257 19.8817L33.6951 19.85L33.6337 19.7876L33.51 19.6639L33.2647 19.4165L33.3091 19.4218L32.3279 20.034L32.3427 19.9917C32.4196 20.2137 32.496 20.4336 32.5722 20.6514L32.5796 20.6715L32.5648 20.6874C32.3938 20.8688 32.2483 21.0726 32.1323 21.2933L32.1217 21.3112H32.1016H31.4027L31.4355 21.2848C31.3467 21.6683 31.2596 22.0436 31.1744 22.4109L31.1564 22.3739L31.7855 22.6784L31.8024 22.6868V22.7059C31.8093 22.9569 31.8502 23.2059 31.924 23.446L31.9293 23.464L31.9156 23.4767L31.4186 23.9673V23.9303L32.0287 24.9125L31.997 24.902L32.6567 24.6736L32.6716 24.6683L32.6832 24.6789C32.8654 24.8502 33.0695 24.9967 33.2901 25.1145L33.3028 25.1208V25.1356C33.3028 25.3894 33.3028 25.6178 33.2975 25.8335L33.2806 25.8134L34.4056 26.0788L34.3876 26.0873L34.6964 25.4603V25.4539H34.7027C34.892 25.4486 35.0804 25.4252 35.2652 25.3841L35.4016 25.3513L35.4471 25.3418L35.4027 25.3577C35.3731 25.3672 35.3287 25.3809 35.2673 25.3958C35.0828 25.4422 34.8939 25.4695 34.7038 25.4772L34.7133 25.4698L34.4141 26.1042L34.4077 26.1158H34.3961L33.2679 25.861H33.252V25.8441C33.252 25.6326 33.252 25.3989 33.252 25.1452L33.2637 25.1663C33.0385 25.048 32.8301 24.9 32.6441 24.7265L32.6694 24.7317L32.0107 24.9633L31.9906 24.9707L31.979 24.9527L31.3647 23.9726L31.352 23.9525L31.3689 23.9356L31.8637 23.4439L31.8563 23.4746C31.7809 23.2307 31.7386 22.9779 31.7305 22.7228L31.7485 22.7503L31.1141 22.4479L31.0908 22.4362L31.0961 22.4109L31.3594 21.2594L31.3647 21.233H31.3922H32.0911L32.0604 21.251C32.1798 21.025 32.3288 20.8159 32.5034 20.6292L32.496 20.6652C32.4199 20.4474 32.3431 20.2275 32.2655 20.0054L32.256 19.979L32.2803 19.9642L33.2605 19.352L33.2848 19.3361L33.3049 19.3562L33.5502 19.6036L33.6729 19.7284L33.7352 19.7908L33.7659 19.8225L33.7818 19.8373L33.7892 19.8458C33.7173 19.8278 33.7691 19.8405 33.7532 19.8362C33.9972 19.7615 34.25 19.7196 34.505 19.7115L34.4743 19.7316L34.7788 19.0972L34.7905 19.0718L34.818 19.0781L35.944 19.3382L35.9715 19.3446V19.3731C35.9715 19.6142 35.9715 19.8532 35.9715 20.072L35.9535 20.0414C36.1792 20.1608 36.3879 20.3098 36.5742 20.4844L36.5404 20.477L37.2002 20.2486L37.2245 20.2391L37.2393 20.2623L37.8504 21.2436L37.8631 21.2647L37.8451 21.2827C37.6728 21.454 37.5026 21.621 37.3482 21.7733L37.3566 21.7426C37.4308 21.9867 37.4724 22.2395 37.4804 22.4944L37.4634 22.469L38.0926 22.7746L38.1126 22.7841L38.1074 22.8053C38.0154 23.2007 37.9266 23.5771 37.8441 23.9313V23.9514H37.824H37.1251L37.1452 23.9387C37.0258 24.1631 36.8768 24.3705 36.7021 24.5552V24.534C36.7846 24.7719 36.8607 24.995 36.9295 25.1949L36.9348 25.2086L36.9221 25.216L35.9377 25.8229H35.9303L35.9239 25.8166L35.5634 25.4444L35.4714 25.3471C35.4627 25.34 35.4546 25.3322 35.4471 25.3239Z" fill="#E0E0E0"/>
<path fill-rule="evenodd" clip-rule="evenodd" d="M37.7465 16.9581C37.4056 17.0631 37.0521 17.1222 36.6955 17.1336L36.2652 18.0228L34.6728 17.6549V16.6663C34.357 16.5 34.0651 16.2919 33.8048 16.0477L32.8722 16.3734L32.0073 14.9861L32.7083 14.2915C32.6035 13.9501 32.5448 13.5963 32.5338 13.2394L31.6436 12.8101L32.0168 11.2146H33.0044C33.1714 10.899 33.3798 10.6071 33.624 10.3465L33.2983 9.41711L34.6855 8.5522L35.3802 9.25322C35.7212 9.14843 36.0747 9.08975 36.4312 9.07876L36.8615 8.18848L38.4539 8.55749V9.54505C38.7691 9.71184 39.0607 9.91985 39.3209 10.1636L40.2535 9.83899L41.1195 11.2252L40.4163 11.9251C40.522 12.2659 40.581 12.6195 40.5919 12.9761L41.4811 13.4065L41.1131 14.9988H40.1256C39.9584 15.3141 39.7501 15.6056 39.506 15.8659L39.8316 16.7984L38.4412 17.6644L37.7465 16.9623V16.9581ZM37.4293 14.6319C37.7236 14.4482 37.9568 14.1814 38.0994 13.8651C38.2421 13.5489 38.2877 13.1974 38.2306 12.8552C38.1735 12.5131 38.0162 12.1955 37.7787 11.9427C37.5411 11.6899 37.2339 11.5132 36.8959 11.435C36.5579 11.3568 36.2043 11.3805 35.8798 11.5033C35.5553 11.626 35.2745 11.8422 35.0729 12.1245C34.8713 12.4068 34.7579 12.7426 34.7471 13.0894C34.7363 13.4361 34.8286 13.7783 35.0123 14.0726C35.134 14.2683 35.2931 14.4381 35.4804 14.5723C35.6678 14.7065 35.8798 14.8025 36.1042 14.8547C36.3287 14.907 36.5613 14.9145 36.7886 14.8768C37.016 14.8391 37.2337 14.757 37.4293 14.6351V14.6319Z" fill="#E0E0E0"/>
<path fill-rule="evenodd" clip-rule="evenodd" d="M41.4979 22.226C41.3164 22.2814 41.1283 22.3127 40.9386 22.319L40.7102 22.7916L39.8643 22.596V22.0674C39.6965 21.9786 39.5411 21.868 39.4023 21.7385L38.9064 21.9109L38.4464 21.1707L38.8197 20.8017C38.7633 20.6204 38.732 20.4322 38.7266 20.2424L38.2529 20.0129L38.4485 19.1671H38.9772C39.0666 18.9997 39.1775 18.8447 39.3071 18.7061L39.1337 18.2102L39.8738 17.7492L40.2439 18.1224C40.4254 18.0669 40.6135 18.0356 40.8032 18.0294L41.0316 17.5557L41.8775 17.7523V18.281C42.0452 18.3695 42.2002 18.4801 42.3385 18.6098L42.8355 18.4375L43.2954 19.1776L42.9222 19.5477C42.9785 19.729 43.0098 19.9172 43.0152 20.107L43.4889 20.3354L43.2933 21.1813H42.7646C42.6755 21.3492 42.5646 21.5045 42.4347 21.6434L42.6081 22.1393L41.868 22.6003L41.4979 22.227V22.226ZM41.3298 20.9899C41.4866 20.8923 41.6108 20.7503 41.6869 20.582C41.763 20.4137 41.7874 20.2267 41.7571 20.0445C41.7269 19.8623 41.6433 19.6932 41.5169 19.5585C41.3905 19.4238 41.227 19.3297 41.0471 19.288C40.8671 19.2463 40.6789 19.2588 40.5061 19.3241C40.3334 19.3894 40.1838 19.5044 40.0765 19.6547C39.9691 19.805 39.9087 19.9837 39.903 20.1683C39.8972 20.3529 39.9463 20.5351 40.0441 20.6917C40.1751 20.9017 40.3841 21.0511 40.6252 21.107C40.8663 21.1629 41.1197 21.1208 41.3298 20.9899Z" fill="#EBEBEB"/>
<path d="M9.05122 12.8693C9.06285 12.8799 8.56695 13.3885 7.94418 14.0038C7.3214 14.6192 6.80859 15.1098 6.79802 15.0992C6.78744 15.0887 7.28334 14.5801 7.90611 13.9647C8.52889 13.3493 9.04064 12.8587 9.05122 12.8693Z" fill="#E0E0E0"/>
<path d="M9.05691 15.0941C9.04633 15.1047 8.52823 14.6162 7.90652 14.004C7.2848 13.3918 6.78256 12.8863 6.79313 12.8747C6.80371 12.8631 7.3218 13.3516 7.94458 13.9648C8.56736 14.5781 9.06854 15.0825 9.05691 15.0941Z" fill="#E0E0E0"/>
<path d="M11.2936 26.9417C11.2936 26.9565 10.6592 26.9015 9.88096 26.8201C9.10275 26.7387 8.47258 26.6584 8.47363 26.6436C8.47469 26.6288 9.10804 26.6827 9.88625 26.7652C10.6645 26.8476 11.2957 26.9259 11.2936 26.9417Z" fill="#E0E0E0"/>
<path d="M11.1822 28.0032C11.1822 28.018 10.5478 27.9641 9.76964 27.8816C8.99143 27.7991 8.3602 27.7209 8.36231 27.7061C8.36442 27.6913 8.99672 27.7452 9.77492 27.8266C10.5531 27.908 11.1844 27.9884 11.1822 28.0032Z" fill="#E0E0E0"/>
<path d="M3.55732 24.6103C3.55732 24.6103 2.71991 24.55 2.79709 26.4289C2.87428 28.3078 3.06566 29.307 3.06566 29.307C3.06566 29.307 3.04134 29.7236 2.71885 29.6422C2.39636 29.5608 1.78945 29.1547 1.48916 29.4582C1.18887 29.7617 1.28932 30.2544 1.70063 30.8222C2.11194 31.39 2.96944 32.6662 3.04768 32.7814C3.12593 32.8967 3.15342 33.1082 2.92503 33.0881C2.69665 33.068 1.15292 32.5446 0.948857 33.2921C0.744789 34.0397 2.15317 35.428 2.30437 35.5866C2.45557 35.7452 2.46403 35.8403 2.4027 35.9344C2.34138 36.0285 1.83914 35.8033 1.394 35.6722C0.948856 35.5411 0.409611 35.4681 0.328196 35.9091C0.24678 36.35 0.866384 37.6399 3.18937 38.9965L4.30698 39.5516L5.36433 38.877C7.53928 37.291 8.02778 35.9492 7.90195 35.5178C7.77613 35.0864 7.24746 35.2144 6.81817 35.3899C6.38889 35.5654 5.91097 35.8382 5.84119 35.7505C5.7714 35.6627 5.76929 35.5654 5.90357 35.3952C6.03785 35.225 7.30032 33.7034 7.02224 32.976C6.74416 32.2485 5.26071 32.9284 5.03549 32.976C4.81028 33.0236 4.82402 32.8036 4.88323 32.6831C4.94245 32.5626 5.67307 31.2028 6.02728 30.598C6.38149 29.9932 6.44176 29.5016 6.10129 29.2235C5.76083 28.9454 5.20678 29.4117 4.89804 29.5248C4.58929 29.638 4.51951 29.2266 4.51951 29.2266C4.51951 29.2266 4.60938 28.2116 4.49836 26.3359C4.38734 24.4601 3.54041 24.6103 3.54041 24.6103" fill="#EBEBEB"/>
<path d="M3.62109 26.2925C3.62193 26.3055 3.62193 26.3186 3.62109 26.3316C3.62109 26.3601 3.62109 26.3982 3.62955 26.4469C3.63695 26.5526 3.64647 26.6996 3.66022 26.8909C3.68559 27.2758 3.71837 27.8341 3.75643 28.5224C3.83256 29.897 3.92244 31.8065 4.01443 33.9149C4.10641 36.0232 4.191 37.9254 4.25973 39.3073C4.29462 39.9946 4.32317 40.5529 4.34326 40.9399C4.35278 41.1312 4.36018 41.2803 4.36546 41.384C4.36546 41.4326 4.36546 41.4717 4.36546 41.4992C4.36618 41.5122 4.36618 41.5253 4.36546 41.5383C4.36546 41.5383 4.36546 41.5256 4.36546 41.4992C4.36546 41.4728 4.36546 41.4336 4.35701 41.384C4.3496 41.2782 4.33903 41.1323 4.32634 40.9409C4.30097 40.5561 4.26819 39.9978 4.23012 39.3084C4.15294 37.9338 4.06412 36.0253 3.97213 33.9159C3.88014 31.8065 3.79556 29.9065 3.72577 28.5235C3.69088 27.8351 3.66233 27.2779 3.6433 26.8909C3.63378 26.6996 3.62638 26.5505 3.62109 26.4469C3.62109 26.3972 3.62109 26.3591 3.62109 26.3316C3.62109 26.3041 3.62109 26.2925 3.62109 26.2925Z" fill="#E0E0E0"/>
<path d="M2.31641 30.0586C2.34154 30.0752 2.36461 30.0947 2.38513 30.1167C2.42848 30.1559 2.49087 30.214 2.56277 30.287C2.70974 30.4329 2.90852 30.6401 3.12316 30.8728L3.66981 31.4712L3.83581 31.651C3.85817 31.6716 3.87772 31.695 3.89396 31.7207C3.86873 31.7042 3.84534 31.6851 3.82418 31.6636C3.78189 31.6235 3.71844 31.5653 3.6476 31.4913C3.50169 31.3443 3.30397 31.135 3.0925 30.9024L2.54162 30.3081L2.37456 30.1284C2.35201 30.1079 2.33244 30.0845 2.31641 30.0586Z" fill="#E0E0E0"/>
<path d="M4.00501 31.6836C3.99655 31.6752 4.40575 31.247 4.9175 30.732C5.42925 30.2171 5.85325 29.7973 5.86171 29.8058C5.87017 29.8142 5.46097 30.2425 4.94816 30.7574C4.43535 31.2723 4.01347 31.6921 4.00501 31.6836Z" fill="#E0E0E0"/>
<path d="M4 34.9225C4.0236 34.9028 4.04953 34.8861 4.07719 34.8728L4.29606 34.7501C4.48109 34.6444 4.73485 34.5027 5.00976 34.3335C5.28467 34.1644 5.52892 34.0037 5.70444 33.8863L5.91591 33.7478C5.94027 33.7287 5.9669 33.7127 5.99521 33.7002C5.97434 33.7229 5.95092 33.7431 5.92542 33.7605C5.8789 33.7975 5.81017 33.8493 5.72453 33.9117C5.55218 34.0354 5.31005 34.2014 5.03408 34.3695C4.75812 34.5376 4.50541 34.6793 4.31297 34.7766C4.21781 34.8242 4.14168 34.8622 4.08776 34.8876C4.05971 34.902 4.03032 34.9137 4 34.9225Z" fill="#E0E0E0"/>
<path d="M2.14941 33.7891C2.17664 33.7975 2.2026 33.8096 2.2266 33.825C2.27524 33.8504 2.34397 33.8895 2.42961 33.9381C2.59879 34.0344 2.83246 34.1708 3.08939 34.323C3.34633 34.4753 3.57683 34.6159 3.74283 34.7195L3.93844 34.8432C3.96353 34.857 3.98665 34.874 4.00717 34.894C3.98019 34.8849 3.9543 34.8728 3.92998 34.858C3.8824 34.8316 3.81262 34.7935 3.72803 34.7449C3.5578 34.6487 3.32412 34.5123 3.06719 34.36C2.81025 34.2078 2.57975 34.0671 2.41375 33.9635L2.21814 33.8419C2.19315 33.8272 2.17006 33.8094 2.14941 33.7891Z" fill="#E0E0E0"/>
<path d="M1.78223 36.647C1.81598 36.66 1.84853 36.6759 1.8795 36.6946L2.14067 36.8384C2.35954 36.961 2.66088 37.1334 2.98654 37.3258C3.3122 37.5182 3.61566 37.6937 3.83242 37.8238L4.08618 37.9792C4.11796 37.9969 4.14804 38.0174 4.17605 38.0406C4.1414 38.0289 4.10836 38.0129 4.07772 37.993L3.81761 37.8502C3.59874 37.7276 3.29846 37.5552 2.97174 37.3628C2.64502 37.1704 2.34262 36.9938 2.12586 36.8648L1.87316 36.7094C1.84036 36.6924 1.80981 36.6715 1.78223 36.647Z" fill="#E0E0E0"/>
<path d="M4.12891 37.9918C4.15851 37.9661 4.19118 37.9441 4.22618 37.9263L4.49686 37.7613C4.72631 37.6207 5.04245 37.4272 5.38503 37.2031C5.72761 36.9789 6.03424 36.7695 6.25523 36.6162L6.51639 36.4354C6.5464 36.4106 6.57944 36.3896 6.61472 36.373C6.58758 36.4009 6.55784 36.426 6.52591 36.4481C6.46669 36.4957 6.37999 36.5613 6.27214 36.6416C6.06067 36.8013 5.75299 37.0159 5.40935 37.239C5.06571 37.4621 4.7464 37.6535 4.51272 37.7867C4.39536 37.8533 4.30125 37.9062 4.23358 37.9411C4.20008 37.9607 4.16508 37.9777 4.12891 37.9918Z" fill="#E0E0E0"/>
<path d="M5.80847 39.9204H2.7168L3.7255 47.5587H4.79976L5.80847 39.9204Z" fill="#E0E0E0"/>
<path d="M2.88086 40.8594C2.88086 40.8594 2.88086 40.87 2.89672 40.8858C2.91708 40.9096 2.94282 40.9281 2.97179 40.9398C3.02575 40.9582 3.08318 40.9641 3.13976 40.9572C3.19635 40.9502 3.25062 40.9305 3.29851 40.8996C3.42328 40.8309 3.53218 40.6955 3.69924 40.6353C3.88488 40.5758 4.08505 40.5799 4.2681 40.6469C4.45393 40.7107 4.63142 40.7966 4.79677 40.9028C4.93396 40.9907 5.07704 41.0692 5.22499 41.1375C5.32604 41.1825 5.43276 41.2134 5.54219 41.2295C5.57197 41.2337 5.602 41.2358 5.63207 41.2358C5.65216 41.2358 5.66273 41.2358 5.66273 41.2358C5.51647 41.2131 5.37411 41.1701 5.23979 41.1079C5.09457 41.0364 4.95338 40.957 4.81686 40.87C4.64934 40.7592 4.46852 40.6701 4.27867 40.6046C4.08499 40.5344 3.87321 40.5322 3.6781 40.5983C3.59584 40.632 3.51974 40.6792 3.45288 40.7378C3.39685 40.7876 3.3375 40.8335 3.27525 40.8753C3.23201 40.9053 3.18273 40.9255 3.13085 40.9345C3.07897 40.9434 3.02576 40.9409 2.97496 40.9271C2.93955 40.9108 2.90761 40.8878 2.88086 40.8594Z" fill="#F5F5F5"/>
<path d="M2.98633 42.2655C2.98633 42.2655 3.01065 42.2338 3.05823 42.1841C3.12859 42.1146 3.21293 42.0609 3.30565 42.0265C3.4434 41.9767 3.58968 41.9548 3.73599 41.962C3.91634 41.976 4.0957 42.0007 4.27312 42.036C4.4546 42.0709 4.64029 42.0784 4.82399 42.0582C4.97391 42.0391 5.12008 41.9974 5.2575 41.9345C5.35173 41.893 5.44109 41.8413 5.52395 41.7801C5.55505 41.7594 5.58285 41.7341 5.60643 41.7051C5.49202 41.7789 5.3726 41.8446 5.24904 41.9017C5.11366 41.9564 4.97131 41.992 4.82611 42.0075C4.64674 42.025 4.46576 42.0161 4.28898 41.981C4.10926 41.9455 3.92733 41.9222 3.74444 41.9113C3.59225 41.9063 3.44069 41.933 3.2993 41.9895C3.20374 42.0274 3.11883 42.088 3.05188 42.1661C3.03408 42.1876 3.01816 42.2106 3.0043 42.2348C2.99267 42.256 2.98633 42.2644 2.98633 42.2655Z" fill="#F5F5F5"/>
<path d="M5.45842 43.0186C5.43269 42.9991 5.40368 42.9845 5.37277 42.9752C5.29073 42.9442 5.20447 42.9256 5.1169 42.9203C4.98748 42.9116 4.85749 42.9191 4.72991 42.9425C4.58505 42.9657 4.43068 43.0048 4.26891 43.0397C4.11782 43.0751 3.96308 43.0925 3.8079 43.0916C3.68208 43.0881 3.55801 43.0612 3.44206 43.0123C3.33604 42.9618 3.2417 42.8897 3.16504 42.8008C3.17716 42.8308 3.19513 42.8581 3.21791 42.8811C3.27667 42.9481 3.34868 43.0021 3.42938 43.0397C3.54801 43.0959 3.67675 43.1275 3.8079 43.1328C3.96688 43.1368 4.12571 43.1204 4.28054 43.0841C4.44548 43.0493 4.59774 43.008 4.73942 42.9784C4.86366 42.9536 4.99025 42.9427 5.1169 42.9456C5.23325 42.9562 5.34791 42.9807 5.45842 43.0186Z" fill="#F5F5F5"/>
<path d="M3.26381 44.0781C3.35849 44.0376 3.46334 44.0273 3.5641 44.0485C3.67392 44.075 3.78035 44.1141 3.8813 44.1648C4.00907 44.2267 4.14698 44.2651 4.28838 44.2779C4.54696 44.3 4.80593 44.2401 5.02852 44.1067C5.09287 44.0658 5.15276 44.0183 5.20721 43.965C5.24422 43.9248 5.2643 43.9015 5.26113 43.8994C5.17933 43.9629 5.09389 44.0215 5.00525 44.0749C4.78665 44.1956 4.53714 44.2486 4.28838 44.2272C3.99549 44.2103 3.77028 44.0358 3.56727 44.0157C3.48921 44.0023 3.40901 44.0096 3.33465 44.0369C3.2839 44.0538 3.26169 44.077 3.26381 44.0781Z" fill="#F5F5F5"/>
<path d="M3.43556 45.5444C3.52434 45.5465 3.61248 45.5288 3.69355 45.4925C3.84898 45.4407 4.04036 45.3223 4.26557 45.2324C4.37028 45.1904 4.4816 45.1671 4.5944 45.1637C4.68558 45.1637 4.77559 45.1843 4.85768 45.224C4.93293 45.2641 4.99831 45.3204 5.04906 45.3889C5.04491 45.3649 5.03472 45.3424 5.01946 45.3234C4.98207 45.269 4.93246 45.2241 4.8746 45.1923C4.78869 45.1448 4.69252 45.1191 4.5944 45.1172C4.47545 45.1175 4.35767 45.1408 4.2476 45.1859C4.01498 45.2779 3.82466 45.3974 3.6798 45.4598C3.53495 45.5221 3.4345 45.5359 3.43556 45.5444Z" fill="#F5F5F5"/>
<path d="M3.58691 46.2264C3.64888 46.2564 3.71471 46.2778 3.78252 46.2898C3.94357 46.3288 4.10716 46.3563 4.27207 46.3723C4.43684 46.3885 4.60252 46.3934 4.76797 46.3871C4.83713 46.3884 4.90615 46.3802 4.97309 46.3628C4.97309 46.3469 4.65589 46.3628 4.27736 46.3226C3.89883 46.2824 3.59114 46.2126 3.58691 46.2264Z" fill="#F5F5F5"/>
<path d="M47 47.4347C47 47.4506 36.4773 47.4622 23.5005 47.4622C10.5237 47.4622 0 47.4506 0 47.4347C0 47.4189 10.5195 47.4072 23.5005 47.4072C36.4815 47.4072 47 47.4199 47 47.4347Z" fill="#263238"/>
<path d="M13.2803 14.3865C13.2803 14.3865 13.5679 12.662 13.6366 12.5309C13.7053 12.3997 14.4994 11.594 14.5935 11.5792C14.6876 11.5644 15.9406 11.169 15.8708 11.3678C15.801 11.5666 14.9192 11.8267 14.9192 11.8267L14.8356 11.9324C14.8356 11.9324 15.5874 11.6871 15.7735 11.6934C15.9596 11.6998 15.9765 11.8785 15.8422 11.9292C15.7079 11.98 15.046 12.1735 15.0207 12.2158C14.9953 12.2581 15.7608 12.0392 15.8538 12.0434C15.9828 12.0487 16.0759 12.2115 15.9448 12.2676C15.8665 12.2993 15.1306 12.4685 15.1306 12.4685C15.3576 12.4386 15.5859 12.421 15.8147 12.4156C15.9279 12.4463 15.9205 12.5837 15.7936 12.6165C15.7079 12.6387 15.2586 12.6588 15.1444 12.6895C15.1444 12.6895 15.0587 12.7614 15.0619 12.9897C15.0651 13.2181 14.769 13.824 14.769 13.824L13.2803 14.3865Z" fill="#FFBE9D"/>
<path d="M15.8693 11.3624C15.8189 11.427 15.7564 11.4813 15.6854 11.5221C15.6112 11.5721 15.5326 11.6153 15.4506 11.6511C15.3576 11.686 15.254 11.7219 15.1461 11.7568L14.9146 11.8351L14.9272 11.8277C14.7951 11.9709 14.6519 12.1034 14.499 12.2242C14.6166 12.0699 14.746 11.9249 14.886 11.7907V11.7854H14.8934L15.1218 11.705L15.4253 11.5993C15.5054 11.5667 15.5831 11.5286 15.6579 11.4851C15.7911 11.4143 15.8641 11.355 15.8693 11.3624Z" fill="#EB996E"/>
<path d="M32.5639 33.3255L15.4963 31.5671C15.2461 31.5404 15.0167 31.4158 14.8581 31.2204C14.6996 31.025 14.6249 30.7749 14.6504 30.5246L17.6036 1.83035C17.6406 1.47456 17.8173 1.14798 18.0948 0.922229C18.3723 0.696474 18.7279 0.589958 19.0838 0.626034L35.3585 2.30192C35.7143 2.33901 36.0408 2.51566 36.2666 2.79314C36.4924 3.07063 36.5989 3.42631 36.5628 3.78221L33.6022 32.4764C33.5763 32.7264 33.4526 32.9559 33.2581 33.115C33.0636 33.274 32.814 33.3497 32.5639 33.3255Z" fill="#25CA80"/>
<path opacity="0.4" d="M32.5639 33.3255L15.4963 31.5671C15.2461 31.5404 15.0167 31.4158 14.8581 31.2204C14.6996 31.025 14.6249 30.7749 14.6504 30.5246L17.6036 1.83035C17.6406 1.47456 17.8173 1.14798 18.0948 0.922229C18.3723 0.696474 18.7279 0.589958 19.0838 0.626034L35.3585 2.30192C35.7143 2.33901 36.0408 2.51566 36.2666 2.79314C36.4924 3.07063 36.5989 3.42631 36.5628 3.78221L33.6022 32.4764C33.5763 32.7264 33.4526 32.9559 33.2581 33.115C33.0636 33.274 32.814 33.3497 32.5639 33.3255Z" fill="black"/>
<path d="M30.8416 33.1479L13.7708 31.3906C13.5204 31.364 13.2908 31.2392 13.1323 31.0436C12.9737 30.848 12.8992 30.5975 12.9249 30.347L15.8855 1.65281C15.9036 1.47653 15.9562 1.30554 16.0404 1.14961C16.1246 0.993672 16.2387 0.855852 16.3761 0.744016C16.5136 0.63218 16.6718 0.54852 16.8416 0.497815C17.0114 0.44711 17.1895 0.430352 17.3658 0.448499L33.6362 2.12122C33.8125 2.13931 33.9834 2.19196 34.1394 2.27615C34.2953 2.36034 34.4331 2.47442 34.545 2.61188C34.6568 2.74935 34.7405 2.9075 34.7912 3.0773C34.8419 3.2471 34.8586 3.42522 34.8405 3.6015L31.8799 32.2968C31.8545 32.5471 31.731 32.7772 31.5365 32.9367C31.3419 33.0962 31.092 33.1721 30.8416 33.1479Z" fill="#25CA80"/>
<path d="M22.1637 25.3375L16.278 24.7313C16.1374 24.7168 16.0117 24.819 15.9972 24.9596L15.7587 27.2756C15.7442 27.4162 15.8464 27.5419 15.987 27.5564L21.8728 28.1625C22.0134 28.177 22.1391 28.0748 22.1535 27.9342L22.3921 25.6182C22.4065 25.4776 22.3043 25.3519 22.1637 25.3375Z" fill="#25CA80"/>
<g opacity="0.4">
<path d="M22.1637 25.3375L16.278 24.7313C16.1374 24.7168 16.0117 24.819 15.9972 24.9596L15.7587 27.2756C15.7442 27.4162 15.8464 27.5419 15.987 27.5564L21.8728 28.1625C22.0134 28.177 22.1391 28.0748 22.1535 27.9342L22.3921 25.6182C22.4065 25.4776 22.3043 25.3519 22.1637 25.3375Z" fill="black"/>
</g>
<path d="M17.0698 3.65663L16.415 10.0146L32.623 11.6839L33.2778 5.32584L17.0698 3.65663Z" fill="#FAFAFA"/>
<path d="M32.6243 11.6838C32.6243 11.6838 32.6243 11.6446 32.6338 11.5706C32.6433 11.4966 32.6518 11.3856 32.6655 11.2418C32.6941 10.9521 32.7364 10.527 32.7913 9.97826C32.8971 8.88179 33.061 7.29472 33.2597 5.32594L33.2767 5.34709L17.0686 3.68389L17.0993 3.65957C16.8698 5.87999 16.6478 8.03169 16.4427 10.0174L16.4194 9.98777L28.0343 11.1974L31.4073 11.5516L32.3113 11.6489L32.545 11.6742L32.6253 11.6838C32.6253 11.6838 32.5989 11.6838 32.5471 11.6774L32.3166 11.6552L31.4178 11.5664L28.0449 11.227L16.4141 10.0406H16.3877V10.0153C16.5918 8.02852 16.8106 5.87999 17.0411 3.6564V3.62891H17.0686L33.2809 5.30691H33.2999V5.32594C33.0884 7.30001 32.9246 8.89131 32.8093 9.98989C32.7512 10.5355 32.7036 10.9595 32.675 11.2471C32.6592 11.3898 32.6475 11.4987 32.6391 11.5727L32.6243 11.6838Z" fill="#263238"/>
<path d="M19.5964 12.9028L17.2793 12.6641C17.1585 12.6517 17.0505 12.7395 17.038 12.8604L16.7994 15.1774C16.7869 15.2983 16.8748 15.4063 16.9956 15.4187L19.3127 15.6574C19.4335 15.6698 19.5416 15.582 19.554 15.4611L19.7926 13.1441C19.8051 13.0232 19.7172 12.9152 19.5964 12.9028Z" fill="#25CA80"/>
<g opacity="0.4">
<path d="M19.5964 12.9028L17.2793 12.6641C17.1585 12.6517 17.0505 12.7395 17.038 12.8604L16.7994 15.1774C16.7869 15.2983 16.8748 15.4063 16.9956 15.4187L19.3127 15.6574C19.4335 15.6698 19.5416 15.582 19.554 15.4611L19.7926 13.1441C19.8051 13.0232 19.7172 12.9152 19.5964 12.9028Z" fill="black"/>
</g>
<path d="M19.1716 12.8598L16.8545 12.6212C16.7337 12.6087 16.6257 12.6966 16.6132 12.8174L16.3746 15.1345C16.3621 15.2553 16.45 15.3633 16.5708 15.3758L18.8879 15.6144C19.0087 15.6269 19.1168 15.539 19.1292 15.4182L19.3678 13.1011C19.3803 12.9803 19.2924 12.8722 19.1716 12.8598Z" fill="#263238"/>
<path d="M18.1254 13.5524L18.0081 14.7038L17.7416 14.6763L17.8378 13.7416L17.6084 13.7173L17.6306 13.5059L18.1254 13.5524Z" fill="white"/>
<path d="M23.4382 13.2997L21.1211 13.0611C21.0003 13.0487 20.8923 13.1365 20.8798 13.2573L20.6412 15.5744C20.6287 15.6952 20.7166 15.8033 20.8374 15.8157L23.1545 16.0543C23.2753 16.0668 23.3834 15.9789 23.3958 15.8581L23.6344 13.541C23.6469 13.4202 23.559 13.3122 23.4382 13.2997Z" fill="#25CA80"/>
<g opacity="0.4">
<path d="M23.4382 13.2997L21.1211 13.0611C21.0003 13.0487 20.8923 13.1365 20.8798 13.2573L20.6412 15.5744C20.6287 15.6952 20.7166 15.8033 20.8374 15.8157L23.1545 16.0543C23.2753 16.0668 23.3834 15.9789 23.3958 15.8581L23.6344 13.541C23.6469 13.4202 23.559 13.3122 23.4382 13.2997Z" fill="black"/>
</g>
<path d="M23.0124 13.2553L20.6953 13.0167C20.5745 13.0042 20.4665 13.0921 20.454 13.2129L20.2154 15.53C20.203 15.6508 20.2908 15.7588 20.4116 15.7713L22.7287 16.0099C22.8495 16.0224 22.9576 15.9345 22.97 15.8137L23.2086 13.4966C23.2211 13.3758 23.1332 13.2677 23.0124 13.2553Z" fill="#263238"/>
<path d="M22.2857 14.9223L22.2635 15.1338L21.3965 15.0449L21.4145 14.8726L21.8998 14.4993C22.0119 14.4137 22.0362 14.3566 22.0415 14.3006C22.051 14.2107 21.9939 14.1515 21.8723 14.1388C21.8264 14.1323 21.7797 14.1372 21.7362 14.1531C21.6926 14.1689 21.6537 14.1953 21.6228 14.2297L21.442 14.0849C21.5017 14.0198 21.5766 13.9706 21.66 13.9417C21.7434 13.9127 21.8327 13.9049 21.9199 13.9189C22.1757 13.9453 22.3333 14.0933 22.3111 14.3016C22.3005 14.4137 22.2582 14.5131 22.0827 14.6442L21.793 14.8662L22.2857 14.9223Z" fill="white"/>
<path d="M27.4206 13.7099L25.1035 13.4713C24.9827 13.4588 24.8747 13.5467 24.8622 13.6675L24.6236 15.9846C24.6112 16.1054 24.699 16.2134 24.8198 16.2259L27.1369 16.4645C27.2577 16.4769 27.3658 16.3891 27.3782 16.2683L27.6168 13.9512C27.6293 13.8304 27.5414 13.7223 27.4206 13.7099Z" fill="#25CA80"/>
<g opacity="0.4">
<path d="M27.4206 13.7099L25.1035 13.4713C24.9827 13.4588 24.8747 13.5467 24.8622 13.6675L24.6236 15.9846C24.6112 16.1054 24.699 16.2134 24.8198 16.2259L27.1369 16.4645C27.2577 16.4769 27.3658 16.3891 27.3782 16.2683L27.6168 13.9512C27.6293 13.8304 27.5414 13.7223 27.4206 13.7099Z" fill="black"/>
</g>
<path d="M26.9958 13.6655L24.6787 13.4268C24.5579 13.4144 24.4499 13.5022 24.4374 13.6231L24.1988 15.9401C24.1864 16.061 24.2742 16.169 24.395 16.1814L26.7121 16.4201C26.8329 16.4325 26.941 16.3447 26.9534 16.2238L27.192 13.9068C27.2045 13.7859 27.1166 13.6779 26.9958 13.6655Z" fill="#263238"/>
<path d="M26.2727 15.1964C26.2527 15.3899 26.0856 15.5516 25.7589 15.5188C25.6046 15.505 25.4576 15.4466 25.3359 15.3507L25.4596 15.1572C25.5483 15.2353 25.6593 15.2834 25.7768 15.2947C25.9101 15.3084 25.9978 15.263 26.0074 15.1689C26.0169 15.0748 25.9577 15.0219 25.8075 15.006L25.6859 14.9933L25.7039 14.8178L25.9672 14.5746L25.4787 14.5249L25.5009 14.3135L26.3045 14.3959L26.2865 14.5683L25.9968 14.8369C26.0802 14.8497 26.1555 14.8943 26.2069 14.9612C26.2583 15.0282 26.2819 15.1124 26.2727 15.1964Z" fill="white"/>
<path d="M31.404 14.12L29.0869 13.8814C28.9661 13.869 28.8581 13.9568 28.8456 14.0777L28.607 16.3947C28.5946 16.5156 28.6824 16.6236 28.8032 16.636L31.1203 16.8747C31.2411 16.8871 31.3492 16.7992 31.3616 16.6784L31.6002 14.3613C31.6127 14.2405 31.5248 14.1325 31.404 14.12Z" fill="#25CA80"/>
<g opacity="0.4">
<path d="M31.404 14.12L29.0869 13.8814C28.9661 13.869 28.8581 13.9568 28.8456 14.0777L28.607 16.3947C28.5946 16.5156 28.6824 16.6236 28.8032 16.636L31.1203 16.8747C31.2411 16.8871 31.3492 16.7992 31.3616 16.6784L31.6002 14.3613C31.6127 14.2405 31.5248 14.1325 31.404 14.12Z" fill="black"/>
</g>
<path d="M30.988 14.0751L28.6709 13.8365C28.5501 13.8241 28.4421 13.9119 28.4296 14.0327L28.191 16.3498C28.1785 16.4706 28.2664 16.5787 28.3872 16.5911L30.7043 16.8297C30.8251 16.8422 30.9332 16.7543 30.9456 16.6335L31.1842 14.3164C31.1967 14.1956 31.1088 14.0876 30.988 14.0751Z" fill="#263238"/>
<path d="M29.0636 15.1722L29.0527 15.2773L30.2833 15.4041L30.2941 15.2989L29.0636 15.1722Z" fill="white"/>
<path d="M29.9301 14.7732C29.9261 14.8127 29.9105 14.8502 29.8853 14.8809C29.86 14.9115 29.8262 14.934 29.7881 14.9455C29.7501 14.957 29.7095 14.9569 29.6715 14.9453C29.6335 14.9337 29.5998 14.911 29.5746 14.8803C29.5495 14.8495 29.534 14.812 29.5302 14.7724C29.5264 14.7329 29.5344 14.6931 29.5532 14.6581C29.572 14.6231 29.6008 14.5944 29.6359 14.5758C29.671 14.5571 29.7108 14.5493 29.7503 14.5533C29.8033 14.5586 29.852 14.5848 29.8857 14.626C29.9195 14.6672 29.9354 14.7202 29.9301 14.7732Z" fill="white"/>
<path d="M29.8197 15.8465C29.8157 15.8861 29.8001 15.9236 29.7748 15.9543C29.7494 15.985 29.7156 16.0074 29.6775 16.0188C29.6394 16.0302 29.5987 16.0301 29.5607 16.0184C29.5227 16.0067 29.489 15.9839 29.4639 15.9531C29.4388 15.9222 29.4235 15.8846 29.4198 15.845C29.4161 15.8054 29.4243 15.7655 29.4433 15.7306C29.4622 15.6956 29.4911 15.6671 29.5264 15.6486C29.5616 15.6301 29.6015 15.6224 29.641 15.6266C29.6938 15.6322 29.7423 15.6585 29.7758 15.6997C29.8092 15.7409 29.825 15.7937 29.8197 15.8465Z" fill="white"/>
<path d="M19.1814 16.9394L16.8643 16.7008C16.7435 16.6883 16.6354 16.7762 16.623 16.897L16.3843 19.2141C16.3719 19.3349 16.4598 19.4429 16.5806 19.4554L18.8977 19.694C19.0185 19.7064 19.1265 19.6186 19.139 19.4978L19.3776 17.1807C19.39 17.0599 19.3022 16.9518 19.1814 16.9394Z" fill="#25CA80"/>
<g opacity="0.4">
<path d="M19.1804 16.9394L16.8633 16.7008C16.7425 16.6883 16.6344 16.7762 16.622 16.897L16.3834 19.2141C16.3709 19.3349 16.4588 19.4429 16.5796 19.4554L18.8967 19.694C19.0175 19.7064 19.1255 19.6186 19.138 19.4978L19.3766 17.1807C19.3891 17.0599 19.3012 16.9518 19.1804 16.9394Z" fill="black"/>
</g>
<path d="M18.7565 16.8959L16.4395 16.6573C16.3187 16.6449 16.2106 16.7327 16.1982 16.8535L15.9595 19.1706C15.9471 19.2914 16.035 19.3995 16.1558 19.4119L18.4729 19.6505C18.5937 19.663 18.7017 19.5751 18.7142 19.4543L18.9528 17.1372C18.9652 17.0164 18.8774 16.9084 18.7565 16.8959Z" fill="#263238"/>
<path d="M17.9515 18.529L17.7643 18.51L17.7389 18.751L17.4799 18.7246L17.5053 18.4835L16.8867 18.419L16.9047 18.2403L17.5211 17.5679L17.8003 17.5975L17.2272 18.2319L17.5359 18.2636L17.5581 18.0521L17.8087 18.0775L17.7865 18.289L17.9737 18.308L17.9515 18.529Z" fill="white"/>
<path d="M23.0231 17.3354L20.7061 17.0967C20.5853 17.0843 20.4772 17.1722 20.4648 17.293L20.2261 19.6101C20.2137 19.7309 20.3016 19.8389 20.4224 19.8514L22.7395 20.09C22.8603 20.1024 22.9683 20.0146 22.9808 19.8938L23.2194 17.5767C23.2318 17.4559 23.144 17.3478 23.0231 17.3354Z" fill="#25CA80"/>
<g opacity="0.4">
<path d="M23.0222 17.3354L20.7051 17.0967C20.5843 17.0843 20.4762 17.1722 20.4638 17.293L20.2252 19.6101C20.2127 19.7309 20.3006 19.8389 20.4214 19.8514L22.7385 20.09C22.8593 20.1024 22.9673 20.0146 22.9798 19.8938L23.2184 17.5767C23.2309 17.4559 23.143 17.3478 23.0222 17.3354Z" fill="black"/>
</g>
<path d="M22.5983 17.2909L20.2813 17.0523C20.1604 17.0399 20.0524 17.1277 20.04 17.2486L19.8013 19.5656C19.7889 19.6865 19.8768 19.7945 19.9976 19.8069L22.3147 20.0456C22.4355 20.058 22.5435 19.9701 22.556 19.8493L22.7946 17.5322C22.807 17.4114 22.7192 17.3034 22.5983 17.2909Z" fill="#263238"/>
<path d="M21.7583 18.8007C21.7382 19.0037 21.5701 19.1655 21.2423 19.1316C21.088 19.1176 20.9411 19.0592 20.8193 18.9635L20.9452 18.7711C21.0336 18.8493 21.1448 18.897 21.2624 18.9075C21.3956 18.9212 21.4833 18.8747 21.4929 18.7806C21.5024 18.6865 21.4495 18.6252 21.2412 18.604L20.9473 18.5734L21.0731 17.939L21.7731 18.0109L21.7519 18.2223L21.2729 18.1726L21.2317 18.3894L21.3258 18.3989C21.661 18.4306 21.7794 18.5966 21.7583 18.8007Z" fill="white"/>
<path d="M27.0065 17.745L24.6895 17.5064C24.5687 17.494 24.4606 17.5818 24.4482 17.7027L24.2095 20.0197C24.1971 20.1406 24.285 20.2486 24.4058 20.261L26.7229 20.4997C26.8437 20.5121 26.9517 20.4242 26.9642 20.3034L27.2028 17.9863C27.2152 17.8655 27.1274 17.7575 27.0065 17.745Z" fill="#25CA80"/>
<g opacity="0.4">
<path d="M27.0056 17.745L24.6885 17.5064C24.5677 17.494 24.4596 17.5818 24.4472 17.7027L24.2086 20.0197C24.1961 20.1406 24.284 20.2486 24.4048 20.261L26.7219 20.4997C26.8427 20.5121 26.9507 20.4242 26.9632 20.3034L27.2018 17.9863C27.2143 17.8655 27.1264 17.7575 27.0056 17.745Z" fill="black"/>
</g>
<path d="M26.5808 17.7011L24.2637 17.4625C24.1429 17.45 24.0348 17.5379 24.0224 17.6587L23.7838 19.9758C23.7713 20.0966 23.8592 20.2046 23.98 20.2171L26.2971 20.4557C26.4179 20.4682 26.5259 20.3803 26.5384 20.2595L26.777 17.9424C26.7894 17.8216 26.7016 17.7135 26.5808 17.7011Z" fill="#263238"/>
<path d="M25.8251 19.2175C25.8008 19.4522 25.5935 19.5802 25.3514 19.5548C25.0342 19.522 24.8587 19.3031 24.8967 18.9331C24.938 18.5355 25.2002 18.3388 25.5459 18.3748C25.6581 18.3833 25.7659 18.4221 25.8579 18.4869L25.7394 18.6719C25.6786 18.6245 25.6049 18.5965 25.528 18.5915C25.3355 18.5725 25.2013 18.673 25.1706 18.8918C25.2123 18.8608 25.2598 18.8384 25.3102 18.8258C25.3607 18.8133 25.4131 18.8109 25.4645 18.8189C25.515 18.8194 25.5648 18.8304 25.6109 18.8511C25.6569 18.8718 25.6982 18.9018 25.732 18.9393C25.7659 18.9767 25.7917 19.0208 25.8077 19.0687C25.8237 19.1165 25.8296 19.1672 25.8251 19.2175ZM25.566 19.2037C25.5688 19.1792 25.5662 19.1543 25.5585 19.1308C25.5508 19.1072 25.5382 19.0857 25.5215 19.0674C25.5047 19.0492 25.4843 19.0348 25.4615 19.0251C25.4388 19.0154 25.4142 19.0107 25.3895 19.0113C25.3652 19.0061 25.34 19.006 25.3157 19.011C25.2913 19.016 25.2682 19.0259 25.2479 19.0402C25.2276 19.0545 25.2104 19.0728 25.1974 19.094C25.1845 19.1153 25.1761 19.1389 25.1727 19.1636C25.1621 19.2619 25.2287 19.3412 25.3567 19.3549C25.3803 19.3598 25.4046 19.3597 25.4282 19.3545C25.4517 19.3494 25.4739 19.3394 25.4933 19.3251C25.5128 19.3109 25.529 19.2927 25.541 19.2718C25.5529 19.2509 25.5604 19.2277 25.5629 19.2037H25.566Z" fill="white"/>
<path d="M30.988 18.1552L28.6709 17.9166C28.5501 17.9041 28.4421 17.992 28.4296 18.1128L28.191 20.4299C28.1785 20.5507 28.2664 20.6587 28.3872 20.6712L30.7043 20.9098C30.8251 20.9223 30.9332 20.8344 30.9456 20.7136L31.1842 18.3965C31.1967 18.2757 31.1088 18.1676 30.988 18.1552Z" fill="#25CA80"/>
<g opacity="0.4">
<path d="M30.987 18.1552L28.6699 17.9166C28.5491 17.9041 28.4411 17.992 28.4286 18.1128L28.19 20.4299C28.1776 20.5507 28.2654 20.6587 28.3863 20.6712L30.7033 20.9098C30.8242 20.9223 30.9322 20.8344 30.9446 20.7136L31.1833 18.3965C31.1957 18.2757 31.1078 18.1676 30.987 18.1552Z" fill="black"/>
</g>
<path d="M30.5632 18.1108L28.2461 17.8721C28.1253 17.8597 28.0173 17.9476 28.0048 18.0684L27.7662 20.3855C27.7537 20.5063 27.8416 20.6143 27.9624 20.6268L30.2795 20.8654C30.4003 20.8778 30.5084 20.79 30.5208 20.6691L30.7594 18.3521C30.7719 18.2312 30.684 18.1232 30.5632 18.1108Z" fill="#263238"/>
<path d="M29.7145 18.9454L28.7432 19.7114L28.8086 19.7944L29.78 19.0284L29.7145 18.9454Z" fill="white"/>
<path d="M28.9131 18.861L28.8311 18.9277L29.6116 19.8875L29.6936 19.8208L28.9131 18.861Z" fill="white"/>
<path d="M18.7692 20.9428L16.4522 20.7042C16.3313 20.6917 16.2233 20.7796 16.2109 20.9004L15.9722 23.2175C15.9598 23.3383 16.0477 23.4463 16.1685 23.4588L18.4856 23.6974C18.6064 23.7099 18.7144 23.622 18.7269 23.5012L18.9655 21.1841C18.9779 21.0633 18.8901 20.9552 18.7692 20.9428Z" fill="#25CA80"/>
<g opacity="0.4">
<path d="M18.7683 20.9428L16.4512 20.7042C16.3304 20.6917 16.2223 20.7796 16.2099 20.9004L15.9713 23.2175C15.9588 23.3383 16.0467 23.4463 16.1675 23.4588L18.4846 23.6974C18.6054 23.7099 18.7134 23.622 18.7259 23.5012L18.9645 21.1841C18.9769 21.0633 18.8891 20.9552 18.7683 20.9428Z" fill="black"/>
</g>
<path d="M18.3444 20.8993L16.0274 20.6607C15.9065 20.6483 15.7985 20.7361 15.7861 20.857L15.5474 23.174C15.535 23.2949 15.6228 23.4029 15.7437 23.4153L18.0607 23.654C18.1816 23.6664 18.2896 23.5785 18.302 23.4577L18.5407 21.1406C18.5531 21.0198 18.4653 20.9118 18.3444 20.8993Z" fill="#263238"/>
<path d="M17.4799 21.6092L17.4619 21.7816L16.9333 22.7142L16.6446 22.6835L17.1521 21.7943L16.7715 21.7552L16.7525 21.9423L16.5156 21.918L16.5579 21.5151L17.4799 21.6092Z" fill="white"/>
<path d="M22.611 21.3383L20.294 21.0997C20.1731 21.0872 20.0651 21.1751 20.0527 21.2959L19.814 23.613C19.8016 23.7338 19.8895 23.8419 20.0103 23.8543L22.3273 24.0929C22.4482 24.1054 22.5562 24.0175 22.5687 23.8967L22.8073 21.5796C22.8197 21.4588 22.7319 21.3508 22.611 21.3383Z" fill="#25CA80"/>
<g opacity="0.4">
<path d="M22.6101 21.3383L20.293 21.0997C20.1722 21.0872 20.0641 21.1751 20.0517 21.2959L19.8131 23.613C19.8006 23.7338 19.8885 23.8419 20.0093 23.8543L22.3264 24.0929C22.4472 24.1054 22.5552 24.0175 22.5677 23.8967L22.8063 21.5796C22.8187 21.4588 22.7309 21.3508 22.6101 21.3383Z" fill="black"/>
</g>
<path d="M22.1853 21.2939L19.8682 21.0552C19.7474 21.0428 19.6393 21.1307 19.6269 21.2515L19.3883 23.5686C19.3758 23.6894 19.4637 23.7974 19.5845 23.8099L21.9016 24.0485C22.0224 24.0609 22.1304 23.9731 22.1429 23.8522L22.3815 21.5352C22.3939 21.4144 22.3061 21.3063 22.1853 21.2939Z" fill="#263238"/>
<path d="M21.4371 22.845C21.4149 23.0565 21.2077 23.1781 20.9158 23.1474C20.624 23.1168 20.4474 22.9613 20.4696 22.7456C20.4746 22.6883 20.4965 22.6337 20.5324 22.5887C20.5683 22.5438 20.6168 22.5104 20.6716 22.4929C20.6332 22.4644 20.6031 22.4261 20.5845 22.3821C20.5659 22.338 20.5595 22.2897 20.5659 22.2423C20.587 22.0404 20.7773 21.9336 21.0406 21.96C21.3039 21.9865 21.472 22.1324 21.4519 22.3343C21.4476 22.3822 21.4306 22.4281 21.4025 22.4672C21.3744 22.5063 21.3363 22.5371 21.2923 22.5564C21.3421 22.5849 21.3825 22.6275 21.4083 22.6788C21.434 22.7302 21.4441 22.788 21.4371 22.845ZM21.1686 22.8091C21.1791 22.7033 21.1019 22.6367 20.9698 22.623C20.8376 22.6092 20.7498 22.6632 20.7393 22.7647C20.7287 22.8662 20.8038 22.9391 20.9359 22.9529C21.0681 22.9666 21.159 22.9063 21.1728 22.8048L21.1686 22.8091ZM20.826 22.2804C20.8165 22.3671 20.8799 22.4284 20.9877 22.4401C21.0956 22.4517 21.1738 22.4041 21.1834 22.3174C21.1929 22.2307 21.1263 22.1652 21.0174 22.1546C20.9084 22.144 20.8344 22.1874 20.826 22.2772V22.2804Z" fill="white"/>
<path d="M26.5935 21.7485L24.2764 21.5098C24.1556 21.4974 24.0475 21.5853 24.0351 21.7061L23.7965 24.0231C23.784 24.144 23.8719 24.252 23.9927 24.2645L26.3098 24.5031C26.4306 24.5155 26.5386 24.4277 26.5511 24.3068L26.7897 21.9898C26.8021 21.8689 26.7143 21.7609 26.5935 21.7485Z" fill="#25CA80"/>
<g opacity="0.4">
<path d="M26.5925 21.7485L24.2754 21.5098C24.1546 21.4974 24.0466 21.5853 24.0341 21.7061L23.7955 24.0231C23.783 24.144 23.8709 24.252 23.9917 24.2645L26.3088 24.5031C26.4296 24.5155 26.5377 24.4277 26.5501 24.3068L26.7887 21.9898C26.8012 21.8689 26.7133 21.7609 26.5925 21.7485Z" fill="black"/>
</g>
<path d="M26.0911 21.5186L23.7851 21.2857C23.6649 21.2735 23.5575 21.3612 23.5454 21.4814L23.3125 23.7874C23.3003 23.9077 23.3879 24.015 23.5082 24.0272L25.8142 24.2601C25.9345 24.2722 26.0418 24.1846 26.0539 24.0644L26.2869 21.7583C26.299 21.6381 26.2114 21.5307 26.0911 21.5186Z" fill="#263238"/>
<path d="M25.4014 22.9804C25.3602 23.3779 25.1001 23.5746 24.7522 23.5386C24.6408 23.5304 24.5337 23.4921 24.4424 23.4276L24.5608 23.2426C24.6215 23.2901 24.6953 23.3178 24.7723 23.3219C24.9626 23.3409 25.099 23.2405 25.1297 23.0205C25.0876 23.0518 25.0398 23.0745 24.989 23.0872C24.9382 23.0999 24.8854 23.1024 24.8336 23.0946C24.7833 23.0936 24.7338 23.0823 24.6881 23.0614C24.6424 23.0405 24.6015 23.0104 24.5679 22.973C24.5342 22.9357 24.5087 22.8918 24.4927 22.8441C24.4768 22.7965 24.4708 22.746 24.4752 22.6959C24.4995 22.4612 24.7067 22.3333 24.9499 22.3586C25.2661 22.3914 25.4405 22.6103 25.4014 22.9804ZM25.1254 22.7499C25.1349 22.6515 25.0683 22.5722 24.9425 22.5585C24.9187 22.5539 24.8942 22.5543 24.8706 22.5597C24.847 22.5652 24.8248 22.5755 24.8055 22.59C24.7861 22.6046 24.77 22.623 24.7581 22.6441C24.7463 22.6653 24.7391 22.6887 24.7368 22.7128C24.7346 22.7369 24.7375 22.7612 24.7452 22.7842C24.753 22.8071 24.7654 22.8282 24.7818 22.846C24.7982 22.8639 24.8181 22.8781 24.8404 22.8877C24.8626 22.8974 24.8866 22.9023 24.9108 22.9021C24.935 22.9073 24.9601 22.9074 24.9844 22.9024C25.0087 22.8974 25.0317 22.8875 25.0519 22.8732C25.0722 22.8589 25.0893 22.8405 25.1021 22.8193C25.1149 22.7981 25.1232 22.7744 25.1265 22.7499H25.1254Z" fill="white"/>
<path d="M30.5759 22.1586L28.2588 21.92C28.138 21.9075 28.03 21.9954 28.0175 22.1162L27.7789 24.4333C27.7664 24.5541 27.8543 24.6622 27.9751 24.6746L30.2922 24.9132C30.413 24.9257 30.5211 24.8378 30.5335 24.717L30.7721 22.3999C30.7846 22.2791 30.6967 22.1711 30.5759 22.1586Z" fill="#25CA80"/>
<g opacity="0.4">
<path d="M30.5749 22.1586L28.2578 21.92C28.137 21.9075 28.029 21.9954 28.0165 22.1162L27.7779 24.4333C27.7655 24.5541 27.8533 24.6622 27.9741 24.6746L30.2912 24.9132C30.412 24.9257 30.5201 24.8378 30.5325 24.717L30.7711 22.3999C30.7836 22.2791 30.6957 22.1711 30.5749 22.1586Z" fill="black"/>
</g>
<path d="M30.1511 22.1142L27.834 21.8756C27.7132 21.8631 27.6051 21.951 27.5927 22.0718L27.3541 24.3889C27.3416 24.5097 27.4295 24.6177 27.5503 24.6302L29.8674 24.8688C29.9882 24.8812 30.0962 24.7934 30.1087 24.6726L30.3473 22.3555C30.3598 22.2347 30.2719 22.1266 30.1511 22.1142Z" fill="#263238"/>
<path d="M28.2413 23.2586L28.2305 23.3638L29.4611 23.4905L29.4719 23.3853L28.2413 23.2586Z" fill="white"/>
<path d="M26.1774 25.787L23.8604 25.5484C23.7395 25.536 23.6315 25.6238 23.6191 25.7446L23.3804 28.0617C23.368 28.1825 23.4559 28.2906 23.5767 28.303L25.8938 28.5417C26.0146 28.5541 26.1226 28.4662 26.1351 28.3454L26.3737 26.0283C26.3861 25.9075 26.2983 25.7995 26.1774 25.787Z" fill="#25CA80"/>
<g opacity="0.4">
<path d="M26.1765 25.787L23.8594 25.5484C23.7386 25.536 23.6305 25.6238 23.6181 25.7446L23.3795 28.0617C23.367 28.1825 23.4549 28.2906 23.5757 28.303L25.8928 28.5417C26.0136 28.5541 26.1216 28.4662 26.1341 28.3454L26.3727 26.0283C26.3852 25.9075 26.2973 25.7995 26.1765 25.787Z" fill="black"/>
</g>
<path d="M25.7517 25.7426L23.4346 25.504C23.3138 25.4915 23.2057 25.5794 23.1933 25.7002L22.9547 28.0173C22.9422 28.1381 23.0301 28.2461 23.1509 28.2586L25.468 28.4972C25.5888 28.5097 25.6968 28.4218 25.7093 28.301L25.9479 25.9839C25.9603 25.8631 25.8725 25.755 25.7517 25.7426Z" fill="#263238"/>
<path d="M30.1599 26.1972L27.8428 25.9586C27.722 25.9461 27.6139 26.034 27.6015 26.1548L27.3629 28.4719C27.3504 28.5927 27.4383 28.7007 27.5591 28.7132L29.8762 28.9518C29.997 28.9643 30.105 28.8764 30.1175 28.7556L30.3561 26.4385C30.3686 26.3177 30.2807 26.2096 30.1599 26.1972Z" fill="#25CA80"/>
<g opacity="0.4">
<path d="M30.1589 26.1972L27.8418 25.9586C27.721 25.9461 27.613 26.034 27.6005 26.1548L27.3619 28.4719C27.3494 28.5927 27.4373 28.7007 27.5581 28.7132L29.8752 28.9518C29.996 28.9643 30.1041 28.8764 30.1165 28.7556L30.3551 26.4385C30.3676 26.3177 30.2797 26.2096 30.1589 26.1972Z" fill="black"/>
</g>
<path d="M29.7351 26.1528L27.418 25.9141C27.2972 25.9017 27.1891 25.9896 27.1767 26.1104L26.9381 28.4274C26.9256 28.5483 27.0135 28.6563 27.1343 28.6687L29.4514 28.9074C29.5722 28.9198 29.6802 28.832 29.6927 28.7111L29.9313 26.3941C29.9437 26.2732 29.8559 26.1652 29.7351 26.1528Z" fill="#455A64"/>
<path d="M27.8409 27.1473L27.8301 27.2524L29.0607 27.3792L29.0715 27.274L27.8409 27.1473Z" fill="white"/>
<path d="M27.7931 27.6145L27.7822 27.7197L29.0128 27.8465L29.0236 27.7413L27.7931 27.6145Z" fill="white"/>
<path d="M21.6384 25.2833L15.5139 24.6526C15.3687 24.6376 15.2389 24.7432 15.2239 24.8884L14.9871 27.1876C14.9722 27.3328 15.0778 27.4627 15.223 27.4777L21.3475 28.1084C21.4927 28.1234 21.6226 28.0178 21.6375 27.8725L21.8743 25.5733C21.8893 25.4281 21.7837 25.2983 21.6384 25.2833Z" fill="#263238"/>
<path d="M18.1819 26.3006C18.221 25.9211 18.4537 25.7286 18.736 25.7572C19.0183 25.7857 19.2054 26.0226 19.1663 26.4022C19.1272 26.7817 18.8967 26.9742 18.6133 26.9446C18.3299 26.915 18.1428 26.6792 18.1819 26.3006ZM18.8988 26.3747C18.9263 26.1135 18.8449 25.9961 18.7127 25.9824C18.5805 25.9686 18.478 26.067 18.4515 26.3281C18.4251 26.5893 18.5055 26.7067 18.6366 26.7204C18.7677 26.7342 18.8724 26.6348 18.8988 26.3747Z" fill="white"/>
<path d="M24.4702 26.3798L24.3252 27.6084L24.4302 27.6208L24.5752 26.3922L24.4702 26.3798Z" fill="white"/>
<path d="M23.8419 26.886L23.8311 26.9912L25.0616 27.1179L25.0725 27.0128L23.8419 26.886Z" fill="white"/>
<path d="M23.266 7.5392L23.0894 9.25527L23.008 9.24681L23.1814 7.60687L22.75 7.56246L22.7574 7.48633L23.266 7.5392Z" fill="#263238"/>
<path d="M24.6764 9.34167L24.668 9.41779L23.5049 9.29831L23.5112 9.2391L24.3233 8.57403C24.5559 8.38477 24.6119 8.26423 24.6267 8.12466C24.65 7.89628 24.5062 7.73345 24.2038 7.70172C24.1087 7.68463 24.011 7.68945 23.9181 7.71584C23.8252 7.74223 23.7396 7.78947 23.6677 7.85398L23.617 7.79477C23.6979 7.72424 23.7934 7.6725 23.8967 7.64325C24 7.614 24.1085 7.60797 24.2144 7.6256C24.5421 7.65943 24.7335 7.84975 24.705 8.12678C24.6881 8.28961 24.6225 8.42601 24.373 8.62796L23.6328 9.23382L24.6764 9.34167Z" fill="#263238"/>
<path d="M26.036 9.07744C26.0064 9.36292 25.7854 9.54267 25.408 9.50037C25.2967 9.4944 25.1881 9.46459 25.0894 9.41297C24.9907 9.36134 24.9043 9.2891 24.8359 9.20115L24.8867 9.14722C24.9496 9.22882 25.0294 9.29583 25.1207 9.34365C25.2119 9.39147 25.3125 9.41897 25.4154 9.42425C25.7431 9.45808 25.9313 9.31851 25.9578 9.06686C25.9842 8.81522 25.833 8.64393 25.4693 8.60269L25.3741 8.59212L25.3805 8.53396L25.9863 7.89215L25.04 7.79488L25.0474 7.71875L26.1048 7.82448L26.0984 7.88264L25.4894 8.52656C25.8869 8.57097 26.0656 8.7909 26.036 9.07744Z" fill="#263238"/>
<path d="M27.7282 9.2317L27.3549 9.19364L27.3042 9.68953L27.2228 9.68107L27.2735 9.18518L26.2881 9.07944L26.2944 9.02023L27.3634 7.95654L27.4586 7.96606L26.4012 9.01706L27.2799 9.10799L27.3243 8.67131L27.4057 8.67977L27.3602 9.11539L27.7335 9.15451L27.7282 9.2317Z" fill="#263238"/>
<path d="M28.0844 9.69504C28.0795 9.72577 28.0714 9.75589 28.0601 9.78491L27.9375 10.1021L27.874 10.0958L27.985 9.76482C27.9637 9.76132 27.9447 9.74949 27.9321 9.73194C27.9195 9.71439 27.9144 9.69256 27.9179 9.67125C27.9214 9.64994 27.9332 9.63089 27.9508 9.6183C27.9683 9.60571 27.9902 9.6006 28.0115 9.60411C28.0331 9.60676 28.0528 9.61776 28.0664 9.63474C28.0801 9.65173 28.0865 9.67336 28.0844 9.69504Z" fill="#263238"/>
<path d="M29.7848 9.44435L29.4126 9.40628L29.3618 9.90112L29.2804 9.89266L29.3311 9.39782L28.3457 9.29209L28.352 9.23288L29.42 8.17236L29.5151 8.18294L28.4578 9.23394L29.3364 9.32381L29.3808 8.88713L29.4623 8.89559L29.42 9.33227L29.7932 9.37033L29.7848 9.44435Z" fill="#263238"/>
<path d="M31.0597 9.58616C31.0301 9.8653 30.8144 10.0609 30.4253 10.0207C30.3146 10.0144 30.2066 9.98439 30.1084 9.93277C30.0103 9.88116 29.9244 9.80911 29.8564 9.7215L29.9093 9.66758C29.9719 9.74949 30.0517 9.81672 30.143 9.86458C30.2343 9.91243 30.335 9.93974 30.438 9.9446C30.7732 9.97949 30.9561 9.81983 30.9815 9.57664C31.0089 9.31231 30.8673 9.1389 30.3767 9.08815L30.0436 9.05432L30.2128 8.25391L31.0978 8.3459L31.0904 8.42202L30.273 8.33744L30.1324 8.98665L30.3967 9.01414C30.9212 9.06806 31.0904 9.28164 31.0597 9.58616Z" fill="#263238"/>
<path d="M12.3033 44.75L11.6309 47.2358L13.8164 47.4346L14.2753 45.0683L12.3033 44.75Z" fill="#25CA80"/>
<path d="M13.8763 47.2327C13.7705 47.2402 13.6642 47.2367 13.5591 47.2221C13.3624 47.2062 13.0917 47.1756 12.7925 47.1375L12.0291 47.0318C11.9219 47.0237 11.8156 47.0053 11.7119 46.9768C11.8178 46.9707 11.924 46.975 12.0291 46.9895C12.2258 47.0053 12.4965 47.036 12.7957 47.0741L13.5591 47.1798C13.6661 47.1884 13.7723 47.2061 13.8763 47.2327Z" fill="#263238"/>
<g opacity="0.6">
<path d="M11.6309 47.2359L13.8164 47.4347L13.8513 47.2529L11.6943 46.979L11.634 47.2106" fill="white"/>
</g>
<path d="M12.7139 47.1251C12.8366 46.4867 12.9919 45.855 13.1791 45.2324C13.1253 45.5531 13.0547 45.8707 12.9676 46.184C12.8994 46.5019 12.8147 46.816 12.7139 47.1251Z" fill="#263238"/>
<path d="M13.7593 47.2168C13.7936 47.0646 13.7936 46.9068 13.7593 46.7547C13.7209 46.5913 13.6382 46.4417 13.5203 46.3222C13.3733 46.1788 13.1814 46.0903 12.9769 46.0717C12.7726 46.0506 12.5671 46.0974 12.3922 46.2049C12.2502 46.295 12.1331 46.4193 12.0517 46.5665C11.9793 46.7046 11.9323 46.8547 11.9132 47.0095C11.9118 46.9986 11.9118 46.9876 11.9132 46.9767C11.9128 46.9453 11.9145 46.9138 11.9185 46.8826C11.9337 46.7662 11.9695 46.6534 12.0242 46.5496C12.1045 46.3934 12.224 46.2608 12.371 46.1647C12.5541 46.0489 12.7709 45.9983 12.9864 46.0209C13.2024 46.0406 13.4048 46.1352 13.5584 46.2884C13.6801 46.4154 13.7636 46.5741 13.7995 46.7462C13.8231 46.8613 13.8231 46.9801 13.7995 47.0952C13.7927 47.1261 13.7835 47.1565 13.772 47.1861C13.7692 47.1968 13.7649 47.2072 13.7593 47.2168Z" fill="#263238"/>
<path d="M21.3171 44.4668L21.187 46.4239C21.187 46.4239 23.1347 47.0699 23.1463 47.4337L19.3398 47.4612L19.417 44.4033L21.3171 44.4668Z" fill="#25CA80"/>
<g opacity="0.6">
<path d="M20.0153 46.2239C19.9784 46.2341 19.9464 46.2575 19.9256 46.2897C19.9047 46.3218 19.8964 46.3605 19.9022 46.3984C19.9108 46.4358 19.9335 46.4685 19.9656 46.4896C19.9978 46.5106 20.0368 46.5185 20.0745 46.5115C20.1135 46.5006 20.1472 46.4757 20.169 46.4416C20.1909 46.4075 20.1994 46.3665 20.1929 46.3265C20.1799 46.2886 20.1527 46.2572 20.117 46.2389C20.0814 46.2205 20.04 46.2167 20.0016 46.2282" fill="white"/>
</g>
<g opacity="0.6">
<path d="M19.3398 47.4635L19.3599 47.1548L23.0247 47.2605C23.0634 47.2805 23.0966 47.3098 23.1211 47.3458C23.1457 47.3818 23.1609 47.4234 23.1653 47.4667L19.3398 47.4635Z" fill="white"/>
</g>
<path d="M21.2497 46.4072C21.2497 46.4262 21.1556 46.4315 21.0615 46.4886C20.9674 46.5457 20.9177 46.6219 20.9008 46.6145C20.8839 46.6071 20.9146 46.5003 21.0288 46.4326C21.1429 46.3649 21.254 46.3903 21.2497 46.4072Z" fill="#263238"/>
<path d="M21.643 46.5847C21.643 46.6027 21.5658 46.6313 21.5002 46.7085C21.4347 46.7856 21.4135 46.8671 21.3945 46.866C21.3755 46.8649 21.367 46.7603 21.4505 46.6651C21.5341 46.5699 21.644 46.5668 21.643 46.5847Z" fill="#263238"/>
<path d="M21.8553 47.0688C21.8383 47.0688 21.8151 46.9779 21.8658 46.8785C21.9166 46.7791 22.0054 46.74 22.0128 46.7559C22.0202 46.7717 21.9642 46.8246 21.924 46.9071C21.8838 46.9895 21.8743 47.0678 21.8553 47.0688Z" fill="#263238"/>
<path d="M21.2292 45.9578C21.2207 45.9747 21.1362 45.9461 21.0315 45.9504C20.9268 45.9546 20.8433 45.9853 20.8338 45.9683C20.8242 45.9514 20.9057 45.889 21.0294 45.8859C21.1531 45.8827 21.2387 45.944 21.2292 45.9578Z" fill="#263238"/>
<g opacity="0.3">
<path d="M21.2911 44.855L21.2678 45.204L19.3984 45.1299L19.4058 44.8159L21.2911 44.855Z" fill="black"/>
</g>
<path d="M21.2485 45.5622C21.1857 45.577 21.1199 45.5748 21.0582 45.5558C20.9898 45.5414 20.9234 45.5186 20.8605 45.4881C20.8237 45.4704 20.7884 45.4499 20.7547 45.4268C20.7335 45.4147 20.7146 45.3989 20.6987 45.3803C20.6868 45.3667 20.6798 45.3495 20.6788 45.3315C20.6779 45.3135 20.683 45.2957 20.6934 45.2809C20.7033 45.2684 20.7158 45.2584 20.7301 45.2514C20.7443 45.2444 20.76 45.2408 20.7759 45.2407C20.8 45.2412 20.8239 45.2455 20.8467 45.2534C20.8872 45.2644 20.9265 45.2792 20.9641 45.2978C21.0276 45.3285 21.0858 45.3692 21.1364 45.4184C21.2221 45.5029 21.2506 45.5727 21.2422 45.5759C21.2337 45.5791 21.1925 45.523 21.1047 45.4522C21.0537 45.4115 20.9975 45.3777 20.9377 45.3517C20.9036 45.3364 20.8682 45.324 20.8319 45.3147C20.7918 45.3031 20.7579 45.301 20.7463 45.3147C20.7347 45.3285 20.7463 45.3243 20.7463 45.3359C20.7585 45.3492 20.7723 45.361 20.7875 45.3708C20.8207 45.3933 20.8534 45.4134 20.8859 45.431C20.944 45.462 21.0049 45.4875 21.0677 45.5072C21.1291 45.5217 21.1895 45.5401 21.2485 45.5622Z" fill="#263238"/>
<path d="M21.223 45.5885C21.1894 45.5325 21.1739 45.4676 21.1786 45.4024C21.1766 45.2909 21.2059 45.181 21.2631 45.0852C21.274 45.0604 21.2911 45.0388 21.3128 45.0225C21.3345 45.0062 21.36 44.9957 21.3869 44.9922C21.4039 44.9929 21.4204 44.9986 21.4343 45.0085C21.4482 45.0185 21.4589 45.0323 21.4651 45.0482C21.4742 45.0706 21.4802 45.0941 21.4831 45.118C21.4897 45.1752 21.485 45.2331 21.4692 45.2884C21.4534 45.3438 21.4269 45.3954 21.3911 45.4405C21.3139 45.5378 21.2357 45.5568 21.2346 45.5462C21.2335 45.5357 21.2949 45.5029 21.3541 45.4098C21.3885 45.3565 21.4109 45.2962 21.4196 45.2333C21.4249 45.1964 21.4249 45.1591 21.4196 45.1222C21.4196 45.0821 21.4006 45.0493 21.3858 45.0525C21.371 45.0556 21.334 45.081 21.3171 45.1127C21.2975 45.1466 21.2805 45.182 21.2663 45.2185C21.2435 45.2789 21.2293 45.3423 21.224 45.4067C21.2156 45.5156 21.2335 45.5854 21.223 45.5885Z" fill="#263238"/>
<path d="M13.0633 13.9785C13.0633 13.9785 12.6498 16.2306 12.3231 17.5935C12.0651 18.6509 11.399 20.6366 12.6054 21.2128C13.8119 21.7891 15.4296 19.4619 15.4296 19.4619L16.1179 14.1603C15.639 14.2502 15.0955 14.8064 14.5171 15.6237L14.6228 13.6147L13.0633 13.9785Z" fill="#455A64"/>
<path d="M29.6664 17.3056L29.032 17.608L28.4473 16.6913L28.7888 15.984C28.8216 15.9184 28.8565 15.8455 28.8945 15.7609C28.9368 15.6618 28.9622 15.5564 28.9696 15.4489C28.9843 15.3166 28.9811 15.1829 28.9601 15.0514C28.9284 14.933 29.0531 14.8399 29.1377 14.9055C29.2223 14.971 29.3175 15.2967 29.2551 15.6869C29.1927 16.077 29.6452 15.6636 29.8134 15.5156C29.9815 15.3675 30.5218 14.9361 30.6074 14.9531C30.7311 14.9774 30.728 15.1191 30.5567 15.2618C30.3854 15.4045 29.9022 15.8729 29.9815 15.9596C30.0805 15.9708 30.1737 16.0125 30.248 16.079C30.3222 16.1455 30.374 16.2335 30.396 16.3308C30.4382 16.5222 30.4731 16.7875 30.3653 16.8753C30.1418 17.0336 29.9084 17.1774 29.6664 17.3056Z" fill="#FFBE9D"/>
<path d="M17.3656 8.76052L17.3486 14.2703L19.7107 14.3867L19.7795 13.047C19.7795 13.047 20.619 13.2141 20.8368 12.4337C20.9753 11.9357 20.9425 8.08594 20.9425 8.08594L17.3656 8.76052Z" fill="#FFBE9D"/>
<path d="M21.4736 8.62512C21.3139 8.95395 20.5558 9.55664 20.5558 9.55664L20.2132 10.4744C19.9161 10.2418 19.5164 10.2555 19.4413 10.7779C19.3864 11.1564 19.8558 11.2325 19.8558 11.2325C19.582 11.6978 19.3969 12.0784 18.9994 12.5161C18.568 12.9962 18.3269 13.0448 17.8595 13.0522H17.3436C17.3436 13.0522 16.2862 12.1704 16.4977 9.84952C16.7092 7.52865 18.7932 8.20641 19.2912 7.6291C20.1022 6.68172 22.0054 7.52654 21.4736 8.62512Z" fill="#263238"/>
<path d="M16.6152 11.7897H16.6808C16.7437 11.7885 16.8064 11.7815 16.8679 11.7685C17.094 11.7171 17.3027 11.6078 17.4738 11.4513C17.7191 11.2105 17.9259 10.9334 18.0871 10.6298C18.1928 10.4638 18.2922 10.2872 18.4191 10.1169C18.5469 9.93805 18.7038 9.78186 18.8832 9.65489C19.0679 9.53531 19.2718 9.4484 19.4859 9.39795C19.691 9.34508 19.893 9.31231 20.0833 9.2753C20.464 9.20446 20.8055 9.09872 21.0349 8.91792C21.2227 8.78054 21.3587 8.58385 21.4209 8.35964C21.4359 8.29873 21.4437 8.23627 21.4441 8.17355C21.4441 8.13019 21.4441 8.10693 21.4441 8.10693C21.4441 8.10693 21.4441 8.13019 21.4515 8.17355C21.4529 8.23682 21.4465 8.30003 21.4325 8.36175C21.3724 8.5895 21.2367 8.79008 21.0476 8.9306C20.8129 9.11458 20.4682 9.22349 20.0876 9.29433C19.8962 9.3324 19.6953 9.36517 19.4912 9.4191C19.2795 9.4694 19.0779 9.5552 18.8949 9.67286C18.7181 9.7992 18.5631 9.95348 18.436 10.1296C18.3102 10.2988 18.2055 10.4743 18.105 10.6403C17.9419 10.945 17.7325 11.2225 17.4844 11.4629C17.3111 11.6209 17.0992 11.7304 16.8701 11.7801C16.8077 11.7923 16.7443 11.7984 16.6808 11.7981C16.6374 11.7928 16.6152 11.7897 16.6152 11.7897Z" fill="#455A64"/>
<path d="M16.4932 9.90213C16.4932 9.90213 16.5302 9.88733 16.5989 9.86406C16.7041 9.82705 16.8129 9.80118 16.9235 9.78688C17.0995 9.76005 17.2794 9.79759 17.43 9.89261C17.4765 9.92355 17.5164 9.9634 17.5475 10.0099C17.5785 10.0563 17.6 10.1085 17.6108 10.1633C17.6234 10.2252 17.6203 10.2892 17.6019 10.3496C17.5834 10.41 17.5501 10.4648 17.505 10.509C17.4537 10.5542 17.3883 10.5803 17.32 10.5831C17.249 10.5841 17.1791 10.5654 17.1181 10.5291C16.9886 10.4523 16.8922 10.3303 16.8474 10.1866C16.7965 10.0351 16.7895 9.87234 16.8273 9.71709C16.8662 9.55305 16.9553 9.40522 17.0821 9.29415C17.2148 9.17519 17.3817 9.10118 17.559 9.08269C17.7426 9.07122 17.9267 9.0949 18.1014 9.15247C18.2811 9.21016 18.4649 9.25434 18.6512 9.28464C18.8435 9.31002 19.0383 9.31002 19.2306 9.28464C19.4231 9.26173 19.611 9.20968 19.7878 9.13027C19.8743 9.09541 19.9524 9.04247 20.0168 8.975C20.0811 8.90753 20.1303 8.82708 20.1611 8.73905C20.1863 8.65285 20.1881 8.56149 20.1664 8.47435C20.1446 8.38721 20.1001 8.30742 20.0374 8.24316C19.9736 8.1855 19.8942 8.14801 19.8091 8.13541C19.7241 8.1228 19.6372 8.13564 19.5595 8.17231C19.4838 8.20555 19.4218 8.26378 19.3839 8.33726C19.3479 8.4095 19.3346 8.49098 19.3459 8.57093C19.3567 8.64747 19.3837 8.72082 19.425 8.78609C19.4664 8.85137 19.5213 8.90706 19.5859 8.94946C19.7103 9.02577 19.8534 9.06604 19.9993 9.06577C20.1339 9.06818 20.2679 9.04817 20.3958 9.00656C20.6175 8.93679 20.8189 8.81414 20.9826 8.64918C21.1072 8.52655 21.2098 8.3835 21.2861 8.22624C21.3342 8.12473 21.3715 8.0184 21.3971 7.90903C21.4109 7.83502 21.4204 7.7959 21.4204 7.7959L21.4014 7.91009C21.3779 8.0194 21.3424 8.12578 21.2956 8.2273C21.221 8.38745 21.1186 8.53314 20.9932 8.65763C20.8291 8.82513 20.6266 8.95 20.4032 9.02136C20.2735 9.06326 20.1378 9.08397 20.0014 9.08269C19.8523 9.08363 19.7058 9.04298 19.5785 8.96532C19.5114 8.92172 19.4544 8.86424 19.4113 8.79675C19.3683 8.72927 19.3402 8.65335 19.329 8.5741C19.3165 8.49026 19.3301 8.4046 19.3681 8.3288C19.4082 8.25136 19.4735 8.18985 19.5531 8.15434C19.6346 8.1157 19.7257 8.10211 19.8149 8.11528C19.9042 8.12846 19.9875 8.16781 20.0543 8.22835C20.1197 8.29518 20.1661 8.37815 20.189 8.46879C20.2118 8.55943 20.2102 8.65451 20.1844 8.74434C20.1526 8.83541 20.1019 8.9187 20.0355 8.9887C19.9692 9.05869 19.8887 9.1138 19.7995 9.15036C19.6205 9.23035 19.4305 9.28309 19.2359 9.30684C19.0414 9.3317 18.8446 9.3317 18.6501 9.30684C18.4632 9.27628 18.2787 9.23211 18.0982 9.17468C17.9258 9.11807 17.7444 9.09405 17.5632 9.10383C17.4403 9.11693 17.3219 9.15742 17.2167 9.22232C17.1114 9.28722 17.0221 9.37489 16.9553 9.47887C16.8884 9.58285 16.8457 9.70049 16.8304 9.82315C16.815 9.9458 16.8273 10.0703 16.8664 10.1876C16.9099 10.3271 17.0032 10.4457 17.1286 10.5207C17.1868 10.5555 17.2533 10.5738 17.3211 10.5735C17.3858 10.5711 17.4478 10.5465 17.4966 10.5038C17.5394 10.461 17.571 10.4083 17.5885 10.3504C17.606 10.2924 17.609 10.2311 17.597 10.1718C17.5758 10.065 17.5135 9.97086 17.4236 9.90953C17.2754 9.81547 17.0982 9.77793 16.9246 9.8038C16.8145 9.81705 16.7061 9.8415 16.601 9.87675L16.4932 9.90213Z" fill="#455A64"/>
<path d="M14.9347 24.9019L11.7881 45.5708L14.4018 45.9018L18.0888 28.5666L19.0182 46.0191L21.8508 45.9694L21.3814 24.9505L14.9347 24.9019Z" fill="#263238"/>
<path d="M18.9682 46.0717V46.021L18.061 28.9681L14.4438 45.9607L11.7285 45.616L14.89 24.854L21.4339 24.9026L21.9055 46.0263L18.9682 46.0717ZM18.1223 28.1635L19.0739 45.9649L21.8029 45.9174L21.3355 25.0031L14.9809 24.9597L11.8491 45.524L14.3602 45.8412L18.1223 28.1635Z" fill="#263238"/>
<path d="M21.0099 45.9357C20.9941 45.9357 20.9824 41.7951 20.9824 36.6881C20.9824 31.5812 20.9941 27.4385 21.0099 27.4385C21.0258 27.4385 21.0374 31.579 21.0374 36.6881C21.0374 41.7972 21.0247 45.9357 21.0099 45.9357Z" fill="#455A64"/>
<path d="M13.8271 45.8606C13.8279 45.8456 13.83 45.8307 13.8335 45.8162C13.8335 45.7834 13.8472 45.74 13.8578 45.685C13.88 45.5677 13.9128 45.3985 13.954 45.1828C14.0428 44.744 14.1655 44.1149 14.3252 43.3377C14.6424 41.7803 15.0917 39.6318 15.6077 37.2633C16.1237 34.8948 16.609 32.7527 16.9685 31.2058C17.1493 30.4339 17.2963 29.809 17.3989 29.3734C17.4507 29.1619 17.4919 28.9928 17.5194 28.8764C17.5331 28.8215 17.5448 28.7792 17.5522 28.7475C17.5558 28.7327 17.5604 28.7182 17.5659 28.7041C17.5659 28.7041 17.5659 28.7189 17.5575 28.7485C17.549 28.7781 17.5427 28.8236 17.531 28.8786C17.5046 28.9959 17.4676 29.164 17.42 29.3787C17.3217 29.8143 17.181 30.436 17.0066 31.2142C16.6566 32.7643 16.1776 34.9065 15.6616 37.2749C15.1457 39.6434 14.6899 41.7909 14.3632 43.3451C14.1993 44.1212 14.0672 44.7493 13.9752 45.187C13.9297 45.3985 13.8938 45.5698 13.8694 45.6872L13.8398 45.8172C13.8371 45.8321 13.8328 45.8466 13.8271 45.8606Z" fill="#455A64"/>
<path d="M19.0182 28.5476C18.9792 28.558 18.9391 28.5633 18.8987 28.5634L18.572 28.5867C18.2961 28.6047 17.9144 28.6237 17.4956 28.6649C17.0769 28.7062 16.6995 28.7633 16.4256 28.7992L16.101 28.8405C16.0613 28.8481 16.0208 28.8506 15.9805 28.8479C16.0184 28.834 16.0578 28.8244 16.0978 28.8193C16.1729 28.8035 16.2829 28.7834 16.415 28.7601C16.6878 28.7146 17.0653 28.6544 17.4861 28.61C17.907 28.5656 18.2897 28.556 18.5657 28.5476C18.7042 28.5476 18.8163 28.5423 18.8935 28.5423C18.9351 28.5395 18.9769 28.5413 19.0182 28.5476Z" fill="#455A64"/>
<path d="M21.4366 27.2055C21.4108 27.2169 21.3832 27.2236 21.3551 27.2256C21.2795 27.2366 21.203 27.2401 21.1267 27.2362C20.8729 27.2226 20.6283 27.1364 20.4221 26.9877C20.2159 26.8391 20.0568 26.6343 19.9637 26.3977C19.9355 26.3267 19.9146 26.253 19.9013 26.1778C19.8918 26.1249 19.8907 26.0953 19.8949 26.0942C19.8992 26.0932 19.9224 26.2106 20.0007 26.3818C20.102 26.6055 20.2593 26.7993 20.4575 26.9443C20.6576 27.086 20.8912 27.1731 21.1352 27.1971C21.3171 27.2161 21.4344 27.1949 21.4366 27.2055Z" fill="#455A64"/>
<path d="M14.3965 25.3079L21.6372 25.2846L21.2407 20.5065C21.1973 19.4132 21.2037 19.2821 21.1762 18.2734C21.1762 18.2734 22.2039 19.5158 23.0128 20.3881C23.2511 20.6444 23.5649 20.8181 23.9086 20.8841C24.2524 20.9501 24.6082 20.9048 24.9245 20.755L29.1538 17.8039L28.3619 15.777L24.5184 18.1296C24.3419 18.0239 22.8457 15.8849 21.8116 14.8434C21.1496 14.1768 20.2565 13.7902 19.3174 13.7638C18.538 13.7456 17.7582 13.777 16.9827 13.8579C16.4179 13.9184 15.8918 14.1738 15.4948 14.5802C15.0979 14.9866 14.855 15.5186 14.8078 16.0847C14.7327 16.9781 14.793 18.0154 14.793 19.778L14.3965 25.3079Z" fill="#455A64"/>
<path d="M14.7377 16.5679C14.7377 16.5679 14.7377 16.588 14.7377 16.6239C14.7377 16.6599 14.7377 16.7201 14.7377 16.7836C14.7377 16.9231 14.7377 17.124 14.7377 17.3725C14.7377 17.8695 14.7599 18.5546 14.7822 19.3127C14.8044 20.0709 14.8075 20.7581 14.7885 21.254C14.78 21.5025 14.7684 21.7034 14.7568 21.8419C14.7568 21.9064 14.7473 21.9593 14.7441 22.0016C14.7409 22.0439 14.7377 22.0565 14.7377 22.0565C14.7377 22.0565 14.7377 22.0375 14.7377 22.0016C14.7377 21.9656 14.743 21.9053 14.7462 21.8419C14.7557 21.7034 14.7642 21.5025 14.7705 21.254C14.7853 20.7571 14.779 20.0709 14.7578 19.3127C14.7367 18.5546 14.7187 17.8695 14.7198 17.3725C14.7198 17.124 14.7198 16.9231 14.7272 16.7836C14.7272 16.7191 14.7272 16.6673 14.7325 16.6239C14.7377 16.5806 14.7377 16.5679 14.7377 16.5679Z" fill="#263238"/>
<path d="M24.3604 18.8133C24.3616 18.7798 24.3666 18.7464 24.3752 18.714C24.3878 18.6526 24.4058 18.568 24.428 18.476C24.4502 18.3841 24.4703 18.2995 24.4862 18.2403C24.4924 18.2071 24.5027 18.1747 24.5168 18.144C24.5155 18.1777 24.5102 18.2111 24.501 18.2434C24.4893 18.3048 24.4703 18.3883 24.4492 18.4813C24.428 18.5744 24.4069 18.6569 24.391 18.7171C24.3843 18.7502 24.374 18.7825 24.3604 18.8133Z" fill="#263238"/>
<path d="M24.7458 18.8725C24.7054 18.7478 24.6725 18.6206 24.6475 18.4919C24.6149 18.3647 24.5892 18.2359 24.5703 18.106C24.6102 18.2309 24.643 18.358 24.6686 18.4866C24.7012 18.6138 24.727 18.7426 24.7458 18.8725Z" fill="#263238"/>
<path d="M21.3553 18.452L21.3162 18.416L21.2052 18.3103C21.11 18.2172 20.9726 18.0808 20.8076 17.9064C20.6142 17.7036 20.4341 17.4885 20.2684 17.2625C20.0634 16.9858 19.8979 16.6819 19.7767 16.3595C19.6542 16.0364 19.5992 15.6917 19.615 15.3466C19.6202 15.0647 19.6821 14.7867 19.7968 14.5292C19.879 14.357 20.0011 14.2069 20.1531 14.0915C20.1939 14.0605 20.2366 14.0323 20.2811 14.0069L20.3287 13.9805C20.3287 13.9805 20.2631 14.0164 20.1584 14.0978C20.01 14.2147 19.8909 14.3646 19.8106 14.5356C19.6989 14.792 19.6393 15.068 19.635 15.3476C19.6203 15.69 19.6757 16.0319 19.7979 16.3521C19.9184 16.6724 20.082 16.9748 20.2843 17.2508C20.4492 17.4766 20.6279 17.692 20.8193 17.8958C20.9821 18.0713 21.1174 18.213 21.2115 18.305L21.3173 18.4107C21.3437 18.4382 21.3553 18.452 21.3553 18.452Z" fill="#263238"/>
<path d="M16.6489 16.4861C16.5533 16.4089 16.4696 16.3181 16.4004 16.2165C16.3179 16.126 16.2488 16.0242 16.1953 15.9141C16.2908 15.991 16.3745 16.0815 16.4438 16.1826C16.5267 16.2731 16.5959 16.3754 16.6489 16.4861Z" fill="#FAFAFA"/>
<path d="M18.2946 18.3535C18.1944 18.4923 18.0795 18.6199 17.952 18.7342C17.8373 18.8615 17.7093 18.9764 17.5703 19.0767C17.7853 18.8106 18.0281 18.5682 18.2946 18.3535Z" fill="#FAFAFA"/>
<path d="M19.8869 21.0338C19.8721 21.0338 19.8139 20.8752 19.7061 20.6923C19.5982 20.5094 19.4861 20.3751 19.4946 20.3677C19.6037 20.4435 19.6917 20.5457 19.7505 20.6648C19.826 20.7745 19.8729 20.9013 19.8869 21.0338Z" fill="#FAFAFA"/>
<path d="M15.7587 20.7303C15.5978 20.3928 15.532 20.0177 15.5683 19.6455C15.5853 19.6455 15.5895 19.8929 15.6434 20.1911C15.6973 20.4893 15.7798 20.724 15.7587 20.7303Z" fill="#FAFAFA"/>
<path d="M17.9509 21.9106C17.8192 21.6268 17.7908 21.3059 17.8706 21.0034C17.8864 21.0034 17.8632 21.2096 17.8864 21.4591C17.9097 21.7087 17.9668 21.9053 17.9509 21.9106Z" fill="#FAFAFA"/>
<path d="M17.0835 23.6247C16.9091 23.5487 16.7426 23.4555 16.5866 23.3466C16.4205 23.2534 16.2637 23.1447 16.1182 23.022C16.2929 23.0981 16.4597 23.1912 16.6162 23.3001C16.7819 23.3931 16.9384 23.5018 17.0835 23.6247Z" fill="#FAFAFA"/>
<path d="M20.4921 23.1182C20.4995 23.133 20.2542 23.2546 19.9698 23.4354C19.6853 23.6162 19.4686 23.7843 19.458 23.7716C19.5986 23.6205 19.7611 23.4915 19.9402 23.3888C20.1093 23.271 20.2954 23.1797 20.4921 23.1182Z" fill="#FAFAFA"/>
<path d="M16.2024 25.0562C16.024 25.0479 15.8469 25.0216 15.6737 24.978C15.4955 24.9517 15.3204 24.9071 15.1514 24.8447C15.3298 24.8531 15.507 24.8797 15.68 24.924C15.8582 24.9503 16.0332 24.9945 16.2024 25.0562Z" fill="#FAFAFA"/>
<path d="M18.4909 24.6838C18.2892 24.4881 18.1523 24.2353 18.0986 23.9595C18.1134 23.9595 18.179 24.1265 18.2879 24.3253C18.3968 24.5241 18.5036 24.6732 18.4909 24.6838Z" fill="#FAFAFA"/>
<path d="M21.0668 24.8624C21.0272 24.9519 20.9712 25.0332 20.9019 25.1024C20.7962 25.225 20.7073 25.3139 20.6904 25.3075C20.7293 25.2169 20.7853 25.1347 20.8554 25.0654C20.9611 24.9448 21.051 24.8539 21.0668 24.8624Z" fill="#FAFAFA"/>
<path d="M16.3584 17.5942C16.3669 17.6069 16.2728 17.6852 16.147 17.7676C16.0755 17.8261 15.9932 17.87 15.9048 17.8966C15.8964 17.884 15.9915 17.8057 16.1163 17.7222C16.1876 17.6637 16.27 17.6202 16.3584 17.5942Z" fill="#FAFAFA"/>
<path d="M18.1427 15.6014C18.0579 15.4281 17.994 15.2453 17.9524 15.0569C17.8952 14.8731 17.8597 14.6833 17.8467 14.4912C17.9131 14.6712 17.9668 14.8556 18.0074 15.0431C18.0657 15.2258 18.1109 15.4124 18.1427 15.6014Z" fill="#FAFAFA"/>
<path d="M19.857 17.4157C19.8496 17.4305 19.6952 17.3713 19.4975 17.3343C19.2998 17.2973 19.1338 17.2941 19.1338 17.2772C19.3837 17.2336 19.6409 17.2829 19.857 17.4157Z" fill="#FAFAFA"/>
<path d="M21.0345 15.8742C20.9032 15.9126 20.7643 15.9173 20.6306 15.888C20.4944 15.8762 20.3634 15.83 20.25 15.7537C20.2563 15.7389 20.4234 15.8013 20.6391 15.833C20.8548 15.8647 21.0324 15.8584 21.0345 15.8742Z" fill="#FAFAFA"/>
<path d="M22.2394 17.5933C22.2196 17.3988 22.2295 17.2023 22.269 17.0108C22.2916 16.8163 22.3444 16.6265 22.4255 16.4482C22.4403 16.4482 22.3737 16.7041 22.3198 17.0192C22.2659 17.3343 22.2563 17.5944 22.2394 17.5933Z" fill="#FAFAFA"/>
<path d="M23.656 19.619C23.3924 19.3988 23.1535 19.1506 22.9434 18.8789C23.2063 19.0999 23.4451 19.348 23.656 19.619Z" fill="#FAFAFA"/>
<path d="M24.8341 19.4614C24.7248 19.7005 24.5824 19.9229 24.4111 20.1223C24.4581 19.9987 24.5221 19.8823 24.6015 19.7765C24.6638 19.6611 24.7421 19.555 24.8341 19.4614Z" fill="#FAFAFA"/>
<path d="M26.201 18.7964C26.109 18.6707 26.0323 18.5344 25.9726 18.3904C25.8966 18.254 25.8366 18.1092 25.7939 17.959C25.8859 18.0852 25.9625 18.2218 26.0223 18.3661C26.0983 18.5021 26.1583 18.6465 26.201 18.7964Z" fill="#FAFAFA"/>
<path d="M28.0618 18.0268C27.7356 18.0063 27.4128 17.9489 27.0996 17.8555C27.2634 17.8571 27.4266 17.877 27.586 17.9147C27.7483 17.9339 27.9079 17.9715 28.0618 18.0268Z" fill="#FAFAFA"/>
<path d="M13.2803 20.0074C13.3932 19.679 13.5414 19.3638 13.7222 19.0674C13.6739 19.2343 13.608 19.3955 13.5256 19.5485C13.4602 19.7097 13.378 19.8635 13.2803 20.0074Z" fill="#FAFAFA"/>
<path d="M14.2663 18.267C14.1481 18.1745 14.0416 18.068 13.9491 17.9498C13.8425 17.8436 13.7484 17.7255 13.6689 17.5977C13.7875 17.6897 13.8941 17.7963 13.9861 17.9149C14.0934 18.0205 14.1875 18.1387 14.2663 18.267Z" fill="#FAFAFA"/>
<path d="M14.184 21.0615C14.1935 21.0731 14.1205 21.1503 14.0211 21.2338C13.9218 21.3174 13.8319 21.3745 13.8213 21.3628C13.8107 21.3512 13.8858 21.274 13.9852 21.1916C14.0846 21.1091 14.1745 21.0478 14.184 21.0615Z" fill="#FAFAFA"/>
<path d="M14.5173 16.4175C14.53 16.427 14.4856 16.5021 14.419 16.5856C14.3524 16.6692 14.2879 16.7284 14.2763 16.7188C14.2646 16.7093 14.309 16.6343 14.3757 16.5507C14.4423 16.4672 14.511 16.408 14.5173 16.4175Z" fill="#FAFAFA"/>
<g opacity="0.3">
<path d="M20.0439 16.8975C20.4912 18.3027 20.8359 19.7777 21.2832 21.1829L21.1774 18.2731C20.7425 17.8647 20.3616 17.4025 20.0439 16.8975Z" fill="black"/>
</g>
<path d="M12.7686 18.7363C12.7722 18.7247 12.7768 18.7134 12.7823 18.7025L12.8246 18.6041C12.8627 18.5196 12.9187 18.399 12.9906 18.2499C13.1344 17.9518 13.3416 17.5447 13.5912 17.1048C13.8407 16.665 14.0828 16.278 14.2647 16.002C14.3556 15.8635 14.4307 15.7525 14.4836 15.6774L14.5449 15.5907C14.5597 15.5706 14.5671 15.5601 14.5682 15.5611L14.5491 15.5928L14.491 15.6816L14.2795 16.0105C14.1008 16.2886 13.8566 16.6766 13.6123 17.1154C13.3681 17.5542 13.1534 17.9613 13.0075 18.2563L12.8352 18.6084C12.8172 18.6443 12.8013 18.676 12.7886 18.7035C12.7831 18.7151 12.7764 18.7261 12.7686 18.7363Z" fill="#263238"/>
<path d="M13.4822 17.3901C13.4445 17.4088 13.4057 17.4251 13.3659 17.4388C13.274 17.4789 13.1862 17.5277 13.1037 17.5847C13.0217 17.6423 12.9455 17.7078 12.8764 17.7803C12.8224 17.8363 12.7928 17.8733 12.7907 17.8712C12.7886 17.8691 12.7907 17.8607 12.8076 17.8427C12.8252 17.8172 12.8442 17.7929 12.8647 17.7697C12.9313 17.6927 13.0073 17.6245 13.091 17.5667C13.1747 17.5086 13.2653 17.461 13.3606 17.425C13.3893 17.4138 13.4186 17.4043 13.4484 17.3965C13.4593 17.3928 13.4707 17.3907 13.4822 17.3901Z" fill="#263238"/>
<path d="M13.5816 15.2217C13.491 15.3949 13.3848 15.5595 13.2644 15.7133C13.1569 15.8776 13.034 16.0313 12.8975 16.1722C12.9884 15.9996 13.0946 15.8354 13.2147 15.6816C13.3223 15.5172 13.4451 15.3632 13.5816 15.2217Z" fill="#FAFAFA"/>
<path d="M14.3447 13.5023C14.3971 13.5116 14.4511 13.5043 14.4992 13.4816C14.5473 13.4589 14.5872 13.4218 14.6133 13.3754C14.6725 13.2866 14.7 13.1809 14.7518 13.0878C14.9093 12.8119 15.2667 12.6913 15.4105 12.408C15.4306 12.3678 15.4422 12.3128 15.4105 12.2853C15.3788 12.2578 15.3312 12.2768 15.2942 12.2948L14.3532 12.7664" fill="#FFBE9D"/>
<path d="M14.3517 12.7663C14.3808 12.7415 14.4132 12.7209 14.4479 12.705C14.5114 12.6691 14.6055 12.6194 14.7218 12.558L15.1299 12.3466L15.2494 12.2863C15.2938 12.2547 15.3488 12.2414 15.4027 12.2493C15.4193 12.2556 15.4336 12.2668 15.4437 12.2813C15.4539 12.2958 15.4595 12.313 15.4598 12.3307C15.4603 12.36 15.4538 12.389 15.4408 12.4153C15.4179 12.4619 15.3895 12.5055 15.3562 12.5454C15.2238 12.6792 15.0825 12.8039 14.9333 12.9186C14.8735 12.9709 14.8218 13.0319 14.7799 13.0994C14.7419 13.1639 14.7176 13.2305 14.688 13.2908C14.6692 13.3417 14.6396 13.3879 14.601 13.4261C14.5625 13.4643 14.516 13.4935 14.4649 13.5118C14.4463 13.5192 14.4262 13.5223 14.4063 13.5208C14.3863 13.5193 14.3669 13.5134 14.3496 13.5033C14.3854 13.5046 14.4211 13.4999 14.4553 13.4896C14.5001 13.4692 14.5402 13.4399 14.5733 13.4036C14.6064 13.3672 14.6317 13.3245 14.6478 13.2781C14.6732 13.2107 14.7022 13.1447 14.7345 13.0804C14.7771 13.0072 14.8306 12.9409 14.8931 12.8837C15.0412 12.7684 15.1824 12.6445 15.316 12.5126C15.3455 12.4761 15.3713 12.4367 15.3932 12.3952C15.4122 12.3561 15.4122 12.3149 15.3932 12.3096C15.3742 12.3043 15.3255 12.3223 15.2875 12.3423L15.168 12.4016L14.7535 12.6025C14.6351 12.6585 14.542 12.7082 14.4712 12.7325C14.4334 12.7499 14.3931 12.7613 14.3517 12.7663Z" fill="#EB996E"/>
<path d="M43.8639 41.813H37.1709V42.7329H43.8639V41.813Z" fill="#263238"/>
<path d="M43.8744 42.7434H37.1592V41.8013H43.8744V42.7434ZM37.1824 42.7233H43.8511V41.8266H37.1824V42.7233Z" fill="#263238"/>
<path d="M37.792 42.4263L38.7552 47.178H42.3195L43.25 42.7318L37.792 42.4263Z" fill="#263238"/>
<path d="M37.792 46.7285L38.3059 47.4348H42.6378L43.25 46.7285H37.792Z" fill="#455A64"/>
<path d="M40.2657 42.5648C40.2519 42.5648 40.235 40.3634 40.2276 37.6482C40.2202 34.9329 40.2276 32.7305 40.2382 32.7305C40.2487 32.7305 40.2678 34.9319 40.2752 37.6482C40.2826 40.3645 40.2784 42.5648 40.2657 42.5648Z" fill="#263238"/>
<path d="M41.7573 37.0552C41.7529 37.073 41.7469 37.0903 41.7393 37.107L41.679 37.2487C41.6664 37.2804 41.6515 37.3142 41.6357 37.3544L41.5913 37.4802C41.5754 37.5246 41.5574 37.5722 41.5395 37.623C41.5215 37.6737 41.5077 37.7287 41.4898 37.7869C41.4103 38.0558 41.3478 38.3295 41.3026 38.6063C41.2501 38.9458 41.2148 39.2878 41.1969 39.6309C41.1725 40.2552 41.1901 40.8804 41.2498 41.5024C41.272 41.7413 41.2931 41.9348 41.309 42.068C41.3164 42.1304 41.3217 42.1812 41.3259 42.2214C41.3273 42.2393 41.3273 42.2573 41.3259 42.2753C41.319 42.2588 41.3147 42.2413 41.3132 42.2235C41.3069 42.1833 41.2984 42.1325 41.2878 42.0702C41.2656 41.938 41.2392 41.7445 41.2138 41.5055C41.1467 40.8813 41.1277 40.2528 41.1567 39.6256C41.1735 39.2806 41.2088 38.9369 41.2624 38.5957C41.3099 38.3173 41.3763 38.0425 41.4612 37.7731C41.4792 37.716 41.4951 37.661 41.5141 37.6103L41.5691 37.4675C41.587 37.4231 41.6029 37.3819 41.6177 37.3428C41.6325 37.3036 41.6515 37.2719 41.6653 37.237L41.734 37.0985C41.7402 37.0833 41.748 37.0687 41.7573 37.0552Z" fill="#263238"/>
<path d="M41.5852 35.2744C41.5795 35.2991 41.5725 35.3235 41.564 35.3474C41.546 35.3981 41.5228 35.4658 41.4942 35.5514C41.4784 35.5969 41.4614 35.6455 41.4435 35.6995L41.3895 35.8771C41.3504 36.005 41.305 36.1488 41.2648 36.3127C41.2426 36.3931 41.2204 36.4787 41.1971 36.5665C41.1738 36.6542 41.1559 36.7494 41.1347 36.8456C41.0882 37.037 41.0544 37.2453 41.011 37.4621C40.937 37.8998 40.8725 38.383 40.827 38.8926C40.7816 39.4023 40.7668 39.8908 40.7604 40.3349C40.7541 40.7789 40.7604 41.1807 40.7826 41.5127C40.789 41.6809 40.7995 41.8299 40.808 41.9653C40.8165 42.1006 40.8239 42.2127 40.8323 42.3068C40.8408 42.4009 40.845 42.4686 40.8492 42.5183C40.8518 42.5432 40.8518 42.5684 40.8492 42.5934C40.8432 42.5691 40.8393 42.5443 40.8376 42.5193L40.8122 42.3079C40.8006 42.2148 40.789 42.0964 40.7795 41.9674C40.7699 41.8384 40.7551 41.683 40.7467 41.5149C40.7245 41.1797 40.715 40.7747 40.7139 40.3338C40.7128 39.8929 40.7351 39.4002 40.7773 38.8895C40.8196 38.3788 40.8894 37.8924 40.9656 37.4547C41.01 37.2368 41.0449 37.0317 41.0935 36.8361C41.1168 36.7399 41.1379 36.6468 41.159 36.558C41.1802 36.4692 41.2077 36.3846 41.2299 36.3032C41.2722 36.1404 41.3198 35.9955 41.3621 35.8686L41.4191 35.6921C41.4392 35.6392 41.4583 35.5863 41.4741 35.5451L41.5524 35.3442C41.5619 35.3203 41.5729 35.297 41.5852 35.2744Z" fill="#263238"/>
<path d="M39.8424 42.9541V42.9287C39.8424 42.9086 39.8424 42.8843 39.836 42.8526C39.8308 42.7828 39.8244 42.6855 39.816 42.5618C39.8001 42.3049 39.7779 41.939 39.7493 41.4886C39.6912 40.5835 39.6066 39.3327 39.4543 37.9571C39.3772 37.2698 39.2862 36.6164 39.1932 36.0243C39.1424 35.7293 39.098 35.448 39.0462 35.1858C38.9944 34.9236 38.9489 34.6804 38.9013 34.4583C38.8538 34.2363 38.8083 34.0354 38.7692 33.8609C38.7301 33.6865 38.6931 33.5353 38.6634 33.4116C38.6338 33.2879 38.6106 33.2001 38.5947 33.1282C38.5873 33.0975 38.582 33.0732 38.5778 33.0542C38.5736 33.0352 38.5725 33.0288 38.5778 33.0288C38.5812 33.0367 38.5841 33.0448 38.5863 33.0531C38.5863 33.0722 38.5989 33.0954 38.6074 33.1261C38.6264 33.1938 38.6529 33.2879 38.6856 33.4073C38.7184 33.5268 38.7607 33.6791 38.802 33.8546C38.8432 34.0301 38.895 34.2289 38.9415 34.452C38.988 34.6751 39.0473 34.9162 39.0917 35.1784C39.1361 35.4406 39.1911 35.7219 39.2429 36.0179C39.3391 36.61 39.4311 37.2635 39.5083 37.9518C39.6605 39.3264 39.7398 40.5814 39.7895 41.4876C39.8138 41.9401 39.8308 42.307 39.8413 42.5608C39.8413 42.6845 39.8498 42.7828 39.8519 42.8526C39.8519 42.8833 39.8519 42.9086 39.8519 42.9287C39.8505 42.9377 39.8472 42.9464 39.8424 42.9541Z" fill="#263238"/>
<path d="M40.211 33.7887C40.1824 33.4768 39.8673 33.241 39.5533 33.2378C39.3965 33.2448 39.2433 33.2874 39.1054 33.3623C38.9674 33.4372 38.8483 33.5425 38.7571 33.6702C38.5769 33.9278 38.4467 34.2169 38.3733 34.5225C38.1446 35.2545 38.0645 36.0249 38.1375 36.7884C38.2274 37.5475 38.5351 38.2951 39.0796 38.8311C39.1684 38.9189 39.2837 39.0056 39.4053 38.9802C39.4706 38.9605 39.5297 38.9241 39.5765 38.8745C40.1096 38.386 40.5322 37.7893 40.8159 37.1242C41.0997 36.4592 41.238 35.7412 41.2218 35.0184C41.2133 34.7297 41.1753 34.4294 41.0156 34.1894C40.8559 33.9494 40.4869 33.6935 40.211 33.7897" fill="#25CA80"/>
<path d="M37.8722 31.2904L37.4313 32.0897C37.4208 32.1077 37.407 32.1288 37.3859 32.131C37.3647 32.1331 37.3457 32.1109 37.333 32.0918C36.9439 31.4948 36.5562 30.8977 36.1699 30.3007L36.4385 30.1484L37.8722 31.2904Z" fill="#25CA80"/>
<g opacity="0.2">
<path d="M37.8722 31.2904L37.4313 32.0897C37.4208 32.1077 37.407 32.1288 37.3859 32.131C37.3647 32.1331 37.3457 32.1109 37.333 32.0918C36.9439 31.4948 36.5562 30.8977 36.1699 30.3007L36.4385 30.1484L37.8722 31.2904Z" fill="black"/>
</g>
<path d="M40.2385 32.7304L36.2597 30.3821C36.2159 30.3636 36.181 30.3287 36.1625 30.2848C36.1466 30.2256 36.191 30.1696 36.2333 30.1252C36.5068 29.8412 36.8384 29.6196 37.2053 29.4755C37.5723 29.3313 37.966 29.268 38.3596 29.2899C38.753 29.3184 39.1335 29.4421 39.4684 29.6505C39.8033 29.8588 40.0825 30.1454 40.2819 30.4857C40.6657 31.1719 40.6784 32.0791 40.2385 32.7304Z" fill="#25CA80"/>
<path d="M36.833 29.6336C36.8498 29.6288 36.8673 29.6263 36.8848 29.6262C36.9197 29.6262 36.9705 29.6188 37.035 29.6199C37.2202 29.6174 37.4053 29.6319 37.588 29.6633C38.1939 29.7659 38.7581 30.0392 39.2141 30.4513C39.6702 30.8633 39.9992 31.3969 40.1626 31.9894C40.212 32.1676 40.2453 32.3498 40.262 32.5339C40.264 32.5727 40.264 32.6115 40.262 32.6503C40.2593 32.6813 40.2488 32.7111 40.2313 32.737C40.2436 32.6707 40.2457 32.603 40.2377 32.5361C40.2146 32.3543 40.1772 32.1747 40.1256 31.9989C39.9256 31.3291 39.5186 30.7399 38.963 30.3157C38.4074 29.8915 37.7317 29.6542 37.0328 29.6379C36.9049 29.6347 36.833 29.6379 36.833 29.6336Z" fill="#263238"/>
<path d="M39.6992 31.1094C39.636 31.1476 39.5686 31.1785 39.4983 31.2014C39.3714 31.2511 39.1949 31.3145 38.9961 31.3779C38.7973 31.4414 38.6165 31.4911 38.4843 31.5228C38.4138 31.5445 38.3411 31.5587 38.2676 31.5651C38.335 31.5323 38.4059 31.5075 38.479 31.4911L38.9866 31.3325L39.4909 31.1696C39.5582 31.1426 39.6279 31.1224 39.6992 31.1094Z" fill="#263238"/>
<path d="M39.0738 29.4263C39.1091 29.5716 39.1247 29.7209 39.1203 29.8704C39.1318 30.0195 39.1236 30.1695 39.096 30.3166C39.0762 30.1691 39.0684 30.0202 39.0728 29.8714C39.0613 29.7232 39.0617 29.5744 39.0738 29.4263Z" fill="#263238"/>
<path d="M36.2246 30.3374C36.3178 30.2945 36.4144 30.2592 36.5133 30.2317C36.6941 30.1757 36.9457 30.1059 37.227 30.0382C37.5082 29.9705 37.763 29.9187 37.9502 29.886C38.05 29.8635 38.1515 29.8497 38.2537 29.8447C38.1564 29.8761 38.0571 29.9008 37.9565 29.9187C37.7726 29.96 37.5177 30.0171 37.2375 30.0837C36.9574 30.1503 36.7089 30.2169 36.5228 30.2645C36.4252 30.2956 36.3255 30.3199 36.2246 30.3374Z" fill="#263238"/>
<path d="M38.5595 33.1123C38.218 32.8522 37.8553 32.8015 37.4271 32.8184C36.9975 32.846 36.5769 32.9536 36.1868 33.1356C35.5154 33.4295 34.8852 33.862 34.4845 34.4752C34.0838 35.0885 33.9431 35.9005 34.2434 36.5677C34.267 36.6376 34.3156 36.6964 34.3798 36.7327C34.4541 36.7546 34.5338 36.7486 34.604 36.7157C35.3674 36.4673 36.1361 36.2156 36.8371 35.8255C37.5381 35.4353 38.1778 34.8939 38.5542 34.1855C38.6508 34.0182 38.7124 33.8329 38.735 33.641C38.7452 33.5454 38.7348 33.4488 38.7045 33.3577C38.6742 33.2665 38.6248 33.1828 38.5595 33.1123Z" fill="#25CA80"/>
<path d="M38.5671 33.0317C38.5492 33.0402 38.5309 33.0476 38.5121 33.0539L38.3525 33.1089L38.2362 33.147L38.1008 33.1999C38.0046 33.239 37.8894 33.2781 37.7741 33.3352L37.587 33.4208C37.5225 33.4504 37.458 33.4875 37.3892 33.5266C37.2507 33.5942 37.1111 33.6809 36.9663 33.7698C36.3261 34.1652 35.757 34.6656 35.283 35.25C35.1773 35.3875 35.0715 35.5144 34.9869 35.6434C34.9436 35.7068 34.8992 35.766 34.8611 35.8274C34.8231 35.8887 34.7871 35.9458 34.7554 36.0018C34.6835 36.1076 34.6296 36.2133 34.5788 36.3084C34.5545 36.3539 34.5302 36.3962 34.509 36.4364L34.4562 36.5421C34.4255 36.6034 34.4012 36.6542 34.3821 36.6933C34.3735 36.7112 34.3636 36.7286 34.3525 36.7451C34.3573 36.7258 34.364 36.707 34.3726 36.6891C34.3903 36.6489 34.4125 36.5971 34.4392 36.5337C34.4551 36.4998 34.471 36.4618 34.4889 36.4216C34.5069 36.3814 34.5312 36.3381 34.5556 36.2915C34.6042 36.1995 34.656 36.0917 34.7258 35.9807L34.8315 35.803C34.8685 35.7417 34.9129 35.6814 34.9563 35.6169C35.0398 35.4858 35.1434 35.3568 35.2492 35.2183C35.4883 34.9253 35.7499 34.6513 36.0316 34.3989C36.3174 34.1511 36.6225 33.9266 36.9441 33.7275C37.0942 33.6397 37.2359 33.5541 37.3765 33.4875C37.4453 33.4526 37.5108 33.4166 37.5764 33.387L37.7656 33.3045C37.8862 33.2485 37.9993 33.2115 38.0966 33.1755C38.1463 33.1576 38.1918 33.1396 38.234 33.1258L38.3514 33.0909L38.5142 33.0444C38.5314 33.0384 38.5491 33.0341 38.5671 33.0317Z" fill="#263238"/>
<path d="M35.8928 34.4761C35.6205 34.5803 35.3427 34.6696 35.0607 34.7436C34.7832 34.8337 34.5008 34.9082 34.2148 34.9667C34.4871 34.862 34.7649 34.7724 35.047 34.6981C35.3247 34.6089 35.6071 34.5348 35.8928 34.4761Z" fill="#263238"/>
<path d="M35.8589 36.3159C35.8445 36.2303 35.8385 36.1436 35.8409 36.0568C35.8356 35.8961 35.8356 35.6751 35.8409 35.4298C35.8462 35.1845 35.861 34.9635 35.8747 34.8039C35.8769 34.717 35.8879 34.6306 35.9075 34.5459C35.9146 34.6325 35.9146 34.7194 35.9075 34.806C35.9011 34.9815 35.8948 35.1951 35.8874 35.4309C35.88 35.6667 35.8768 35.8813 35.8715 36.0568C35.8744 36.1434 35.8702 36.23 35.8589 36.3159Z" fill="#263238"/>
<path d="M37.4323 35.5143C37.4196 35.5143 37.3773 35.065 37.3393 34.5088C37.3012 33.9526 37.2801 33.5001 37.2928 33.499C37.3054 33.498 37.3477 33.9484 37.3869 34.5056C37.426 35.0628 37.4461 35.5133 37.4323 35.5143Z" fill="#263238"/>
<path d="M35.4746 33.4558C35.563 33.445 35.6522 33.4422 35.7411 33.4474C35.906 33.4474 36.1323 33.4537 36.3829 33.4622C36.6335 33.4706 36.8608 33.4801 37.0257 33.4896C37.1149 33.4895 37.2038 33.4984 37.2911 33.5161C37.2027 33.5262 37.1135 33.5286 37.0247 33.5235C36.8597 33.5235 36.6324 33.5182 36.3818 33.5097C36.1312 33.5013 35.9039 33.4907 35.74 33.4812C35.651 33.4808 35.5621 33.4723 35.4746 33.4558Z" fill="#263238"/>
<path d="M39.2532 38.936C39.2492 38.9186 39.2474 38.9009 39.2479 38.8831C39.2479 38.8429 39.2479 38.7922 39.2405 38.7298C39.2342 38.5966 39.2331 38.4041 39.2405 38.1662C39.2479 37.9283 39.2606 37.645 39.2892 37.332C39.3177 37.019 39.3653 36.6754 39.4298 36.3169C39.4943 35.9585 39.5746 35.6212 39.656 35.3167C39.7375 35.0122 39.8242 34.7426 39.9045 34.5173C39.9849 34.2921 40.0526 34.1124 40.1054 33.9887L40.1657 33.847C40.1717 33.8298 40.1798 33.8134 40.19 33.7983C40.1865 33.8161 40.1812 33.8335 40.1741 33.8501L40.1223 33.995C40.0748 34.1187 40.0113 34.3006 39.9362 34.5237C39.8612 34.7468 39.7798 35.0206 39.6983 35.3241C39.6169 35.6275 39.5419 35.9648 39.4763 36.3212C39.4107 36.6775 39.3706 37.0201 39.3336 37.332C39.2966 37.6439 39.2828 37.9262 39.2743 38.1631C39.2659 38.3999 39.2532 38.5997 39.2532 38.7298C39.2532 38.7922 39.2532 38.8429 39.2532 38.8831C39.255 38.9007 39.255 38.9184 39.2532 38.936Z" fill="#263238"/>
<path d="M39.4642 36.3306C39.4186 36.395 39.3653 36.4536 39.3056 36.505C39.1998 36.6108 39.0571 36.745 38.89 36.892C38.723 37.039 38.5728 37.1648 38.4523 37.2536C38.3931 37.3056 38.3282 37.3506 38.2588 37.3879C38.3108 37.3288 38.3686 37.275 38.4311 37.2272L38.8541 36.8561L39.277 36.4807C39.3348 36.4252 39.3975 36.375 39.4642 36.3306Z" fill="#263238"/>
<path d="M40.7207 37.3457C40.6578 37.2724 40.6012 37.1938 40.5515 37.111L40.1582 36.5379C40.006 36.3211 39.8674 36.1266 39.7564 35.969C39.6969 35.8931 39.6432 35.8129 39.5957 35.729C39.6643 35.7971 39.7273 35.8706 39.7839 35.9489C39.8896 36.0896 40.0419 36.2862 40.1973 36.5104C40.3528 36.7345 40.486 36.9407 40.579 37.093C40.6333 37.1731 40.6807 37.2576 40.7207 37.3457Z" fill="#263238"/>
<path d="M40.0609 34.1588C40.0672 34.1704 39.6496 34.4517 39.1262 34.7932C38.6028 35.1347 38.1746 35.3938 38.1661 35.3821C38.1577 35.3705 38.5774 35.0893 39.0998 34.7477C39.6221 34.4062 40.0535 34.144 40.0609 34.1588Z" fill="#263238"/>
<path d="M41.2396 35.4279C40.8074 35.0495 40.3962 34.6479 40.0078 34.2246C40.2295 34.4081 40.4413 34.6033 40.6422 34.8093C40.8528 35.0041 41.0523 35.2106 41.2396 35.4279Z" fill="#263238"/>
<path d="M41.5372 35.4022L41.8956 35.3726C42.1506 35.3519 42.3981 35.2761 42.621 35.1505C42.7298 35.0866 42.8429 35.0301 42.9593 34.9813C43.4034 34.8026 43.8993 34.8344 44.3762 34.81C45.1589 34.7706 45.9258 34.5746 46.6315 34.2338C46.6725 34.2149 46.7068 34.1839 46.7298 34.145C46.8028 34.0107 46.6664 33.8912 46.5479 33.8183C45.9431 33.445 45.3278 33.0675 44.6447 32.8825C43.9617 32.6975 43.1792 32.7292 42.5935 33.132C41.9062 33.6047 41.6567 34.5764 41.5361 35.4022" fill="#25CA80"/>
<path d="M46.737 34.1007C46.716 34.0932 46.6958 34.0836 46.6767 34.0721L46.5065 33.9833C46.3584 33.9061 46.1459 33.7909 45.8721 33.6661C45.5595 33.5129 45.234 33.3877 44.8993 33.2918C44.4899 33.1736 44.0612 33.1377 43.6379 33.1861C43.2141 33.2335 42.8138 33.4053 42.4875 33.6799C42.2327 33.9183 42.029 34.2061 41.889 34.5257C41.7914 34.7398 41.7046 34.9586 41.6289 35.1813C41.6014 35.2564 41.5803 35.3166 41.5644 35.3621C41.5583 35.3838 41.5498 35.4047 41.5391 35.4245C41.5428 35.4023 41.5481 35.3804 41.5549 35.3589C41.5697 35.3124 41.5877 35.2532 41.611 35.175C41.6798 34.9491 41.7624 34.7277 41.8584 34.512C41.9965 34.1868 42.2011 33.894 42.459 33.6524C42.7902 33.3695 43.1986 33.1923 43.6315 33.1438C44.0608 33.0924 44.496 33.1284 44.9109 33.2495C45.2477 33.3476 45.5744 33.4771 45.8869 33.6365C46.1544 33.7697 46.3648 33.8882 46.5096 33.9717L46.6756 34.0679C46.6971 34.0769 46.7176 34.0879 46.737 34.1007Z" fill="#263238"/>
<path d="M45.8751 34.5641C45.8677 34.5757 45.3972 34.2712 44.8262 33.8863C44.2553 33.5014 43.7964 33.1789 43.8038 33.1673C43.8112 33.1557 44.2807 33.4602 44.8527 33.8461C45.4247 34.2321 45.8825 34.5535 45.8751 34.5641Z" fill="#263238"/>
<path d="M45.374 33.1426C45.2636 33.1801 45.1481 33.2008 45.0315 33.2039C44.9162 33.2213 44.7989 33.2213 44.6836 33.2039C44.7974 33.1834 44.9127 33.1717 45.0283 33.169C45.1426 33.151 45.2583 33.1421 45.374 33.1426Z" fill="#263238"/>
<path d="M43.3177 32.8755C43.2795 32.9633 43.2274 33.0444 43.1633 33.1155C43.1096 33.1986 43.044 33.2734 42.9688 33.3376C43.0073 33.2512 43.0594 33.1716 43.1231 33.1018C43.1766 33.0173 43.2422 32.9411 43.3177 32.8755Z" fill="#263238"/>
<path d="M43.738 34.8408C43.6587 34.8077 43.5828 34.7666 43.5118 34.7182C43.3764 34.6357 43.1946 34.5152 42.9968 34.3735C42.7991 34.2318 42.6289 34.0964 42.5041 33.9981C42.4344 33.9483 42.3693 33.8924 42.3096 33.8311C42.3844 33.8707 42.4552 33.9175 42.521 33.9706L43.0222 34.3344C43.2168 34.476 43.3965 34.6008 43.5276 34.6896C43.6017 34.7342 43.6721 34.7848 43.738 34.8408Z" fill="#263238"/>
<path d="M42.066 36.9282C41.7234 36.8383 41.3153 37.1714 41.2445 37.5182C41.1736 37.865 41.3037 38.2203 41.4559 38.5407C41.7815 39.2589 42.266 39.8937 42.8728 40.3974C43.4842 40.9002 44.2478 41.1812 45.0393 41.1946C44.8944 40.5221 45.0773 39.8201 44.997 39.1359C44.9256 38.5339 44.6523 37.9739 44.2215 37.5474C43.7907 37.1208 43.228 36.853 42.6254 36.7876C42.4065 36.7643 42.1527 36.7294 42.066 36.9314" fill="#25CA80"/>
<path d="M45.0387 41.1913C45.0216 41.1856 45.0052 41.1778 44.99 41.168C44.9442 41.1439 44.901 41.1153 44.861 41.0824C44.7176 40.9573 44.6026 40.803 44.5238 40.6298C44.4688 40.5241 44.4074 40.4088 44.3482 40.282L44.1632 39.8738C44.0974 39.7238 44.0218 39.5783 43.9369 39.4382C43.8439 39.2897 43.74 39.1484 43.6261 39.0153C43.3913 38.7393 43.1397 38.5014 42.9208 38.2751C42.7238 38.0764 42.5445 37.8609 42.3847 37.6312C42.2773 37.4752 42.1889 37.307 42.1215 37.13C42.1003 37.0666 42.0845 37.0179 42.076 36.983C42.07 36.966 42.0664 36.9482 42.0654 36.9302C42.0654 36.9302 42.0887 37 42.1394 37.1237C42.2124 37.2959 42.3039 37.4597 42.4122 37.6122C42.5747 37.838 42.7554 38.0502 42.9525 38.2466C43.1714 38.4718 43.4252 38.7097 43.662 38.9867C43.7787 39.1218 43.8847 39.2656 43.9792 39.4171C44.0638 39.5595 44.1393 39.7071 44.2055 39.859L44.3863 40.2682C44.4434 40.3951 44.5026 40.5114 44.5555 40.6182C44.6292 40.7894 44.7371 40.9438 44.8727 41.0718C44.9731 41.1543 45.0408 41.187 45.0387 41.1913Z" fill="#263238"/>
<path d="M43.2715 40.632C43.2743 40.5543 43.285 40.477 43.3032 40.4015C43.3307 40.2608 43.374 40.0673 43.4333 39.8559C43.4925 39.6444 43.557 39.4572 43.6077 39.3272C43.6311 39.2536 43.6623 39.1827 43.7008 39.1157C43.6874 39.1922 43.6669 39.2672 43.6394 39.3399C43.5971 39.4763 43.539 39.6655 43.4798 39.8749C43.4206 40.0842 43.374 40.2767 43.336 40.4152C43.3218 40.4894 43.3002 40.5621 43.2715 40.632Z" fill="#263238"/>
<path d="M44.9733 38.9816C44.8914 38.9699 44.8108 38.9511 44.7322 38.9255C44.5852 38.8875 44.3812 38.8346 44.1538 38.7838C43.9265 38.7331 43.7203 38.6929 43.5702 38.6644C43.4883 38.6539 43.4076 38.6359 43.3291 38.6104C43.4117 38.6095 43.4941 38.6162 43.5755 38.6305C43.7277 38.6506 43.9371 38.6855 44.1644 38.7363C44.3917 38.787 44.5958 38.842 44.7417 38.8927C44.822 38.9134 44.8997 38.9432 44.9733 38.9816Z" fill="#263238"/>
<path d="M41.9961 39.4603C42.0001 39.3706 42.0125 39.2814 42.0331 39.1939C42.0638 39.03 42.1113 38.8058 42.1758 38.5595C42.2403 38.3131 42.308 38.0932 42.3609 37.9367C42.386 37.85 42.4189 37.7658 42.4592 37.6851C42.4447 37.7738 42.4228 37.8612 42.3937 37.9462C42.3482 38.1059 42.2879 38.3258 42.2213 38.5711C42.1547 38.8164 42.105 39.0385 42.0659 39.2002C42.0506 39.2889 42.0272 39.3759 41.9961 39.4603Z" fill="#263238"/>
<path d="M44.1874 37.5425C44.1874 37.5552 43.7581 37.5214 43.2358 37.4653C42.7135 37.4093 42.2842 37.3532 42.2842 37.3406C42.2842 37.3279 42.7135 37.3617 43.2358 37.4177C43.7581 37.4738 44.1885 37.5298 44.1874 37.5425Z" fill="#263238"/>
<path d="M43.8744 42.7289C43.8744 42.7416 42.3708 42.7522 40.5173 42.7522C38.6638 42.7522 37.1592 42.7416 37.1592 42.7289C37.1592 42.7162 38.6627 42.7046 40.5173 42.7046C42.3719 42.7046 43.8744 42.7152 43.8744 42.7289Z" fill="#455A64"/>
<path d="M42.8291 44.6624C42.8291 44.6762 41.8161 44.6867 40.5663 44.6867C39.3166 44.6867 38.3047 44.6762 38.3047 44.6624C38.3047 44.6487 39.3176 44.6392 40.5663 44.6392C41.8151 44.6392 42.8291 44.6497 42.8291 44.6624Z" fill="#455A64"/>
<path d="M42.7885 44.9438C42.7885 44.9564 41.7935 44.967 40.5681 44.967C39.3426 44.967 38.3477 44.9564 38.3477 44.9438C38.3477 44.9311 39.3426 44.9194 40.5681 44.9194C41.7935 44.9194 42.7885 44.9258 42.7885 44.9438Z" fill="#455A64"/>
<path d="M42.8683 44.4355C42.8683 44.4481 41.8205 44.4587 40.5284 44.4587C39.2363 44.4587 38.1885 44.4481 38.1885 44.4355C38.1885 44.4228 39.2363 44.4111 40.5284 44.4111C41.8205 44.4111 42.8683 44.4217 42.8683 44.4355Z" fill="#455A64"/>
<path d="M42.425 3.6937C42.425 3.70956 41.7155 3.71802 40.8389 3.71379C39.9624 3.70956 39.2529 3.69264 39.2529 3.67784C39.2529 3.66303 39.9624 3.65352 40.8389 3.65775C41.7155 3.66198 42.425 3.67889 42.425 3.6937Z" fill="#263238"/>
<path d="M40.8509 5.27018C40.8361 5.27018 40.8171 4.56176 40.8076 3.68416C40.7981 2.80657 40.8076 2.09814 40.8192 2.09814C40.8309 2.09814 40.8541 2.80657 40.8626 3.68416C40.871 4.56176 40.8668 5.27018 40.8509 5.27018Z" fill="#263238"/>
<path d="M44.0914 27.3582C43.7594 27.2198 43.4347 27.0645 43.1186 26.893C42.7927 26.7376 42.475 26.5654 42.167 26.377C42.1733 26.3643 42.609 26.5726 43.1398 26.8433C43.6705 27.114 44.0988 27.3455 44.0914 27.3582Z" fill="#263238"/>
<path d="M42.6553 27.8361C42.7885 27.5017 42.9392 27.1745 43.1068 26.8559C43.257 26.5303 43.4239 26.2127 43.6069 25.9043C43.4732 26.2385 43.3225 26.5656 43.1554 26.8845C43.0049 27.2099 42.8379 27.5275 42.6553 27.8361Z" fill="#263238"/>
<path d="M6.13718 19.9133C6.13718 19.9281 5.636 20.1427 5.00688 20.3933C4.37776 20.6439 3.86177 20.8364 3.85649 20.8226C3.8512 20.8089 4.35661 20.5932 4.98679 20.3426C5.61696 20.092 6.13083 19.8995 6.13718 19.9133Z" fill="#263238"/>
<path d="M4.96965 19.2259C4.96965 19.2259 4.95167 19.1952 4.91361 19.1466C4.8597 19.0793 4.78555 19.0311 4.70214 19.0091C4.63511 18.9913 4.56442 18.9924 4.49798 19.0123C4.43154 19.0323 4.37196 19.0703 4.32588 19.1222C4.2798 19.174 4.24904 19.2377 4.23703 19.306C4.22502 19.3743 4.23224 19.4447 4.25788 19.5091C4.28352 19.5736 4.32657 19.6297 4.38222 19.6711C4.43788 19.7125 4.50395 19.7376 4.57306 19.7437C4.64217 19.7497 4.7116 19.7364 4.7736 19.7053C4.83561 19.6742 4.88774 19.6264 4.92418 19.5674C4.97026 19.494 4.99105 19.4074 4.98339 19.3211C4.98339 19.2597 4.96542 19.227 4.96965 19.2248C4.98897 19.2528 5.00097 19.2851 5.00454 19.3189C5.02153 19.4111 5.00504 19.5064 4.95801 19.5875C4.92324 19.6491 4.87335 19.7009 4.81305 19.7379C4.75274 19.7749 4.684 19.7959 4.61332 19.799C4.52611 19.8022 4.44003 19.7783 4.3669 19.7307C4.29378 19.6831 4.23717 19.614 4.20486 19.5329C4.17255 19.4518 4.16611 19.3628 4.18642 19.2779C4.20673 19.193 4.25281 19.1165 4.31832 19.0588C4.37121 19.0123 4.43507 18.98 4.50389 18.9651C4.57271 18.9501 4.64422 18.9529 4.71165 18.9732C4.80162 18.9992 4.87928 19.0566 4.93052 19.135C4.95057 19.1618 4.96398 19.1929 4.96965 19.2259Z" fill="#263238"/>
<path d="M5.76319 21.2149C5.7579 21.2149 5.74521 21.1842 5.70715 21.1356C5.65355 21.0679 5.57928 21.0197 5.49568 20.9981C5.43496 20.9826 5.37135 20.9823 5.31048 20.9972C5.24961 21.0121 5.19337 21.0419 5.14676 21.0838C5.09016 21.1348 5.05055 21.202 5.03326 21.2762C5.01596 21.3505 5.02182 21.4282 5.05003 21.4991C5.07824 21.5699 5.12745 21.6303 5.19106 21.6724C5.25466 21.7144 5.3296 21.7359 5.4058 21.7341C5.46922 21.7335 5.53147 21.717 5.58688 21.6861C5.64229 21.6553 5.68909 21.6111 5.72301 21.5575C5.76859 21.4838 5.78934 21.3975 5.78222 21.3111C5.78222 21.2498 5.76319 21.217 5.76847 21.2149C5.78767 21.2425 5.79967 21.2745 5.80337 21.3079C5.82002 21.4006 5.80316 21.4962 5.75579 21.5776C5.72126 21.6392 5.67158 21.6909 5.61144 21.7279C5.5513 21.7649 5.4827 21.786 5.41215 21.789C5.32493 21.7923 5.23886 21.7684 5.16573 21.7208C5.0926 21.6731 5.036 21.604 5.00369 21.523C4.97138 21.4419 4.96494 21.3528 4.98525 21.2679C5.00556 21.1831 5.05164 21.1066 5.11715 21.0489C5.17033 21.0029 5.23415 20.9709 5.30283 20.9557C5.37151 20.9406 5.44288 20.9428 5.51048 20.9622C5.60024 20.9892 5.67768 21.0468 5.72935 21.125C5.74769 21.1518 5.7593 21.1827 5.76319 21.2149Z" fill="#263238"/>
<path d="M12.0489 8.92203C12.0489 8.92203 12.0605 8.95058 12.0806 9.00556C12.1007 9.06054 12.1303 9.14407 12.1684 9.2498C12.2445 9.46127 12.3566 9.77848 12.4993 10.1887L12.5067 10.2078H12.4856L11.1279 10.0196H11.1417C10.668 10.3916 10.1072 10.6366 9.51231 10.7311C9.34478 10.758 9.1755 10.7725 9.00584 10.7745C8.91914 10.7745 8.83138 10.7671 8.74257 10.765L8.6104 10.7586C8.56599 10.7586 8.52158 10.7459 8.47717 10.7396C8.10564 10.6943 7.74431 10.5871 7.4082 10.4224C7.04943 10.2486 6.72182 10.0167 6.43861 9.73618C6.06411 9.36227 5.77773 8.90952 5.60035 8.41092C5.42297 7.91232 5.35904 7.38043 5.41324 6.854C5.46743 6.32757 5.63837 5.81986 5.91362 5.36786C6.18886 4.91585 6.56147 4.53094 7.00429 4.24117C7.32061 4.03325 7.66886 3.87859 8.0352 3.78334L8.16949 3.74844L8.2361 3.73153L8.30377 3.72095L8.57445 3.68077C8.66432 3.67231 8.7542 3.6702 8.84407 3.66491C8.93277 3.65857 9.02182 3.65857 9.11052 3.66491C9.19828 3.67231 9.2871 3.66491 9.37274 3.68394L9.62968 3.72412C9.71427 3.73787 9.79674 3.7643 9.87921 3.78439L10.0019 3.81611C10.042 3.8288 10.0812 3.84466 10.1203 3.85841C10.9895 4.15979 11.7068 4.78835 12.1197 5.61043C12.3353 6.0388 12.4619 6.50637 12.4919 6.98497C12.5321 7.57726 12.4184 8.16986 12.162 8.70527C12.1271 8.77611 12.0996 8.82898 12.0806 8.86282C12.0616 8.89665 12.0489 8.91568 12.0489 8.91568C12.0489 8.91568 12.0563 8.89771 12.0743 8.86176C12.0922 8.82581 12.1197 8.77189 12.1514 8.70104C12.2459 8.494 12.3202 8.27837 12.3735 8.05712C12.4594 7.70737 12.4887 7.34611 12.4602 6.98709C12.4159 6.29805 12.1689 5.63747 11.7503 5.08834C11.3318 4.53921 10.7603 4.12603 10.1076 3.9007C10.0685 3.88695 10.0304 3.87215 9.99023 3.85946L9.86969 3.82774C9.78828 3.80871 9.70686 3.78228 9.62333 3.76959L9.36957 3.73047C9.28498 3.71567 9.19828 3.71884 9.11052 3.71249C9.02325 3.70562 8.93557 3.70562 8.8483 3.71249C8.76054 3.71249 8.67172 3.71989 8.58291 3.7273L8.31646 3.76853L8.24984 3.77911L8.18323 3.79602L8.05106 3.82986C7.69053 3.92406 7.34795 4.07695 7.03707 4.2824C6.51693 4.62098 6.09618 5.09178 5.81794 5.64655C5.53971 6.20131 5.414 6.82009 5.4537 7.43945C5.49341 8.05881 5.6971 8.65647 6.04389 9.17117C6.39069 9.68586 6.86811 10.0991 7.42723 10.3685C7.7594 10.5328 8.11683 10.64 8.48457 10.6857C8.52793 10.692 8.57128 10.7005 8.61568 10.7047L8.7468 10.7111C8.83456 10.7111 8.9202 10.7237 9.00584 10.7216C9.17335 10.7204 9.34052 10.7066 9.50597 10.6804C10.0946 10.5898 10.6504 10.3503 11.1205 9.98466H11.1269H11.1279L12.4877 10.1792L12.4739 10.1951C12.3354 9.78588 12.2286 9.46762 12.1567 9.24346L12.0753 8.99921C12.0563 8.95058 12.0489 8.92203 12.0489 8.92203Z" fill="#263238"/>
<path d="M9.13604 6.39509C9.16006 6.40677 9.18032 6.42494 9.19453 6.44756C9.20874 6.47018 9.21631 6.49633 9.21639 6.52303V7.22723C9.21622 7.24898 9.21104 7.27041 9.20125 7.28984C9.19146 7.30927 9.17732 7.32619 9.15994 7.33928C9.14256 7.35237 9.12239 7.36128 9.10101 7.36531C9.07963 7.36935 9.05761 7.36841 9.03665 7.36257C8.97859 7.34772 8.91814 7.34476 8.85891 7.35384C8.79968 7.36292 8.74289 7.38387 8.69195 7.41543C8.64528 7.44258 8.60456 7.47886 8.57223 7.52209C8.53989 7.56533 8.5166 7.61464 8.50374 7.66708C8.49485 7.72057 8.49663 7.7753 8.50897 7.8281C8.52131 7.88091 8.54397 7.93075 8.57564 7.97477C8.60906 8.0244 8.65195 8.06694 8.70185 8.09997C8.75175 8.13299 8.80767 8.15584 8.86641 8.1672C8.98573 8.17915 9.10555 8.15017 9.20623 8.08504C9.3069 8.01991 9.38245 7.92249 9.42046 7.80876C9.43338 7.77498 9.45872 7.74742 9.4913 7.73172C9.52388 7.71602 9.56123 7.71338 9.5957 7.72433C9.63017 7.73527 9.65914 7.75899 9.67669 7.79061C9.69424 7.82223 9.69903 7.85937 9.69009 7.89441C9.63102 8.07226 9.5124 8.22429 9.35426 8.32484C9.19611 8.42539 9.00812 8.46831 8.82201 8.44634C8.72543 8.42922 8.63327 8.39289 8.55099 8.33949C8.46871 8.28609 8.398 8.21672 8.34303 8.13548C8.28908 8.05971 8.25098 7.97384 8.23099 7.883C8.21101 7.79216 8.20956 7.69823 8.22672 7.60681C8.24742 7.51667 8.28621 7.43168 8.34073 7.35698C8.39526 7.28228 8.46439 7.21943 8.54392 7.17224C8.66134 7.10167 8.79604 7.06506 8.93303 7.06651V6.52303C8.93303 6.48564 8.94781 6.44976 8.97415 6.42322C9.00049 6.39668 9.03626 6.38163 9.07365 6.38135C9.09521 6.38123 9.11652 6.38593 9.13604 6.39509Z" fill="#25CA80"/>
<path d="M8.94145 6.09895C8.94082 6.07591 8.94706 6.05321 8.95936 6.03372C8.97166 6.01423 8.98947 5.99884 9.01054 5.98949C9.0316 5.98014 9.05497 5.97726 9.07767 5.98122C9.10038 5.98517 9.12139 5.99578 9.13806 6.0117C9.15472 6.02762 9.16628 6.04813 9.17127 6.07063C9.17625 6.09313 9.17444 6.11661 9.16607 6.13808C9.15769 6.15955 9.14312 6.17804 9.12422 6.19122C9.10531 6.2044 9.08291 6.21166 9.05987 6.21209C9.02928 6.21238 8.99978 6.20072 8.97766 6.17959C8.95554 6.15846 8.94255 6.12952 8.94145 6.09895Z" fill="#25CA80"/>
</svg>
